<svg xmlns="http://www.w3.org/2000/svg" xmlns:xlink="http://www.w3.org/1999/xlink" viewBox="0 0 1920 1080"><defs><style>.cls-1{fill:none;}.cls-2{clip-path:url(#clip-path);}.cls-3{fill:url(#radial-gradient);}.cls-4{fill:url(#radial-gradient-2);}.cls-5{fill:#fff;}.cls-6{fill:url(#radial-gradient-3);}.cls-7{clip-path:url(#clip-path-2);}.cls-8{fill:url(#radial-gradient-4);}.cls-9{opacity:0.33;}</style><clipPath id="clip-path"><rect class="cls-1" x="-14" y="-1264" width="1920" height="1080"/></clipPath><radialGradient id="radial-gradient" cx="2144.32" cy="-606.38" r="1105.75" gradientUnits="userSpaceOnUse"><stop offset="0.03" stop-color="#d0916d"/><stop offset="0.34" stop-color="#c69f71"/><stop offset="0.49" stop-color="#bfa773"/><stop offset="0.73" stop-color="#91b289"/><stop offset="1" stop-color="#58c0a5"/></radialGradient><radialGradient id="radial-gradient-2" cx="1393.62" cy="55" r="542.79" gradientUnits="userSpaceOnUse"><stop offset="0" stop-color="#23277f" stop-opacity="0.4"/><stop offset="0.52" stop-color="#252d80" stop-opacity="0.39"/><stop offset="0.7" stop-color="#2c4185" stop-opacity="0.33"/><stop offset="0.83" stop-color="#38658e" stop-opacity="0.24"/><stop offset="0.94" stop-color="#4a979b" stop-opacity="0.11"/><stop offset="1" stop-color="#58c0a5" stop-opacity="0"/></radialGradient><radialGradient id="radial-gradient-3" cx="698.4" cy="78.75" r="552.51" xlink:href="#radial-gradient"/><clipPath id="clip-path-2"><circle class="cls-1" cx="376.7" cy="381.49" r="339.53"/></clipPath><radialGradient id="radial-gradient-4" cx="448.01" cy="417.25" r="324.41" xlink:href="#radial-gradient-2"/></defs><g id="Layer_1" data-name="Layer 1"><g class="cls-2"><circle class="cls-3" cx="1500.5" cy="-0.5" r="679.5"/><ellipse class="cls-4" cx="1393.62" cy="55" rx="546.55" ry="539"/></g></g><g id="Layer_6" data-name="Layer 6"><path class="cls-5" d="M1373.55,878.5a1.5,1.5,0,0,0,0-3,1.5,1.5,0,0,0,0,3Z"/><circle class="cls-6" cx="376.7" cy="381.49" r="339.53"/><g class="cls-7"><ellipse class="cls-8" cx="448.01" cy="417.25" rx="326.65" ry="322.14"/></g><g class="cls-9"><path class="cls-5" d="M196.26,461.57c2.65.31,5.48-1.57,6.78-3.75a7.77,7.77,0,0,0,1.1-4.23,8.36,8.36,0,0,0-8.1-8.15c-3.87-.18-7.35,3.12-8.1,6.75-.45,2.17-.08,4.15.09,6.32a96.76,96.76,0,0,1-.62,19.91l.27-2c-1.87,13.85-6.32,27.16-11.73,40l.76-1.79c-4.19,9.89-9,19.53-13.77,29.12-1.45,2.89-1.37,6.76,1.17,9.09A7.84,7.84,0,0,0,173.2,554c1-.49,2-1,3.05-1.4l-1.79.75a60.55,60.55,0,0,1,15.24-4.12l-2,.27a70.91,70.91,0,0,1,18.41.07l-2-.27a80.68,80.68,0,0,1,20.34,5.59l-1.79-.76a92.6,92.6,0,0,1,11.22,5.74q2.73,1.64,5.35,3.44c.78.55,1.57,1.1,2.34,1.67l1.32,1,.65.5c.81.61-.34-.3-.54-.42a41.43,41.43,0,0,1,4.92,4.06c1.61,1.4,3.18,2.83,4.72,4.31,3,2.86,5.84,5.86,8.58,9,1.6,1.8,3.17,3.65,4.69,5.52.74.91,1.48,1.82,2.2,2.74l.51.65c.62.79-.26-.35-.41-.54.43.53.83,1.1,1.25,1.64a8.24,8.24,0,0,0,4.48,3.45,7.67,7.67,0,0,0,5.78-.76c3.25-2.09,5-6.77,2.69-10.26A83.54,83.54,0,0,1,275,572l.75,1.8a90.53,90.53,0,0,1-6.09-22.44l.27,2a94.17,94.17,0,0,1,0-24.82l-.26,2a89.71,89.71,0,0,1,6.07-22.45l-.76,1.79a83.93,83.93,0,0,1,8-14.75,7.44,7.44,0,0,0,0-7.57c-1.21-2.05-4-4-6.48-3.71a82.52,82.52,0,0,1-21.47-.06l2,.26a88.42,88.42,0,0,1-22.5-6.19l1.79.76a89.63,89.63,0,0,1-16.84-9.41l-1.94-1.43a3.54,3.54,0,0,0-.45-.34c-.11-.05,1.39,1.09.79.61l-1-.81c-1.25-1-2.48-2.06-3.67-3.14a81.17,81.17,0,0,1-6.88-7c-.57-.66-1.13-1.32-1.68-2l-.81-1c-.73-.91.47.6.49.64a5.11,5.11,0,0,0-.45-.59q-1.68-2.23-3.19-4.57c-2.14-3.29-6.75-5-10.27-2.69-3.28,2.11-5,6.74-2.69,10.26a92.56,92.56,0,0,0,29.16,28.29,96.86,96.86,0,0,0,38.35,13.37,82.38,82.38,0,0,0,21.28,0l-6.48-11.29c-8.39,12.28-13.21,26.5-15.14,41.17A97,97,0,0,0,258.78,571a91.42,91.42,0,0,0,10.7,22.38l12.95-7.57c-10.51-13.89-22.4-26.66-37-36.36s-32.12-15.75-49.83-15.52a69.5,69.5,0,0,0-30,7.13l10.26,10.26c12.1-24.06,24.11-48.87,26.89-76a98.69,98.69,0,0,0,.51-10.73c0-1.72-.08-3.45-.2-5.17a51.18,51.18,0,0,1-.42-5.23l-.27,2a2.4,2.4,0,0,1,.13-.59l-.76,1.8-2.14,2.07-1.79.76.2,0h-4l.17,0-1.79-.76-2.32-2.27-.76-1.79.06.19-.27-2,0,.18.27-2,0,.16.76-1.79-.07.11,2.69-2.69-.13.06,3.79-1-.18,0c-1.78-.21-4.09,1-5.3,2.2a7.5,7.5,0,0,0,0,10.61,8.66,8.66,0,0,0,5.3,2.19Z"/></g><g class="cls-9"><path class="cls-5" d="M234.52,604a4,4,0,0,1,.68-.36l-1.8.75a4.2,4.2,0,0,1,.86-.23l-2,.27a4.44,4.44,0,0,1,1,0l-2-.27a5.09,5.09,0,0,1,1.23.34l-1.79-.76a5.71,5.71,0,0,1,1.26.74l-1.52-1.18a6.3,6.3,0,0,1,1.1,1.09l-1.18-1.51A5.13,5.13,0,0,1,231,604l-.75-1.8a5,5,0,0,1,.3,1.07l-.27-2a3.55,3.55,0,0,1,0,1l.27-2a3.71,3.71,0,0,1-.25.88l.76-1.79-.07.14,4.49-3.45-.36.07,2-.27a4.58,4.58,0,0,1-1.17,0l2,.27a5.12,5.12,0,0,1-1.22-.33l1.79.75a5.67,5.67,0,0,1-1.26-.73L238.8,597a5.89,5.89,0,0,1-.9-.9l1.17,1.52a5.15,5.15,0,0,1-.63-1.09l.75,1.79a5.26,5.26,0,0,1-.27-1,8.33,8.33,0,0,0-3.45-4.48,5.51,5.51,0,0,0-2.79-.89,5.64,5.64,0,0,0-3,.13l-1.79.76a7.46,7.46,0,0,0-2.69,2.69l-.76,1.79a7.71,7.71,0,0,0,0,4,12.51,12.51,0,0,0,1.05,2.79,4.82,4.82,0,0,0,.57,1,14.07,14.07,0,0,0,1.88,2.28c.59.53,1.24,1,1.87,1.46a4.32,4.32,0,0,0,.5.33,3.62,3.62,0,0,0,.48.25,23.4,23.4,0,0,0,2.26.94,13.34,13.34,0,0,0,3,.5,8.13,8.13,0,0,0,2.08-.14c.39-.05.82-.09,1.22-.16l.13,0,.9-.38a3.77,3.77,0,0,0,1.65-1l.76-.59,1.18-1.52s0-.07,0-.11c.19-.33.63-1.46.78-1.82a.88.88,0,0,0,.05-.15,3.22,3.22,0,0,0,.14-.44,21.48,21.48,0,0,0,.34-2.39,4,4,0,0,0,0-.92,12.68,12.68,0,0,0-.48-2.85c-.27-.72-.58-1.43-.9-2.13-.07-.15-.15-.29-.23-.44a17.35,17.35,0,0,0-1.68-2.23,6.34,6.34,0,0,0-.68-.69c-.58-.5-1.2-1-1.82-1.42l-.41-.29a12.83,12.83,0,0,0-1.72-.8,8.79,8.79,0,0,0-1.86-.67c-.8-.15-1.62-.26-2.43-.33a4.56,4.56,0,0,0-.52,0,20,20,0,0,0-2.43.32,4.54,4.54,0,0,0-.5.12,18.41,18.41,0,0,0-2.21.92,3.6,3.6,0,0,0-.5.29,5.76,5.76,0,0,0-2.11,1.93,6.76,6.76,0,0,0-1.47,5.55,5.5,5.5,0,0,0,.89,2.78l1.17,1.52a7.55,7.55,0,0,0,3.31,1.93l2,.27a7.51,7.51,0,0,0,3.79-1Z"/></g><g class="cls-9"><path class="cls-5" d="M317,555.08c.77-2.42,1.63-4.82,2.61-7.17l-.76,1.8a62.3,62.3,0,0,1,3-6.26c.59-1.05,1.22-2.09,1.89-3.09.3-.45.6-.89.92-1.33a4.52,4.52,0,0,1,.53-.71c-.25.23-1.18,1.49-.41.54a36.46,36.46,0,0,1,4.67-4.71c.61-.53-1.65,1.2-.57.43l.57-.4c.47-.33.95-.65,1.44-.95a27.3,27.3,0,0,1,3.1-1.57l-1.79.75a25.19,25.19,0,0,1,6.22-1.66l-2,.27a29.89,29.89,0,0,1,7.26.05l-2-.27a47.94,47.94,0,0,1,11.84,3.42l-1.79-.76a135.62,135.62,0,0,1,19.79,10.74c1.5,1,3,1.95,4.42,3,.41.28.81.58,1.21.87.23.18,1.42,1.08.43.32s.18.15.41.33l1.15.94a57.15,57.15,0,0,1,7.62,7.62c.18.21.34.42.51.63.59.72-1-1.31-.43-.55.28.39.57.77.84,1.16q.81,1.17,1.56,2.4a44.4,44.4,0,0,1,2.77,5.46l-.76-1.79a37.35,37.35,0,0,1,2.47,8.93l-.27-2a30.82,30.82,0,0,1,0,8l.26-2a28.55,28.55,0,0,1-1.87,6.78l.76-1.8a52.67,52.67,0,0,1-4,7c1.11-1.8.61-.77.22-.29l-.63.75c-.46.54-.94,1.07-1.43,1.59-1,1-1.94,1.93-3,2.83q-.74.64-1.5,1.26c-1.06.85.35-.08.44-.33a4.48,4.48,0,0,1-.94.69c-1.06.77-2.16,1.5-3.28,2.19a53.75,53.75,0,0,1-7.09,3.62l1.79-.76a56.49,56.49,0,0,1-13.93,3.79l2-.27a56,56,0,0,1-14.75,0l2,.27a50.85,50.85,0,0,1-12.69-3.43l1.79.75a46,46,0,0,1-7.72-4.17c-.61-.41-1.21-.85-1.8-1.28-1-.76,1.37,1.11.37.28l-.64-.53a38.25,38.25,0,0,1-2.94-2.75c-.9-.92-1.72-1.9-2.55-2.88s1.16,1.54.35.46l-.59-.81c-.39-.55-.77-1.1-1.14-1.66a47,47,0,0,1-3.76-7.12l.76,1.79a48.14,48.14,0,0,1-3.27-12l.27,2a45.18,45.18,0,0,1,0-12l-.27,2a40,40,0,0,1,2.65-9.85l-.76,1.79a37.26,37.26,0,0,1,4.43-7.76,7.54,7.54,0,0,0,.76-5.78,7.52,7.52,0,0,0-9.23-5.24,8.75,8.75,0,0,0-4.48,3.45c-11.95,16-10.67,39.67-.12,56.06a51.64,51.64,0,0,0,24.93,20c10.1,4,21.26,4.5,31.89,2.76,21.5-3.51,45-20.89,44-44.74-1.09-25.62-24.4-41.72-45.3-51.93a62.12,62.12,0,0,0-19.73-6.31,32.69,32.69,0,0,0-18.53,3.22c-10.08,5-16.15,15.14-20.26,25.14-.89,2.19-1.68,4.42-2.39,6.67a7.55,7.55,0,0,0,5.24,9.22,7.66,7.66,0,0,0,9.22-5.24Z"/></g><g class="cls-9"><path class="cls-5" d="M276.59,638.81c-3.33,8.1-1.88,18.58,3.25,25.64a26.68,26.68,0,0,0,11.34,9.26A28.1,28.1,0,0,0,318,671.27a24.11,24.11,0,0,0,9.49-13A20.35,20.35,0,0,0,325,642.45,36.52,36.52,0,0,0,314.43,632a34.47,34.47,0,0,0-16.22-6.45,20.84,20.84,0,0,0-16.39,5.6c-2.82,2.74-2.95,7.9,0,10.61a7.65,7.65,0,0,0,10.61,0,10.37,10.37,0,0,0,.83-.75c0,.21-1.63,1.16-.46.42a12.42,12.42,0,0,1,1.81-.94l-1.79.76a15.1,15.1,0,0,1,3.62-1l-2,.27a17.46,17.46,0,0,1,4.15,0l-2-.27a22.57,22.57,0,0,1,5.24,1.48L300,641a35.24,35.24,0,0,1,4.89,2.6c.7.45,1.4.92,2.09,1.4l1,.69c1.13.82-1.48-1.19-.13-.08a28.69,28.69,0,0,1,3.54,3.43c.48.56.69,1.35-.21-.3.18.33.45.63.66.94a18.69,18.69,0,0,1,1.26,2.33l-.76-1.79a14.11,14.11,0,0,1,1,3.61l-.27-2a12.71,12.71,0,0,1,0,3l.27-2a14.36,14.36,0,0,1-.91,3.23l.76-1.79a21.87,21.87,0,0,1-1.46,2.64c-.59.91.41-.64.49-.6s-.45.53-.49.58c-.38.43-.78.84-1.19,1.24-.26.24-1.61,1.34-.55.52s-.31.18-.61.37a20.26,20.26,0,0,1-2.73,1.43l1.79-.76a21.78,21.78,0,0,1-5.26,1.42l2-.27a23.19,23.19,0,0,1-5.46,0l2,.27a21.82,21.82,0,0,1-5.6-1.52l1.79.75a20,20,0,0,1-3.18-1.74c-.2-.14-.39-.29-.59-.42,1.77,1.16,1,.76.53.38s-.88-.79-1.29-1.21-.7-.8-1.05-1.19c1.64,1.78.32.42-.08-.2a21.68,21.68,0,0,1-1.66-3.12l.76,1.79a22.41,22.41,0,0,1-1.52-5.45l.27,2a21.73,21.73,0,0,1,0-5.64l-.27,2a20.31,20.31,0,0,1,1.3-4.77c.69-1.67.12-4.29-.75-5.78A7.53,7.53,0,0,0,280,634.32a8.8,8.8,0,0,0-3.44,4.49Z"/></g><g class="cls-9"><path class="cls-5" d="M141.68,519.2A327.61,327.61,0,0,1,127,489l.76,1.79A329.62,329.62,0,0,1,108,425.89q-1.84-9.43-3.13-19l.27,2a327.5,327.5,0,0,1-2.8-52.65,7.55,7.55,0,0,0-7.5-7.5,7.65,7.65,0,0,0-7.5,7.5,336,336,0,0,0,5.37,69.22,329,329,0,0,0,18.91,65.19,341.07,341.07,0,0,0,17.11,36.1A7.57,7.57,0,0,0,139,529.46a7.65,7.65,0,0,0,2.69-10.26Z"/></g><g class="cls-9"><path class="cls-5" d="M110.36,325.62a5.2,5.2,0,0,1-.27-1.1l.27,2a5.94,5.94,0,0,1,0-1.46l-.27,2a5.79,5.79,0,0,1,.4-1.48l-.76,1.79a6,6,0,0,1,.65-1.12,5.61,5.61,0,0,0,.89-2.79,5.74,5.74,0,0,0-.13-3,8.46,8.46,0,0,0-3.45-4.48l-1.79-.76a7.51,7.51,0,0,0-4,0l-1.79.76a7.38,7.38,0,0,0-2.69,2.69A12.74,12.74,0,0,0,96,321.63a5.72,5.72,0,0,0-.38,1.36,24.94,24.94,0,0,0-.32,2.6,5.1,5.1,0,0,0,0,.68c.07.76.19,1.53.3,2.28l.06.36c.06.24.12.47.2.7a8.46,8.46,0,0,0,3.45,4.48,5.61,5.61,0,0,0,2.79.89,5.74,5.74,0,0,0,3-.13l1.79-.76a7.46,7.46,0,0,0,2.69-2.69l.76-1.79a7.51,7.51,0,0,0,0-4Z"/></g><g class="cls-9"><path class="cls-5" d="M124.51,292.88l2-6.12a5.67,5.67,0,0,0,.13-3,5.5,5.5,0,0,0-.89-2.78,8.33,8.33,0,0,0-4.48-3.45l-2-.27a7.51,7.51,0,0,0-3.79,1L114,279.46a7.39,7.39,0,0,0-1.92,3.31l-2,6.12a7.23,7.23,0,0,0,2.69,7.89,5.61,5.61,0,0,0,2.55,1.34l2,.27a7.54,7.54,0,0,0,3.79-1l1.51-1.17a7.4,7.4,0,0,0,1.93-3.31Z"/></g><g class="cls-9"><path class="cls-5" d="M518.68,159a15,15,0,0,1,1.06-1.93c.29-.46-1.37,1.58-.24.34.23-.25.47-.49.71-.72.49-.45,1.34-.86-.48.31.28-.18.55-.4.83-.58a16,16,0,0,1,2.12-1.13l-1.79.76a18.7,18.7,0,0,1,4.34-1.23l-2,.27a20.11,20.11,0,0,1,5.2,0l-2-.27a30.23,30.23,0,0,1,7.1,2l-1.79-.76C538.3,159,544.42,163,550.3,167q4.38,2.94,8.59,6.13l1,.76c1.25.95-1.41-1.1-.18-.14l1.66,1.31c1.43,1.14,2.85,2.29,4.25,3.47a202.73,202.73,0,0,1,29,30.05c1,1.23-1.09-1.42-.14-.18l1,1.35c.59.79,1.18,1.58,1.76,2.38q1.78,2.44,3.44,5a68.34,68.34,0,0,1,5.75,10.65l-.75-1.79a41.25,41.25,0,0,1,2.83,10.16l-.27-2a31.33,31.33,0,0,1,0,7.92l.27-2a29.45,29.45,0,0,1-2,7.25l.75-1.79a31.58,31.58,0,0,1-3.37,5.93c-.12.18-.26.35-.38.53,1.33-2,.73-.94.36-.48s-.7.84-1.07,1.25c-.77.87-1.59,1.69-2.44,2.48-.41.38-.83.75-1.25,1.11s-1.85,1.48-.68.57.21-.17-.05,0l-.83.59c-.46.32-.93.63-1.41.94a44.45,44.45,0,0,1-6.34,3.32l1.79-.75a44.9,44.9,0,0,1-11.2,3.1l2-.27a44.73,44.73,0,0,1-11.9-.08l2,.27a60,60,0,0,1-14.68-4.11l1.8.76a80.22,80.22,0,0,1-13.23-7.19c-1-.68-2-1.39-3-2.11l-1.49-1.1-.83-.62.87.66-.65-.5c-2-1.54-3.84-3.13-5.69-4.78a147.34,147.34,0,0,1-10.83-10.67c-1.72-1.88-3.39-3.8-5-5.78-.39-.48-.78-1-1.16-1.45-.75-.94.36.48.41.54-.21-.26-.42-.54-.62-.82-.79-1-1.55-2.09-2.3-3.16a83.33,83.33,0,0,1-8.35-15l.75,1.8A62.26,62.26,0,0,1,504.09,195l.27,2a54.53,54.53,0,0,1,0-14l-.26,2a49.9,49.9,0,0,1,3.32-12.42l-.75,1.8a43.83,43.83,0,0,1,5.14-9c.36-.46.14-.19-.63.83.14-.19.29-.37.44-.55.3-.36.6-.71.91-1.06.55-.61,1.11-1.21,1.7-1.78s1.19-1.13,1.82-1.67c.36-.31.73-.59,1.09-.9-1.9,1.63-.57.46-.09.11a8.08,8.08,0,0,0,3.45-4.48,7.67,7.67,0,0,0-.76-5.78c-2-3.16-6.84-5.13-10.26-2.69A46.11,46.11,0,0,0,496.05,162a52.38,52.38,0,0,0-6.22,17.52,64.56,64.56,0,0,0-.05,20.53,70.29,70.29,0,0,0,6.46,19.53c5.92,12.26,15,23,24.77,32.38,10.11,9.69,21.54,18.06,34.68,23.11,12,4.63,25.76,5.64,38,1.09a52.51,52.51,0,0,0,16.68-9.85A41.06,41.06,0,0,0,621.11,251c5.53-13.61.66-28.53-6.79-40.36a164.91,164.91,0,0,0-13.1-17.6,199.38,199.38,0,0,0-13.73-14.9A209.47,209.47,0,0,0,554.7,151.9c-6.18-4-12.6-8-19.62-10.37s-15.59-2.21-22.09,2a18.85,18.85,0,0,0-7.26,8,8.18,8.18,0,0,0-.76,5.78,7.52,7.52,0,0,0,9.23,5.24c1.73-.57,3.71-1.71,4.48-3.45Z"/></g><g class="cls-9"><path class="cls-5" d="M634.47,313.17q-1.28,1.51-.69.87a2.73,2.73,0,0,1,.35-.33c.1.12-1.9,1.2-.44.5l-1.79.76a6.5,6.5,0,0,1,1.57-.42l-2,.26a7.78,7.78,0,0,1,1.67,0l-2-.27a7.33,7.33,0,0,1,1.6.46l-1.79-.76a9,9,0,0,0,1.38.77c-1-.79-1.18-.94-.58-.44.2.17.39.35.58.54a15.1,15.1,0,0,1,1.08,1.18c.18.21.35.41.51.63-.76-1-.91-1.18-.44-.56,1.37,1.95,2.75,3.89,4,5.91a89.74,89.74,0,0,1,6.77,12.5l-.76-1.8a28.5,28.5,0,0,1,2,6.83l-.27-2a15.44,15.44,0,0,1,0,4.13l.27-2a12.54,12.54,0,0,1-.67,2.47l.75-1.79a17.31,17.31,0,0,1-.87,1.65c-.61,1.08,1-1.12.42-.52-.2.2-.39.42-.59.62s-.35.29-.52.45c1.42-1.39,1.1-.82.55-.47a11.5,11.5,0,0,1-1.67.87l1.79-.76a13.84,13.84,0,0,1-3,.81l2-.27a14.75,14.75,0,0,1-3.87,0l2,.26a15.49,15.49,0,0,1-3.53-1l1.79.75a18.2,18.2,0,0,1-2.44-1.27c-.39-.24-.76-.51-1.15-.77s-.22-.14.73.58l-.62-.5a30.39,30.39,0,0,1-3.76-3.85c-.36-.43-1.28-1.81.06.11-.22-.32-.47-.63-.69-.95-.54-.75-1-1.52-1.52-2.31a41.86,41.86,0,0,1-2.54-4.94l.76,1.79a34.59,34.59,0,0,1-2.44-8.69l.27,2a27.87,27.87,0,0,1-.05-6.89l-.27,2a23.48,23.48,0,0,1,1.59-5.88l-.76,1.79c.21-.47.43-.94.66-1.4,1.77-3.5,1-8.3-2.69-10.27-3.41-1.8-8.37-1-10.26,2.7a33.92,33.92,0,0,0-.82,27.91,50.75,50.75,0,0,0,7.71,13.19A29.56,29.56,0,0,0,632.5,356c4.85,2.16,10.43,3,15.57,1.22a17.72,17.72,0,0,0,11.62-11.81c1.4-4.85.62-10.24-1.11-14.89a83.18,83.18,0,0,0-6.77-13.59c-1.4-2.33-2.89-4.61-4.46-6.82a30.81,30.81,0,0,0-5.6-6.6c-2.87-2.27-6.17-3.89-9.94-3.71a12.66,12.66,0,0,0-10.29,5.82,7.56,7.56,0,0,0,2.69,10.26,7.67,7.67,0,0,0,10.26-2.69Z"/></g><g class="cls-9"><path class="cls-5" d="M649,387.72l0,0c-.3-.14-.82-.35-.91-.39s-.61-.27-.92-.38h0a13.94,13.94,0,0,0-2-.27,7.53,7.53,0,0,0-3.89,1.05h0l-1.52,1.17h0l0,0a10.17,10.17,0,0,0-1.21,1.56,12.61,12.61,0,0,0-.78,1.86.14.14,0,0,0,0,.07v.05l-.27,2v0s0,0,0,.08a.25.25,0,0,0,0,.08q.09,1,.27,2.07a.19.19,0,0,1,0,.07l0,0h0c0,.07.72,1.73.76,1.8v0l0,.05,1.17,1.53h0l0,0,1.53,1.18h0a10,10,0,0,0,1.82.76h0c.06,0,2,.27,2,.27h0a9.73,9.73,0,0,0,2-.27h0a14.74,14.74,0,0,0,1.83-.77l0,0a5.76,5.76,0,0,0,2.1-1.94,5.61,5.61,0,0,0,1.34-2.55,8.37,8.37,0,0,0-.75-5.78l-1.18-1.51a7.4,7.4,0,0,0-3.31-1.93l-2-.27a7.53,7.53,0,0,0-3.79,1l-.06,0,1.79-.76-.06,0,2-.27H645l2,.27h0l1.79.75,0,0,1.51,1.17,0,0,1.17,1.52,0-.08.75,1.79a.94.94,0,0,1,0-.16l.27,2a.74.74,0,0,1,0-.21l-.27,2a.57.57,0,0,1,0-.14l-.75,1.79a.2.2,0,0,1,0-.08l-1.17,1.52,0,0-1.52,1.17,0,0-1.79.75h0l-2,.27h.05l-2-.27.06,0-1.79-.76.06,0a5.5,5.5,0,0,0,2.78.89,7.67,7.67,0,0,0,7.48-3.58l.75-1.79a7.51,7.51,0,0,0,0-4l-.75-1.79a7.62,7.62,0,0,0-2.69-2.69Z"/></g><path class="cls-5" d="M577.94,304.71c3.9.35,7.37,4.38,6.87,8.34a3.62,3.62,0,0,1-.48,1.43,2.37,2.37,0,0,1-.42.48s-.44.28-.33.23a2.81,2.81,0,0,1-2.36-.14,6.84,6.84,0,0,1-3.66-4.43,10.39,10.39,0,0,1,.58-7.74,1.53,1.53,0,0,0-.54-2.05,1.51,1.51,0,0,0-2.05.54c-2.69,5.29-1.76,13.54,4.18,16.28,2.75,1.27,6.12.79,7.47-2.22,1.27-2.8.56-6.27-1.09-8.76a11,11,0,0,0-8.17-5,1.5,1.5,0,0,0,0,3Z"/><path class="cls-5" d="M643.12,239.49l8.6,13.08c2.47,3.75,5.46,7.92,5.49,12.59a5.9,5.9,0,0,1-.45,2.69c-.58,1.1-1.51.22-2.23-.34a36.92,36.92,0,0,1-4.39-4.09A37.73,37.73,0,0,1,643.42,253a37,37,0,0,1-2.16-6.63,32.84,32.84,0,0,1-.58-3.24,3.28,3.28,0,0,1,0-1.36c0-.08.18-.37.2-.48l.08-.15c.26-.25,0-.29-.76-.13,1.48,1.22,3.61-.89,2.12-2.12-2-1.68-4,.1-4.57,2.23a8.33,8.33,0,0,0,.11,3.37,36.94,36.94,0,0,0,.88,4.18,40.6,40.6,0,0,0,6.8,13.85,39.74,39.74,0,0,0,5.38,5.84c1.78,1.56,4.34,4.05,6.88,2.62,2.16-1.23,2.53-4.25,2.39-6.49a20.1,20.1,0,0,0-2.57-8.1c-1.68-3.14-3.77-6.07-5.72-9L645.71,238c-1.06-1.6-3.65-.1-2.59,1.52Z"/><path class="cls-5" d="M650.75,443.41a77.09,77.09,0,0,1,5,33.61,75.11,75.11,0,0,1-3.15,16.6c-1.5,4.85-3.42,9.86-6.87,13.69-3.16,3.5-7.91,5.91-12.72,5s-7.37-5.19-8.3-9.74c-1.06-5.17-.72-10.75-.25-16a88.88,88.88,0,0,1,3.23-16.94c1.73-6,3.94-12.18,7.29-17.45,1.39-2.19,3.28-4.34,5.82-5.17a6.26,6.26,0,0,1,6.58,1.22c1.34,1.39,3.46-.73,2.12-2.12-3.71-3.87-9.81-2.85-13.58.34-4.37,3.72-6.65,9.88-8.66,15.09a88.3,88.3,0,0,0-6,37.18c.35,5.06,1.59,10.65,5.74,14s10,3.36,14.77,1.23c5.19-2.31,8.72-7.18,11-12.21a69.56,69.56,0,0,0,5.11-17.3,79.55,79.55,0,0,0-4.23-41.85c-.69-1.78-3.59-1-2.89.79Z"/><path class="cls-5" d="M472.78,137.12c-.26-1.66,1-3.13,2.32-3.93a6.76,6.76,0,0,1,5.49-.54c4,1.12,7.54,4.12,10.89,6.48a142.2,142.2,0,0,1,19.24,15.8c5.82,5.88,11,12.65,14.25,20.3,1.64,3.86,2.67,8.48.29,12.26-2.49,4-7.13,3.18-11.08,2.34a49.1,49.1,0,0,1-24.36-13.23,1.5,1.5,0,0,0-2.12,2.12,52,52,0,0,0,24.49,13.73c4.53,1.09,9.87,2.17,13.73-1.15,3.54-3.05,4.27-8.05,3.38-12.4-1-4.8-3.58-9.41-6.21-13.49a77.21,77.21,0,0,0-8.56-10.85c-6.48-6.89-14-12.71-21.71-18.14-4.26-3-9-7-14.48-7.12-4.65-.08-9.2,3.75-8.45,8.62.29,1.9,3.18,1.09,2.89-.8Z"/><path class="cls-5" d="M470.66,139.2a1.5,1.5,0,0,0,0-3,1.5,1.5,0,0,0,0,3Z"/><path class="cls-5" d="M191.34,580.34a20.36,20.36,0,0,1-1.52,16c-.59,1.06.4,2.68,1.69,2.2a18.52,18.52,0,0,1,17.6,2.53,1.52,1.52,0,0,0,2.51-1.46,51.66,51.66,0,0,1,0-20.43c.24-1.17-1-2.49-2.21-1.69-5.24,3.58-13.59,1.21-15.83-4.87-.66-1.8-3.56-1-2.89.8,2.86,7.78,13.29,11.41,20.24,6.66l-2.21-1.7a56,56,0,0,0,0,22l2.51-1.46a21.51,21.51,0,0,0-20.52-3.3l1.7,2.2a23.41,23.41,0,0,0,1.82-18.33c-.59-1.83-3.48-1-2.89.8Z"/><path class="cls-5" d="M247.49,623.83l-.05,5,1.5-1.5a4.3,4.3,0,0,1-.62,0l.4,0a4.81,4.81,0,0,1-1.18-.33l.36.15a3.55,3.55,0,0,1-.55-.28l-.27-.16-.12-.09.12.09a4.47,4.47,0,0,1-.45-.42c-.07-.07-.13-.16-.2-.23l.09.12-.09-.13.21.76a1.48,1.48,0,0,1,0-.21l-.05.4a2,2,0,0,1,.13-.48l-.15.36a3,3,0,0,1,.16-.31c.1-.16.17-.11-.06.08l.12-.13s.12-.1.13-.12-.33.23-.11.08a2.21,2.21,0,0,1,.34-.18l-.36.15a2.75,2.75,0,0,1,.47-.13l-.39.06.14,0a1.52,1.52,0,0,0,1.06-.44,1.5,1.5,0,0,0-1.06-2.56,3.68,3.68,0,0,0-2.75,1.52,3.25,3.25,0,0,0-.54,1.18,2.48,2.48,0,0,0,0,1.15,2.9,2.9,0,0,0,.61,1,6.17,6.17,0,0,0,4.64,2.14,1.52,1.52,0,0,0,1.5-1.5l.05-5a1.5,1.5,0,0,0-3,0Z"/><path class="cls-5" d="M950.66,489.5a1.5,1.5,0,0,0,0-3,1.5,1.5,0,0,0,0,3Z"/><path class="cls-5" d="M347.08,551.28c.34-4.57,3.81-8.25,7.81-10.13,5.17-2.44,11.31-1.8,16.69-.5,11.24,2.73,21.56,8.43,31.43,14.32,9.45,5.63,18.67,12,25.72,20.6,6.53,7.93,11.2,18,11,28.42s-5.48,20.78-14.83,25.62c-1.72.89-.2,3.48,1.51,2.59,9.08-4.69,14.68-14.27,16-24.21,1.46-11-2.51-22.07-8.84-31-7-9.78-16.69-17.07-26.83-23.29-10.41-6.39-21.41-12.57-33.3-15.7-6.42-1.69-13.54-2.44-19.76.36-5.17,2.33-9.2,7.13-9.63,12.88-.15,1.93,2.86,1.92,3,0Z"/><path class="cls-5" d="M410.4,635.61h-1a1,1,0,0,0-.57.13,1.34,1.34,0,0,0-.8.79,1.27,1.27,0,0,0-.13.58l.06.4a1.57,1.57,0,0,0,.38.66l.31.23a1.42,1.42,0,0,0,.75.21h1a1.27,1.27,0,0,0,.58-.13,1.11,1.11,0,0,0,.48-.31,1.23,1.23,0,0,0,.32-.49,1.11,1.11,0,0,0,.12-.57l0-.4a1.39,1.39,0,0,0-.39-.66l-.3-.24a1.51,1.51,0,0,0-.76-.2Z"/><path class="cls-5" d="M391,631.38c-7.78-.19-14.29-5.13-19.62-10.36a180.08,180.08,0,0,1-16.8-19.38q-4.5-5.89-8.59-12.08c-1.06-1.6-3.66-.1-2.59,1.52A222.91,222.91,0,0,0,359.93,613c5.43,6.35,11.16,13,18.37,17.43a25.57,25.57,0,0,0,12.69,4c1.93,0,1.93-3,0-3Z"/><path class="cls-5" d="M343.31,575.47a17.64,17.64,0,0,1-1-4.15,19.77,19.77,0,0,1-.06-2.18c0-.39,0-.78.08-1.16a7.18,7.18,0,0,1,.13-.93,1.5,1.5,0,1,0-2.9-.8,19.41,19.41,0,0,0,.84,10,1.5,1.5,0,1,0,2.89-.8Z"/><path class="cls-5" d="M470.2,150a14.1,14.1,0,0,0,3.47,8.22,1.51,1.51,0,0,0,2.12,0,1.54,1.54,0,0,0,0-2.12l-.31-.36-.14-.19c.11.15.12.16,0,0s-.37-.52-.53-.79a11.56,11.56,0,0,1-.88-1.67c.15.36,0-.12-.07-.19l-.15-.44c-.1-.3-.19-.61-.26-.91s-.14-.62-.2-.93l0-.23c0,.2,0,.22,0,.05s0-.32,0-.47a1.5,1.5,0,1,0-3,0Z"/><path class="cls-5" d="M643.94,421.84l-.13.19.23-.3a2.65,2.65,0,0,1-.41.41l.3-.24a2.43,2.43,0,0,1-.54.31l.36-.15a2.42,2.42,0,0,1-.64.17l.4-.05a3.21,3.21,0,0,1-.62,0l.4.05a2.44,2.44,0,0,1-.53-.14l.9.69-.06-.12.15.36a1.82,1.82,0,0,1-.07-.25l.06.4a.76.76,0,0,1,0-.3l-.06.4a1.32,1.32,0,0,1,.09-.3l-.15.35a1.68,1.68,0,0,1,.21-.36l-.24.31a2.13,2.13,0,0,1,.3-.3l-.3.23A2.12,2.12,0,0,1,644,423l-.36.16a1.71,1.71,0,0,1,.3-.09l-.4.06a1.09,1.09,0,0,1,.31,0l-.4-.05a.73.73,0,0,1,.24.07l-.36-.16.15.08a1.54,1.54,0,0,0,1.15.15,1.52,1.52,0,0,0,.9-.69,1.5,1.5,0,0,0,.15-1.15,1.52,1.52,0,0,0-.69-.9,2.53,2.53,0,0,0-1.29-.36,3.06,3.06,0,0,0-1.3.34,3.1,3.1,0,0,0-1.49,1.77,2.41,2.41,0,0,0-.1,1.16,2.57,2.57,0,0,0,.25.8,1.32,1.32,0,0,0,.29.42,2,2,0,0,0,.79.44,3.6,3.6,0,0,0,1.13.17,4.53,4.53,0,0,0,.73-.08,1.89,1.89,0,0,0,.41-.1,3.93,3.93,0,0,0,2.17-1.67,1.54,1.54,0,0,0,.15-1.15,1.56,1.56,0,0,0-.69-.9,1.52,1.52,0,0,0-1.16-.15,1.61,1.61,0,0,0-.89.69Z"/><path class="cls-5" d="M664.34,290.18a1.19,1.19,0,0,1-.09.15l.23-.31a.65.65,0,0,1-.16.17l.3-.23a1.38,1.38,0,0,1-.24.14l.36-.15a1.67,1.67,0,0,1-.32.08l.4-.06a1.21,1.21,0,0,1-.38,0l.4.06a1.5,1.5,0,0,1-.36-.11l.36.16a1.75,1.75,0,0,1-.27-.16l.31.24-.19-.18.24.3a.82.82,0,0,1-.12-.2l.15.35a.84.84,0,0,1-.05-.17l-.39,1.46,0,0-.3.24a1.37,1.37,0,0,1,.2-.13l-.35.15a1,1,0,0,1,.25-.06l-.4.05h.3l-.39-.05a1.68,1.68,0,0,1,.32.09l-.35-.15a1.68,1.68,0,0,1,.34.2l-.31-.24a1.66,1.66,0,0,1,.27.26l-.24-.3a1,1,0,0,1,.16.26l-.15-.35a1.07,1.07,0,0,1,.08.27l-.06-.4a1,1,0,0,1,0,.24l.05-.4a.35.35,0,0,1,0,.14,1.61,1.61,0,0,0,.15,1.16,1.55,1.55,0,0,0,.9.69,1.52,1.52,0,0,0,1.16-.15,1.63,1.63,0,0,0,.69-.9l0-.15a3.19,3.19,0,0,0,.06-.54c0-.17,0-.34-.06-.51a.83.83,0,0,0,0-.15,2.88,2.88,0,0,0-.69-1.15,3.54,3.54,0,0,0-.52-.42,1.51,1.51,0,0,0-.28-.15,3.81,3.81,0,0,0-.64-.24,3.71,3.71,0,0,0-.67-.07,3.47,3.47,0,0,0-.55.08l-.16,0a4.46,4.46,0,0,0-.5.22c-.15.1-.29.22-.43.33a1.59,1.59,0,0,0-.39.66,1.55,1.55,0,0,0,0,.8c0,.05,0,.1,0,.14a2.76,2.76,0,0,0,.2.47l.07.12c.1.13.2.27.32.4l.1.08a3.15,3.15,0,0,0,.41.31,4,4,0,0,0,.59.27l.28.07a3.91,3.91,0,0,0,.68.06,2.88,2.88,0,0,0,1.26-.33l.14-.08a3.29,3.29,0,0,0,.41-.33,3.12,3.12,0,0,0,.32-.4.6.6,0,0,0,.09-.15,1.12,1.12,0,0,0,.18-.56,1,1,0,0,0,0-.6,1.49,1.49,0,0,0-.69-.89,1.45,1.45,0,0,0-1.15-.15,1.49,1.49,0,0,0-.9.69Z"/><path class="cls-5" d="M672.83,310.26l-1,1a1.24,1.24,0,0,0-.31.48,1.36,1.36,0,0,0,0,1.16,1.17,1.17,0,0,0,.31.48l.31.24a1.5,1.5,0,0,0,.75.2l.4,0a1.39,1.39,0,0,0,.66-.39l1-1a1.14,1.14,0,0,0,.31-.48,1.36,1.36,0,0,0,0-1.16,1.08,1.08,0,0,0-.31-.48l-.3-.24a1.54,1.54,0,0,0-.76-.2l-.4.05a1.49,1.49,0,0,0-.66.39Z"/><path class="cls-5" d="M160.25,505.93c-11.94-23.81-24-48-29.68-74.23a136.13,136.13,0,0,1-3-22.39c-.1-1.92-3.1-1.93-3,0,1.31,27.2,11.27,52.88,22.81,77.23,3.32,7,6.79,14,10.27,20.9.87,1.73,3.45.21,2.59-1.51Z"/><path class="cls-5" d="M122.67,394v0l0-.4a.75.75,0,0,1,0,.16l.15-.35a.6.6,0,0,1-.09.15l.23-.3-.15.15.31-.24-.22.13.36-.16a.72.72,0,0,1-.25.07l.4-.05h-.25l.4.05a.59.59,0,0,1-.19-.05l.36.15a.51.51,0,0,1-.16-.09l.31.24-.11-.11.23.3a.6.6,0,0,1-.09-.15l.15.36a1.05,1.05,0,0,1,0-.19l.06.4a.67.67,0,0,1,0-.2l0,.39a1.14,1.14,0,0,1,.06-.25l-.15.36a2.39,2.39,0,0,1,.13-.21l-.24.3.17-.17-.3.24a.54.54,0,0,1,.16-.1l-.36.15.19-.05-.4.05h.13a1.06,1.06,0,0,0,.58-.13,1.14,1.14,0,0,0,.48-.31,1.08,1.08,0,0,0,.31-.48,1.15,1.15,0,0,0,.13-.58l0-.4a1.59,1.59,0,0,0-.39-.66l-.3-.23a1.48,1.48,0,0,0-.76-.21,2.23,2.23,0,0,0-1.56.61.71.71,0,0,0-.15.15,2.45,2.45,0,0,0-.55,1,2.61,2.61,0,0,0-.08.56,2,2,0,0,0,.25,1.11,2,2,0,0,0,.34.47,2.12,2.12,0,0,0,.94.59,2.83,2.83,0,0,0,.56.09h.18a5.21,5.21,0,0,0,.57-.08,3.21,3.21,0,0,0,.54-.22.87.87,0,0,0,.18-.11,2,2,0,0,0,.45-.37,2.64,2.64,0,0,0,.33-.47,3.24,3.24,0,0,0,.18-.45,4.13,4.13,0,0,0,.07-.49,1.72,1.72,0,0,0-.44-1.06,1.24,1.24,0,0,0-.48-.31,1.27,1.27,0,0,0-.58-.13l-.4.06a1.57,1.57,0,0,0-.66.38l-.24.31a1.5,1.5,0,0,0-.2.75Z"/><path class="cls-5" d="M125.62,374.63a176.16,176.16,0,0,1,1.73-27.25,1.56,1.56,0,0,0-1-1.85,1.51,1.51,0,0,0-1.84,1.05,180.26,180.26,0,0,0-1.84,28.05c0,1.93,3,1.93,3,0Z"/><path class="cls-5" d="M131.79,335.51l-1-3.06a1.6,1.6,0,0,0-.69-.9,1.52,1.52,0,0,0-1.16-.15,1.5,1.5,0,0,0-1,1.84l1,3.07a1.53,1.53,0,0,0,.69.89,1.49,1.49,0,0,0,1.15.15,1.46,1.46,0,0,0,.9-.69,1.49,1.49,0,0,0,.15-1.15Z"/><path class="cls-5" d="M134.56,325.52a2.12,2.12,0,0,0,.53-2.06A2.74,2.74,0,0,0,134,322a2.51,2.51,0,0,0-1.45-.42,2,2,0,0,0-1.79,1.11l2.74,1.16a2.43,2.43,0,0,1,.14-.48l-.15.36a2.66,2.66,0,0,1,.33-.57l-.23.3A3.05,3.05,0,0,1,134,323l-.3.23a2.54,2.54,0,0,1,.53-.31l-.36.15.2-.07a1.57,1.57,0,0,0,.89-.69,1.52,1.52,0,0,0,.15-1.16,1.49,1.49,0,0,0-1.84-1,4,4,0,0,0-2.69,2.92,1.59,1.59,0,0,0,.15,1.15,1.55,1.55,0,0,0,.72.62,1.41,1.41,0,0,0,1,.07,1.43,1.43,0,0,0,.9-.69.6.6,0,0,1,.09-.15l-.24.3.1-.1-.3.24.11-.07-.36.15.15,0-.4.06h.21l-.4-.05a1,1,0,0,1,.29.08l-.36-.15a1.09,1.09,0,0,1,.31.18l-.3-.24.23.23-.23-.3.12.21-.15-.36a.47.47,0,0,1,0,.17l-.05-.4a.38.38,0,0,1,0,.15l.06-.4a.5.5,0,0,1,0,.13l.15-.35a.42.42,0,0,1-.09.14l.24-.3-.06.06a1.55,1.55,0,0,0-.43,1.06,1.49,1.49,0,0,0,1.5,1.5,1.56,1.56,0,0,0,1.06-.44Z"/><path class="cls-5" d="M165,384.48l-3.57,10c-1,3-2.77,6.22-.55,9.06a21.67,21.67,0,0,0,3.39,3.1l4,3.34,8.31,7a1.51,1.51,0,0,0,2.51-1.46,13.21,13.21,0,0,1,3.54-13,1.52,1.52,0,0,0-.67-2.51,21.1,21.1,0,0,1-13.73-12.27c-.71-1.77-3.61-1-2.89.8a24.25,24.25,0,0,0,15.83,14.36l-.67-2.5a16.25,16.25,0,0,0-4.3,15.93l2.51-1.46c-4.86-4.08-9.9-8-14.59-12.29A3,3,0,0,1,163,399c.47-1.48,1-2.93,1.56-4.4l3.31-9.33c.65-1.82-2.25-2.6-2.89-.79Z"/><path class="cls-5" d="M236,418.11c-2.26,1.64-4.19,4.09-4.18,7,0,2.58,1.76,5.32,4.39,5.87a5.3,5.3,0,0,0,5.76-3.11,6.74,6.74,0,0,0-.5-6.9,12.29,12.29,0,0,0-7.44-4.47,1.5,1.5,0,1,0-.79,2.89,10.56,10.56,0,0,1,4.9,2.3,5.71,5.71,0,0,1,.78.86,6.37,6.37,0,0,1,.35.55l.15.3c0,.07.07.15.11.22-.05-.09-.05-.1,0,0a5.44,5.44,0,0,1,.15.54c0,.07.05.38,0,.08l0,.28c0,.19,0,.38,0,.57s0,.18,0,.28c0-.32,0,.13,0,.16a5.44,5.44,0,0,1-.15.54,2,2,0,0,1-.1.26c.09-.23,0,0,0,0s-.19.37-.3.55l-.15.23c-.09.13.12-.13-.06.07s-.27.29-.42.43-.25.19-.1.09-.08,0-.12.07-.56.26-.28.16c-.1,0-.67.16-.36.12a2.35,2.35,0,0,1-.53,0c-.05,0-.26,0-.05,0a1.63,1.63,0,0,1-.3-.07l-.29-.1c.2.09,0,0-.06,0s-.17-.1-.26-.16c-.25-.17,0,0-.18-.14a3.34,3.34,0,0,1-1.07-2c0-.26,0,.18,0-.08s0-.31,0-.47a2.54,2.54,0,0,1,.05-.54,4.63,4.63,0,0,1,.53-1.45,7.37,7.37,0,0,1,2.12-2.35,1.55,1.55,0,0,0,.53-2.06,1.51,1.51,0,0,0-2.05-.53Z"/><path class="cls-5" d="M424.44,683.78c12.56-11.59,29.51-19.07,46.67-19.7,5-.18,10.06.42,14.4,3l-.31-2.36a55.9,55.9,0,0,1-25.34,14c-1.88.46-1.08,3.36.79,2.89a58.87,58.87,0,0,0,26.67-14.77,1.51,1.51,0,0,0-.3-2.35c-7.95-4.82-18.11-3.84-26.85-2.13a77.92,77.92,0,0,0-37.85,19.25c-1.42,1.31.71,3.43,2.12,2.12Z"/><path class="cls-5" d="M206.15,655a1.5,1.5,0,0,0,0-3,1.5,1.5,0,0,0,0,3Z"/><path class="cls-5" d="M433.16,690.29l12.33-3.85c1.84-.58,1.05-3.48-.8-2.9l-12.32,3.86c-1.84.58-1.06,3.47.79,2.89Z"/><path class="cls-5" d="M379.25,334.42a4.56,4.56,0,0,0-3.18,6.27,4.7,4.7,0,0,0,2.86,2.47,5.53,5.53,0,0,0,4.24-.73,12.58,12.58,0,0,0,5.43-5,6.32,6.32,0,0,0,.71-3.76,5.39,5.39,0,0,0-1.46-2.85c-1.69-1.82-4.7-2.53-6.58-.58a1.5,1.5,0,0,0,2.12,2.12l.18-.17c-.19.18-.1.06,0,0a1.28,1.28,0,0,0,.2-.11c-.19.14-.17.05-.05,0s.49,0,.15-.05h.22c.05,0,.38,0,.14,0s0,0,.09,0l.23.06.22.08c.21.07-.21-.12,0,0s.26.13.38.21l.21.14c.31.2-.17-.19.09.08.12.12.25.23.37.36l.16.19s-.14-.23,0,0l.23.38.05.11c-.08-.19,0,.13.06.17a3.89,3.89,0,0,1,.12.49c0-.35,0,.12,0,.23l0,.32c0-.08,0-.21,0,.07s-.11.45-.19.67a5.29,5.29,0,0,1-.47.9,5,5,0,0,1-.71.89,10.22,10.22,0,0,1-1.85,1.56,9,9,0,0,1-2.38,1.29,2,2,0,0,1-.51.09s-.37,0-.18,0-.13,0-.17,0a1.91,1.91,0,0,1-.68-.35l-.21-.21-.09-.11c.07.08.07.08,0,0s-.1-.17-.14-.26-.05-.08,0,0l-.05-.14c0-.1,0-.19-.07-.29,0,.21,0,0,0-.12s0-.34,0-.16.05-.2.06-.24c.05-.24,0-.14,0-.05a3,3,0,0,1,.22-.39s.17-.22,0-.06l.25-.26c.12-.12,0,0,0,0a2.2,2.2,0,0,1,.38-.24s.26-.1.05,0l.42-.11a1.5,1.5,0,0,0,1-1.84,1.53,1.53,0,0,0-1.84-1.05Z"/><path class="cls-5" d="M393,302.09l-1,1a1.24,1.24,0,0,0-.31.48,1.36,1.36,0,0,0,0,1.16,1.17,1.17,0,0,0,.31.48l.31.24a1.5,1.5,0,0,0,.75.2l.4-.05a1.39,1.39,0,0,0,.66-.39l1-1a1.14,1.14,0,0,0,.31-.48,1.36,1.36,0,0,0,0-1.16,1.08,1.08,0,0,0-.31-.48l-.3-.24a1.54,1.54,0,0,0-.76-.2l-.39.05a1.47,1.47,0,0,0-.67.39Z"/><path class="cls-5" d="M399.71,292.94v1a1.17,1.17,0,0,0,.13.58,1.36,1.36,0,0,0,.79.79,1.17,1.17,0,0,0,.58.13l.4-.06a1.45,1.45,0,0,0,.66-.38l.24-.31a1.5,1.5,0,0,0,.2-.75v-1a1.06,1.06,0,0,0-.13-.58,1.36,1.36,0,0,0-.79-.79,1.06,1.06,0,0,0-.58-.13l-.4.05a1.49,1.49,0,0,0-.66.39l-.23.3a1.45,1.45,0,0,0-.21.76Z"/><path class="cls-5" d="M462.56,388.48c0,.06.16.35.05.09s0,0,0,.07a2.5,2.5,0,0,1,.07.26.36.36,0,0,1,0,.11c0,.14,0,.23,0-.14,0,.16,0,.32,0,.49s0,.34,0,.06,0,.07,0,.14a4.19,4.19,0,0,1-.14.47c-.07.23.17-.34,0,0l-.12.24c0,.08-.09.15-.14.23s-.26.27,0,0c-.13.13-.23.27-.36.39a1.22,1.22,0,0,0-.17.15c.27-.3.15-.12,0,0l-.23.13-.1.05c-.12.1.3-.1.15-.06l-.47.14c-.25.06.35,0,0,0h-.33a.57.57,0,0,0-.13,0s.35.06.19,0l-.29-.06-.24-.08c-.23-.07.1.05.12.06l-.15-.07a3.77,3.77,0,0,1-.48-.28c-.29-.21.19.17,0,0l-.25-.23c-.07-.07-.13-.15-.2-.23s.11.15.11.14-.09-.12-.12-.18a2.82,2.82,0,0,1-.18-.29,1.17,1.17,0,0,0-.05-.11c-.1-.19.05.07.05.12a1.52,1.52,0,0,0-.11-.32l-.06-.33s0,.35,0,.19,0-.11,0-.17a2.36,2.36,0,0,1,0-.38,1.5,1.5,0,0,0-1.5-1.5,1.53,1.53,0,0,0-1.5,1.5,5,5,0,0,0,4.05,5.13,4.37,4.37,0,0,0,3.39-.73,5.3,5.3,0,0,0,1.95-2.76,4.8,4.8,0,0,0-.37-3.64,1.5,1.5,0,1,0-2.59,1.51Z"/><path class="cls-5" d="M494.15,365h-1a1.06,1.06,0,0,0-.58.13,1.36,1.36,0,0,0-.79.79,1.06,1.06,0,0,0-.13.58l.05.4a1.49,1.49,0,0,0,.39.66l.3.23a1.45,1.45,0,0,0,.76.21h1a1.15,1.15,0,0,0,.58-.13,1.36,1.36,0,0,0,.79-.79,1.17,1.17,0,0,0,.13-.58l0-.4a1.53,1.53,0,0,0-.39-.66l-.3-.24a1.57,1.57,0,0,0-.76-.2Z"/><path class="cls-5" d="M211.4,159.76a28,28,0,0,0-12,18.62c-1,6.32.06,15.36,7,17.9,4,1.46,8.07-.65,11.19-3.07a66,66,0,0,0,16.41-19.41c1.88-3.57,3.19-7.83,1.35-11.69-1.71-3.56-5.81-5.32-9.58-5.4-4.88-.11-9.29,2.57-13.29,5.06-1.64,1-.13,3.61,1.52,2.59,3.09-1.93,6.34-4,10-4.55,2.75-.41,6,.29,7.86,2.46,2.31,2.65,1.3,6.43-.09,9.26a51.69,51.69,0,0,1-6,9.2,65.33,65.33,0,0,1-7.38,7.86c-2.52,2.28-5.7,5.24-9.34,5.16-6.32-.12-7.43-8.77-7-13.47a25,25,0,0,1,10.71-17.93c1.59-1.07.1-3.67-1.51-2.59Z"/></g></svg>