<svg xmlns="http://www.w3.org/2000/svg" xmlns:xlink="http://www.w3.org/1999/xlink" viewBox="0 0 1920 1080"><defs><style>.cls-1{fill:none;}.cls-2{clip-path:url(#clip-path);}.cls-3{fill:url(#radial-gradient);}.cls-4{fill:url(#radial-gradient-2);}.cls-5,.cls-6{fill:#fff;}.cls-5{opacity:0.33;}</style><clipPath id="clip-path"><rect class="cls-1" width="1920" height="1080"/></clipPath><radialGradient id="radial-gradient" cx="2158.32" cy="657.62" r="1105.75" gradientUnits="userSpaceOnUse"><stop offset="0.03" stop-color="#d0916d"/><stop offset="0.34" stop-color="#c69f71"/><stop offset="0.49" stop-color="#bfa773"/><stop offset="0.73" stop-color="#91b289"/><stop offset="1" stop-color="#58c0a5"/></radialGradient><radialGradient id="radial-gradient-2" cx="1407.62" cy="1319" r="542.79" gradientUnits="userSpaceOnUse"><stop offset="0" stop-color="#23277f" stop-opacity="0.4"/><stop offset="0.52" stop-color="#252d80" stop-opacity="0.39"/><stop offset="0.7" stop-color="#2c4185" stop-opacity="0.33"/><stop offset="0.83" stop-color="#38658e" stop-opacity="0.24"/><stop offset="0.94" stop-color="#4a979b" stop-opacity="0.11"/><stop offset="1" stop-color="#58c0a5" stop-opacity="0"/></radialGradient></defs><g id="Layer_1" data-name="Layer 1"><g class="cls-2"><circle class="cls-3" cx="1514.5" cy="1263.5" r="679.5"/><ellipse class="cls-4" cx="1407.62" cy="1319" rx="546.55" ry="539"/><path class="cls-5" d="M1628.26,683.15a50.28,50.28,0,0,1,2.74,5.56l-.9-2.15a58.7,58.7,0,0,1,3.84,14.56l-.32-2.39a98.08,98.08,0,0,1-.46,25.5l.33-2.4c-1,7.58-2.59,15.06-4.25,22.52q-2.82,12.69-6,25.3-6.29,25.11-13.86,49.86-4.28,13.95-9,27.75a9.34,9.34,0,0,0,4.14,10.17,9.24,9.24,0,0,0,10.9-1.41,72.74,72.74,0,0,1,6.92-6.1l-1.82,1.41a74.31,74.31,0,0,1,16.28-9.44l-2.15.9a88.05,88.05,0,0,1,22-5.91l-2.4.33a106.72,106.72,0,0,1,28.06.1L1680,837a118.55,118.55,0,0,1,30.15,8.23l-2.15-.91a149.19,149.19,0,0,1,32.58,19.54l-1.82-1.41c18.41,14.25,34,31.68,48.8,49.56,4.18,5,8.3,10.15,12.41,15.26a8.88,8.88,0,0,0,6.36,2.64,9.26,9.26,0,0,0,5.45-1.93,9,9,0,0,0,2.32-11.61c-10.59-17.16-21.2-34.37-30.15-52.46-2.55-5.14-5-10.35-7.19-15.64l.9,2.15c-6.42-15.26-11.31-31.15-13.54-47.59l.32,2.39a139.9,139.9,0,0,1-.2-37l-.32,2.39a110.81,110.81,0,0,1,7.46-27.76l-.91,2.15a101.93,101.93,0,0,1,5.75-11.44,9.06,9.06,0,0,0,0-9.09c-1.44-2.46-4.74-4.86-7.77-4.45-16.53,2.19-33.17,4.37-49.87,3.88a133.61,133.61,0,0,1-14.13-1.12l2.39.32a96.25,96.25,0,0,1-24.5-6.48l2.15.91a82.78,82.78,0,0,1-18-10.46l1.83,1.41a69.28,69.28,0,0,1-12.22-12.1l1.4,1.82a58,58,0,0,1-7.35-12.45l.91,2.15a51.89,51.89,0,0,1-3.11-10.21,9,9,0,0,0-11.08-6.28c-4.92,1.59-7.25,6.11-6.28,11.07,3.8,19.44,17.87,35.41,34.5,45.37,19.2,11.49,41.84,14.72,63.89,14,13.22-.41,26.35-2.13,39.44-3.86l-7.77-13.55c-13.81,23.55-17.75,51.86-14.51,78.69a185.17,185.17,0,0,0,9.83,41.12,303.25,303.25,0,0,0,18.25,40c7.57,14,15.94,27.6,24.31,41.16l14.13-10.91c-10.68-13.27-21.42-26.53-33.1-38.95-11.95-12.68-25-24.44-39.47-34.16a135.28,135.28,0,0,0-44-19.7,118.81,118.81,0,0,0-47.65-1.65,86.52,86.52,0,0,0-41.78,19.57q-2,1.75-3.91,3.65l15,8.76q11.84-35,21.07-70.78,4.61-17.85,8.54-35.87c2.4-11,4.47-22.3,4.8-33.62.38-13-1.91-26.28-8.42-37.71-2.33-4.1-8.26-5.84-12.31-3.23a9.17,9.17,0,0,0-3.23,12.31Z"/><path class="cls-5" d="M1639.91,926.33l0-.29-.32,2.39a6,6,0,0,1,.34-1.32l-.9,2.15a5.47,5.47,0,0,1,.67-1.11l-1.41,1.82a6.89,6.89,0,0,1,1-.92l-1.82,1.41a8.65,8.65,0,0,1,1.69-1l-2.15.9a15,15,0,0,1,3.55-.94l-2.39.32c3.87-.5,7.87.17,11.71.68l-2.39-.32a143.52,143.52,0,0,1,36,9.86l-2.15-.9a144,144,0,0,1,31.92,18.6l-1.82-1.41q5.53,4.29,10.63,9.1c3.42,3.24,9.37,3.65,12.72,0s3.66-9.27,0-12.72a149.33,149.33,0,0,0-40-27.21A155.64,155.64,0,0,0,1646.17,912c-4.3-.46-8.65-.69-12.86.63a18,18,0,0,0-7.29,4.14,14.46,14.46,0,0,0-4.11,9.57,9.05,9.05,0,0,0,2.63,6.36,9.19,9.19,0,0,0,6.37,2.64,9.05,9.05,0,0,0,6.36-2.64,10.08,10.08,0,0,0,2.64-6.36Z"/><path class="cls-5" d="M1921.87,970.83q-3.69-2.55-7.25-5.3l1.82,1.41a172.93,172.93,0,0,1-30.56-30.61l1.41,1.82a175.92,175.92,0,0,1-22.82-39l.91,2.15a159.62,159.62,0,0,1-11.23-40.07l.32,2.4a97,97,0,0,1-.28-25.42l-.32,2.4a64.93,64.93,0,0,1,4.36-16.37l-.91,2.15a52.5,52.5,0,0,1,6.51-11.24l-1.41,1.82a52.76,52.76,0,0,1,9.27-9.26l-1.82,1.41a58.89,58.89,0,0,1,12.72-7.37l-2.15.9a63.83,63.83,0,0,1,15.76-4.31l-2.4.32a70,70,0,0,1,18.4.06l-2.39-.33a86.19,86.19,0,0,1,21.76,6.07l-2.15-.91a103.57,103.57,0,0,1,11.52,5.82c4.06,2.39,10,1.07,12.31-3.22a9.18,9.18,0,0,0-3.23-12.32c-19.69-11.55-43.59-17.27-66.06-11.36a67.87,67.87,0,0,0-28,15,60.75,60.75,0,0,0-17,27,85.61,85.61,0,0,0-3.38,30.7,146.43,146.43,0,0,0,5.3,30.68,180.2,180.2,0,0,0,24.6,52.91,184.94,184.94,0,0,0,41.53,43.55c1.87,1.41,3.78,2.78,5.71,4.11a9.07,9.07,0,0,0,6.93.91,9,9,0,0,0,6.29-11.07,10.1,10.1,0,0,0-4.14-5.38Z"/><path class="cls-5" d="M1493.39,1095.42a49.34,49.34,0,0,1-3.91-7.4l.91,2.15a49.83,49.83,0,0,1-3.32-12.41l.32,2.4a57.53,57.53,0,0,1,.07-14.89l-.32,2.4a69.37,69.37,0,0,1,4.85-17.43l-.91,2.15a76.46,76.46,0,0,1,5.07-9.86c1-1.58,2-3.13,3.07-4.64.28-.4.56-.79.85-1.17l.37-.5c.55-.75-.91,1.16-.78,1,.63-.73,1.2-1.51,1.82-2.24a73.56,73.56,0,0,1,7.74-8c.67-.58,1.34-1.15,2-1.71.37-.3.77-.58,1.12-.9.15-.13-1.77,1.34-1,.79l.65-.49c1.61-1.19,3.28-2.3,5-3.36a95.35,95.35,0,0,1,13.43-7l-2.15.91a125.91,125.91,0,0,1,31.65-8.33l-2.39.33c18.38-2.46,37-1.82,55.44-.16q8.41.76,16.79,1.88l-2.39-.32a286.14,286.14,0,0,1,54,12.35q7.44,2.53,14.7,5.58l-2.15-.9a192.7,192.7,0,0,1,39,22l2.26,1.69c.48.37,1.86,1.49-.33-.26.36.29.74.57,1.11.86,1.47,1.17,2.93,2.35,4.36,3.56q4.13,3.48,8,7.22a159.85,159.85,0,0,1,14.41,15.92c1.11,1.4-1.33-1.76-.26-.34l1.12,1.49c.55.75,1.1,1.5,1.64,2.26,1.18,1.65,2.31,3.33,3.41,5q3.45,5.31,6.37,10.9a9.07,9.07,0,0,0,12.31,3.23,9.18,9.18,0,0,0,3.23-12.31c-12.93-24.67-33.14-45-56.3-60.14-25.08-16.46-54-26.65-83.34-32.35a383.58,383.58,0,0,0-47.65-6.05,236.55,236.55,0,0,0-42.33.49c-27.51,3.12-56.1,12.78-73.78,35.28-7.94,10.11-14.06,21.72-16.67,34.39a67.66,67.66,0,0,0-1.42,18.88,61.52,61.52,0,0,0,4.84,19.67,49.23,49.23,0,0,0,3.91,7.39c2.54,4,8.1,5.94,12.31,3.23,3.95-2.55,5.95-8.08,3.23-12.31Z"/><path class="cls-5" d="M1503.13,777a6.15,6.15,0,0,1-.6-1.06l.91,2.15a5.63,5.63,0,0,1-.3-1.14l.32,2.39a6.66,6.66,0,0,1,0-1.48l-.32,2.39a7.26,7.26,0,0,1,.52-1.76l-.91,2.15a9.74,9.74,0,0,1,1-1.64l-1.4,1.82a10.35,10.35,0,0,1,1.35-1.38l-1.82,1.41a8.85,8.85,0,0,1,1.63-1l-2.15.91a10.64,10.64,0,0,1,2.35-.65l-2.39.32a15.4,15.4,0,0,1,3.59,0l-2.39-.32a45.75,45.75,0,0,1,9.35,2.74q4.41,1.6,8.73,3.42l-2.15-.91A109.48,109.48,0,0,1,1542.6,799l-1.83-1.4A71,71,0,0,1,1553.3,810l-1.41-1.82a58.75,58.75,0,0,1,7.6,12.87l-.9-2.15a49,49,0,0,1,3.33,12.06l-.32-2.39a49.18,49.18,0,0,1,0,12.77l.32-2.39a59.79,59.79,0,0,1-4.17,14.91l.91-2.15a95.88,95.88,0,0,1-12.52,20.84l1.41-1.82a174.62,174.62,0,0,1-14,15.8,159.19,159.19,0,0,1-15.59,14l1.82-1.41a79.49,79.49,0,0,1-17.15,10.31l2.15-.9a51.34,51.34,0,0,1-12.57,3.53l2.4-.32a42.6,42.6,0,0,1-11.28,0l2.39.32a46.74,46.74,0,0,1-11.59-3.27l2.15.91a62.16,62.16,0,0,1-13.31-7.92l1.82,1.41a76.27,76.27,0,0,1-13.45-13.48l1.41,1.82a81.65,81.65,0,0,1-10.59-18.18l.91,2.15a83.54,83.54,0,0,1-5.72-21l.32,2.39a78.87,78.87,0,0,1,0-20.65l-.33,2.39a76.72,76.72,0,0,1,5.26-19l-.91,2.15a82.34,82.34,0,0,1,10.47-17.84l-1.41,1.82a83.67,83.67,0,0,1,14.91-14.88l-1.82,1.4a79.61,79.61,0,0,1,17.21-10.08l-2.15.9a76,76,0,0,1,7.18-2.61,9.43,9.43,0,0,0,5.37-4.14,9.18,9.18,0,0,0,.91-6.93c-1.46-4.53-6.25-7.78-11.07-6.29A88.28,88.28,0,0,0,1448,912.49a74.17,74.17,0,0,0,23.33,14.43,51.81,51.81,0,0,0,26.89,2.29c8.17-1.34,16.06-4.9,23-9.25a128.3,128.3,0,0,0,20.06-15.85,189.37,189.37,0,0,0,16.35-17.4A117.06,117.06,0,0,0,1572,865.54a73.05,73.05,0,0,0,7.78-25.61,53.17,53.17,0,0,0-3.22-24.41,70.41,70.41,0,0,0-13.82-22.23,87,87,0,0,0-20.19-16,152.4,152.4,0,0,0-24.23-11.19c-4.72-1.76-9.41-3.5-14.51-3.75a17.73,17.73,0,0,0-15.76,7.86c-3.08,4.49-3.68,11.33-.43,15.91a9.69,9.69,0,0,0,5.38,4.13,9.15,9.15,0,0,0,6.94-.91,9,9,0,0,0,4.13-5.37c.51-2.25.48-5-.91-6.94Z"/><path class="cls-5" d="M1320.42,907.6c-.16-.17-.3-.35-.44-.53l1.41,1.82a10.27,10.27,0,0,1-1.18-2.06l.91,2.15a11.62,11.62,0,0,1-.7-2.6l.32,2.39a13.58,13.58,0,0,1,0-3.43l-.33,2.39a16,16,0,0,1,1-3.72l-.91,2.15a16.3,16.3,0,0,1,1.76-3.06l-1.41,1.82a17.9,17.9,0,0,1,3.22-3.17l-1.82,1.41a24.88,24.88,0,0,1,5.09-2.9l-2.15.91a46.59,46.59,0,0,1,11.27-2.9l-2.39.33a30.46,30.46,0,0,1,8-.13l-2.4-.32a18.39,18.39,0,0,1,4.37,1.2l-2.15-.9a15.23,15.23,0,0,1,2.84,1.65l-1.82-1.41a16,16,0,0,1,2.84,2.85l-1.4-1.82a18.84,18.84,0,0,1,2.18,3.83l-.9-2.15a21.18,21.18,0,0,1,1.33,5l-.32-2.39a21.86,21.86,0,0,1,0,5.54l.32-2.39a26.68,26.68,0,0,1-1.7,6.11l.9-2.15a36.65,36.65,0,0,1-4.78,8l1.41-1.82a55.61,55.61,0,0,1-9.62,9.59l1.82-1.41a40.44,40.44,0,0,1-8.5,5.08l2.14-.9a28.48,28.48,0,0,1-7,1.95l2.39-.32a23.56,23.56,0,0,1-5.63,0l2.39.32a17.13,17.13,0,0,1-4.15-1.13l2.15.9a19.46,19.46,0,0,1-4-2.37l1.82,1.4a20.66,20.66,0,0,1-3.32-3.29l1.41,1.82a18.44,18.44,0,0,1-2.33-3.92l.91,2.15a15.31,15.31,0,0,1-1-3.65l.32,2.4a13.39,13.39,0,0,1,0-3.1l-.32,2.39a12.4,12.4,0,0,1,.73-2.75l-.91,2.15c.13-.3.27-.6.41-.89a9.63,9.63,0,0,0,.91-6.94,9.19,9.19,0,0,0-4.14-5.38c-4.06-2.14-10.09-1.28-12.31,3.23a20.66,20.66,0,0,0-2.43,10.67,25,25,0,0,0,3.16,10.55,27.9,27.9,0,0,0,15.45,12.45c7,2.31,14.76,1,21.37-1.77a53,53,0,0,0,17-11.91,49.79,49.79,0,0,0,11.59-17.76,29.32,29.32,0,0,0,.19-19.67,28.14,28.14,0,0,0-5.62-9.48,23.66,23.66,0,0,0-10-6.23c-6.84-2.34-14.73-1.23-21.58.43-7.94,1.94-15.78,6-20.14,13.2a23.62,23.62,0,0,0-3.37,11.89,19.94,19.94,0,0,0,5.06,13.26,9,9,0,0,0,6.36,2.64,9.15,9.15,0,0,0,6.37-2.64,9.05,9.05,0,0,0,2.63-6.36,10.13,10.13,0,0,0-2.63-6.37Z"/><path class="cls-5" d="M1276.7,1005.84c.81,0,1.63.11,2.44.21l-2.39-.32a11.75,11.75,0,0,1,2.8.71l-2.15-.91a6.79,6.79,0,0,1,1.46.83L1277,1005a6.1,6.1,0,0,1,.94,1l-1.41-1.82a5.87,5.87,0,0,1,.68,1.16l-.91-2.15a5.07,5.07,0,0,1,.31,1.14l-.32-2.39a5,5,0,0,1,0,1l.32-2.4a3.67,3.67,0,0,1-.2.74l.9-2.15a3.58,3.58,0,0,1-.37.66l1.4-1.82a3.13,3.13,0,0,1-.57.58l1.82-1.4a3.92,3.92,0,0,1-.8.45l2.15-.9a4.51,4.51,0,0,1-.91.24l2.39-.32a5,5,0,0,1-1.34,0l2.4.32a5.9,5.9,0,0,1-1.44-.39l2.15.9a5.15,5.15,0,0,1-1.07-.62l1.82,1.41a7.68,7.68,0,0,1-1.13-1.15l1.41,1.83a10.75,10.75,0,0,1-1.35-2.38l.91,2.15a30,30,0,0,1-1-3.07,9.37,9.37,0,0,0-4.14-5.38,6.6,6.6,0,0,0-3.34-1.07,6.85,6.85,0,0,0-3.59.16,9.13,9.13,0,0,0-5.38,4.14,9.26,9.26,0,0,0-.91,6.93c.31,1,.63,2.07,1,3.08a30.34,30.34,0,0,0,1.55,3.45,20.63,20.63,0,0,0,2.21,3,11.43,11.43,0,0,0,1.94,1.73,10.4,10.4,0,0,0,2,1.33,14.64,14.64,0,0,0,6.84,1.66,12.87,12.87,0,0,0,6.65-1.9,12.53,12.53,0,0,0,3.93-3.94,10.38,10.38,0,0,0,1.4-3.24,12.06,12.06,0,0,0,.38-3.6,12.6,12.6,0,0,0-1.09-4.67,10.8,10.8,0,0,0-1.08-2.18,14.69,14.69,0,0,0-2.34-2.79,14.94,14.94,0,0,0-3.19-2.22,20.72,20.72,0,0,0-3.82-1.45,39.24,39.24,0,0,0-6.11-.76,6.81,6.81,0,0,0-3.47.78,9.29,9.29,0,0,0-5.53,8.22l.32,2.4a9,9,0,0,0,2.32,4l1.82,1.4a8.85,8.85,0,0,0,4.54,1.23Z"/><path class="cls-6" d="M1418.34,1091.34a83.79,83.79,0,0,1,2.12-39.79,103,103,0,0,1,19-35.79A111.23,111.23,0,0,1,1471.73,989a142.51,142.51,0,0,1,41.78-15,185,185,0,0,1,44.76-3.06c1.87.08,3.74.2,5.61.34s1.92-2.86,0-3a194.43,194.43,0,0,0-46,1.89,149.42,149.42,0,0,0-43.24,13.86,115.24,115.24,0,0,0-34.49,26.35,108.21,108.21,0,0,0-21.1,35.84,88.52,88.52,0,0,0-4.43,40.63q.35,2.63.87,5.24c.37,1.89,3.27,1.09,2.89-.8Z"/><path class="cls-6" d="M1551.35,684.11a171.78,171.78,0,0,1,24.45,27.77c7,10,13.27,20.85,16.46,32.74,6.15,22.91-.47,47.86-15.57,65.87a87.84,87.84,0,0,1-29.06,22.45c-1.73.85-.21,3.43,1.52,2.59,20.77-10,37.73-28,44.78-50.17a75.15,75.15,0,0,0,2.38-36.46c-2.32-12.39-8.16-23.85-15-34.29a174.36,174.36,0,0,0-27.8-32.62c-1.42-1.31-3.55.81-2.12,2.12Z"/><path class="cls-6" d="M1910,744.87c-22.72-7.44-48.17-4.44-69.15,6.75A84.87,84.87,0,0,0,1814,774a100.38,100.38,0,0,0-17.49,36.1c-4,14.84-5.11,30.35-4.52,45.65.08,1.93,3.08,1.94,3,0-1-26.16,3.17-53.75,18.29-75.73,13.24-19.26,34.78-31.72,57.73-35.24a82.73,82.73,0,0,1,38.27,3c1.84.6,2.63-2.3.8-2.89Z"/><path class="cls-6" d="M1805.08,873.8l-.12,0h-.07a3.25,3.25,0,0,0-.45-.06,2.15,2.15,0,0,0-.62.07l-.12,0a4.58,4.58,0,0,0-.46.2l-.1.07-.4.31a3.56,3.56,0,0,0-.39.48,1.76,1.76,0,0,0-.14.23,3,3,0,0,0-.22.59c0,.16,0,.33-.07.5v.13c0,.17,0,.34.07.5a.42.42,0,0,0,0,.12,2.4,2.4,0,0,0,.5.86l.08.08a2.78,2.78,0,0,0,.4.3,2.24,2.24,0,0,0,.27.13l.29.11a4.13,4.13,0,0,0,.49.07h.25c.17,0,.34,0,.51-.08a3.18,3.18,0,0,0,.58-.23,1.27,1.27,0,0,0,.22-.13,3.13,3.13,0,0,0,.49-.41,2.22,2.22,0,0,0,.37-.52,3.71,3.71,0,0,0,.19-.46,3.09,3.09,0,0,0,.07-.52.57.57,0,0,0,0-.13,4.51,4.51,0,0,0-.08-.53,1.14,1.14,0,0,0-.27-.51,1.12,1.12,0,0,0-.42-.39l-.36-.15a1.22,1.22,0,0,0-.6,0,.86.86,0,0,0-.38.1,1.37,1.37,0,0,0-.48.31,1.5,1.5,0,0,0-.44,1.07.49.49,0,0,1,0,.17l0-.39a.2.2,0,0,1,0,.11l.15-.35a.25.25,0,0,1,0,.07l.24-.3-.06.05.3-.23-.06,0,.36-.16a.17.17,0,0,1-.1,0l.4,0h-.15l.4,0a.79.79,0,0,1-.26-.08l.35.16a2.26,2.26,0,0,1-.37-.22l.3.23a1.66,1.66,0,0,1-.27-.26l.24.3a.76.76,0,0,1-.12-.19l.15.36,0-.13,0,.4v-.09l0,.4a.19.19,0,0,1,0-.07l-.15.36a.16.16,0,0,1,0-.07l-.24.31a.46.46,0,0,1,.07-.07l-.3.23.12-.07-.36.15.12,0a1.06,1.06,0,0,0,.51-.27,1,1,0,0,0,.38-.42,1.12,1.12,0,0,0,.18-.56,1.08,1.08,0,0,0,0-.59,1.53,1.53,0,0,0-.69-.9,1.56,1.56,0,0,0-1.16-.15l-.09,0a3.93,3.93,0,0,0-.43.18,2.12,2.12,0,0,0-.42.32l0,0a3.92,3.92,0,0,0-.25.32l0,0a1.83,1.83,0,0,0-.23.85v.06a1.17,1.17,0,0,0,0,.22c0,.06,0,.16,0,.23s0,0,0,.06a3,3,0,0,0,.17.41,2.36,2.36,0,0,0,.4.54,3.37,3.37,0,0,0,.54.46,1.78,1.78,0,0,0,.3.17,2.5,2.5,0,0,0,.64.25,2.15,2.15,0,0,0,1,0h0a3.08,3.08,0,0,0,.38-.16l0,0a2.43,2.43,0,0,0,.32-.24l0-.05.25-.32v0s0,0,0,0a2.66,2.66,0,0,0,.16-.39.19.19,0,0,0,0-.08,2.63,2.63,0,0,0,.06-.48.4.4,0,0,0,0-.11l-2.94.39s0,.06,0,.09l0-.4a.6.6,0,0,1,0,.19l.06-.4a.76.76,0,0,1-.06.2l.16-.36-.12.2.23-.3a.9.9,0,0,1-.2.19l.31-.23a1.56,1.56,0,0,1-.28.16l.36-.15a1.38,1.38,0,0,1-.29.08l.4,0h-.25l.39,0-.19,0,.36.15-.16-.09.3.23a.8.8,0,0,1-.13-.13l.24.31a.51.51,0,0,1-.09-.16l.15.36a.61.61,0,0,1,0-.18l0,.39a.81.81,0,0,1,0-.22l-.06.4a1.29,1.29,0,0,1,.08-.28l-.15.36a1.1,1.1,0,0,1,.15-.26l-.23.3a1.14,1.14,0,0,1,.22-.22l-.31.24a.71.71,0,0,1,.22-.13l-.36.15a.79.79,0,0,1,.22-.06l-.4.05h.18l-.4-.05.19.05a1.22,1.22,0,0,0,.6,0,1.34,1.34,0,0,0,1-.57,1.14,1.14,0,0,0,.27-.51l0-.4a1.5,1.5,0,0,0-.2-.75l-.24-.31a1.57,1.57,0,0,0-.66-.38Z"/><path class="cls-6" d="M1812.79,912.44c.91,7,6.51,11.86,11.3,16.48q7.82,7.55,16.28,14.37a248.67,248.67,0,0,0,36,24.18q10.74,5.91,22,10.74c1.76.75,3.29-1.84,1.52-2.59a244.71,244.71,0,0,1-70.41-45.72c-2.8-2.59-5.58-5.23-8.2-8s-5-5.73-5.5-9.45a1.56,1.56,0,0,0-1.5-1.5,1.5,1.5,0,0,0-1.5,1.5Z"/><path class="cls-6" d="M1578.79,972.17l3.32,3.63,1.46-2.51a6.62,6.62,0,0,1-1.59-.4l.35.15a3.43,3.43,0,0,1-.64-.37l.31.23a1.82,1.82,0,0,1-.34-.34l.23.31a1.48,1.48,0,0,1-.19-.35l.15.36a1.11,1.11,0,0,1-.09-.31l0,.4a.74.74,0,0,1,0-.21l0,.4a1.05,1.05,0,0,1,0-.19l-.15.35a1.06,1.06,0,0,1,.12-.2l-.23.31a1,1,0,0,1,.21-.21l-.3.23a1.9,1.9,0,0,1,.34-.2l-.35.15a1.56,1.56,0,0,1,.37-.1l-.4.05h.31l-.4-.05a.67.67,0,0,1,.19.05l-.36-.15a.27.27,0,0,1,.1.06L1581,973l.09.08-.24-.31.06.1-.15-.36,0,.12,0-.4a.74.74,0,0,1,0,.21,1.5,1.5,0,0,0,.44,1.06,1.52,1.52,0,0,0,1.06.44,1.5,1.5,0,0,0,1.06-.44l.23-.3a1.48,1.48,0,0,0,.21-.76,2,2,0,0,0-1.54-2.05,2.85,2.85,0,0,0-2.16.42,2.39,2.39,0,0,0-1.15,2.34,3.19,3.19,0,0,0,1.6,2.27,6.44,6.44,0,0,0,2.33.75l.4,0a1.15,1.15,0,0,0,.58-.13,1.44,1.44,0,0,0,.72-.61,1.56,1.56,0,0,0-.24-1.82l-3.32-3.63a1.51,1.51,0,0,0-2.12,0,1.54,1.54,0,0,0,0,2.12Z"/><path class="cls-6" d="M1617.93,980.85c18.28,8.84,36.6,17.71,53.73,28.66,15.55,9.94,30.07,21.68,41.84,36a118.63,118.63,0,0,1,16.11,25.46c.81,1.75,3.4.23,2.59-1.51-7.63-16.48-19.3-30.81-32.8-42.85-14.69-13.11-31.51-23.55-48.85-32.77-10.23-5.45-20.67-10.5-31.1-15.55-1.73-.84-3.26,1.75-1.52,2.59Z"/><path class="cls-6" d="M1491.48,677.31a108.72,108.72,0,0,1,35.45,16.44,111.39,111.39,0,0,1,27.44,27.6A105.25,105.25,0,0,1,1565,740.72a1.55,1.55,0,0,0,1.85,1,1.5,1.5,0,0,0,1-1.84,111.86,111.86,0,0,0-22-33.68,114.76,114.76,0,0,0-32.37-23.92,109.72,109.72,0,0,0-21.28-7.9c-1.87-.48-2.67,2.41-.8,2.89Z"/><path class="cls-6" d="M1564.16,764a2,2,0,0,0,.28.67,2.57,2.57,0,0,0,.73.74,2.66,2.66,0,0,0,1.37.42,1.37,1.37,0,0,0,.35,0,3.48,3.48,0,0,0,.73-.13,3.27,3.27,0,0,0,.66-.3,2.87,2.87,0,0,0,.55-.44,2.44,2.44,0,0,0,.65-1.62,3.43,3.43,0,0,0-.07-.56,1.09,1.09,0,0,0-.05-.17,2.45,2.45,0,0,0-1.73-1.61,3.69,3.69,0,0,0-.74-.12,3.51,3.51,0,0,0-.72.07,2.73,2.73,0,0,0-1.34.66,2,2,0,0,0-.45.58,2.48,2.48,0,0,0-.3,1.1l.06.4.15.35.23.31a1.21,1.21,0,0,0,.49.31,1.49,1.49,0,0,0,.77.1.7.7,0,0,0,.38-.1,1.11,1.11,0,0,0,.48-.31l.1-.09-.3.24a1.2,1.2,0,0,1,.24-.15l-.35.15a1.38,1.38,0,0,1,.29-.08l-.4.06a1,1,0,0,1,.34,0l-.4-.06a1.45,1.45,0,0,1,.42.12l-.36-.15a2.51,2.51,0,0,1,.45.26l-.3-.23a2.16,2.16,0,0,1,.37.37l-.23-.31a2.3,2.3,0,0,1,.23.4l-.15-.36a2.14,2.14,0,0,1,.09.34l0-.4a1.71,1.71,0,0,1,0,.32l0-.39a1.34,1.34,0,0,1-.07.27l.15-.36a1.28,1.28,0,0,1-.11.2,1.12,1.12,0,0,0-.18.56,1.18,1.18,0,0,0,0,.59,1.5,1.5,0,0,0,1.84,1,1.59,1.59,0,0,0,.9-.69,1.28,1.28,0,0,0,.11-.2,2.66,2.66,0,0,0,.21-.53,2.36,2.36,0,0,0,.07-.79,3,3,0,0,0-.52-1.5,3.8,3.8,0,0,0-1.17-1.09,3.23,3.23,0,0,0-1.54-.44,2.67,2.67,0,0,0-1.88.77l2.56,1.06a.2.2,0,0,0,0-.07l0,.4a.79.79,0,0,1,.06-.22l-.15.35a.58.58,0,0,1,.11-.18l-.24.3a1.37,1.37,0,0,1,.17-.17l-.3.24a1.35,1.35,0,0,1,.26-.15l-.36.15a1.7,1.7,0,0,1,.37-.1l-.39.05h.43l-.4-.05a1.56,1.56,0,0,1,.37.1l-.36-.15a1.43,1.43,0,0,1,.27.15l-.31-.24a.91.91,0,0,1,.17.17l-.23-.3a1.18,1.18,0,0,1,.11.19l-.16-.36a.66.66,0,0,1,.06.2l0-.4a1.13,1.13,0,0,1,0,.26l0-.39a1.33,1.33,0,0,1,0,.19l.15-.36a.72.72,0,0,1-.12.21l.23-.3a.81.81,0,0,1-.19.18l.31-.23a1.64,1.64,0,0,1-.29.16l.35-.15a1.74,1.74,0,0,1-.39.11l.4-.05a2.16,2.16,0,0,1-.44,0l.4.05a1,1,0,0,1-.34-.09l.36.15a1,1,0,0,1-.23-.13l.31.23a1.14,1.14,0,0,1-.16-.15l.24.3a1.08,1.08,0,0,1-.11-.18l.16.36a.85.85,0,0,1-.06-.17,1.53,1.53,0,0,0-.69-.89,1.49,1.49,0,0,0-1.15-.15,1.51,1.51,0,0,0-.9.69,1.63,1.63,0,0,0-.15,1.15Z"/><path class="cls-6" d="M941.62,1082.46c-1.69-16,3-31.8,11.75-45.12A89.08,89.08,0,0,1,989.88,1006c16.54-7.75,35.42-9.79,53.46-8,19,1.86,37.6,8,54.6,16.66,16.49,8.41,32.49,19.13,44.12,33.73,1.42,1.79,2.76,3.65,4,5.55,1.07,1.6,3.67.09,2.59-1.52-10.65-16-26.38-27.74-43-37-17.21-9.62-36.08-16.7-55.63-19.58-18.7-2.75-38.43-1.72-56.17,5.22a92.6,92.6,0,0,0-39.57,29.83c-10,13-16.25,29-16.07,45.53,0,2,.15,4.07.36,6.1s3.21,1.92,3,0Z"/><path class="cls-6" d="M986.19,1035h-1.53a1.06,1.06,0,0,0-.58.13,1.36,1.36,0,0,0-.79.79,1.06,1.06,0,0,0-.13.58l.05.4a1.49,1.49,0,0,0,.39.66,1.54,1.54,0,0,0,1.06.44h1.53a1.15,1.15,0,0,0,.58-.13,1,1,0,0,0,.48-.31,1.14,1.14,0,0,0,.31-.48,1.06,1.06,0,0,0,.13-.58l-.05-.4a1.49,1.49,0,0,0-.39-.66,1.54,1.54,0,0,0-1.06-.44Z"/><path class="cls-6" d="M1020.36,1023.38c10.12-5.1,21.9-4.9,32.71-2.39a109.89,109.89,0,0,1,29.92,12.38c18.4,10.66,34.08,25.33,48.41,40.9,8.23,8.93,16.06,18.23,23.85,27.55,1.24,1.49,3.35-.65,2.12-2.12-14.14-16.93-28.46-33.88-45-48.52-16.14-14.26-34.95-26.84-56-32.45-12.35-3.3-25.87-3.81-37.54,2.06-1.72.87-.2,3.45,1.52,2.59Z"/><path class="cls-6" d="M1201.18,807.11a10.2,10.2,0,0,0-3.66,8.12,6.74,6.74,0,0,0,5.76,6.77c4.09.55,8.25-2,10.53-5.3,2-2.86,2.53-7.2-.34-9.69-2.55-2.22-7-2.72-9,.57a1.5,1.5,0,0,0,2.59,1.51,3.53,3.53,0,0,1,.21-.32c-.2.28,0,0,.08-.07s.36-.28.07-.07a2.9,2.9,0,0,1,.29-.19c.07,0,.41-.17.07-.05l.34-.11.35-.08c-.38.08.12,0,.21,0h.37c.06,0,.47.06.11,0a6.74,6.74,0,0,1,.75.17l.37.13c-.32-.12.08,0,.12.06a6.32,6.32,0,0,1,.79.47c.34.23-.19-.2.11.09.09.09.19.17.28.27s.18.19.27.28c-.22-.24,0,.07.07.11a3.79,3.79,0,0,1,.2.34s.19.43.07.11a6.91,6.91,0,0,1,.22.81,5.49,5.49,0,0,1-.93,3.67,9.16,9.16,0,0,1-7.28,4.36,3.85,3.85,0,0,1-1.79-.41l-.36-.21s-.38-.28-.13-.08a5.69,5.69,0,0,1-.56-.54c-.28-.28.14.24-.08-.09-.07-.11-.15-.22-.21-.33s-.13-.22-.19-.33-.17-.44,0-.12a5.94,5.94,0,0,1-.23-.75c0-.13-.06-.26-.08-.39s0-.17,0,0a2.28,2.28,0,0,1,0-.26,7.85,7.85,0,0,1,0-1l0-.41c0-.18,0-.19,0,0,0-.1,0-.19,0-.28.06-.33.14-.65.23-1,0-.14.09-.28.13-.41s.22-.58.11-.32a6.53,6.53,0,0,1,2.24-3,1.51,1.51,0,0,0,0-2.12,1.54,1.54,0,0,0-2.12,0Z"/><path class="cls-6" d="M1288.93,777.2a76.11,76.11,0,0,0-41.24,28.88,73.68,73.68,0,0,0-11.27,23.07c-2.12,7.47-3,16-.07,23.35a17.37,17.37,0,0,0,7,8.56c4.15,2.47,9.07,2.7,13.69,1.69a45.25,45.25,0,0,0,13.53-5.92,139.48,139.48,0,0,0,12.32-8.42,141.76,141.76,0,0,0,21.5-20.27,138.17,138.17,0,0,0,9-11.61c2.81-4.06,5.47-8.86,4.39-14-1-4.5-4.69-7.81-8.3-10.32a41.62,41.62,0,0,0-12-5.73,44.58,44.58,0,0,0-26.59.34,42.88,42.88,0,0,0-6.16,2.63c-1.71.89-.2,3.48,1.51,2.59a40.69,40.69,0,0,1,24.47-4,41.54,41.54,0,0,1,11.85,3.58,30.07,30.07,0,0,1,10.18,7.38,9.39,9.39,0,0,1,2.33,5.8,13.46,13.46,0,0,1-1.92,6.51,79.06,79.06,0,0,1-8.14,11.46,140.59,140.59,0,0,1-19.45,19.73q-5.27,4.38-11,8.21a82.85,82.85,0,0,1-12,7c-4,1.8-8.67,3.17-13.09,2.39a13.12,13.12,0,0,1-8.92-6c-3.81-6.1-3.57-14.25-2-21a69.89,69.89,0,0,1,9.24-21.78,73.49,73.49,0,0,1,36.45-29.5c1.82-.66,3.68-1.24,5.55-1.75a1.5,1.5,0,0,0-.8-2.89Z"/><path class="cls-6" d="M1105.26,865.28a7,7,0,0,0,.11,6.66,7.38,7.38,0,0,0,2.3,2.57,6.41,6.41,0,0,0,1.5.76,5.12,5.12,0,0,0,.67.19,2.09,2.09,0,0,0,1.64-.4c2.21-1.4,4.36-3.47,4.73-6.18a4.49,4.49,0,0,0-.7-3.29,5.36,5.36,0,0,0-2.53-1.84c-2.06-.75-4.87-.06-5.32,2.38a1.54,1.54,0,0,0,1,1.85,1.51,1.51,0,0,0,1.84-1.05c0-.09,0-.18.07-.27.06-.3-.15.23,0,.06s.12-.18.14-.24-.22.25-.13.17l.12-.11c.15-.17-.32.19-.07.05l.21-.12c.18-.11-.15.08-.17.08a.69.69,0,0,0,.13,0l.27-.06c.24-.06-.38,0-.07,0h.26l.31,0c.05,0,.2,0,0,0s0,0,0,0l.54.15.15.06s-.35-.17-.14-.06l.29.15.24.14a.6.6,0,0,0,.13.09c.12.07-.15-.11-.15-.11a3.73,3.73,0,0,0,.45.44s-.21-.32-.09-.12a.36.36,0,0,0,.07.1c0,.07.08.16.13.23s-.06-.1,0-.14,0,.12,0,.15,0,.2.08.3-.08-.06,0-.12a1.21,1.21,0,0,0,0,.19,2.94,2.94,0,0,1,0,.42.89.89,0,0,1,0,.23s.06-.33,0,0-.07.3-.11.45-.09.26-.14.39.12-.22,0,0l-.08.16a7.46,7.46,0,0,1-.5.82c0,.06-.18.22,0,0a1.46,1.46,0,0,0-.16.19l-.38.42a9.23,9.23,0,0,1-.8.73l-.14.13c-.1.08-.22.16,0,0l-.42.3c-.31.21-.63.41-1,.61l1.15-.16a3.8,3.8,0,0,1-.58-.15,1.24,1.24,0,0,1-.29-.1l.13,0-.13-.06a5.39,5.39,0,0,1-.52-.3l-.2-.15c-.1-.06.24.22,0,0l-.43-.41-.17-.19s-.09-.1-.13-.16l.11.15c-.12-.07-.26-.38-.33-.5a4,4,0,0,1-.29-.54l0-.09c-.06-.15,0-.12,0,.08-.06,0-.09-.23-.11-.28s-.11-.36-.16-.54c0,0-.11-.54-.11-.54,0,.23,0,.27,0,.1v-.1c0-.1,0-.2,0-.3a5.72,5.72,0,0,1,0-.59c0-.35-.07.34,0,0l.06-.29c0-.2.11-.39.17-.58s-.11.19,0,0,.1-.22.16-.32a1.5,1.5,0,0,0-2.59-1.51Z"/><path class="cls-6" d="M1142.56,889.43a2.59,2.59,0,0,0,2,2.56,3.32,3.32,0,0,0,3-.7,1.89,1.89,0,0,0,.48-.64,2.44,2.44,0,0,0,.27-1.21,1.49,1.49,0,0,0-1.5-1.5,1.52,1.52,0,0,0-1.06.44,1.5,1.5,0,0,0-.44,1.06.81.81,0,0,1,0,.22l0-.4a.86.86,0,0,1-.06.23l.15-.36a1.39,1.39,0,0,1-.11.21l.23-.31a.9.9,0,0,1-.19.2l.3-.24a1.57,1.57,0,0,1-.31.18l.36-.15a2.3,2.3,0,0,1-.45.12l.4-.06a2.53,2.53,0,0,1-.55,0l.39,0a1.88,1.88,0,0,1-.45-.12l.36.15a1.34,1.34,0,0,1-.31-.17l.31.23a.77.77,0,0,1-.18-.18l.23.31a.82.82,0,0,1-.12-.2l.15.36a2.5,2.5,0,0,1-.07-.26l.06.4a1.55,1.55,0,0,1,0-.22,1.49,1.49,0,0,0-.44-1.06,1.54,1.54,0,0,0-1.06-.44,1.56,1.56,0,0,0-1.06.44,1.68,1.68,0,0,0-.44,1.06Z"/><path class="cls-6" d="M1168.52,887.89v1a1.5,1.5,0,0,0,3,0v-1a1.5,1.5,0,0,0-3,0v1a1.5,1.5,0,0,0,3,0v-1a1.5,1.5,0,0,0-3,0Z"/><path class="cls-6" d="M1751.33,676.36a49.61,49.61,0,0,1,11.43,8.11l-.24-1.82a8.21,8.21,0,0,1-9.68,4.24c-3.88-1.11-5.49-5.27-4.57-9a7.46,7.46,0,0,1,3.74-5c1.72-.89.2-3.48-1.51-2.59-4.68,2.44-6.65,8.69-4.82,13.53a9.52,9.52,0,0,0,5.38,5.58,11.32,11.32,0,0,0,7.49.24,10.4,10.4,0,0,0,6.56-5.51,1.55,1.55,0,0,0-.23-1.82,52.15,52.15,0,0,0-12-8.58c-1.71-.88-3.23,1.71-1.51,2.59Z"/><path class="cls-6" d="M1769,704a1.5,1.5,0,0,0,0-3,1.5,1.5,0,0,0,0,3Z"/><path class="cls-6" d="M1798.45,723.15a10.16,10.16,0,0,0,4.72,3.65c1.6.73,3.62,1.33,4.88,2.45a1.44,1.44,0,0,1,.5.66c-.11-.25.07.36,0,.21a4.41,4.41,0,0,1,0,.49c-.2,1.23-1.73,2.45-2.55,3.35l-7.7,8.39,2.5.66a76.16,76.16,0,0,1-2.88-19c0-1.93-3-1.93-3,0a78.79,78.79,0,0,0,3,19.83,1.52,1.52,0,0,0,2.51.66l8.4-9.15c1.79-2,3.75-4.45,2.17-7.14-1-1.76-3.12-2.58-4.91-3.35s-4-1.49-5.08-3.19-3.61-.13-2.59,1.51Z"/></g></g></svg>