<svg xmlns="http://www.w3.org/2000/svg" viewBox="0 0 300 300"><defs><style>.cls-1{fill:#4d9798;}.cls-2{fill:#8a002e;}.cls-3{fill:#b78e70;}.cls-10,.cls-13,.cls-14,.cls-16,.cls-3,.cls-4,.cls-8,.cls-9{stroke:#000;}.cls-10,.cls-13,.cls-14,.cls-16,.cls-3,.cls-4,.cls-6,.cls-8,.cls-9{stroke-miterlimit:10;}.cls-17,.cls-4{fill:#8a0070;}.cls-4{stroke-width:0.5px;}.cls-5{fill:#9f2800;}.cls-13,.cls-16,.cls-6{fill:none;}.cls-6{stroke:#d4145a;}.cls-7{fill:#0a002e;}.cls-8{fill:#f2dece;}.cls-9{fill:#42210b;}.cls-10{fill:#2a1100;}.cls-11{opacity:0.5;}.cls-12{fill:#001a55;}.cls-13{stroke-width:1.5px;}.cls-14{fill:#191919;}.cls-15{fill:#8a004d;}</style></defs><g id="Layer_13" data-name="Layer 13"><rect class="cls-1" width="300" height="300"/></g><g id="Layer_14" data-name="Layer 14"><ellipse class="cls-2" cx="153.33" cy="215.51" rx="38.77" ry="17.25" transform="translate(-22.35 17.79) rotate(-6.19)"/></g><g id="Layer_11" data-name="Layer 11"><path d="M290.51,301.07c-2.51-5.08-4.71-10-6.72-15.16a172.21,172.21,0,0,1-7.18-22.44c-1.17-4.55-2-7.84-3.65-11-6-11.67-22-18.58-47.46-20.54a88.37,88.37,0,0,1-42.95-14,155.29,155.29,0,0,1,1-20.82A150.72,150.72,0,0,1,186.13,182l.1-.46-.45-.13c-5.68-1.67-55.74-15.87-63.39-1.3a10.3,10.3,0,0,0-.82,6.5l5.52,34.64,0,.2c-1.18.43-2.36.85-3.55,1.26a198.2,198.2,0,0,1-46.74,10c-6.3.57-11.12.69-15,.79-6.56.17-10.9.28-16.05,2.33-17,6.77-28.41,29.29-34,66.94l-.09.57h.58l182.45-1,96.13-.54Zm-95.79.26-181.86,1c5.57-36.93,16.78-59,33.31-65.58,5-2,9.24-2.1,15.69-2.26,3.89-.1,8.73-.23,15.06-.79a199.1,199.1,0,0,0,50.67-11.38l.26-.09.39-.14-.07-.41,0-.2q-2.79-17.52-5.59-35.05a9.43,9.43,0,0,1,.72-5.88c2.37-4.5,9.17-6.06,17.47-6.06,16.67,0,39.39,6.3,44.31,7.73-1.05,4.83-1.88,9.81-2.46,14.8a159.11,159.11,0,0,0-1,21.07v.42l.23.15.42.26a89,89,0,0,0,43.22,14c25.08,1.93,40.78,8.65,46.65,20,1.57,3,2.4,6.29,3.56,10.78a173.4,173.4,0,0,0,7.22,22.55c1.93,4.91,4,9.67,6.4,14.52Z"/><path class="cls-3" d="M182.59,197a159.11,159.11,0,0,0-1,21.07c-3.22,5-10.66,11.34-21.21,13.15s-21.7-1.57-32.21-9.76q-2.79-17.52-5.59-35.05a9.43,9.43,0,0,1,.72-5.88c2.37-4.5,9.17-6.06,17.47-6.06,16.67,0,39.39,6.3,44.31,7.73C184,187.07,183.17,192.05,182.59,197Z"/><path class="cls-4" d="M289.26,300.79l-94.54.54-181.86,1c5.57-36.93,16.78-59,33.31-65.58,5-2,9.24-2.1,15.69-2.26,3.89-.1,8.73-.23,15.06-.79a199.1,199.1,0,0,0,50.67-11.38c10.47,8.14,19.92,10.39,27.17,10.39a34.39,34.39,0,0,0,5.76-.49c10.66-1.82,18.27-8.21,21.69-13.3a89,89,0,0,0,43.22,14c25.08,1.93,40.78,8.65,46.65,20,1.57,3,2.4,6.29,3.56,10.78a173.4,173.4,0,0,0,7.22,22.55C284.79,291.18,286.89,295.94,289.26,300.79Z"/><path class="cls-4" d="M182.48,218.53c-.09.13-.17.27-.27.41-3.42,5.09-11,11.48-21.69,13.3a34.39,34.39,0,0,1-5.76.49c-7.25,0-16.7-2.25-27.17-10.39l-.22-.17c-.13,0-.92.29-1.39.46-1.17.41-2.09.75-2.53.17l.12-.09.68-.51a.21.21,0,0,0-.12-.09,6.48,6.48,0,0,0,1.52-.42,9.09,9.09,0,0,1,1.44-.44,1.07,1.07,0,0,1,.9.14l.15.11c10.51,8.19,21.64,11.56,32.21,9.76s18-8.19,21.21-13.15l.08-.12Z"/></g><g id="Layer_12" data-name="Layer 12"><path d="M188,206.94a4.68,4.68,0,0,0-.26-1.16c-.28,0-.57-.06-.86-.08h-.26A3.86,3.86,0,0,1,187,207c.19,1.92-1,4.19-3.51,6.54-5.32,5-15.33,9.7-26.42,11.7l-.4.52.71.42c11.25-2.05,21.39-6.77,26.8-11.91C186.89,211.73,188.21,209.18,188,206.94Zm51,24.27c-2.8-10.62-9.78-17.83-13.69-21.19-13.57-11.64-32-13.06-38.8-11.24-1.75.47-2.79,1.14-3.1,2-.38,1.07.48,1.87,1.39,2.71a13.91,13.91,0,0,1,1.14,1.16,4.92,4.92,0,0,1,.7,1A3.86,3.86,0,0,1,187,207c.19,1.92-1,4.19-3.51,6.54-5.32,5-15.33,9.7-26.42,11.7l-1.43.23a58.5,58.5,0,0,1-17.67.23c-4.54-.68-12.14-1.82-14.69-7.37-2-4.33-.06-9.26,1.27-11.82l.42-.81-.91.08c-8,.73-19.54,3.43-28.64,12.14-17,16.28-16.75,45.85-6.73,63.92,7.45,13.44,22.73,22.84,43,26.46A104.13,104.13,0,0,0,150,309.93a111.67,111.67,0,0,0,36.64-6.19c.38-.13.77-.26,1.15-.41a84.51,84.51,0,0,0,26.27-14.93,95.55,95.55,0,0,0,19.34-24.09c.2-.36.4-.73.59-1.1C238.89,253.8,242,242.63,239,231.21Zm-5.59,30.73-.57,1.11a96,96,0,0,1-19.41,24.59,83,83,0,0,1-25.32,14.52c-.37.15-.76.29-1.14.42a109.57,109.57,0,0,1-55.05,4.78c-20-3.57-35-12.79-42.33-26-9.83-17.75-10.13-46.77,6.55-62.72,8.57-8.19,19.33-10.94,27.15-11.77-1.35,2.87-2.85,7.6-.88,11.87,2.77,6,10.7,7.24,15.44,7.95a59.64,59.64,0,0,0,18-.24h0c.5-.08,1-.17,1.51-.27,11.25-2.05,21.39-6.77,26.8-11.91,2.71-2.58,4-5.13,3.81-7.37a4.68,4.68,0,0,0-.26-1.16,4.57,4.57,0,0,0-.53-1.06,10.1,10.1,0,0,0-1.75-1.95c-.8-.74-1.28-1.22-1.13-1.65.09-.24.5-.86,2.42-1.37,6.45-1.73,24.76-.23,37.89,11,3.82,3.28,10.64,10.33,13.38,20.69C240.84,242.19,238,252.84,233.38,261.94Z"/><path class="cls-5" d="M233.4,261.94l-.57,1.11a96,96,0,0,1-19.41,24.59,83,83,0,0,1-25.32,14.52c-.37.15-.76.29-1.14.42a109.57,109.57,0,0,1-55.05,4.78c-20-3.57-35-12.79-42.33-26-9.83-17.75-10.13-46.77,6.55-62.72,8.57-8.19,19.33-10.94,27.15-11.77-1.35,2.87-2.85,7.6-.88,11.87,2.77,6,10.7,7.24,15.44,7.95a59.64,59.64,0,0,0,18-.24h0c.5-.08,1-.17,1.51-.27,11.25-2.05,21.39-6.77,26.8-11.91,2.71-2.58,4-5.13,3.81-7.37a4.68,4.68,0,0,0-.26-1.16,4.57,4.57,0,0,0-.53-1.06,10.1,10.1,0,0,0-1.75-1.95c-.8-.74-1.28-1.22-1.13-1.65.09-.24.5-.86,2.42-1.37,6.45-1.73,24.76-.23,37.89,11,3.82,3.28,10.64,10.33,13.38,20.69C240.86,242.19,238,252.84,233.4,261.94Z"/><path d="M187.2,204.72l-.26,0c-.34,0-.69,0-1,0-9.58-.06-19.75,6.93-30.27,20.85l-.11.15-.34.45.5.28.17.1h0c.5-.08,1-.17,1.51-.27l-.71-.42.4-.52c10.36-13.44,20.29-20,29.54-19.59h.26c.29,0,.58,0,.86.08A4.57,4.57,0,0,0,187.2,204.72Zm71.92,115.79c-1.83-4.43-3.72-8.9-5.62-13.29C246.44,291,240,276.17,234,263.21l-.6-1.27-.57,1.11.58,1.26c5.94,12.78,12.25,27.33,19.19,43.31,1.82,4.2,3.64,8.48,5.39,12.73l-91.11,21.72a100.48,100.48,0,0,0,20.92-38.74q.16-.58.3-1.17c-.37.15-.76.29-1.14.42-.09.39-.2.77-.31,1.16a100.19,100.19,0,0,1-21.54,38.84l-1,1.19,95.28-22.72Z"/><path class="cls-2" d="M258,320.35l-91.11,21.72a100.48,100.48,0,0,0,20.92-38.74,84.51,84.51,0,0,0,26.27-14.93,95.55,95.55,0,0,0,19.34-24.09c5.94,12.78,12.25,27.33,19.19,43.31C254.4,311.82,256.22,316.1,258,320.35Z"/><path class="cls-2" d="M183.49,213.58c-5.32,5-15.33,9.7-26.42,11.7,10.36-13.44,20.29-20,29.54-19.59A3.86,3.86,0,0,1,187,207C187.19,209,186,211.23,183.49,213.58Z"/></g><g id="face"><path class="cls-3" d="M196.73,55.26c-6.39-6.33-21-17.11-47.16-18.54v-1l-.48,0-.52,0v.91C122.4,38,107.8,48.79,101.41,55.13c-36.53,40.14-8,105.62,6.59,124.93,9.14,10.31,23,16.68,40,18.45,1.63,0,3.26-.16,4.89-.19,15.77-2.15,28.6-8.38,37.27-18.16C204.69,160.88,233.26,95.4,196.73,55.26Z"/></g><g id="Layer_10" data-name="Layer 10"><path class="cls-6" d="M92.1,145.38l2,2.73c21.75,29.19,21.8,35.7,21.18,39.3a20.31,20.31,0,0,1-4.5,9.38c-3.39,4.24-10.31,9.78-16.17,8.51-9.42-2.05-13.05-21.08-12.08-33.87A52.8,52.8,0,0,1,92.1,145.38Z"/><path class="cls-6" d="M91.56,152.21C92.23,147,107,169,108.41,181.48c2,18-4.06,21.19-11.91,12.77C85.24,182.18,89.44,168.8,91.56,152.21Z"/><path class="cls-6" d="M208.48,145.38l-2,2.73c-21.75,29.19-21.79,35.7-21.18,39.3a20.51,20.51,0,0,0,4.5,9.38c3.39,4.24,10.32,9.78,16.17,8.51,9.42-2.05,13-21.08,12.09-33.87A52.79,52.79,0,0,0,208.48,145.38Z"/><path class="cls-6" d="M209,152.21c-.67-5.25-15.47,16.8-16.85,29.27-2,18,4.06,21.19,11.92,12.77C215.35,182.18,211.14,168.8,209,152.21Z"/></g><g id="Layer_3" data-name="Layer 3"><path class="cls-7" d="M150,131.6l-.21.09-.29.13c-33.86,15.4-42.68,16-44.12,13.72a2.8,2.8,0,0,1-.27-.64c-.14-.42-.32-.93-.86-1a1.26,1.26,0,0,0-1,.44l0,0a7.6,7.6,0,0,0-1.22,1.9,43.38,43.38,0,0,0-3.6,19.43s0,.24.06.55h0a27.07,27.07,0,0,0,.53,2.87,16.73,16.73,0,0,0,3.25,7l.14.15c.14.16.37.39,1,1,6.87,6.56,19.67,18.78,38,21.78a52.82,52.82,0,0,0,8.11.69h1v-68.3Zm-47.41,44.3h0l.11-.09Zm46.91,22.77a53.29,53.29,0,0,1-7.95-.67c-18.07-3-30.72-15-37.52-21.53-.56-.54-.78-.76-.92-.91l-.08-.08c-3.06-3.44-3.63-9.8-3.64-9.86a42.5,42.5,0,0,1,3.48-18.93l.17-.34a3.72,3.72,0,0,1,1-1.42l.1.29a3.49,3.49,0,0,0,.38.86c1.54,2.42,7.9,3.67,45-13.15Z"/><path class="cls-2" d="M149.5,132.93v65.74a53.29,53.29,0,0,1-7.95-.67c-18.07-3-30.72-15-37.52-21.53-.56-.54-.78-.76-.92-.91l-.08-.08c-3.06-3.44-3.63-9.8-3.64-9.86a42.5,42.5,0,0,1,3.48-18.93l.24-.05c0-.09,0-.19-.07-.29a3.72,3.72,0,0,1,1-1.42l.1.29a3.49,3.49,0,0,0,.38.86C106.08,148.5,112.44,149.75,149.5,132.93Z"/><path class="cls-7" d="M198.2,146.8c-.11-.26-.23-.5-.34-.72a8.37,8.37,0,0,0-.83-1.35c-.58-.78-1-.86-1.28-.82-.54.06-.72.57-.86,1a2.8,2.8,0,0,1-.27.64c-1.44,2.24-10.26,1.68-44.12-13.72l-.29-.13-.21-.09-.5-.23v68.3h1a52.82,52.82,0,0,0,8.11-.69c18.38-3,31.18-15.22,38.06-21.79.71-.68.89-.88,1-1.05a15.47,15.47,0,0,0,3.36-6.82,20.94,20.94,0,0,0,.47-2.78C202.37,159,199.94,150.6,198.2,146.8ZM197,175.48c-.15.16-.32.34-1,1C189.17,183,176.52,195,158.45,198a53.29,53.29,0,0,1-7.95.67V132.93c37.07,16.82,43.42,15.57,45,13.15a3.49,3.49,0,0,0,.38-.86l.09-.25c.61.49,2.07,3.18,3.28,7.71C200.19,156.33,202.92,168.78,197,175.48Z"/><path class="cls-5" d="M197,175.48c-.15.16-.32.34-1,1C189.17,183,176.52,195,158.45,198a53.29,53.29,0,0,1-7.95.67V132.93c37.07,16.82,43.42,15.57,45,13.15a3.49,3.49,0,0,0,.38-.86l.09-.25c.61.49,2.07,3.18,3.28,7.71C200.19,156.33,202.92,168.78,197,175.48Z"/><path d="M102.87,145.6l.6-.13c-.08-.36-.16-.73-.25-1.1-1.46-6-4.72-13.94-12-19.78a31.92,31.92,0,0,0-5-3.29c-1.86-1-6.21-2.27-9.36-.14s-4.07,6.61-2.59,11.1a64.05,64.05,0,0,0,16.47,28.48c.73.72,1.68,1.77,2.69,2.87a48.76,48.76,0,0,0,5.1,5.15l.49.37.31.23v-2.43l-.2-.15a8.18,8.18,0,0,1-.64-.52h0c-1.11-1-2.57-2.55-3.89-4-.94-1-1.82-1.95-2.5-2.61a56.2,56.2,0,0,1-14.83-25.15c-1.21-3.59-.37-7.32,2-8.88,2.61-1.73,6.37-.46,7.6.17a29,29,0,0,1,4.44,2.86c6.62,5.2,9.49,12.33,10.74,17.6,0,.2.1.39.14.58l.73-.16.24-.05c0-.09,0-.19-.07-.29C103,146.1,102.93,145.85,102.87,145.6Zm-11-17.72a28.49,28.49,0,0,0-4.59-2.95c-1.71-.89-5.71-2.05-8.61-.13s-3.75,6-2.39,10q.87,3,2,5.8A71.23,71.23,0,0,1,75.2,132c-1.33-4-.41-8.23,2.19-10a6.17,6.17,0,0,1,3.51-1,11.21,11.21,0,0,1,4.82,1.18,30.57,30.57,0,0,1,4.86,3.18,32.39,32.39,0,0,1,9.28,12.23A29.67,29.67,0,0,0,91.87,127.88Z"/><path class="cls-2" d="M99.86,137.6a29.67,29.67,0,0,0-8-9.72,28.49,28.49,0,0,0-4.59-2.95c-1.71-.89-5.71-2.05-8.61-.13s-3.75,6-2.39,10q.87,3,2,5.8A71.23,71.23,0,0,1,75.2,132c-1.33-4-.41-8.23,2.19-10a6.17,6.17,0,0,1,3.51-1,11.21,11.21,0,0,1,4.82,1.18,30.57,30.57,0,0,1,4.86,3.18A32.39,32.39,0,0,1,99.86,137.6Z"/><path d="M223.5,121.16c-3.16-2.13-7.51-.84-9.37.14a32.3,32.3,0,0,0-5,3.29c-7.43,5.95-10.68,14.1-12.09,20.14-.06.25-.12.5-.17.74l.6.13c-.09.35-.17.7-.25,1l1,.21s0,0,0,0c1.18-5.32,4-12.76,10.87-18.13a27.74,27.74,0,0,1,4.44-2.85c1.23-.64,5-1.91,7.59-.18,2.36,1.56,3.19,5.29,2,8.9a56.22,56.22,0,0,1-14.82,25.13c-.69.66-1.57,1.61-2.5,2.62a53.07,53.07,0,0,1-4.22,4.25l-.31.24-.21.15v2.43l0,0,.75-.56a47.79,47.79,0,0,0,5.11-5.15c1-1.11,1.95-2.15,2.68-2.87a64,64,0,0,0,16.47-28.46C227.56,127.77,226.5,123.19,223.5,121.16ZM225.12,132a69.24,69.24,0,0,1-3.06,8.63c.74-1.87,1.4-3.79,2-5.78,1.37-4.07.39-8.2-2.38-10a6.79,6.79,0,0,0-3.77-1,11.29,11.29,0,0,0-4.84,1.17,29,29,0,0,0-4.6,2.95,29.83,29.83,0,0,0-8,9.71,32.34,32.34,0,0,1,9.28-12.22,30.48,30.48,0,0,1,4.85-3.18c1.35-.72,5.48-2.14,8.34-.2C225.53,123.74,226.45,127.94,225.12,132Z"/><path class="cls-5" d="M225.12,132a69.24,69.24,0,0,1-3.06,8.63c.74-1.87,1.4-3.79,2-5.78,1.37-4.07.39-8.2-2.38-10a6.79,6.79,0,0,0-3.77-1,11.29,11.29,0,0,0-4.84,1.17,29,29,0,0,0-4.6,2.95,29.83,29.83,0,0,0-8,9.71,32.34,32.34,0,0,1,9.28-12.22,30.48,30.48,0,0,1,4.85-3.18c1.35-.72,5.48-2.14,8.34-.2C225.53,123.74,226.45,127.94,225.12,132Z"/></g><g id="Layer_4" data-name="Layer 4"><path class="cls-8" d="M163.87,119.7c1.1-4.66,7.45-7.59,12.59-7.32a16.54,16.54,0,0,1,7,2.21,21.42,21.42,0,0,1,4.94,3.57l3.57,4.77a38.14,38.14,0,0,1-21.78,1.87,34.79,34.79,0,0,1-6.3-2A6.75,6.75,0,0,1,163.87,119.7Z"/><circle class="cls-9" cx="182.48" cy="120.16" r="4.66"/><path class="cls-8" d="M136.13,119.68c-1.1-4.65-7.45-7.58-12.59-7.32a16.68,16.68,0,0,0-7,2.21,21.41,21.41,0,0,0-4.94,3.58l-3.57,4.76a38.13,38.13,0,0,0,21.78,1.88,34.77,34.77,0,0,0,6.3-2.05A6.75,6.75,0,0,0,136.13,119.68Z"/><circle class="cls-9" cx="128.91" cy="120.16" r="4.66"/><path class="cls-10" d="M138.91,108.4a24.59,24.59,0,0,0-13.65-6.51c-9.7-1.19-18.37,4-18.13,5.11.1.46,1.77.66,3.06.38a5.3,5.3,0,0,0,2.55-1.4A21.3,21.3,0,0,1,124,103.81c2.8.27,5.43,1.17,9.83,2.68C135.94,107.22,137.69,107.9,138.91,108.4Z"/><path class="cls-10" d="M163,107.45c12.31-9.4,20.27-8.43,23.48-7.61,2.4.61,6.63,2.29,6.52,2.8-.07.28-1.41.1-4.65,0,0,0-1.42,0-4.88,0-4.36.06-8.39,1.2-16.27,3.49C165.41,106.71,164,107.16,163,107.45Z"/></g><g id="Layer_5" data-name="Layer 5"><path d="M159.1,121l-1,.23a41.33,41.33,0,0,1-18.15,0c-.33-.06-.66-.14-1-.22a4,4,0,0,1-.11,1c.32.09.65.16,1,.23a42.58,42.58,0,0,0,18.46,0c.32-.06.65-.14,1-.23A5.58,5.58,0,0,1,159.1,121Zm.74,3-1,.24a44.5,44.5,0,0,1-19.59,0l-1-.22a9.33,9.33,0,0,1-.34.93c.33.09.65.17,1,.23a47.13,47.13,0,0,0,10.21,1.14,44.25,44.25,0,0,0,10.07-1.15h0l1-.25A6.67,6.67,0,0,1,159.84,124Z"/><path class="cls-11" d="M140,121.2a6.16,6.16,0,0,1-.14,1c-.12.56-.3,1.17-.51,1.87l0,.1s0,0,0,0c-.1.32-.21.63-.34.94-1.45,3.7-4.73,6.65-9.75,8.79a22.91,22.91,0,0,1-8.62,1.68,20.43,20.43,0,0,1-8.51-1.81,20.94,20.94,0,0,1-7.42-5.56c-.28-.33-.54-.68-.8-1a16.49,16.49,0,0,1-1.6-2.84,16.71,16.71,0,0,1-1.14-3.7c0-.11-.06-.21-.08-.32-.08-.34-.15-.66-.19-1-.31-1.83-.06-3.14.76-3.89a3,3,0,0,1,2.11-.71,11.77,11.77,0,0,1,4.13,1.06l.16.06c6,2.43,13.38,1.93,19.29,1.52,6.13-.42,11-.75,12.37,2.18A3.29,3.29,0,0,1,140,121.2Z"/><path d="M103.78,125.22v.56a3,3,0,0,0,.54,1.36l.06.1-.55,0-10.68-.63a.8.8,0,0,1-.8-.8v-1.86a3,3,0,0,1,0-.3h.1l8.56-3.27L102,120a7.73,7.73,0,0,1-.19-1l-1,.36-8.47,3.23a1.06,1.06,0,0,0-.74.28,1.3,1.3,0,0,0-.26,1v1.84a1.8,1.8,0,0,0,1.77,1.8l11.51.67h.25a.69.69,0,0,0,.63-.33.34.34,0,0,0,0-.14A15.69,15.69,0,0,1,103.78,125.22Z"/><path class="cls-12" d="M103.83,127.21l-10.68-.63a.8.8,0,0,1-.8-.8v-1.86a3,3,0,0,1,0-.3h.1l8.56-3.27c0,.11,0,.21.08.32a16.71,16.71,0,0,0,1.14,3.7A16.49,16.49,0,0,0,103.83,127.21Z"/><path class="cls-11" d="M196.48,115.28c-1.64-1.51-4.87-.21-6.24.35l-.16.06c-6,2.43-13.39,1.92-19.29,1.52-6.14-.42-11-.75-12.37,2.18a3.41,3.41,0,0,0-.31,1.8,7.77,7.77,0,0,0,.17,1c.12.51.29,1.06.47,1.68l0,.1a2.25,2.25,0,0,0,.08.24c.1.32.22.64.35,1h0c1.49,3.6,4.73,6.48,9.66,8.58a22.91,22.91,0,0,0,8.62,1.68,20.43,20.43,0,0,0,8.51-1.81,20.94,20.94,0,0,0,7.42-5.56c.28-.33.54-.68.8-1a16.63,16.63,0,0,0,2.73-6.5c0-.12.06-.24.08-.35a9.84,9.84,0,0,0,.33-2.34A3.25,3.25,0,0,0,196.48,115.28Z"/><path class="cls-12" d="M158.86,124.19a44.5,44.5,0,0,1-19.59,0s0,0,0,0l0-.1c.21-.7.39-1.31.51-1.87a42.58,42.58,0,0,0,18.46,0c.12.51.29,1.06.47,1.68l0,.1A2.25,2.25,0,0,0,158.86,124.19Z"/><path d="M206.45,122.68a1.06,1.06,0,0,0-.74-.28l-8.46-3.25-1-.38a8.67,8.67,0,0,1-.19,1l.94.37,8.39,3.22.18,0h.1a3,3,0,0,1,0,.3v1.86a.81.81,0,0,1-.83.8l-10.65.63-.55,0,.06-.1a3,3,0,0,0,.54-1.36V125a15.69,15.69,0,0,1-1.78,2.58.5.5,0,0,0,.05.13.67.67,0,0,0,.63.33h.25l11.48-.67a1.81,1.81,0,0,0,1.8-1.8v-1.84A1.3,1.3,0,0,0,206.45,122.68Z"/><path class="cls-12" d="M205.71,123.7v1.86a.81.81,0,0,1-.83.8l-10.65.63a16.63,16.63,0,0,0,2.73-6.5c0-.12.06-.24.08-.35l8.39,3.22.18,0h.1A3,3,0,0,1,205.71,123.7Z"/><path class="cls-13" d="M102.25,115.5c-2,1.4-1.09,7,1.34,10.81a14.81,14.81,0,0,0,3.06,3.45c6.23,5.2,19,7.86,26.44,2.12a19.48,19.48,0,0,0,5.26-6.86,6.55,6.55,0,0,0,.88-4,5.26,5.26,0,0,0-1.74-3.28c-1.81-1.42-4.38-.84-5.73-.58-7,1.31-13.45,2.46-18.76.39a31.19,31.19,0,0,0-8.74-2.34A2.88,2.88,0,0,0,102.25,115.5Z"/><path class="cls-13" d="M195.7,115.48c2,1.39,1.09,7-1.33,10.8a14.87,14.87,0,0,1-3.07,3.45c-6.23,5.21-19,7.86-26.44,2.13A19.48,19.48,0,0,1,159.6,125a6.56,6.56,0,0,1-.88-4,5.28,5.28,0,0,1,1.74-3.29c1.81-1.41,4.38-.83,5.73-.58,7,1.31,13.45,2.47,18.76.4a30.93,30.93,0,0,1,8.75-2.34A2.76,2.76,0,0,1,195.7,115.48Z"/></g><g id="Layer_8" data-name="Layer 8"><path class="cls-14" d="M134.32,64.11c-10.45,4.75-26.62,14.18-36,31.91-12.22,23.1-6.15,47.5,2.55,82.47a325.87,325.87,0,0,0,25,67.4,317.45,317.45,0,0,1-38.55-84.76c-11.83-41.58-7.73-60.87-5.11-69.7,3.52-11.85,9.16-21.06,14.56-29.88C108.33,42.71,115,40,118.49,39.09c1.15-.31,10.53-2.81,15.15,1.91,5.88,6-1.09,18.59,4,22.09,3.35,2.3,7.06-2.65,12-1.54,10.71,2.43,6.13,28.67,20.42,46,11.92,14.41,23.22,6,34,17.87,7.92,8.76,10,22.45-10.11,117.67-4,19.16-5.85,26.75-5.46,26.84,1,.25,13.19-46.63,22.72-87.32,13.27-56.67,14.69-73.08,10.21-92.68C215.7,65,204.85,54,202.23,51.43c-19.5-19-49.47-22.22-61.78-15a17.1,17.1,0,0,0-5.62,5.1C129,50,133.29,61.5,134.32,64.11Z"/></g><g id="Layer_7" data-name="Layer 7"><path d="M100.34,144c-2.33-11.52-3.5-17.29-6.59-21.9a39,39,0,0,0-4-5c-.37-.38-.76-.77-1.16-1.14a15.58,15.58,0,0,0-6-3.77,10,10,0,0,0-1.06-.22,6.83,6.83,0,0,0-3.19.25c-3.33,1.11-6,5-7.81,11.53a26.47,26.47,0,0,0-.69,3.33l0,.21a20.09,20.09,0,0,0-.13,2.44v.23a18.84,18.84,0,0,1,1.13-2.58c.1-.78.25-1.58.39-2.19l.06-.26c.11-.49.21-.83.23-.91,1.76-6.2,4.17-9.85,7.17-10.85a5.72,5.72,0,0,1,3.07-.14,7.31,7.31,0,0,1,1.08.31,17.07,17.07,0,0,1,6,4.25c.44.45.86.9,1.24,1.34a40,40,0,0,1,2.89,3.75c3,4.44,4.13,10.15,6.44,21.53,2.81,13.84,1.65,15.74,1,16.75-2.31,3.79-7.82,4.66-12.08,3.56-3.22-.83-6-3.12-8.41-6.22q-.69-.9-1.32-1.89h0a22.89,22.89,0,0,1-2.14-1.51c.42.75.86,1.47,1.31,2.17,2.75,4.17,6.19,7.37,10.33,8.43a14.86,14.86,0,0,0,3.74.47c3.72,0,7.53-1.35,9.43-4.48C102.25,159.8,103,157.1,100.34,144Z"/><path d="M148.94,35.33l0,.5,0,.5a63.51,63.51,0,0,0-14.27,1.14C115,41.07,98.58,52.56,89.52,69a65.84,65.84,0,0,0-6.94,43.14c.07.39.14.77.22,1.15a7.31,7.31,0,0,0-1.08-.31c-.07-.35-.14-.71-.2-1.06a67,67,0,0,1,7.12-43.4c9.21-16.71,25.91-28.39,45.81-32a63.4,63.4,0,0,1,14.45-1.16Z"/><path d="M148.92,47.41v1c-3,0-30.1.34-47.62,23C87.87,88.74,88.45,108,89.74,117.06c.09.67.19,1.28.29,1.83-.38-.44-.8-.89-1.24-1.34-.07-.51-.14-1-.21-1.63-1.17-9.7-1.12-28.28,11.92-45.14,17.44-22.54,43.38-23.4,48.41-23.37Z"/><path d="M84.94,159.44c-2.26-16.12-4.37-25.13-6.23-30.12s-3.49-5.94-4.76-6a3.61,3.61,0,0,0-2.53,1.33l-.17.21A10.83,10.83,0,0,0,69.83,127a25.55,25.55,0,0,0-2.53,13.38A22.52,22.52,0,0,0,77.75,157c.69.44,1.41.86,2.16,1.24a25.15,25.15,0,0,0,4.4,1.73l.74.21Zm-6.35-3.07h0a22.89,22.89,0,0,1-2.14-1.51,21.17,21.17,0,0,1-8.14-14.52,25.58,25.58,0,0,1,1.37-10.41,18.84,18.84,0,0,1,1.13-2.58,9.1,9.1,0,0,1,1.35-2,2.61,2.61,0,0,1,1.76-1h0c2.3.05,5.88,6.09,9.91,34.45A23.92,23.92,0,0,1,78.59,156.37Z"/><path class="cls-15" d="M83.84,158.8a23.92,23.92,0,0,1-5.25-2.43h0a22.89,22.89,0,0,1-2.14-1.51,21.17,21.17,0,0,1-8.14-14.52,25.58,25.58,0,0,1,1.37-10.41,18.84,18.84,0,0,1,1.13-2.58,9.1,9.1,0,0,1,1.35-2,2.61,2.61,0,0,1,1.76-1h0C76.23,124.4,79.81,130.44,83.84,158.8Z"/><path class="cls-12" d="M100.4,160.92c-2.31,3.79-7.82,4.66-12.08,3.56-3.22-.83-6-3.12-8.41-6.22a25.15,25.15,0,0,0,4.4,1.73l.74.21-.11-.76c-2.26-16.12-4.37-25.13-6.23-30.12s-3.49-5.94-4.76-6a3.61,3.61,0,0,0-2.53,1.33l-.17.21c.11-.49.21-.83.23-.91,1.76-6.2,4.17-9.85,7.17-10.85a5.72,5.72,0,0,1,3.07-.14,7.31,7.31,0,0,1,1.08.31,17.07,17.07,0,0,1,6,4.25c.44.45.86.9,1.24,1.34a40,40,0,0,1,2.89,3.75c3,4.44,4.13,10.15,6.44,21.53C102.17,158,101,159.91,100.4,160.92Z"/><path d="M228,127.25l0-.24a0,0,0,0,0,0,0,24.5,24.5,0,0,0-.68-3.29c-1.85-6.54-4.48-10.42-7.81-11.53a6.81,6.81,0,0,0-3.19-.25,8,8,0,0,0-1.06.23,15.6,15.6,0,0,0-6,3.76c-.4.38-.79.76-1.16,1.15a38.78,38.78,0,0,0-4,5c-3.09,4.61-4.26,10.38-6.6,21.9-2.66,13.12-1.91,15.82-.91,17.46,1.9,3.13,5.71,4.48,9.43,4.48a14.94,14.94,0,0,0,3.75-.47c4.14-1.06,7.58-4.26,10.32-8.43.46-.7.9-1.42,1.31-2.17a21.28,21.28,0,0,1-2.12,1.5c-.43.66-.88,1.29-1.34,1.9-2.38,3.11-5.19,5.4-8.42,6.23-4.26,1.1-9.77.23-12.07-3.56-.62-1-1.77-2.91,1-16.75,2.31-11.38,3.47-17.09,6.45-21.53a39.32,39.32,0,0,1,2.89-3.79c.39-.44.8-.89,1.23-1.34a16.75,16.75,0,0,1,6-4.24,6.64,6.64,0,0,1,1.08-.3,6.76,6.76,0,0,1,1.27-.13,5.65,5.65,0,0,1,1.8.29,8.13,8.13,0,0,1,4,3.47,26.87,26.87,0,0,1,3.12,7.38c0,.08.11.4.23.88a24.06,24.06,0,0,1,.46,2.49,18.4,18.4,0,0,1,1.12,2.55A21.35,21.35,0,0,0,228,127.25Z"/><path d="M216.31,111.93c-.06.35-.13.69-.2,1a6.64,6.64,0,0,0-1.08.3c.08-.37.15-.74.22-1.11A65.87,65.87,0,0,0,208.32,69c-9.07-16.45-25.51-27.94-45.12-31.54a63.42,63.42,0,0,0-14.26-1.14l0-.5,0-.5h0a63.27,63.27,0,0,1,14.44,1.16c19.91,3.65,36.61,15.33,45.81,32A66.84,66.84,0,0,1,216.31,111.93Z"/><path class="cls-12" d="M215.25,112.16a15.6,15.6,0,0,0-6,3.76c1.17-9.7,1.13-28.28-11.92-45.14C179.9,48.24,154,47.37,148.92,47.41h0c-5,0-31,.83-48.41,23.37-13,16.86-13.09,35.44-11.92,45.14a15.58,15.58,0,0,0-6-3.77A65.84,65.84,0,0,1,89.52,69c9.06-16.45,25.5-27.94,45.11-31.54a63.51,63.51,0,0,1,14.27-1.14l0-.5,0,.5a63.42,63.42,0,0,1,14.26,1.14c19.61,3.6,36.05,15.09,45.12,31.54A65.87,65.87,0,0,1,215.25,112.16Z"/><path d="M209.25,115.92q-.1.84-.21,1.59c-.43.45-.84.9-1.23,1.34.1-.54.19-1.13.28-1.78,1.3-9.11,1.88-28.32-11.55-45.68-17.52-22.64-44.59-23-47.62-23v-1h0c5,0,31,.83,48.41,23.37C210.38,87.64,210.42,106.22,209.25,115.92Z"/><path d="M228,127a0,0,0,0,0,0,0,10.87,10.87,0,0,0-1.41-2.14l-.16-.18a3.68,3.68,0,0,0-2.54-1.33c-2.55.05-6.46,3.85-11,36.09l-.11.76.74-.21a24.52,24.52,0,0,0,4.41-1.74c.74-.38,1.46-.79,2.15-1.23a22.49,22.49,0,0,0,10.45-16.6A25.65,25.65,0,0,0,228,127Zm1.53,13.32a22.14,22.14,0,0,1-10.26,16A24.21,24.21,0,0,1,214,158.8c4-28.36,7.61-34.4,9.91-34.45a2.47,2.47,0,0,1,1.78,1,9.56,9.56,0,0,1,1.36,2,18.4,18.4,0,0,1,1.12,2.55A25.67,25.67,0,0,1,229.53,140.33Z"/><path class="cls-15" d="M229.53,140.33a22.14,22.14,0,0,1-10.26,16A24.21,24.21,0,0,1,214,158.8c4-28.36,7.61-34.4,9.91-34.45a2.47,2.47,0,0,1,1.78,1,9.56,9.56,0,0,1,1.36,2,18.4,18.4,0,0,1,1.12,2.55A25.67,25.67,0,0,1,229.53,140.33Z"/><path class="cls-12" d="M226.58,124.86l-.16-.18a3.68,3.68,0,0,0-2.54-1.33c-2.55.05-6.46,3.85-11,36.09l-.11.76.74-.21a24.52,24.52,0,0,0,4.41-1.74c-2.38,3.11-5.19,5.4-8.42,6.23-4.26,1.1-9.77.23-12.07-3.56-.62-1-1.77-2.91,1-16.75,2.31-11.38,3.47-17.09,6.45-21.53a39.32,39.32,0,0,1,2.89-3.79c.39-.44.8-.89,1.23-1.34a16.75,16.75,0,0,1,6-4.24,6.64,6.64,0,0,1,1.08-.3,6.76,6.76,0,0,1,1.27-.13,5.65,5.65,0,0,1,1.8.29,8.13,8.13,0,0,1,4,3.47,26.87,26.87,0,0,1,3.12,7.38C226.38,124.06,226.46,124.38,226.58,124.86Z"/><path class="cls-16" d="M93.57,164.81a240.29,240.29,0,0,1,9.6,59.89c1.25,41.58-6.59,69.56,6.64,111.15,1.94,6.11,3.86,11,5.1,14a39.08,39.08,0,0,0,20.17,8.63,37.8,37.8,0,0,0,11.24-.46s23.75-2.86,46.47-23.24c22.06-19.78,34.81-86.18,16.14-169.1"/></g><g id="Layer_9" data-name="Layer 9"><path d="M212.67,34.27c-11.33-14.38-28.87-18.74-41.59-19.86a102.43,102.43,0,0,0-47.3,7.36C97.13,33,70.81,59.62,76.83,77.12c2,5.68,7.29,10.25,15.86,13.58l.14,0,2.66-.54.69.09.06-.41c.15-.18.33-.43.57-.76a159.78,159.78,0,0,1,17.78-16c4.27-3.3,10.12-7.82,15.62-10.62,12.66-6.45,28.57-6.71,47.27-.77,20.9,6.65,33.69,20.95,39.47,28.92l.32.72.51-.67a36.62,36.62,0,0,0,4.84-8.63C229.86,63.48,219.77,43.27,212.67,34.27ZM177.78,60.79c-19-6-35.12-5.75-48,.83C124.17,64.46,118.28,69,114,72.34A161.06,161.06,0,0,0,97.88,86.6a130.4,130.4,0,0,1,9.77-15.2C118.16,58.14,137,50.32,156,50.32a66.37,66.37,0,0,1,15.87,1.89c24.53,6,37.59,24.52,42.76,33.82A79.63,79.63,0,0,0,177.78,60.79Zm43.9,20.92a34.87,34.87,0,0,1-4.2,7.71c-3.09-6.63-16.28-31-45.38-38.18C148,45.3,120.56,53.52,106.86,70.77A127.65,127.65,0,0,0,95.42,89.2l-2.5.51c-8.21-3.21-13.31-7.56-15.15-12.92C72,60.08,98.45,33.53,124.17,22.69a100.73,100.73,0,0,1,38.32-7.6c19.61,0,38.52,6,49.39,19.79C218.38,43.12,228.78,63.5,221.68,81.71Z"/><path class="cls-17" d="M214.62,86a79.63,79.63,0,0,0-36.84-25.24c-19-6-35.12-5.75-48,.83C124.17,64.46,118.28,69,114,72.34A161.06,161.06,0,0,0,97.88,86.6a130.4,130.4,0,0,1,9.77-15.2C118.16,58.14,137,50.32,156,50.32a66.37,66.37,0,0,1,15.87,1.89C196.39,58.25,209.45,76.73,214.62,86Z"/><path class="cls-17" d="M221.68,81.71a34.87,34.87,0,0,1-4.2,7.71c-3.09-6.63-16.28-31-45.38-38.18C148,45.3,120.56,53.52,106.86,70.77A127.65,127.65,0,0,0,95.42,89.2l-2.5.51c-8.21-3.21-13.31-7.56-15.15-12.92C72,60.08,98.45,33.53,124.17,22.69a100.73,100.73,0,0,1,38.32-7.6c19.61,0,38.52,6,49.39,19.79C218.38,43.12,228.78,63.5,221.68,81.71Z"/></g></svg>