<svg xmlns="http://www.w3.org/2000/svg" xmlns:xlink="http://www.w3.org/1999/xlink" viewBox="0 0 737.48 697.43"><defs><style>.cls-1{fill:none;}.cls-2{fill:url(#radial-gradient);}.cls-3{clip-path:url(#clip-path);}.cls-4{fill:url(#radial-gradient-2);}.cls-5{opacity:0.33;}.cls-6{fill:#fff;}</style><radialGradient id="radial-gradient" cx="661.22" cy="36.78" r="552.51" gradientUnits="userSpaceOnUse"><stop offset="0.03" stop-color="#d0916d"/><stop offset="0.34" stop-color="#c69f71"/><stop offset="0.49" stop-color="#bfa773"/><stop offset="0.73" stop-color="#91b289"/><stop offset="1" stop-color="#58c0a5"/></radialGradient><clipPath id="clip-path"><circle class="cls-1" cx="339.53" cy="339.53" r="339.53"/></clipPath><radialGradient id="radial-gradient-2" cx="410.83" cy="375.28" r="324.41" gradientUnits="userSpaceOnUse"><stop offset="0" stop-color="#23277f" stop-opacity="0.4"/><stop offset="0.52" stop-color="#252d80" stop-opacity="0.39"/><stop offset="0.7" stop-color="#2c4185" stop-opacity="0.33"/><stop offset="0.83" stop-color="#38658e" stop-opacity="0.24"/><stop offset="0.94" stop-color="#4a979b" stop-opacity="0.11"/><stop offset="1" stop-color="#58c0a5" stop-opacity="0"/></radialGradient></defs><g id="Layer_2" data-name="Layer 2"><g id="Layer_6" data-name="Layer 6"><circle class="cls-2" cx="339.53" cy="339.53" r="339.53"/><g class="cls-3"><ellipse class="cls-4" cx="410.83" cy="375.28" rx="326.65" ry="322.14"/></g><g class="cls-5"><path class="cls-6" d="M159.08,419.6c2.65.31,5.48-1.57,6.78-3.75a7.74,7.74,0,0,0,1.1-4.23,8.36,8.36,0,0,0-8.1-8.15c-3.86-.18-7.35,3.12-8.1,6.75-.45,2.17-.08,4.15.09,6.32a96.06,96.06,0,0,1-.62,19.91l.27-2c-1.87,13.84-6.32,27.16-11.72,40l.75-1.79c-4.19,9.89-8.95,19.52-13.77,29.11-1.45,2.89-1.37,6.76,1.18,9.09A7.83,7.83,0,0,0,136,512c1-.49,2-1,3-1.4l-1.79.75a60.55,60.55,0,0,1,15.24-4.12l-2,.27a70.91,70.91,0,0,1,18.41.07l-2-.27a81.1,81.1,0,0,1,20.34,5.59l-1.79-.76a91.87,91.87,0,0,1,11.22,5.74q2.73,1.64,5.35,3.45c.79.54,1.57,1.09,2.34,1.66l1.32,1,.66.5c.8.61-.35-.3-.55-.42a42.43,42.43,0,0,1,4.92,4.06q2.42,2.1,4.72,4.31c3,2.86,5.84,5.86,8.59,9q2.4,2.72,4.69,5.52c.74.91,1.47,1.82,2.19,2.74l.51.65c.62.79-.26-.35-.41-.54.43.54.84,1.1,1.25,1.64a8.19,8.19,0,0,0,4.48,3.45,7.63,7.63,0,0,0,5.78-.76c3.25-2.09,5-6.76,2.69-10.26a83.85,83.85,0,0,1-7.41-13.78l.76,1.79a90,90,0,0,1-6.1-22.44l.27,2a93.68,93.68,0,0,1,0-24.81l-.27,2a90.14,90.14,0,0,1,6.07-22.45l-.76,1.8a83.67,83.67,0,0,1,8-14.76,7.44,7.44,0,0,0,0-7.57c-1.2-2-4-4-6.48-3.71a82.44,82.44,0,0,1-21.46-.06l2,.27a88.85,88.85,0,0,1-22.5-6.2l1.79.76a90,90,0,0,1-16.84-9.41c-.65-.47-1.3-.94-1.94-1.43a3,3,0,0,0-.45-.34c-.11-.05,1.4,1.09.79.61l-1-.81q-1.87-1.51-3.67-3.13a82.75,82.75,0,0,1-6.88-7c-.57-.65-1.13-1.32-1.68-2l-.81-1c-.72-.9.47.61.49.64a5.11,5.11,0,0,0-.45-.59q-1.68-2.24-3.19-4.57c-2.14-3.29-6.75-5-10.26-2.69-3.29,2.11-5,6.74-2.69,10.26a92.31,92.31,0,0,0,29.15,28.29,96.86,96.86,0,0,0,38.35,13.37,82.38,82.38,0,0,0,21.28,0l-6.47-11.29c-8.39,12.28-13.22,26.5-15.15,41.18A97,97,0,0,0,221.6,529a91.35,91.35,0,0,0,10.7,22.37l12.95-7.57c-10.5-13.88-22.4-26.65-37-36.36S176.17,491.72,158.45,492a69.49,69.49,0,0,0-30,7.12l10.27,10.26c12.09-24.06,24.1-48.87,26.88-76a98.57,98.57,0,0,0,.51-10.73c0-1.72-.08-3.45-.19-5.17a48.51,48.51,0,0,1-.43-5.23l-.27,2a2.3,2.3,0,0,1,.13-.59l-.76,1.79-2.13,2.08-1.8.75.2,0h-4l.17,0-1.79-.76-2.32-2.26-.76-1.8.06.19-.27-2,0,.18.27-2,0,.16.75-1.79-.07.11,2.69-2.69-.12.06,3.78-1-.18,0a7.5,7.5,0,0,0-5.3,2.2,7.5,7.5,0,0,0,0,10.61,8.66,8.66,0,0,0,5.3,2.19Z"/></g><g class="cls-5"><path class="cls-6" d="M197.34,562a3.75,3.75,0,0,1,.68-.37l-1.79.76a3.56,3.56,0,0,1,.85-.23l-2,.26a4.35,4.35,0,0,1,1,0l-2-.26a4.69,4.69,0,0,1,1.22.33l-1.79-.76a5.71,5.71,0,0,1,1.26.74l-1.52-1.18a6.36,6.36,0,0,1,1.1,1.1l-1.17-1.52a6.1,6.1,0,0,1,.65,1.11l-.76-1.79a4.29,4.29,0,0,1,.3,1.06l-.27-2a3.49,3.49,0,0,1,0,1l.27-2a3.77,3.77,0,0,1-.25.87l.76-1.79a.61.61,0,0,1-.07.14l4.49-3.44-.36.06,2-.27a4.58,4.58,0,0,1-1.17,0l2,.27a5.12,5.12,0,0,1-1.22-.33l1.79.75a5.67,5.67,0,0,1-1.26-.73l1.52,1.17a5.47,5.47,0,0,1-.9-.9l1.18,1.52a4.8,4.8,0,0,1-.64-1.09l.75,1.79a5.26,5.26,0,0,1-.27-1,8.33,8.33,0,0,0-3.45-4.48,5.61,5.61,0,0,0-2.79-.89,5.74,5.74,0,0,0-3,.13l-1.79.76a7.62,7.62,0,0,0-2.69,2.69l-.75,1.79a7.51,7.51,0,0,0,0,4,12,12,0,0,0,1,2.79,5.33,5.33,0,0,0,.57,1,14.61,14.61,0,0,0,1.88,2.28c.59.53,1.24,1,1.87,1.46a5.39,5.39,0,0,0,.5.33,4.37,4.37,0,0,0,.48.25c.74.34,1.49.68,2.26,1a14.67,14.67,0,0,0,3,.5,9.1,9.1,0,0,0,2.08-.14c.39-.06.82-.1,1.22-.17l.13,0,.9-.38a3.8,3.8,0,0,0,1.66-1l.75-.59,1.18-1.52a.47.47,0,0,1,.05-.1c.18-.34.62-1.47.77-1.83l.06-.15c.05-.14.09-.28.13-.43a19.52,19.52,0,0,0,.34-2.4,4,4,0,0,0,0-.91,12.49,12.49,0,0,0-.48-2.85c-.27-.73-.58-1.44-.9-2.14-.07-.15-.15-.29-.23-.43a17.45,17.45,0,0,0-1.68-2.24,5.54,5.54,0,0,0-.68-.69c-.58-.5-1.2-1-1.82-1.42a3.71,3.71,0,0,0-.41-.28,12.14,12.14,0,0,0-1.71-.81,9.08,9.08,0,0,0-1.87-.67c-.8-.15-1.62-.26-2.43-.33h-.52a20,20,0,0,0-2.43.32,4.54,4.54,0,0,0-.5.12,20.21,20.21,0,0,0-2.21.92l-.5.29a5.76,5.76,0,0,0-2.1,1.94,5.63,5.63,0,0,0-1.35,2.55,5.73,5.73,0,0,0-.13,3,5.61,5.61,0,0,0,.89,2.79l1.17,1.51a7.46,7.46,0,0,0,3.31,1.93l2,.27a7.4,7.4,0,0,0,3.78-1Z"/></g><g class="cls-5"><path class="cls-6" d="M279.77,513.12c.77-2.43,1.63-4.82,2.61-7.17l-.76,1.79a62.3,62.3,0,0,1,3-6.26q.88-1.58,1.89-3.09c.3-.45.6-.89.92-1.32a4.77,4.77,0,0,1,.53-.72c-.24.23-1.18,1.49-.41.54a37.11,37.11,0,0,1,4.67-4.71c.61-.53-1.65,1.21-.56.43l.56-.4c.47-.33.95-.65,1.45-.94a25.68,25.68,0,0,1,3.09-1.58l-1.79.76a24.78,24.78,0,0,1,6.22-1.67l-2,.27a29.89,29.89,0,0,1,7.26.05l-2-.27a47.94,47.94,0,0,1,11.84,3.42l-1.79-.76a136.58,136.58,0,0,1,19.79,10.74c1.5,1,3,1.95,4.43,3l1.2.87c.24.18,1.42,1.08.43.32s.18.15.41.33l1.15.94a57.23,57.23,0,0,1,7.63,7.62l.5.63c.59.72-1-1.31-.43-.55.28.39.57.77.84,1.16q.81,1.17,1.56,2.4a44.4,44.4,0,0,1,2.77,5.46l-.75-1.79a37.45,37.45,0,0,1,2.46,8.93l-.27-2a30.89,30.89,0,0,1,0,8l.26-2a29,29,0,0,1-1.86,6.78l.75-1.79a52.21,52.21,0,0,1-4,7c1.11-1.81.61-.77.22-.3L351,548q-.71.81-1.44,1.59c-.95,1-1.94,1.93-3,2.83q-.74.64-1.5,1.26c-1.06.85.35-.07.44-.33a4.89,4.89,0,0,1-.94.7c-1.06.77-2.16,1.5-3.28,2.18a53.75,53.75,0,0,1-7.09,3.62l1.79-.76a56.49,56.49,0,0,1-13.93,3.79l2-.27a56,56,0,0,1-14.75,0l2,.26a50.81,50.81,0,0,1-12.7-3.43l1.79.75a46,46,0,0,1-7.72-4.17c-.61-.41-1.21-.84-1.8-1.28-1-.76,1.37,1.12.38.28l-.65-.53a38.25,38.25,0,0,1-2.94-2.75c-.89-.92-1.72-1.9-2.55-2.88s1.16,1.54.35.46l-.59-.81c-.39-.55-.77-1.1-1.13-1.66a45.72,45.72,0,0,1-3.77-7.12l.76,1.79a48,48,0,0,1-3.27-11.95l.27,2a45.53,45.53,0,0,1,0-12l-.27,2a41.13,41.13,0,0,1,2.65-9.85l-.76,1.8a37.33,37.33,0,0,1,4.43-7.77,7.54,7.54,0,0,0,.76-5.78,7.52,7.52,0,0,0-9.23-5.24,8.75,8.75,0,0,0-4.48,3.45c-11.95,16-10.67,39.68-.12,56.06a51.57,51.57,0,0,0,24.94,20c10.1,4,21.25,4.5,31.88,2.77,21.5-3.52,45-20.9,44-44.75-1.09-25.62-24.4-41.72-45.3-51.93a62,62,0,0,0-19.73-6.31A32.79,32.79,0,0,0,288,477.32c-10.08,4.95-16.15,15.14-20.26,25.15-.89,2.18-1.68,4.41-2.39,6.66a7.56,7.56,0,0,0,5.24,9.22,7.65,7.65,0,0,0,9.22-5.23Z"/></g><g class="cls-5"><path class="cls-6" d="M239.41,596.84c-3.33,8.1-1.88,18.58,3.25,25.64A26.84,26.84,0,0,0,254,631.75a28.17,28.17,0,0,0,26.79-2.44c4.44-3.23,8-7.57,9.49-13a20.4,20.4,0,0,0-2.47-15.87A36.68,36.68,0,0,0,277.25,590,34.36,34.36,0,0,0,261,583.54a20.79,20.79,0,0,0-16.39,5.59c-2.83,2.74-3,7.9,0,10.61a7.64,7.64,0,0,0,10.6,0,8.89,8.89,0,0,0,.83-.75c0,.21-1.63,1.16-.46.42a12.42,12.42,0,0,1,1.81-.94l-1.79.76a15.58,15.58,0,0,1,3.62-1l-2,.27a18,18,0,0,1,4.15,0l-2-.27a22.17,22.17,0,0,1,5.23,1.49l-1.79-.76a35.24,35.24,0,0,1,4.89,2.6c.71.45,1.4.92,2.09,1.4l1,.69c1.14.83-1.47-1.19-.12-.08a29.33,29.33,0,0,1,3.53,3.43c.48.57.7,1.35-.21-.3.18.33.45.63.66,1a18.57,18.57,0,0,1,1.26,2.32l-.76-1.79a14.23,14.23,0,0,1,1,3.61l-.26-2a13.18,13.18,0,0,1,0,3l.27-2a13.91,13.91,0,0,1-.91,3.22l.76-1.79A19.43,19.43,0,0,1,274.5,615c-.59.92.41-.64.49-.6s-.45.53-.49.58c-.38.43-.77.85-1.19,1.24-.26.24-1.61,1.34-.55.52s-.31.18-.61.37a20.26,20.26,0,0,1-2.73,1.43l1.79-.76a21.83,21.83,0,0,1-5.25,1.42l2-.27a22.67,22.67,0,0,1-5.46,0l2,.27a21.79,21.79,0,0,1-5.61-1.52l1.79.76a19.7,19.7,0,0,1-3.18-1.75c-.2-.14-.39-.29-.59-.42,1.77,1.16,1,.76.53.38a16.35,16.35,0,0,1-1.29-1.21c-.37-.38-.69-.8-1-1.19,1.64,1.78.32.42-.08-.2a22.15,22.15,0,0,1-1.66-3.12l.76,1.79a22.41,22.41,0,0,1-1.52-5.45l.27,2a21.73,21.73,0,0,1,0-5.64l-.26,2a20.08,20.08,0,0,1,1.29-4.76c.69-1.68.12-4.3-.75-5.78a7.66,7.66,0,0,0-4.48-3.45,7.57,7.57,0,0,0-5.78.76,8.81,8.81,0,0,0-3.45,4.48Z"/></g><g class="cls-5"><path class="cls-6" d="M104.5,477.23a327.53,327.53,0,0,1-14.63-30.17l.75,1.79a329.52,329.52,0,0,1-19.8-64.92q-1.84-9.45-3.13-19l.27,2a326.35,326.35,0,0,1-2.79-52.65,7.56,7.56,0,0,0-7.5-7.5,7.64,7.64,0,0,0-7.5,7.5,335.48,335.48,0,0,0,5.36,69.23,328.78,328.78,0,0,0,18.92,65.19,338.89,338.89,0,0,0,17.1,36.09,7.5,7.5,0,0,0,13-7.57Z"/></g><g class="cls-5"><path class="cls-6" d="M73.18,283.65a5.2,5.2,0,0,1-.27-1.1l.27,2a5.94,5.94,0,0,1,0-1.46l-.27,2a5.79,5.79,0,0,1,.4-1.48l-.76,1.79a6,6,0,0,1,.65-1.12,5.51,5.51,0,0,0,.89-2.79,5.64,5.64,0,0,0-.13-3A8.33,8.33,0,0,0,70.51,274l-1.79-.76a7.71,7.71,0,0,0-4,0l-1.79.76a7.54,7.54,0,0,0-2.69,2.69,13.37,13.37,0,0,0-1.42,3,5.83,5.83,0,0,0-.37,1.36,22.81,22.81,0,0,0-.33,2.6c0,.23,0,.46,0,.69.07.76.19,1.52.3,2.27,0,.12,0,.24.07.36a5.6,5.6,0,0,0,.2.7,8.38,8.38,0,0,0,3.44,4.48A5.51,5.51,0,0,0,65,293a5.73,5.73,0,0,0,3-.13l1.79-.76a7.46,7.46,0,0,0,2.69-2.69l.76-1.79a7.51,7.51,0,0,0,0-4Z"/></g><g class="cls-5"><path class="cls-6" d="M87.33,250.91l2-6.12a7.23,7.23,0,0,0-2.69-7.89,5.61,5.61,0,0,0-2.55-1.34l-2-.27a7.54,7.54,0,0,0-3.79,1l-1.51,1.17a7.46,7.46,0,0,0-1.93,3.31l-2,6.13a5.63,5.63,0,0,0-.13,3,5.5,5.5,0,0,0,.89,2.78,8.33,8.33,0,0,0,4.48,3.45l2,.27a7.5,7.5,0,0,0,3.79-1l1.52-1.18a7.48,7.48,0,0,0,1.92-3.31Z"/></g><g class="cls-5"><path class="cls-6" d="M481.5,117.06a16.49,16.49,0,0,1,1.06-1.93c.29-.46-1.36,1.58-.23.34.22-.25.46-.49.7-.72.49-.45,1.34-.86-.48.31.28-.18.55-.4.83-.58a17.23,17.23,0,0,1,2.12-1.13l-1.79.76a18.15,18.15,0,0,1,4.35-1.22l-2,.26a20.11,20.11,0,0,1,5.2,0l-2-.26a29.74,29.74,0,0,1,7.1,2l-1.79-.75C501.12,117,507.24,121,513.12,125q4.38,3,8.59,6.13l1,.77c1.25.94-1.41-1.11-.18-.15L524.2,133c1.44,1.14,2.85,2.3,4.25,3.47a202.73,202.73,0,0,1,29,30.05c1,1.24-1.08-1.42-.14-.18l1,1.35c.59.79,1.18,1.58,1.76,2.38,1.19,1.64,2.34,3.29,3.44,5a68.24,68.24,0,0,1,5.75,10.64l-.75-1.79a41.25,41.25,0,0,1,2.83,10.16l-.26-2a31.8,31.8,0,0,1,0,7.92l.27-2a29.45,29.45,0,0,1-2,7.25l.75-1.79a31.94,31.94,0,0,1-3.36,5.94c-.13.17-.27.34-.39.52,1.33-2,.73-.94.36-.48s-.7.84-1.07,1.25c-.77.87-1.59,1.69-2.44,2.48-.41.38-.83.75-1.25,1.11s-1.85,1.48-.68.57.21-.16,0,0l-.82.59c-.47.32-.94.64-1.42.94a45,45,0,0,1-6.34,3.33l1.8-.76a45.09,45.09,0,0,1-11.21,3.1l2-.26a45.16,45.16,0,0,1-11.9-.09l2,.27a60.27,60.27,0,0,1-14.67-4.1l1.79.75a80.13,80.13,0,0,1-13.22-7.19c-1-.68-2.05-1.39-3.05-2.11l-1.49-1.1c-.28-.21-.56-.4-.82-.62l.86.67-.65-.51c-1.95-1.53-3.84-3.13-5.69-4.78a147.31,147.31,0,0,1-10.83-10.67c-1.72-1.87-3.39-3.8-5-5.77l-1.16-1.45c-.75-1,.36.47.41.54l-.62-.82c-.79-1.05-1.55-2.1-2.3-3.17a83.25,83.25,0,0,1-8.35-14.95l.76,1.79a62.16,62.16,0,0,1-4.36-15.48l.27,2a54.09,54.09,0,0,1,0-14l-.27,2a49.31,49.31,0,0,1,3.33-12.41l-.76,1.79a43.41,43.41,0,0,1,5.15-9l-.64.83.44-.55c.3-.36.6-.71.91-1.06.55-.61,1.11-1.21,1.7-1.78s1.19-1.13,1.82-1.67l1.1-.89c-1.91,1.62-.58.45-.09.1a8.11,8.11,0,0,0,3.44-4.48,7.68,7.68,0,0,0-.75-5.78c-2-3.16-6.85-5.13-10.27-2.69a46.22,46.22,0,0,0-13.42,14.65,52.6,52.6,0,0,0-6.22,17.52,64.56,64.56,0,0,0,0,20.53,70,70,0,0,0,6.47,19.53c5.91,12.26,15,23,24.76,32.38,10.12,9.69,21.54,18.06,34.68,23.11,12,4.63,25.76,5.64,38,1.1a52.54,52.54,0,0,0,16.68-9.86A41.06,41.06,0,0,0,583.93,209c5.53-13.61.66-28.53-6.78-40.36a167.67,167.67,0,0,0-13.1-17.6,199.52,199.52,0,0,0-13.74-14.9,209.47,209.47,0,0,0-32.79-26.19c-6.18-4-12.6-8-19.62-10.37s-15.59-2.21-22.09,2a19,19,0,0,0-7.26,8,8.18,8.18,0,0,0-.76,5.78,7.67,7.67,0,0,0,3.45,4.48,7.59,7.59,0,0,0,5.78.76c1.73-.56,3.71-1.7,4.48-3.45Z"/></g><g class="cls-5"><path class="cls-6" d="M597.29,271.2c-.85,1-1.08,1.3-.68.87a2.13,2.13,0,0,1,.34-.33c.1.12-1.89,1.21-.44.5l-1.79.76a6.5,6.5,0,0,1,1.57-.42l-2,.27a7.78,7.78,0,0,1,1.67,0l-2-.27a7.93,7.93,0,0,1,1.6.46l-1.79-.76a9,9,0,0,0,1.38.77c-1-.79-1.18-.94-.58-.44.2.17.39.35.58.54a15.1,15.1,0,0,1,1.08,1.18q.27.31.51.63c-.76-1-.9-1.18-.44-.56,1.38,1.95,2.75,3.89,4,5.91a89.68,89.68,0,0,1,6.76,12.5l-.76-1.79a28.1,28.1,0,0,1,2,6.82l-.27-2a15.44,15.44,0,0,1,0,4.13l.27-2a12.54,12.54,0,0,1-.67,2.47l.75-1.79a17.31,17.31,0,0,1-.87,1.65c-.61,1.08,1-1.12.42-.52-.2.2-.38.42-.59.62s-.35.29-.52.45c1.42-1.39,1.1-.82.55-.47a11.5,11.5,0,0,1-1.67.87l1.79-.76a13.69,13.69,0,0,1-3,.81l2-.26a15.27,15.27,0,0,1-3.88,0l2,.27a16.19,16.19,0,0,1-3.53-1l1.79.76a18.89,18.89,0,0,1-2.44-1.28c-.39-.24-.76-.51-1.15-.76s-.22-.15.73.57c-.21-.16-.41-.33-.61-.5a30.47,30.47,0,0,1-3.77-3.85c-.36-.43-1.28-1.8.06.11-.22-.32-.47-.63-.69-1-.53-.75-1-1.52-1.52-2.31a41.1,41.1,0,0,1-2.54-4.94l.76,1.79a35,35,0,0,1-2.44-8.69l.27,2a27.87,27.87,0,0,1,0-6.89l-.27,2a23.48,23.48,0,0,1,1.59-5.88l-.76,1.79c.21-.47.43-.94.67-1.4,1.76-3.5,1-8.29-2.7-10.26-3.41-1.81-8.37-1-10.26,2.69a33.93,33.93,0,0,0-.82,27.91,50.79,50.79,0,0,0,7.72,13.19A29.45,29.45,0,0,0,595.32,314c4.85,2.16,10.43,3,15.57,1.22a17.68,17.68,0,0,0,11.62-11.81c1.4-4.85.63-10.24-1.11-14.89a82.38,82.38,0,0,0-6.77-13.59q-2.1-3.49-4.45-6.82a30.86,30.86,0,0,0-5.61-6.6c-2.87-2.26-6.17-3.89-9.94-3.7a12.66,12.66,0,0,0-10.29,5.81A7.56,7.56,0,0,0,587,273.89a7.67,7.67,0,0,0,10.26-2.69Z"/></g><g class="cls-5"><path class="cls-6" d="M611.81,345.75l0,0c-.29-.14-.82-.35-.91-.38s-.61-.28-.92-.39h0a13.8,13.8,0,0,0-2-.27,7.56,7.56,0,0,0-3.9,1.05h0l-1.52,1.17h0l0,0a9.6,9.6,0,0,0-1.2,1.57,12.11,12.11,0,0,0-.79,1.85s0,.05,0,.07v.06l-.27,2v.1a.22.22,0,0,0,0,.08c.06.69.15,1.38.28,2.07a.31.31,0,0,0,0,.08v0h0l.76,1.8v0l0,.06,1.18,1.52h0v0l0,0,1.53,1.18h0a10.36,10.36,0,0,0,1.81.77h0c.06,0,1.95.27,2,.27h0a9.73,9.73,0,0,0,2-.28h0a14.74,14.74,0,0,0,1.83-.77l.05,0a8.38,8.38,0,0,0,3.44-4.48,5.67,5.67,0,0,0,.14-3,5.6,5.6,0,0,0-.89-2.78l-1.18-1.52a7.46,7.46,0,0,0-3.3-1.93l-2-.27a7.51,7.51,0,0,0-3.78,1l-.07,0,1.79-.76-.06,0,2-.27h-.06l2,.27h0l1.79.76,0,0,1.52,1.18-.05-.05,1.17,1.52s0,0,0-.08l.76,1.79a.43.43,0,0,1,0-.16l.27,2a.74.74,0,0,1,0-.21l-.27,2a.66.66,0,0,1,0-.15l-.75,1.79a.2.2,0,0,1,0-.08L613,357.56l0,0-1.52,1.17,0,0-1.79.75h0l-2,.27h0l-2-.27.07,0-1.8-.75.06,0a5.51,5.51,0,0,0,2.79.89,5.64,5.64,0,0,0,3-.13A8.33,8.33,0,0,0,614.5,356l.76-1.79a7.71,7.71,0,0,0,0-4l-.76-1.79a7.62,7.62,0,0,0-2.69-2.69Z"/></g><path class="cls-6" d="M540.76,262.74c3.9.35,7.37,4.39,6.87,8.34a3.47,3.47,0,0,1-.48,1.43,2.37,2.37,0,0,1-.41.48s-.45.28-.34.23a2.81,2.81,0,0,1-2.36-.14,6.87,6.87,0,0,1-3.66-4.43,10.39,10.39,0,0,1,.58-7.74,1.5,1.5,0,0,0-2.59-1.51c-2.69,5.3-1.75,13.54,4.18,16.28,2.75,1.28,6.12.79,7.48-2.21a9.42,9.42,0,0,0-1.1-8.77,11,11,0,0,0-8.17-5,1.51,1.51,0,0,0-1.5,1.5,1.53,1.53,0,0,0,1.5,1.5Z"/><path class="cls-6" d="M605.94,197.52l8.61,13.09c2.46,3.74,5.45,7.91,5.48,12.58a5.88,5.88,0,0,1-.45,2.69c-.58,1.1-1.5.23-2.22-.34a36.25,36.25,0,0,1-4.4-4.09,37.73,37.73,0,0,1-6.72-10.39,37,37,0,0,1-2.16-6.63c-.24-1.07-.44-2.15-.58-3.24a3.28,3.28,0,0,1,0-1.36c0-.08.18-.37.2-.48l.08-.15c.26-.25,0-.29-.76-.13,1.48,1.22,3.61-.89,2.12-2.12-2-1.68-4,.1-4.57,2.23a8.38,8.38,0,0,0,.11,3.38,39.61,39.61,0,0,0,.88,4.17,40.65,40.65,0,0,0,6.8,13.86,40.18,40.18,0,0,0,5.38,5.83c1.78,1.57,4.34,4.06,6.88,2.62,2.17-1.22,2.53-4.25,2.39-6.49a20.1,20.1,0,0,0-2.57-8.1c-1.67-3.14-3.77-6.07-5.72-9L608.53,196c-1-1.6-3.65-.1-2.59,1.52Z"/><path class="cls-6" d="M613.57,401.45a77,77,0,0,1,5,33.6,75.57,75.57,0,0,1-3.14,16.6c-1.51,4.85-3.43,9.86-6.88,13.69-3.15,3.5-7.91,5.91-12.72,5s-7.37-5.2-8.3-9.75c-1.06-5.17-.72-10.75-.25-16a89.66,89.66,0,0,1,3.23-16.94c1.74-6,4-12.18,7.3-17.45,1.39-2.18,3.27-4.34,5.81-5.17a6.26,6.26,0,0,1,6.58,1.22c1.34,1.4,3.46-.73,2.12-2.12-3.71-3.87-9.81-2.85-13.57.35-4.38,3.71-6.66,9.87-8.67,15.08a88.3,88.3,0,0,0-6.05,37.18c.35,5.06,1.6,10.66,5.74,14s10,3.35,14.78,1.23c5.18-2.31,8.72-7.18,11-12.22a69.06,69.06,0,0,0,5.11-17.29,79.57,79.57,0,0,0-4.23-41.86c-.69-1.78-3.59-1-2.89.8Z"/><path class="cls-6" d="M435.6,95.15c-.26-1.66,1-3.13,2.32-3.93a6.8,6.8,0,0,1,5.49-.54c4,1.13,7.54,4.12,10.89,6.48A142.27,142.27,0,0,1,473.54,113c5.82,5.87,11,12.64,14.26,20.29,1.63,3.86,2.67,8.48.28,12.26-2.49,4-7.13,3.18-11.08,2.34a49,49,0,0,1-24.35-13.23,1.5,1.5,0,0,0-2.13,2.12A52,52,0,0,0,475,150.48c4.54,1.09,9.88,2.18,13.74-1.15,3.53-3.05,4.26-8.05,3.37-12.4-1-4.8-3.58-9.41-6.21-13.49a77.21,77.21,0,0,0-8.56-10.85c-6.47-6.89-14-12.71-21.71-18.14-4.26-3-9-7-14.48-7.12-4.65-.08-9.2,3.75-8.45,8.62.29,1.9,3.18,1.09,2.89-.8Z"/><path class="cls-6" d="M433.48,97.23a1.5,1.5,0,0,0,0-3,1.5,1.5,0,0,0,0,3Z"/><path class="cls-6" d="M154.16,538.37a20.36,20.36,0,0,1-1.52,16c-.58,1.06.4,2.68,1.69,2.2a18.52,18.52,0,0,1,17.6,2.53,1.52,1.52,0,0,0,2.51-1.46,51.66,51.66,0,0,1,0-20.43c.24-1.17-1-2.49-2.2-1.69-5.24,3.58-13.6,1.22-15.83-4.87-.66-1.8-3.56-1-2.9.8,2.86,7.78,13.29,11.42,20.24,6.66l-2.2-1.7a55.76,55.76,0,0,0,0,22l2.51-1.46a21.53,21.53,0,0,0-20.52-3.3l1.7,2.2a23.38,23.38,0,0,0,1.82-18.32c-.58-1.84-3.48-1.05-2.89.79Z"/><path class="cls-6" d="M210.31,581.86l-.05,5,1.5-1.5a4.08,4.08,0,0,1-.61,0l.39,0a4.81,4.81,0,0,1-1.18-.33l.36.15a3.55,3.55,0,0,1-.55-.28,2.26,2.26,0,0,1-.26-.16l-.13-.09q.3.24.12.09a4.47,4.47,0,0,1-.45-.42c-.07-.07-.13-.16-.2-.23l.09.12-.09-.13.21.76a1.48,1.48,0,0,1,0-.21l-.05.4a2.32,2.32,0,0,1,.13-.47l-.15.35c0-.1.1-.21.16-.31s.17-.11-.06.08l.12-.13a1.54,1.54,0,0,0,.13-.12s-.33.23-.11.09a1.63,1.63,0,0,1,.34-.19l-.36.15a2,2,0,0,1,.48-.12l-.4.05h.14a1.61,1.61,0,0,0,1.06-.44,1.5,1.5,0,0,0-1.06-2.56A3.58,3.58,0,0,0,207.1,583a3,3,0,0,0-.55,1.17,2.49,2.49,0,0,0,0,1.15,2.77,2.77,0,0,0,.62,1,6.13,6.13,0,0,0,4.63,2.14,1.52,1.52,0,0,0,1.5-1.5l.05-5a1.5,1.5,0,0,0-3,0Z"/><path class="cls-6" d="M309.9,509.31c.34-4.57,3.82-8.25,7.82-10.13,5.16-2.43,11.31-1.8,16.68-.49,11.25,2.72,21.56,8.43,31.43,14.31,9.45,5.64,18.67,12,25.72,20.6,6.53,7.93,11.2,18,11,28.42s-5.48,20.78-14.83,25.62c-1.72.89-.2,3.48,1.51,2.59,9.08-4.69,14.68-14.27,16-24.21,1.47-11-2.51-22.07-8.84-31-7-9.77-16.69-17.07-26.82-23.29-10.42-6.39-21.41-12.57-33.31-15.7-6.41-1.69-13.54-2.44-19.76.37-5.16,2.33-9.2,7.12-9.63,12.87-.14,1.93,2.86,1.92,3,0Z"/><path class="cls-6" d="M373.23,593.64h-1a1,1,0,0,0-.57.13,1.34,1.34,0,0,0-.8.79,1.27,1.27,0,0,0-.13.58l.06.4a1.57,1.57,0,0,0,.38.66l.31.23a1.42,1.42,0,0,0,.75.21h1a1.72,1.72,0,0,0,1.06-.44,1.24,1.24,0,0,0,.31-.48,1.29,1.29,0,0,0,.13-.58l-.06-.4a1.51,1.51,0,0,0-.38-.66l-.31-.24a1.5,1.5,0,0,0-.75-.2Z"/><path class="cls-6" d="M353.81,589.41c-7.78-.18-14.29-5.13-19.62-10.36a180.08,180.08,0,0,1-16.8-19.38q-4.5-5.89-8.59-12.07c-1.06-1.61-3.66-.11-2.59,1.51A224.24,224.24,0,0,0,322.75,571c5.44,6.34,11.16,13,18.37,17.42a25.6,25.6,0,0,0,12.69,4c1.93,0,1.93-3,0-3Z"/><path class="cls-6" d="M306.13,533.51a17.71,17.71,0,0,1-1-4.16,19.66,19.66,0,0,1-.06-2.17c0-.39,0-.78.08-1.17a7.43,7.43,0,0,1,.13-.93,1.54,1.54,0,0,0-1.05-1.84,1.51,1.51,0,0,0-1.84,1,19.29,19.29,0,0,0,.83,10,1.54,1.54,0,0,0,1.85,1.05,1.51,1.51,0,0,0,1-1.84Z"/><path class="cls-6" d="M433,108a14.1,14.1,0,0,0,3.47,8.22,1.51,1.51,0,0,0,2.12,0,1.53,1.53,0,0,0,0-2.12l-.3-.36-.15-.18c.11.14.12.15,0,0l-.53-.78a11.67,11.67,0,0,1-.88-1.68c.15.37,0-.12-.06-.19s-.11-.29-.16-.44a9.46,9.46,0,0,1-.26-.91c-.08-.31-.14-.62-.19-.93a1.57,1.57,0,0,1,0-.23c0,.2,0,.22,0,0s0-.31-.05-.47a1.5,1.5,0,0,0-3,0Z"/><path class="cls-6" d="M606.76,379.87a1.27,1.27,0,0,1-.13.19l.23-.3a2.65,2.65,0,0,1-.41.41l.3-.23a2.82,2.82,0,0,1-.54.31l.36-.16a2.33,2.33,0,0,1-.64.17l.4-.05a2.15,2.15,0,0,1-.62,0l.4.05a2.44,2.44,0,0,1-.53-.14l.9.69-.06-.12.15.36a2.17,2.17,0,0,1-.07-.24l.06.4a1.07,1.07,0,0,1,0-.31l0,.4a1,1,0,0,1,.08-.3l-.15.36a1.31,1.31,0,0,1,.21-.36l-.24.3a2.13,2.13,0,0,1,.3-.3l-.3.24a1.31,1.31,0,0,1,.36-.21l-.36.15.3-.09-.39.06a.76.76,0,0,1,.3,0l-.4-.06a.84.84,0,0,1,.24.07l-.35-.15.14.07a1.56,1.56,0,0,0,1.16.15,1.49,1.49,0,0,0,.89-.69,1.46,1.46,0,0,0,.15-1.15,1.55,1.55,0,0,0-.69-.9,2.43,2.43,0,0,0-1.29-.35,2.91,2.91,0,0,0-1.3.33,3.14,3.14,0,0,0-1.49,1.77,2.41,2.41,0,0,0-.1,1.16,2.57,2.57,0,0,0,.25.8,1.32,1.32,0,0,0,.29.42,2.06,2.06,0,0,0,.79.44,3.6,3.6,0,0,0,1.13.17,4.53,4.53,0,0,0,.73-.08,2.13,2.13,0,0,0,.42-.1,3.87,3.87,0,0,0,2.16-1.67,1.53,1.53,0,0,0,.15-1.15,1.49,1.49,0,0,0-.69-.9,1.54,1.54,0,0,0-1.15-.15,1.59,1.59,0,0,0-.9.69Z"/><path class="cls-6" d="M627.16,248.21a.6.6,0,0,1-.09.15l.24-.3a1.29,1.29,0,0,1-.17.16l.3-.23a1,1,0,0,1-.24.14l.36-.15a1.16,1.16,0,0,1-.32.08l.4-.05a1.53,1.53,0,0,1-.37,0l.39.06a1.61,1.61,0,0,1-.36-.1l.36.15a1.07,1.07,0,0,1-.27-.16l.31.24a1,1,0,0,1-.18-.18l.23.3a.82.82,0,0,1-.12-.2l.15.36a1.54,1.54,0,0,1,0-.17l-.39,1.46,0,0-.3.24a1.07,1.07,0,0,1,.21-.13l-.36.16a.72.72,0,0,1,.25-.07l-.4.05a1.09,1.09,0,0,1,.31,0l-.4-.06.33.09-.36-.15a1.68,1.68,0,0,1,.34.2l-.3-.23a2,2,0,0,1,.26.25l-.24-.3a.92.92,0,0,1,.16.27l-.15-.36a1.38,1.38,0,0,1,.08.27l-.06-.4a1,1,0,0,1,0,.24l.06-.4,0,.14a1.51,1.51,0,0,0,.15,1.16,1.53,1.53,0,0,0,.89.69,1.51,1.51,0,0,0,1.16-.15,1.56,1.56,0,0,0,.69-.9l0-.14a2.51,2.51,0,0,0,.06-.55,3,3,0,0,0-.06-.51.83.83,0,0,0,0-.15,2.86,2.86,0,0,0-.68-1.15,3.42,3.42,0,0,0-.53-.41,1,1,0,0,0-.28-.16,2.71,2.71,0,0,0-.64-.23,3,3,0,0,0-.67-.08,3.47,3.47,0,0,0-.55.08l-.16,0a4.31,4.31,0,0,0-.49.22,5,5,0,0,0-.44.33,1.54,1.54,0,0,0-.38.67,1.51,1.51,0,0,0,0,.79.57.57,0,0,0,0,.14,2.76,2.76,0,0,0,.2.47l.07.12a4,4,0,0,0,.32.4l.1.08a2.67,2.67,0,0,0,1,.58l.29.07a3.71,3.71,0,0,0,.67.07,3.12,3.12,0,0,0,1.27-.34l.13-.08a2.58,2.58,0,0,0,.41-.33,2.55,2.55,0,0,0,.32-.4.38.38,0,0,0,.09-.15,1.12,1.12,0,0,0,.18-.56,1.08,1.08,0,0,0,0-.59,1.56,1.56,0,0,0-.69-.9,1.52,1.52,0,0,0-1.16-.15,1.49,1.49,0,0,0-.9.69Z"/><path class="cls-6" d="M635.65,268.29l-1,1a1.24,1.24,0,0,0-.31.48,1.29,1.29,0,0,0-.13.58,1.27,1.27,0,0,0,.13.58,1.11,1.11,0,0,0,.31.48l.31.24a1.5,1.5,0,0,0,.75.2l.4-.05a1.39,1.39,0,0,0,.66-.39l1-1a1.17,1.17,0,0,0,.31-.48,1.36,1.36,0,0,0,0-1.16,1.24,1.24,0,0,0-.31-.48l-.31-.23a1.42,1.42,0,0,0-.75-.21l-.4,0a1.56,1.56,0,0,0-.67.39Z"/><path class="cls-6" d="M123.07,464c-11.94-23.81-24-48-29.68-74.23a136.13,136.13,0,0,1-3-22.39c-.09-1.92-3.09-1.93-3,0,1.31,27.2,11.27,52.89,22.81,77.24,3.32,7,6.79,14,10.27,20.89.87,1.73,3.46.21,2.59-1.51Z"/><path class="cls-6" d="M85.49,352.05h0l.05-.4a.53.53,0,0,1,0,.17l.15-.36a.6.6,0,0,1-.09.15l.24-.3-.15.15.3-.24a1.2,1.2,0,0,1-.21.13l.35-.15-.25.07.4-.06H86l.4.06a.7.7,0,0,1-.19-.06l.36.16-.16-.09.31.23-.11-.11.23.3a1,1,0,0,1-.09-.15l.15.36a.58.58,0,0,1,0-.18l.05.39a.67.67,0,0,1,0-.2l-.05.4a.72.72,0,0,1,.07-.25l-.15.35a1.13,1.13,0,0,1,.12-.21l-.24.31a1,1,0,0,1,.17-.18l-.3.24.16-.1-.35.15.18-.05-.4.06h.13a1.06,1.06,0,0,0,.58-.13,1.08,1.08,0,0,0,.48-.31,1,1,0,0,0,.31-.48,1.06,1.06,0,0,0,.13-.58l0-.4a1.49,1.49,0,0,0-.39-.66l-.3-.23a1.48,1.48,0,0,0-.76-.21,2.26,2.26,0,0,0-1.11.28,2.18,2.18,0,0,0-.45.33l-.15.15a3.83,3.83,0,0,0-.33.46,3.21,3.21,0,0,0-.22.54,2.7,2.7,0,0,0-.08.56,2.88,2.88,0,0,0,0,.59,2.16,2.16,0,0,0,.2.52,1.83,1.83,0,0,0,.34.47,2.12,2.12,0,0,0,.94.59,2.83,2.83,0,0,0,.56.09h.19a3.43,3.43,0,0,0,.56-.08,4.33,4.33,0,0,0,.54-.21.57.57,0,0,0,.18-.12,2.14,2.14,0,0,0,.78-.84,3.65,3.65,0,0,0,.18-.44,4.13,4.13,0,0,0,.07-.49,1.06,1.06,0,0,0-.13-.58,1.34,1.34,0,0,0-.79-.8,1.14,1.14,0,0,0-.58-.12l-.4.05a1.57,1.57,0,0,0-.66.38l-.23.31a1.43,1.43,0,0,0-.21.76Z"/><path class="cls-6" d="M88.44,332.66a176.16,176.16,0,0,1,1.73-27.25,1.56,1.56,0,0,0-1-1.85,1.52,1.52,0,0,0-1.85,1.05,181.58,181.58,0,0,0-1.84,28.05c0,1.93,3,1.93,3,0Z"/><path class="cls-6" d="M94.61,293.54l-1-3.06a1.64,1.64,0,0,0-.69-.9,1.52,1.52,0,0,0-1.16-.15,1.5,1.5,0,0,0-.89.69,1.45,1.45,0,0,0-.15,1.15l1,3.07a1.52,1.52,0,0,0,1.85,1.05,1.54,1.54,0,0,0,.89-.69,1.52,1.52,0,0,0,.15-1.16Z"/><path class="cls-6" d="M97.38,283.55a2.06,2.06,0,0,0,.53-2.05,2.71,2.71,0,0,0-1.13-1.45,2.48,2.48,0,0,0-1.45-.42,2.07,2.07,0,0,0-1.79,1.11l2.74,1.16a2.64,2.64,0,0,1,.14-.48l-.15.36a2.33,2.33,0,0,1,.34-.57l-.24.3a3.05,3.05,0,0,1,.44-.44l-.3.24A2.58,2.58,0,0,1,97,281l-.36.15.2-.07a1.5,1.5,0,0,0,1.05-1.84,1.5,1.5,0,0,0-1.85-1.05,4,4,0,0,0-1.74,1.1,4,4,0,0,0-1,1.82,1.62,1.62,0,0,0,.15,1.16,1.59,1.59,0,0,0,.72.61,1.36,1.36,0,0,0,1,.07,1.45,1.45,0,0,0,.9-.68.83.83,0,0,1,.09-.16l-.23.3.09-.09-.3.23.12-.07-.36.15.14,0-.39.06h.2l-.4-.06a1.38,1.38,0,0,1,.29.08l-.36-.15a1.92,1.92,0,0,1,.31.18l-.3-.24a1.75,1.75,0,0,1,.23.24l-.23-.31a.88.88,0,0,1,.12.21l-.15-.36a.84.84,0,0,1,0,.17L95,282a.43.43,0,0,1,0,.16l.06-.4a.93.93,0,0,1,0,.13l.15-.36a.64.64,0,0,1-.08.14l.23-.3,0,.06a1.56,1.56,0,0,0-.44,1.06,1.5,1.5,0,0,0,1.5,1.5,1.56,1.56,0,0,0,1.06-.44Z"/><path class="cls-6" d="M127.78,342.51l-3.56,10c-1.06,3-2.77,6.22-.56,9.06a22.23,22.23,0,0,0,3.39,3.11l4,3.34,8.32,7a1.51,1.51,0,0,0,2.5-1.46,13.23,13.23,0,0,1,3.54-13,1.52,1.52,0,0,0-.66-2.51A21.11,21.11,0,0,1,131,345.8c-.71-1.77-3.61-1-2.89.79A24.31,24.31,0,0,0,143.92,361l-.66-2.51A16.26,16.26,0,0,0,139,374.38l2.51-1.46c-4.86-4.08-9.9-8-14.59-12.28a3,3,0,0,1-1.07-3.6c.47-1.48,1-2.94,1.56-4.4l3.32-9.33c.64-1.83-2.25-2.61-2.9-.8Z"/><path class="cls-6" d="M198.85,376.14c-2.25,1.64-4.19,4.09-4.18,7,0,2.58,1.76,5.32,4.39,5.87a5.29,5.29,0,0,0,5.76-3.11,6.74,6.74,0,0,0-.5-6.9,12.27,12.27,0,0,0-7.43-4.47,1.54,1.54,0,0,0-1.85,1,1.51,1.51,0,0,0,1.05,1.85,10.56,10.56,0,0,1,4.9,2.3,5.21,5.21,0,0,1,.78.86,4,4,0,0,1,.35.56l.15.29a2.26,2.26,0,0,1,.11.22c0-.09,0-.1,0,0s.1.35.14.53.06.38,0,.09c0,.09,0,.18,0,.28a5.28,5.28,0,0,1,0,.56,2.64,2.64,0,0,1,0,.28c0-.32,0,.13,0,.16a5.44,5.44,0,0,1-.15.54c0,.09-.06.18-.1.27.09-.24,0,0,0,0a5.86,5.86,0,0,1-.3.55l-.15.23c-.09.14.13-.12-.06.07a5.66,5.66,0,0,1-.42.43s-.25.19-.1.09-.08.05-.12.07-.56.26-.27.16c-.11,0-.68.16-.36.13a3.25,3.25,0,0,1-.54,0s-.26,0,0,0l-.3-.08a1.66,1.66,0,0,1-.29-.1c.2.09,0,0-.05,0s-.18-.1-.26-.16c-.26-.17,0,.05-.18-.14a3.35,3.35,0,0,1-1.08-2c0-.26,0,.19,0-.07s0-.32,0-.48a3.43,3.43,0,0,1,.05-.54,4.72,4.72,0,0,1,.53-1.45,7.48,7.48,0,0,1,2.12-2.35,1.56,1.56,0,0,0,.54-2.05,1.52,1.52,0,0,0-2.06-.54Z"/><path class="cls-6" d="M387.27,641.81c12.56-11.59,29.5-19.07,46.66-19.69,5-.19,10.06.41,14.4,3L448,622.8a55.8,55.8,0,0,1-25.34,14c-1.87.46-1.08,3.36.8,2.89a59,59,0,0,0,26.67-14.77,1.52,1.52,0,0,0-.31-2.35c-7.95-4.82-18.11-3.84-26.85-2.13a78.15,78.15,0,0,0-37.85,19.25c-1.42,1.31.71,3.43,2.13,2.12Z"/><path class="cls-6" d="M169,613a1.5,1.5,0,0,0,0-3,1.5,1.5,0,0,0,0,3Z"/><path class="cls-6" d="M396,648.33l12.32-3.86c1.84-.58,1.05-3.47-.8-2.9l-12.32,3.86c-1.84.58-1.05,3.47.8,2.9Z"/><path class="cls-6" d="M342.07,292.45a4.56,4.56,0,0,0-3.18,6.27,4.7,4.7,0,0,0,2.87,2.47,5.5,5.5,0,0,0,4.23-.73,12.6,12.6,0,0,0,5.44-5,6.39,6.39,0,0,0,.7-3.76,5.45,5.45,0,0,0-1.45-2.85c-1.7-1.82-4.71-2.53-6.59-.58a1.5,1.5,0,1,0,2.13,2.12c0-.06.11-.11.17-.17-.19.19-.1.06,0,0l.2-.12c-.19.15-.17.05-.05,0s.49,0,.15-.05h.22c.05,0,.38,0,.15,0s0,0,.08,0l.23.06.23.08c.2.07-.22-.11,0,0l.38.21.21.14c.31.21-.17-.19.09.08s.25.23.37.36.11.13.16.19-.14-.22,0,0,.15.25.23.38.13.28.06.11,0,.13.05.17a4.37,4.37,0,0,1,.12.49c-.05-.34,0,.13,0,.23a3.16,3.16,0,0,1,0,.32c0-.08.05-.2,0,.07s-.11.45-.19.67a4.65,4.65,0,0,1-.47.9,4.55,4.55,0,0,1-.71.89,10.22,10.22,0,0,1-1.85,1.56,9,9,0,0,1-2.38,1.29,2.71,2.71,0,0,1-.5.1h-.19c.17,0-.13,0-.16,0A2.16,2.16,0,0,1,342,298l-.21-.21-.09-.11c.07.08.07.09,0,0l-.14-.25c-.05-.1-.05-.09,0,0l-.05-.14c0-.1,0-.19-.07-.29,0,.22,0,0,0-.11s0-.35,0-.17,0-.2.06-.24c.05-.24,0-.14,0-.05a2.1,2.1,0,0,1,.21-.39s.17-.22,0-.05a3.31,3.31,0,0,1,.26-.27c.11-.12,0,0,0,0a2.35,2.35,0,0,1,.37-.24l.05,0a3,3,0,0,1,.43-.11,1.5,1.5,0,0,0-.8-2.9Z"/><path class="cls-6" d="M355.83,260.12l-1,1a1.24,1.24,0,0,0-.31.48,1.29,1.29,0,0,0-.13.58,1.27,1.27,0,0,0,.13.58,1.11,1.11,0,0,0,.31.48l.31.24a1.5,1.5,0,0,0,.75.2l.4-.05a1.47,1.47,0,0,0,.67-.39l1-1a1.17,1.17,0,0,0,.31-.48,1.36,1.36,0,0,0,0-1.16,1.24,1.24,0,0,0-.31-.48l-.31-.23a1.42,1.42,0,0,0-.75-.21l-.4.05a1.47,1.47,0,0,0-.66.39Z"/><path class="cls-6" d="M362.53,251v1a1.27,1.27,0,0,0,.13.58,1.24,1.24,0,0,0,.31.48,1.11,1.11,0,0,0,.49.31,1.14,1.14,0,0,0,.57.13l.4-.05a1.56,1.56,0,0,0,.67-.39l.23-.3a1.47,1.47,0,0,0,.2-.76v-1a1.14,1.14,0,0,0-.12-.58,1.21,1.21,0,0,0-.31-.48,1.11,1.11,0,0,0-.49-.31,1.06,1.06,0,0,0-.58-.13l-.39.05a1.47,1.47,0,0,0-.67.39l-.23.3a1.55,1.55,0,0,0-.21.76Z"/><path class="cls-6" d="M425.38,346.51c0,.06.16.36.06.1s0,0,0,.06a2.5,2.5,0,0,1,.07.26l0,.11c0,.14,0,.23,0-.14,0,.16,0,.33,0,.49s0,.34,0,.06,0,.07,0,.14a3.64,3.64,0,0,1-.14.47c-.07.24.17-.34,0,0,0,.08-.07.16-.12.24s-.09.15-.14.23-.26.27,0,0c-.13.13-.23.27-.36.39a1.22,1.22,0,0,0-.17.15c.27-.3.16-.12,0,0l-.23.14a.24.24,0,0,0-.1,0c-.12.09.3-.11.15-.07l-.47.14c-.25.07.35,0,0,0h-.47s.35.06.19,0l-.29-.06-.24-.07c-.23-.07.1,0,.12,0l-.15-.07a4.62,4.62,0,0,1-.48-.28c-.29-.2.19.17,0,0l-.25-.24-.2-.22.11.13c0-.06-.09-.12-.12-.17s-.12-.2-.17-.3l-.06-.11c-.1-.19.05.08.05.12a2.33,2.33,0,0,0-.1-.32c0-.11,0-.22-.07-.33s0,.35,0,.19,0-.11,0-.17,0-.25,0-.38a1.5,1.5,0,0,0-1.5-1.5A1.54,1.54,0,0,0,419,347a5,5,0,0,0,4.06,5.13,4.39,4.39,0,0,0,3.39-.73,5.33,5.33,0,0,0,1.94-2.76A4.8,4.8,0,0,0,428,345a1.5,1.5,0,0,0-2.59,1.51Z"/><path class="cls-6" d="M457,323h-1a1.15,1.15,0,0,0-.58.13,1.08,1.08,0,0,0-.48.31,1.14,1.14,0,0,0-.31.48,1.06,1.06,0,0,0-.13.58l.05.4a1.49,1.49,0,0,0,.39.66l.3.24a1.57,1.57,0,0,0,.76.2h1a1.15,1.15,0,0,0,.58-.13,1.08,1.08,0,0,0,.48-.31,1.14,1.14,0,0,0,.31-.48,1.06,1.06,0,0,0,.13-.58l-.05-.4a1.49,1.49,0,0,0-.39-.66l-.3-.24a1.57,1.57,0,0,0-.76-.2Z"/><path class="cls-6" d="M174.22,117.8a28,28,0,0,0-11.95,18.61c-1,6.32.06,15.36,7,17.9,4,1.46,8.07-.64,11.19-3.07a66.11,66.11,0,0,0,16.41-19.4c1.89-3.58,3.19-7.84,1.35-11.7-1.7-3.56-5.81-5.31-9.58-5.4-4.87-.11-9.29,2.57-13.29,5.06-1.63,1-.13,3.61,1.52,2.59,3.09-1.93,6.34-4,10-4.55,2.75-.4,6,.3,7.87,2.46,2.3,2.66,1.29,6.43-.1,9.27a50.88,50.88,0,0,1-6,9.19,65.33,65.33,0,0,1-7.38,7.86c-2.52,2.28-5.7,5.24-9.34,5.17-6.32-.13-7.43-8.78-7-13.48a25,25,0,0,1,10.71-17.92c1.6-1.08.1-3.68-1.51-2.59Z"/></g></g></svg>