<?xml version="1.0" encoding="UTF-8" standalone="no"?>
<svg
   xmlns:dc="http://purl.org/dc/elements/1.1/"
   xmlns:cc="http://creativecommons.org/ns#"
   xmlns:rdf="http://www.w3.org/1999/02/22-rdf-syntax-ns#"
   xmlns:svg="http://www.w3.org/2000/svg"
   xmlns="http://www.w3.org/2000/svg"
   xmlns:xlink="http://www.w3.org/1999/xlink"
   xmlns:sodipodi="http://sodipodi.sourceforge.net/DTD/sodipodi-0.dtd"
   xmlns:inkscape="http://www.inkscape.org/namespaces/inkscape"
   width="148.7366mm"
   height="148.33348mm"
   viewBox="-60 -60 148.7366 148.33348"
   sodipodi:docname="umd_transparent.svg"
   version="1.1"
   id="svg43"
   inkscape:version="1.0.2-2 (e86c870879, 2021-01-15)"
   inkscape:export-filename="C:\Users\ctdin\Documents\Designs\umd_25_logo.png"
   inkscape:export-xdpi="256.1575"
   inkscape:export-ydpi="256.1575">
  <defs
     id="defs45">
    <linearGradient
       inkscape:collect="always"
       id="linearGradient924">
      <stop
         style="stop-color:#7289d9;stop-opacity:1;"
         offset="0"
         id="stop920" />
      <stop
         style="stop-color:#7289d9;stop-opacity:0;"
         offset="1"
         id="stop922" />
    </linearGradient>
    <inkscape:path-effect
       effect="lattice2"
       gridpoint0="-26.523132,-30.913237"
       gridpoint1="30,-29"
       gridpoint2="-30,-12"
       gridpoint3="31.450785,-15.487031"
       gridpoint4="-13,-42"
       gridpoint5="17,-36"
       gridpoint6="-12.466755,-18.962216"
       gridpoint7="15.450785,-13.487031"
       gridpoint8x9="4,-35"
       gridpoint10x11="1.4507848,-21.487031"
       gridpoint12="-25,-28"
       gridpoint13="29.702376,-27.925482"
       gridpoint14="-26.523132,-21.949971"
       gridpoint15="34,-21"
       gridpoint16="-10,-28"
       gridpoint17="15.645999,-27.925482"
       gridpoint18="-12.466755,-21.949971"
       gridpoint19="15.450785,-21.487031"
       gridpoint20x21="1.5896221,-27.925482"
       gridpoint22x23="1.5896221,-21.949971"
       gridpoint24x26="-31,-22"
       gridpoint25x27="29.702376,-24.937727"
       gridpoint28x30="-12.466755,-24.937727"
       gridpoint29x31="15.645999,-24.937727"
       gridpoint32x33x34x35="1.5896221,-24.937727"
       id="path-effect590"
       is_visible="true"
       lpeversion="1"
       horizontal_mirror="false"
       vertical_mirror="false"
       perimetral="false"
       live_update="true" />
    <inkscape:path-effect
       effect="envelope"
       id="path-effect588"
       is_visible="true"
       lpeversion="1"
       yy="true"
       xx="true"
       bendpath1="m -26.523132,-30.913212 h 56.2255"
       bendpath2="m 29.702368,-30.913212 v 11.950994"
       bendpath3="m -26.523132,-18.962218 h 56.2255"
       bendpath4="m -26.523132,-30.913211 v 11.950994" />
    <inkscape:path-effect
       effect="lattice2"
       gridpoint0="-30.702652,16.344803"
       gridpoint1="33.297348,14.344803"
       gridpoint2="-30.746867,37.698267"
       gridpoint3="31.253133,41.698267"
       gridpoint4="-15.722807,21.425863"
       gridpoint5="16.277193,21.425863"
       gridpoint6="-15.722807,49.425863"
       gridpoint7="17.253133,43.698267"
       gridpoint8x9="0.4693191,16.826193"
       gridpoint10x11="1.2531329,45.698267"
       gridpoint12="-32.702652,22.344803"
       gridpoint13="35.253133,23.698267"
       gridpoint14="-30.746867,33.698267"
       gridpoint15="31.86759,36.345649"
       gridpoint16="-15.722807,29.425863"
       gridpoint17="16.277193,27.425863"
       gridpoint18="-14.746867,41.698267"
       gridpoint19="21.253133,37.698267"
       gridpoint20x21="0.4693191,23.332678"
       gridpoint22x23="0.4693191,36.345649"
       gridpoint24x26="-30.928952,29.839163"
       gridpoint25x27="31.86759,29.839163"
       gridpoint28x30="-28.746867,27.698267"
       gridpoint29x31="21.253133,31.698267"
       gridpoint32x33x34x35="0.4693191,29.839163"
       id="path-effect402"
       is_visible="true"
       lpeversion="1"
       horizontal_mirror="false"
       vertical_mirror="false"
       perimetral="false"
       live_update="true" />
    <inkscape:path-effect
       effect="envelope"
       id="path-effect349"
       is_visible="true"
       lpeversion="1"
       yy="true"
       xx="true"
       bendpath1="M -29.26998,14.930185 H 35.929151"
       bendpath2="M 35.929151,14.930185 V 43.945883"
       bendpath3="m -29.26998,43.945883 c 25.3207087,-3.149625 47.103588,-2.81604 65.199131,0"
       bendpath4="M -29.26998,14.930185 V 43.945883"
       bendpath3-nodetypes="cc" />
    <inkscape:path-effect
       effect="lattice2"
       gridpoint0="-32.043706,14.353657"
       gridpoint1="35.956294,14.353657"
       gridpoint2="-27.226176,34.126568"
       gridpoint3="35.956294,36.353657"
       gridpoint4="-13.457547,21.597761"
       gridpoint5="18.515545,21.597761"
       gridpoint6="-12.043706,50.353657"
       gridpoint7="18.515545,48.671217"
       gridpoint8x9="3.9562941,22.353657"
       gridpoint10x11="3.9562941,54.353657"
       gridpoint12="-22.043706,32.353657"
       gridpoint13="34.502091,28.366125"
       gridpoint14="-28.043706,34.353657"
       gridpoint15="33.956294,34.353657"
       gridpoint16="-13.457547,28.366125"
       gridpoint17="7.9562941,46.353657"
       gridpoint18="-15.226176,46.126568"
       gridpoint19="18.773824,40.126568"
       gridpoint20x21="2.528999,28.366125"
       gridpoint22x23="1.9562941,50.353657"
       gridpoint24x26="-29.444093,35.134489"
       gridpoint25x27="34.502091,35.134489"
       gridpoint28x30="-13.226176,36.126568"
       gridpoint29x31="18.515545,35.134489"
       gridpoint32x33x34x35="1.9562941,32.353657"
       id="path-effect347"
       is_visible="true"
       lpeversion="1"
       horizontal_mirror="false"
       vertical_mirror="false"
       perimetral="false"
       live_update="true" />
    <inkscape:path-effect
       effect="envelope"
       id="path-effect343"
       is_visible="true"
       lpeversion="1"
       yy="true"
       xx="true"
       bendpath1="M -29.444093,21.597761 H 34.502091"
       bendpath2="M 34.502091,21.597761 V 48.671217"
       bendpath3="M -29.444093,48.671217 H 34.502091"
       bendpath4="M -29.444093,21.597761 V 48.671217" />
    <inkscape:path-effect
       effect="envelope"
       id="path-effect66"
       is_visible="true"
       lpeversion="1"
       yy="true"
       xx="true"
       bendpath1="m -24.114846,-52.292656 c 18.3034762,-3.100442 36.47629,-7.541044 55.817291,0"
       bendpath2="m 31.702445,-52.292656 v 32.036877"
       bendpath3="m -24.114846,-20.255779 c 15.2451778,12.2308653 32.5460895,16.9798791 55.817291,0"
       bendpath4="m -24.114846,-52.292656 v 32.036877"
       bendpath1-nodetypes="cc"
       bendpath3-nodetypes="cc" />
    <linearGradient
       inkscape:collect="always"
       xlink:href="#linearGradient924"
       id="linearGradient926"
       x1="2"
       y1="10"
       x2="2"
       y2="-22"
       gradientUnits="userSpaceOnUse"
       gradientTransform="matrix(1.1309607,0,0,1.1640715,-1.0117775,5.0876083)" />
  </defs>
  <sodipodi:namedview
     pagecolor="#ffffff"
     bordercolor="#666666"
     borderopacity="1.0"
     inkscape:pageopacity="0.0"
     inkscape:pageshadow="2"
     inkscape:zoom="1.4142136"
     inkscape:cx="257.35202"
     inkscape:cy="277.91222"
     inkscape:document-units="mm"
     inkscape:current-layer="layer8"
     showgrid="true"
     units="mm"
     showguides="true"
     inkscape:guide-bbox="true"
     inkscape:snap-global="true"
     inkscape:snap-bbox="true"
     inkscape:snap-bbox-midpoints="true"
     inkscape:window-width="1920"
     inkscape:window-height="1012"
     inkscape:window-x="-8"
     inkscape:window-y="-8"
     inkscape:window-maximized="1"
     inkscape:bbox-paths="true"
     inkscape:bbox-nodes="true"
     inkscape:snap-bbox-edge-midpoints="true"
     inkscape:snap-grids="true"
     id="namedview33"
     inkscape:document-rotation="0"
     inkscape:snap-text-baseline="false">
    <sodipodi:guide
       orientation="1,0"
       position="241.50824,240.93838"
       id="guide2827" />
    <sodipodi:guide
       orientation="0,1"
       position="241.50824,240.93838"
       id="guide2829" />
    <inkscape:grid
       type="xygrid"
       id="grid3072"
       empspacing="10"
       visible="true"
       enabled="true"
       snapvisiblegridlinesonly="true"
       units="mm"
       dotted="false"
       spacingx="0.1mm"
       spacingy="0.1mm"
       originx="14.736602"
       originy="14.16674" />
  </sodipodi:namedview>
  <metadata
     id="metadata2822">
    <rdf:RDF>
      <cc:Work
         rdf:about="">
        <dc:format>image/svg+xml</dc:format>
        <dc:type
           rdf:resource="http://purl.org/dc/dcmitype/StillImage" />
        <dc:title />
      </cc:Work>
    </rdf:RDF>
  </metadata>
  <g
     inkscape:groupmode="layer"
     id="layer7"
     inkscape:label="background"
     style="display:inline;opacity:1"
     transform="translate(14.736603,14.16674)" />
  <g
     inkscape:groupmode="layer"
     id="layer8"
     inkscape:label="background 1"
     style="display:inline"
     transform="translate(14.736603,14.16674)">
    <ellipse
       style="fill:#e21833;fill-opacity:1;stroke:none;stroke-width:2.71152"
       id="path887"
       cx="0.70805353"
       cy="0.05703868"
       rx="67.291946"
       ry="65.942963" />
  </g>
  <g
     inkscape:groupmode="layer"
     id="layer10"
     inkscape:label="classof"
     style="display:inline"
     transform="translate(14.736603,14.16674)">
    <path
       id="path539"
       style="fill:#a97a58;fill-opacity:1;stroke:#000000;stroke-width:0.648818;stroke-miterlimit:4;stroke-dasharray:none;stroke-opacity:1"
       d="m 7.6431031,-48.428815 c -0.399213,-0.04872 -0.68786,0.129436 -1.073322,0.656373 -0.203614,0.278326 -0.40261,0.63504 -0.594989,1.085007 -0.703155,1.644633 -0.548669,1.600511 -1.244557,3.806736 -0.150573,0.797341 -0.366913,1.587476 -0.5022085,2.414513 -0.2429232,1.484852 -0.343889,3.079853 -0.1508351,4.107731 0.3617646,1.926139 1.3751136,2.240329 2.1837826,2.759795 0.865381,0.422002 0.963909,0.398793 1.77376,1.130711 0.6665178,0.602371 0.8902178,0.799594 1.4029785,1.974844 0.1774577,0.406749 0.3548467,0.824435 0.4842947,1.347834 0.1246077,0.503835 0.1746907,1.123322 0.2709127,1.669834 0.04574,0.608068 0.133659,1.184058 0.156429,1.786565 0.07261,1.921446 -0.138867,3.972987 -0.7258687,5.325061 -0.6235037,1.436163 -1.4265402,2.201251 -2.2927462,3.162797 -0.803631,0.707412 -1.815727,1.688491 -2.716851,2.020772 -0.3822777,0.140947 -0.7432548,0.129736 -1.0880381,0.08471 -0.2141915,-0.02817 -0.4084494,-0.137174 -0.5769588,-0.305632 -0.5911354,-0.590943 -0.5457,-0.840416 -0.9415529,-1.853808 -0.1561561,-0.267721 -0.3169759,-0.535443 -0.4823769,-0.802976 -0.00699,-0.06036 -0.58511357,0.354072 -0.57881057,0.414189 -0.03488,0.63913 -0.092222,1.280144 -0.1879495,1.926596 0.34651287,1.330404 0.26691687,2.278906 0.90336397,2.943225 0.9499656,0.991555 2.6964678,0.479364 4.4923748,-0.730028 0.655281,-0.441268 1.248189,-0.987456 1.850121,-1.478058 0.5847118,-0.654398 1.2047975,-1.269776 1.6861392,-1.999458 1.2025407,-1.822957 1.8229887,-4.017855 1.9353157,-6.987351 0.08785,-2.322612 -0.06197,-2.523327 -0.213864,-4.869854 -0.139312,-0.785455 -0.223569,-1.657547 -0.381147,-2.412144 -0.145745,-0.697915 -0.332806,-1.315425 -0.533909,-1.879115 -0.8636007,-2.420577 -2.0268461,-3.304014 -3.3040569,-3.900951 -0.691012,-0.273555 -0.863034,-0.279094 -1.485243,-0.679077 -0.284359,-0.182762 -0.527239,-0.140689 -0.547051,-1.048001 -0.02081,-0.952807 0.172251,-1.522203 0.369264,-2.522484 0.393332,-1.156636 0.612647,-1.995575 1.023802,-2.853571 0.326951,-0.682285 0.932389,-1.464998 1.285021,-1.462997 0.148918,8.46e-4 0.296,0.08414 0.443086,0.127717 0.2682148,0.390008 0.5014958,0.641281 0.6887475,1.332659 0.08784,0.32433 0.139394,0.713886 0.189724,1.103073 0.155252,1.200473 0.121973,2.3303 0.09633,3.679506 -0.01076,0.157783 0.9437964,-0.190097 0.9528614,-0.346502 0.213172,-2.908023 0.01601,-5.428684 -0.8346684,-7.149365 -0.176699,-0.357427 -0.395078,-0.62127 -0.5929457,-0.91223 -0.233343,-0.186469 -0.4663658,-0.451777 -0.7006888,-0.545288 -0.160904,-0.0642 -0.30525,-0.105244 -0.437685,-0.121471 5e-6,-4e-6 1.6e-5,9.8e-5 1.6e-5,9.8e-5 M 24.38361,-38.057699 c -0.750289,-0.502658 -1.3989,-0.152398 -1.959011,1.238011 -0.425554,1.05637 -0.733087,2.619393 -1.13319,4.018309 -0.240683,1.816372 -0.602117,3.675143 -0.723781,5.552298 -0.24058,3.711994 0.06959,6.660733 0.338167,9.632858 0.126564,1.400628 0.382393,3.9643 0.589592,4.608409 0.135994,0.422773 0.466685,0.593892 0.66819,0.871241 0.55178,-0.03024 0.951173,0.110517 1.613302,-0.108608 1.356623,-0.44889 2.955779,-1.775385 3.929172,-3.072499 1.160339,-1.546235 1.6327,-3.331005 1.700154,-5.305213 0.03166,-0.926627 -0.0859,-1.932561 -0.173893,-2.931451 -0.149674,-0.911138 -0.272798,-1.775624 -0.463555,-2.728165 -0.428416,-2.137775 -1.039145,-4.455398 -1.780328,-6.532688 -0.474699,-1.330419 -0.608249,-1.481713 -1.121801,-2.565502 -0.159984,-0.296844 -0.320859,-0.566554 -0.483991,-0.81816 0.05605,-0.301504 0.10104,-0.585628 0.08424,-0.617268 -0.101164,-0.151962 -0.200347,-0.3236 -0.302812,-0.457993 -0.269535,-0.353518 -0.530458,-0.616092 -0.780459,-0.783584 0,0 -2e-6,2e-6 -2e-6,2e-6 z m -51.683929,0.960099 c -0.375529,0.263616 -0.733217,0.686203 -1.24084,1.475585 -0.707561,1.100294 -1.537491,2.621346 -2.522513,4.245616 -2.771556,4.570212 -6.015916,9.048767 -7.041844,12.438315 -0.471936,1.559214 -0.220231,2.601717 0.234744,3.530951 1.451953,1.530531 2.706562,2.120725 4.443179,3.306463 1.32167,0.902417 2.265005,1.203938 3.699132,0.728331 0.480148,-0.159218 0.961128,-0.548326 1.382512,-0.952221 0.338466,-0.324428 0.558168,-0.776761 0.810582,-1.15499 0.04659,-0.397528 0.06541,-0.779038 0.07208,-1.150465 0.01018,-0.0315 -0.501562,-0.381493 -0.51095,-0.350646 -0.213337,0.117022 -0.425359,0.232835 -0.637511,0.347394 -0.625881,0.53731 -0.83643,0.777182 -1.627028,1.10809 -0.279757,0.117072 -0.558582,0.243843 -0.875788,0.236273 -1.004659,-0.02397 -1.987348,-0.36344 -3.05543,-1.13293 -0.681745,-0.491163 -1.107426,-1.049297 -1.57433,-1.683096 -0.37174,-0.98994 -0.457701,-2.041265 -0.194834,-3.32677 0.266273,-1.302154 0.879289,-2.817785 2.005217,-4.933488 0.85762,-1.611526 1.997682,-3.457149 3.025105,-5.175194 0.661703,-1.106489 1.472085,-2.430536 2.059715,-3.344244 0.825358,-1.283353 1.317508,-1.294586 1.854852,-1.569899 0.131087,0.254561 0.359058,0.376203 0.380315,0.821878 0.02401,0.503324 -0.130982,1.234237 -0.281567,1.958296 -0.152074,0.731205 -0.382905,1.523957 -0.579813,2.296484 -0.411553,1.614607 -0.777095,3.102851 -1.058065,4.605775 -0.0072,0.03134 1.12893,-0.579774 1.179683,-0.79177 0.689363,-2.428288 1.780502,-5.592791 2.223477,-7.945774 0.170096,-0.903496 0.315987,-1.775122 0.258505,-2.423742 -0.06113,-0.689708 -0.361488,-1.088851 -0.611128,-1.525362 -0.666528,0.03009 -1.199212,-0.07281 -1.817446,0.361146 0,0 -4e-6,-6e-6 -4e-6,-6e-6 z m 26.0741451,-10.616386 c -0.1626438,0.0029 -0.3362916,0.04385 -0.5312653,0.139671 -1.0064242,0.49397 -2.2140722,2.898572 -3.3474599,5.739992 -0.3497577,0.876846 -0.662628,1.902534 -1.0216788,2.856196 -0.2161661,0.849681 -0.5418599,1.735669 -0.6655222,2.534089 -0.3705111,2.392179 0.1240028,3.276844 0.8527268,3.688511 0.7241461,0.409079 1.6647639,0.335956 2.2628429,0.617102 0.4119591,0.193674 0.7994085,0.548459 1.1954515,0.823223 0.325341,0.456865 0.7068204,0.775743 0.9951606,1.365062 0.2585478,0.528399 0.4668164,1.229021 0.65500338,1.937328 0.46372901,1.745418 0.73221061,3.984211 0.42854651,6.050182 -0.090223,0.613842 -0.27907471,1.151955 -0.41748761,1.709481 -0.20341808,0.505191 -0.35110478,1.075308 -0.60903608,1.474958 -0.7308931,1.132486 -1.6202302,1.48129 -2.4778172,1.679211 -0.6650323,0.153486 -1.8681025,0.162419 -2.5598339,-0.07036 -0.3337332,-0.112298 -0.6503073,-0.336799 -0.9808894,-0.500195 -0.2862537,-0.02651 -0.5733266,-0.05107 -0.8606332,-0.07444 -0.021215,-0.03638 -0.3972768,0.708893 -0.3770738,0.745397 0.1499091,0.566419 0.2757207,1.144092 0.3597344,1.738825 0.3560717,0.329961 0.6362061,0.824469 1.0140958,1.021328 0.5419313,0.282333 1.1287452,0.38573 1.753753,0.383623 1.2017725,-0.0037 2.476446,-0.463845 3.8069671,-1.715842 1.23306189,-1.160304 1.51238209,-2.030525 2.21925126,-3.835455 0.48223897,-2.173603 0.67311474,-2.665343 0.68229004,-5.250138 0.01103,-3.107851 -0.43760427,-6.712586 -1.18629674,-8.754209 -0.29093527,-0.79337 -0.71526858,-1.224496 -1.06219756,-1.839227 -0.4397069,-0.294036 -0.860463,-0.689839 -1.3264529,-0.869152 -0.3672538,-0.141294 -1.8149021,-0.147251 -2.3087024,-0.111856 -0.2313559,0.01677 -0.4862767,0.131674 -0.7062402,0.103358 -0.09021,-0.01193 -0.2399349,0.02557 -0.2121549,-0.226179 0.047446,-0.428987 0.261041,-0.932653 0.3904719,-1.401529 0.2526657,-0.629531 0.4838762,-1.312887 0.7455999,-1.89312 0.3337805,-0.73997 0.6759858,-1.396279 1.0077253,-2.016256 0.6986693,-1.305704 1.1425791,-2.077882 1.7896739,-2.605275 0.3129132,-0.254997 0.83813218,-0.01957 1.06791188,0.03972 0.34722791,0.396914 0.53012581,0.450258 0.71784158,1.281669 0.065438,0.289882 0.09101,0.649409 0.1229806,0.996701 0.079976,0.868784 0.061359,1.808626 0.061937,2.761466 -0.00937,0.14538 1.04415764,-0.897788 1.05182674,-1.043343 0.1866761,-2.339007 0.089256,-4.415855 -0.50370727,-5.760573 -0.1770195,-0.40144 -0.41145147,-0.69117 -0.62262327,-1.013108 -0.52631057,-0.369551 -0.91704638,-0.714555 -1.40471336,-0.706658 0,0 -6.6e-6,-1.8e-4 -6.6e-6,-1.8e-4 z m 30.6305129,13.632485 c -0.120243,0.544539 -0.09889,1.261398 -0.04963,2.024528 0.0914,1.415785 0.242278,2.525745 0.467257,4.135059 0.168049,1.04041 0.339595,2.096653 0.517138,3.117705 0.242451,1.394411 0.751413,4.763151 0.778231,6.039798 0.02533,1.204733 -0.06245,2.309649 -0.438003,3.354977 -0.07793,0.216477 -0.177441,0.432412 -0.282659,0.644926 -0.180798,0.35986 -0.471425,0.787723 -0.545489,1.082742 -0.01888,0.07513 -0.09439,0.201811 -0.03324,0.205431 0.19119,0.01129 0.494853,-0.110296 0.73818,-0.167353 0.103144,-0.08472 0.21028,-0.170098 0.307454,-0.257718 0.566202,-0.510521 0.954953,-1.073788 1.26063,-1.627476 0.523143,-0.947574 0.771151,-1.876369 0.901999,-2.96197 0.05563,-0.70856 0.05732,-1.438398 -0.0092,-2.186717 -0.05788,-0.651358 -0.163723,-1.321538 -0.289521,-2.000869 0.44453,0.15791 0.8909,0.271165 1.334162,0.35499 0.314577,0.05946 0.631896,0.157802 0.932379,0.132401 0.265042,-0.02242 0.484151,-0.174406 0.726452,-0.259985 0.16139,-0.05702 0.323483,-0.111169 0.4851,-0.167482 0.02109,0.0076 -0.01215,-0.439964 -0.03326,-0.447754 -0.174382,-0.101682 -0.348455,-0.20671 -0.522198,-0.314721 -0.259077,-0.161046 -0.518786,-0.392965 -0.773777,-0.504165 -0.325501,-0.141942 -0.611064,-0.157034 -0.920159,-0.233161 -0.541877,-0.133466 -1.086756,-0.263778 -1.601874,-0.346036 -0.53573,-2.342971 -1.236663,-4.795648 -1.838459,-7.241245 0.289964,0.295046 0.590799,0.541647 0.886413,0.781101 0.814338,0.694042 1.647795,1.211155 2.478562,1.572429 0.384991,0.167414 0.753174,0.285585 1.101681,0.316956 0.08151,0.0043 0.249634,0.120933 0.244584,0.01193 -0.01264,-0.273458 -0.145721,-0.6387 -0.261802,-0.968237 -0.0055,-0.01553 -0.105812,-0.09479 -0.194145,-0.158674 0.0064,0.0021 0.01506,0.0072 0.02056,0.0078 -0.360181,-0.246784 -0.677527,-0.45154 -1.020416,-0.677742 -0.806727,-0.532195 -1.578432,-1.079364 -2.329182,-1.588494 -0.331315,-0.254785 -0.660566,-0.535031 -0.984717,-0.791199 -0.08449,-0.06683 -0.167012,-0.111844 -0.251179,-0.179388 -0.02996,-0.0241 -0.06073,-0.07235 -0.09045,-0.09424 -0.01186,-0.0087 -0.01745,0.01584 -0.02939,0.0059 -0.230385,-0.192247 -0.453825,-0.40328 -0.682006,-0.613977 0,0 -1.8e-5,-9.8e-5 -1.8e-5,-9.8e-5 z M -9.5205198,-44.10308 c -0.3233813,0.442524 -0.6671852,0.757884 -1.0028532,1.348613 -0.31751,0.558772 -2.185748,4.629383 -2.583242,5.509559 -1.970307,4.362894 -3.643932,8.275109 -4.553067,11.90231 -0.819742,3.514953 -0.765099,5.527801 -0.634661,8.137708 0.03007,0.602163 0.07153,1.20853 0.06033,1.833603 -0.01405,0.782416 -0.05732,0.970539 -0.07106,1.101816 -0.01374,0.131278 0.0042,0.202862 -0.100554,0.88691 -0.02479,0.101239 0.797425,0.414975 0.827542,0.309929 0.104377,-0.298367 0.203654,-0.590176 0.276901,-0.87651 0.108256,-0.423181 0.176,-0.830931 0.236144,-1.23195 0.135072,-0.900717 0.186113,-1.751028 0.199338,-2.000069 0.02436,-0.458754 0.0238,-0.924033 0.06279,-2.136344 0.02658,-0.825757 0.05138,-1.659193 0.158956,-2.571136 0.05519,-0.467944 0.13376,-0.947803 0.224391,-1.445323 1.141472,-0.05783 2.292991,-0.224005 3.44381,-0.50897 0.296275,-0.07336 0.593986,-0.181692 0.89046,-0.266362 0.108232,0.01106 0.180195,-0.02793 0.236628,-0.0965 -0.0045,0.356256 -0.007,1.01253 0.03452,1.872132 0.122452,2.372767 0.525964,4.419018 0.565166,6.642406 0.0057,0.318829 0.0059,0.640386 -0.0037,0.967737 -0.01531,0.522057 -0.08421,0.620127 0.05054,0.341655 10e-4,-2.79e-4 0.0011,1.85e-4 0.0022,-9.9e-5 0.0084,0.02507 -10e-4,0.0015 -10e-4,0.0015 -0.389725,1.006309 0.634455,0.365305 0.783017,0.358662 0.254392,-0.637225 0.36256,-1.245649 0.4315749,-1.887248 0.249295,-2.317332 -0.06607,-4.459219 -0.06205,-6.955302 -0.07835,-4.767031 0.7060323,-7.708446 1.6081479,-13.893642 0.3168714,-2.172546 0.7554319,-5.780512 0.086937,-7.003965 -0.2800999,-0.512624 -0.7837414,-0.240065 -1.1672596,-0.341151 0,0 10e-5,-4.6e-5 10e-5,-4.6e-5 z m 33.9681468,8.201294 c 5.4e-4,0.02379 0.0052,0.05121 0.0035,0.07346 -0.0086,0.117907 -0.101119,0.100343 -0.08906,0.235189 0.01007,0.112042 0.08332,0.102788 0.124691,0.159667 0.29507,0.40533 0.586507,0.866055 0.87419,1.379651 0.128722,0.269209 0.267588,0.507242 0.390834,0.801402 0.290254,0.69277 0.662259,1.798183 0.876755,2.601916 0.648121,2.428293 0.808572,4.254802 1.038101,6.498413 0.10259,1.996583 0.19833,3.654525 -0.187661,5.374335 -0.17472,0.778488 -0.456284,1.505506 -0.811411,2.201946 -0.305887,0.599877 -0.637452,1.181974 -1.103255,1.667302 -0.570134,0.594025 -1.155593,0.766303 -1.719696,0.989414 -0.201139,-0.141435 -0.477135,-0.166061 -0.602212,-0.428785 -0.26728,-0.561508 -0.443713,-2.567654 -0.523893,-3.60962 -0.172845,-2.246084 -0.398962,-5.077898 -0.327563,-7.7755 0.04091,-1.545577 0.236898,-3.109603 0.360388,-4.654336 0.351177,-2.132584 0.524761,-4.243634 1.19487,-5.376859 0.119124,-0.201461 0.303768,-0.104476 0.456852,-0.131044 0.01474,-0.0024 0.02972,-0.0042 0.04453,-0.0066 0,0 1.3e-5,1.28e-4 1.3e-5,1.28e-4 z m -45.929784,-2.098012 c -0.02876,0.0192 -0.04701,0.03767 -0.05185,0.05583 -0.202245,0.649742 -0.448993,1.32083 -0.693677,1.99094 -0.365618,1.001375 -0.76319,2.02858 -1.174695,3.034056 -1.421729,3.473771 -2.654711,6.118834 -3.45341,8.950646 -0.380873,1.350405 -0.582602,2.523646 -0.633208,3.601072 -0.04221,0.898152 0.04342,1.684539 0.180789,2.437548 0.390041,1.871716 1.22551,3.373843 1.301361,5.583415 0.05882,-0.01308 -0.02954,0.257006 0.0198,0.269855 0.352523,0.09151 0.710398,0.213554 1.102134,0.04872 0.172105,-0.07238 0.345805,-0.193381 0.516476,-0.252552 0.293294,-0.101647 0.582885,-0.153054 0.874508,-0.229733 0.355211,-0.09426 0.712904,-0.192158 1.068165,-0.283037 0.358339,-0.09164 0.718364,-0.187411 1.076153,-0.264553 0.809609,-0.174479 1.636426,-0.232637 2.460334,-0.589425 0.101175,-0.330231 0.186622,-0.650808 0.26061,-0.963884 0.0031,-0.01654 -0.155937,-0.08169 -0.158688,-0.06541 0.05944,-0.251276 0.11166,-0.498612 0.158675,-0.742784 -0.670883,-0.2079 -1.353757,-0.141974 -2.035514,-0.05078 -1.135348,0.151641 -2.25059,0.480729 -3.306358,0.997875 -0.339328,0.21713 -0.695174,0.412093 -1.02917,0.676626 -0.0018,-0.07358 -0.0042,-0.146601 -0.0075,-0.218938 -0.06613,-1.469132 -0.447045,-2.716146 -0.595088,-4.160417 -0.173497,-1.734464 -0.04004,-3.602211 0.593315,-6.155195 0.685756,-2.764163 1.755405,-5.55353 2.939935,-8.925064 0.351052,-0.999451 0.705557,-2.019434 0.994901,-3.011254 0.18572,-0.636646 0.332129,-1.261106 0.461227,-1.872747 0.03721,-0.136807 -0.670153,0.0055 -0.869276,0.139164 0,0 3e-6,2.4e-5 3e-6,2.4e-5 z m 12.1384936,-3.394661 c -0.039252,0.234009 -0.1015343,0.48383 -0.1240446,0.703556 -0.063798,0.624192 -0.064614,1.174087 -0.1577931,1.813083 -0.4298099,2.947496 -1.1256509,5.60737 -1.6028289,8.414515 -0.355687,2.092492 -0.469613,3.469176 -0.507757,3.93547 -0.373212,-0.07647 -0.429496,-0.08644 -1.229117,0.0064 -0.960759,0.111635 -1.943778,0.370499 -2.95882,0.900644 0.546558,-2.184181 1.152531,-4.037991 2.281899,-6.797136 0.484274,-1.183127 1.018272,-2.381703 1.546956,-3.579227 0.193081,-0.437361 1.981618,-4.460092 2.2424749,-4.917265 0.17479,-0.306305 0.3384147,-0.319244 0.5090223,-0.480098 0,0 8.4e-6,-1.6e-5 8.4e-6,-1.6e-5 z" />
  </g>
  <g
     inkscape:groupmode="layer"
     id="layer1"
     inkscape:label="U"
     style="display:inline"
     transform="translate(14.736603,14.16674)">
    <g
       id="g928"
       transform="matrix(0.99112754,0,0,0.97157982,-6.3845024,5.3576637)"
       style="fill:#ffd200;fill-opacity:1;stroke:#000000;stroke-width:2.64583;stroke-miterlimit:4;stroke-dasharray:none;stroke-opacity:1">
      <path
         id="path32"
         style="fill:#ffd200;fill-opacity:1;stroke:#000000;stroke-width:2.64583;stroke-miterlimit:4;stroke-dasharray:none;stroke-opacity:1"
         d="m -20.627726,-19.133761 c -0.02106,-0.0019 -0.04261,-0.0013 -0.0646,0.0016 -0.63904,0.248161 -1.287648,0.498528 -1.964222,0.644403 -1.273638,0.351325 -2.623142,0.532064 -3.831288,1.096058 -0.414888,0.249772 -0.04021,0.734877 -0.05013,1.096057 0.368559,2.034263 0.231042,4.103886 0.230994,6.164482 -0.07223,3.4281246 -0.601128,6.8508407 -1.546158,10.15183526 -0.771994,2.70689124 -2.050889,5.38705684 -4.261239,7.21196214 -0.977151,0.8100192 -2.20492,1.4084062 -3.483508,1.4180026 -1.448486,-0.1260237 -2.58175,-1.2495874 -3.336747,-2.4122565 -1.177487,-1.941994 -1.876467,-4.1129717 -2.456698,-6.29677367 -0.887278,-3.64081743 -1.303234,-7.38574043 -1.617472,-11.12335083 -0.09127,-1.358397 -0.166204,-2.726454 -0.291455,-4.073138 -0.03947,-0.618496 0.08409,-1.21742 0.08682,-1.821077 -0.196884,-0.450464 -0.80768,-0.356635 -1.205094,-0.47439 -1.916298,-0.266266 -3.851828,-0.536284 -5.782593,-0.564822 -0.421562,0.170707 -0.06564,0.714616 -0.145211,1.055232 0.09384,4.739627 -0.0233,9.4825691 0.128674,14.2208385 0.304941,3.78723788 0.754088,7.5798468 1.660881,11.2747636 0.600228,2.2926199 1.404868,4.6524619 3.119189,6.3665359 1.243974,1.291725 2.824966,2.200066 4.493266,2.828767 2.745406,1.134626 5.8162,1.197411 8.717814,0.754993 2.10834,-0.312102 4.046457,-1.300752 5.811533,-2.455148 1.559062,-1.18955 2.693831,-2.843262 3.686079,-4.512386 1.013122,-1.8878579 1.918872,-3.850164 2.542998,-5.9029973 0.914284,-3.0965933 1.373262,-6.3292592 1.303279,-9.5591073 0.03079,-2.6239496 -0.141245,-5.2433272 -0.414962,-7.8517164 -0.234635,-2.332924 -0.527986,-4.667798 -1.035595,-6.958232 -0.0271,-0.147762 -0.147116,-0.267351 -0.294558,-0.280086 z" />
    </g>
  </g>
  <g
     inkscape:groupmode="layer"
     id="layer2"
     inkscape:label="D"
     style="display:inline"
     transform="translate(14.736603,14.16674)">
    <g
       id="g1204"
       transform="matrix(1.061471,0,0,0.99671393,3.431347,5.7192894)"
       style="fill:#ffd200;fill-opacity:1;stroke:#000000;stroke-width:2.64583;stroke-miterlimit:4;stroke-dasharray:none;stroke-opacity:1">
      <path
         id="path920"
         style="fill:#ffd200;fill-opacity:1;stroke:#000000;stroke-width:2.64583;stroke-miterlimit:4;stroke-dasharray:none;stroke-opacity:1"
         d="m 28.576503,-20.009161 c -1.148998,0.129098 -2.804165,0.307901 -3.309874,1.489316 0.877327,11.60445 0.445887,23.2944082 0.03411,34.923965 1.179693,0.637423 2.913462,0.02521 4.301548,-0.100251 5.376363,-1.012097 10.974996,-2.272699 15.261601,-5.903515 3.776509,-2.8170932 7.252105,-6.6975808 7.645011,-11.6075621 0.652121,-4.7326761 -1.458079,-9.8288259 -5.712831,-12.2116559 -5.400854,-3.39906 -11.559725,-5.680032 -17.87281,-6.586162 -0.115501,-0.0075 -0.231166,-0.0035 -0.34675,-0.0041 z m 5.014167,10.2965302 c 0.0595,-0.00275 0.120152,-0.00238 0.181382,0.00159 2.860514,0.2815113 6.079151,1.2600331 7.716843,3.8023508 2.019176,3.2268292 1.078412,8.0459235 -2.263944,10.0071422 -1.676115,0.9543626 -3.48805,2.2819915 -5.484937,2.193663 C 33.142844,4.245005 33.267542,1.8808709 33.002591,-0.27699398 32.779463,-3.292646 32.604806,-6.3115735 32.427432,-9.3301889 c 0.370353,-0.1891056 0.746702,-0.36313 1.163238,-0.3824049 z" />
    </g>
  </g>
  <g
     inkscape:groupmode="layer"
     id="layer6"
     inkscape:label="25"
     style="display:inline"
     transform="translate(14.736603,14.16674)">
    <g
       id="g400"
       inkscape:path-effect="#path-effect402"
       transform="matrix(1.1112719,0,0,1.1640715,-1.1875815,-2.6676086)"
       style="fill:#a97a58;fill-opacity:1;stroke:#000000;stroke-width:0.533834;stroke-miterlimit:4;stroke-dasharray:none;stroke-opacity:1">
      <path
         style="fill:#a97a58;fill-opacity:1;stroke:#000000;stroke-width:0.533834;stroke-miterlimit:4;stroke-dasharray:none;stroke-opacity:1"
         d="m 28.192946,37.954328 c -0.739447,0.189189 -1.705567,1.264542 -1.614296,1.847071 -0.106752,0.883418 1.347033,0.973166 2.162001,-0.166857 0.616973,-0.991226 0.05545,-1.686511 -0.484031,-1.699655 -8.4e-5,2.5e-5 -0.06362,0.01948 -0.0637,0.01951 0,0 2.9e-5,-6.6e-5 2.9e-5,-6.6e-5 z"
         id="path1308"
         inkscape:original-d="m 26.831463,38.390647 c -0.944782,-0.02103 -1.54659,1.06412 -1.068409,1.863972 0.382119,1.10844 2.131227,1.445598 2.692083,0.309797 0.35579,-0.964191 -0.692066,-1.944875 -1.545125,-2.176094 -1.05e-4,2e-6 -0.07844,0.0024 -0.07855,0.0024 z" />
      <path
         style="fill:#a97a58;fill-opacity:1;stroke:#000000;stroke-width:0.533834;stroke-miterlimit:4;stroke-dasharray:none;stroke-opacity:1"
         d="m 33.089227,15.376186 c -0.937068,0.591594 -1.883801,1.309703 -2.560664,2.263015 0.222182,3.410132 0.672981,6.294165 0.447281,9.317522 -0.128335,3.22789 -0.977461,5.610682 -1.677687,8.109153 -0.134814,0.392734 -0.0051,0.909131 0.539264,0.268417 2.073644,-2.255182 3.17122,-5.375937 3.747259,-8.228417 0.702985,-3.424155 1.303079,-7.790575 0.247131,-11.244655 -0.103557,-0.326851 -0.392038,-0.664253 -0.742584,-0.485035 z"
         id="path1306"
         inkscape:original-d="m 31.347985,17.599928 c -1.00907,0.224004 -2.062705,0.547608 -2.931604,1.107942 -0.708531,2.566165 -0.955101,5.250159 -1.353347,7.881488 -0.293264,2.790923 -0.785595,5.626354 -0.409337,8.430178 0.02693,0.493313 0.547667,1.192128 1.015442,0.645438 1.984703,-1.934666 2.686831,-4.71859 3.042214,-7.375173 0.470775,-3.346829 1.153009,-6.697475 1.156237,-10.086809 -0.003,-0.301643 -0.156321,-0.652801 -0.519605,-0.603064 z" />
      <path
         style="fill:#a97a58;fill-opacity:1;stroke:#000000;stroke-width:0.533834;stroke-miterlimit:4;stroke-dasharray:none;stroke-opacity:1"
         d="m -30.796264,17.773702 c -0.667651,-0.175362 -0.463186,0.521084 -0.09807,0.868203 0.166177,0.311026 0.737444,0.775281 0.593541,1.050841 -1.038208,0.403768 -1.557487,0.510677 -1.340162,1.797083 0.101193,0.938153 0.594612,1.821824 1.136494,1.741127 0.704041,-0.02501 1.546221,-0.989884 1.792594,-2.124108 0.257434,-1.185139 -0.187551,-2.336869 -1.450372,-3.002987 -0.209852,-0.118626 -0.406754,-0.243112 -0.634027,-0.330158 0,0 0,-1e-6 0,-1e-6 z"
         id="path1310"
         inkscape:original-d="m -30.545393,18.764973 c -0.714316,0.125465 -0.284969,0.986284 0.159422,1.187008 0.259575,0.295052 1.003152,0.490124 0.953688,0.910539 -0.795221,0.991233 -1.921793,2.246485 -1.332476,3.614767 0.310613,1.11501 1.75935,1.173832 2.517675,0.50152 2.139222,-1.658704 1.110747,-5.719669 -1.59706,-6.115132 -0.231338,-0.04301 -0.464399,-0.10374 -0.701249,-0.0987 z" />
      <path
         style="fill:#a97a58;fill-opacity:1;stroke:#000000;stroke-width:0.533834;stroke-miterlimit:4;stroke-dasharray:none;stroke-opacity:1"
         d="m -9.9745622,19.749259 c -2.6915498,-0.231795 -4.8296438,0.162391 -7.7739348,1.606016 -2.252397,0.981586 -5.969757,2.879351 -7.6312,4.122976 -0.227224,1.312916 -0.07906,2.672591 0.216258,3.996283 0.420434,0.513256 1.031838,-0.11274 1.586404,-0.156882 1.966091,-0.489903 5.221088,-1.197508 7.152421,0.02299 1.113297,0.566275 0.722485,2.061684 0.07708,2.901284 -1.875528,2.80047 -3.08072,4.490687 -4.425478,4.899562 -0.702372,0.378362 -1.729943,0.246162 -2.720668,0.213735 0.725725,1.11784 1.670386,2.50084 1.866691,3.718774 0.50056,0.618079 1.303898,0.559825 1.917346,0.873062 5.546687,1.867554 10.4204499,3.207883 15.8445647,3.974815 0.7242081,0.08928 1.3027412,0.264178 2.0132821,0.322645 0.9337369,-0.489328 0.98320364,-1.127954 1.25606115,-1.736821 0.19539983,-1.082107 0.29905604,-2.398135 -0.40425693,-3.616541 -0.84251932,-0.302149 -1.77591922,-0.02831 -2.64709442,-0.121797 -3.2655129,-0.07896 -6.1942241,-0.07292 -9.5333646,-1.086007 -0.713703,-0.390072 -0.211546,-0.603318 -0.203021,-0.814455 1.621182,-1.806668 4.3886948,-4.718746 7.3613641,-9.74805 1.5577271,-2.480695 1.485594,-5.715446 -0.3405503,-7.476157 -1.0237673,-1.025402 -2.292879,-1.884383 -3.6118988,-1.895436 1.6e-6,1e-6 -1.6e-6,5e-6 -1.6e-6,5e-6"
         id="path1280"
         inkscape:original-d="m -10.334743,16.829432 c -2.448041,-0.0282 -5.002056,0.309689 -7.060808,1.740463 -1.956472,1.217793 -3.421999,3.169764 -4.26149,5.27118 0.591132,1.234414 1.453351,2.38696 2.153092,3.58797 0.572574,0.310933 0.948118,-0.601512 1.423778,-0.866434 1.592786,-1.290143 3.673311,-2.69658 5.830819,-1.993082 1.163785,0.279072 1.437809,1.658355 1.122153,2.662369 -0.831673,3.300373 -3.108685,6.063224 -5.900314,7.936635 -1.467234,1.135086 -3.165253,1.872816 -4.779359,2.718538 -0.118671,1.320446 0.0073,2.735218 0.05216,4.089146 0.433946,0.483688 1.259647,0.03666 1.844098,0.134507 5.060268,-0.266724 10.1586668,-0.03106 15.1974949,0.441168 0.7131341,0.04895 1.3412629,0.251296 2.054397,0.300242 0.5754634,-0.677138 0.6306079,-1.701181 0.9784926,-2.513026 0.4199335,-1.641999 1.1890772,-3.270763 1.16666964,-4.97673 -0.53278354,-0.382091 -1.40042634,0.02437 -2.06092954,-0.03718 -2.604291,0.131879 -5.2525797,0.66947 -7.8478406,0.23668 -0.38962,-0.346913 0.305858,-0.834583 0.4695217,-1.131916 2.9703448,-3.079229 5.075502,-7.041158 5.7719568,-11.273528 0.4138798,-2.079903 -0.6232313,-4.299903 -2.5037229,-5.291151 -1.1079798,-0.605036 -2.3684892,-1.083196 -3.6501656,-1.035854 z" />
      <path
         style="fill:#a97a58;fill-opacity:1;stroke:#000000;stroke-width:0.533834;stroke-miterlimit:4;stroke-dasharray:none;stroke-opacity:1"
         d="m 12.276286,19.390891 c -1.983045,0.436544 -3.9986834,0.04667 -5.6225382,2.103469 -0.7958435,1.328628 -0.6746862,3.230509 -1.2962518,4.62541 -1.1319298,3.812677 -3.3859013,6.781982 -3.4547564,9.39753 0.6321025,0.567523 2.160953,0.09232 3.1493784,0.200022 3.2789322,-0.111176 7.004589,-0.353982 9.216103,0.865468 1.855045,0.975594 1.512379,2.803326 -0.340815,4.089511 -2.2087,1.505801 -5.0323285,1.863356 -7.6632811,1.76827 -1.155463,-0.0035 -2.3558441,-0.371668 -3.5517146,-0.393153 -0.5646471,0.555414 -0.2991556,1.339948 -0.4878987,1.99026 0.029721,0.585728 -0.4903893,1.261365 -0.3006268,1.796689 0.6767391,0.34969 1.773778,0.123898 2.6819138,0.141448 3.5798011,-0.285524 7.1937434,-1.082303 10.9574824,-2.669589 2.947268,-1.416695 6.33316,-3.71695 8.322263,-6.045664 0.982468,-1.334113 1.521899,-2.785864 1.058616,-3.970939 -0.957245,-1.738934 -3.897208,-2.736 -7.028473,-3.019138 -2.403935,-0.265085 -4.931093,-0.401998 -7.493104,0.240477 0.18001,-0.888446 0.0454,-2.005042 0.374923,-2.893875 1.743463,-0.809133 3.602537,-0.788494 5.350728,-1.231908 2.37013,-0.455004 4.537211,-0.868221 6.828931,-0.56553 0.6468,-0.3216 0.208464,-1.332966 0.406745,-1.96567 0.08076,-1.622448 0.496971,-3.232958 0.621686,-4.859673 -1.312373,-0.795182 -2.659011,-0.418739 -3.984048,-0.526124 -2.638245,0.09161 -5.183926,0.624222 -7.745262,0.922709 z"
         id="path1282"
         inkscape:original-d="m 11.270659,17.032521 c -1.8390822,0.100065 -3.9507402,-0.251193 -5.5366157,0.899686 -0.8045238,0.771364 -0.622636,2.020496 -1.0454587,2.983698 -0.6626119,2.662788 -1.8050615,5.248953 -1.9256771,8.0239 0.4353454,0.618146 1.5378879,0.17309 2.2383008,0.350742 2.335321,0.08471 5.0501157,0.257913 6.6934527,2.133603 1.358776,1.494359 1.340549,4.0239 -0.171307,5.40277 C 9.7222269,38.426448 7.0323696,38.281115 4.8297081,37.816007 3.8489506,37.664025 2.9565719,37.05061 1.9903453,36.96257 1.3413647,37.693216 1.2809947,38.797122 0.9929905,39.707881 0.9145045,40.537455 0.42750184,41.4811 0.84261192,42.268447 c 0.80616428,0.532675 1.89751758,0.313155 2.81869088,0.447775 3.5642179,0.03187 7.2049612,-0.188163 10.6158902,-1.290359 2.699848,-1.191017 5.039699,-3.342772 6.325452,-6.011003 0.517938,-1.53067 0.651004,-3.290414 0.103354,-4.830193 -1.09638,-2.416448 -3.359317,-4.088109 -5.82163,-4.940171 -1.863817,-0.688424 -3.874677,-1.173321 -5.8704211,-0.895908 0.1486694,-0.743386 0.047628,-1.658128 0.336931,-2.30451 1.4567931,-0.439526 3.0234361,-0.185854 4.5397581,-0.256858 2.005912,0.01336 3.97501,0.09827 5.832475,0.844418 0.615,-0.103021 0.452733,-0.977283 0.766363,-1.404308 0.434469,-1.188315 1.205505,-2.238978 1.729867,-3.354575 -0.957099,-0.780272 -2.338147,-0.748067 -3.511413,-0.993995 -2.462535,-0.300651 -4.961371,-0.221834 -7.43727,-0.246239 z" />
    </g>
  </g>
  <g
     inkscape:groupmode="layer"
     id="layer5"
     inkscape:label="discord"
     style="display:inline;mix-blend-mode:normal"
     transform="translate(14.736603,14.16674)">
    <path
       id="path1080-1"
       style="display:inline;mix-blend-mode:normal;fill:url(#linearGradient926);fill-opacity:1;stroke:#fffffd;stroke-width:3.03582;stroke-miterlimit:4;stroke-dasharray:none;stroke-opacity:1"
       d="m -5.7779347,-15.407263 c -1.3248763,0.286265 -2.6333945,0.653801 -3.9677654,0.898114 -3.1885249,0.789211 -6.3266999,1.987781 -9.0389539,3.914894 -1.995787,1.483219 -2.943141,3.9211392 -4.071211,6.0786696 -2.053447,4.07573684 -3.900552,8.2786794 -5.169956,12.6885088 -0.619016,1.9366686 -0.940135,3.9490046 -1.333109,5.9409116 -0.563941,1.980765 -1.133915,3.992244 -1.187,6.071452 -0.02223,1.271115 -0.249572,2.573603 0.01637,3.829469 0.230788,0.739479 1.124693,0.780552 1.714748,1.053315 2.585727,0.839123 5.279497,1.314768 7.978194,1.540573 1.982651,0.0565 3.950386,-0.215208 5.926809,-0.237614 1.111532,-0.07159 2.289496,-0.08202 3.311438,-0.584104 0.524577,-0.436501 0.548475,-1.214276 0.863218,-1.794426 0.7631419,-1.77138 1.7274178,-3.437051 2.900577,-4.958582 0.5967288,-0.70843 1.4469398,-1.228478 2.3494487,-1.366123 0.8428453,0.08479 1.3978597,0.872732 2.0087233,1.391388 1.6152563,1.52809 3.17725109,3.184042 5.1126807,4.286051 0.538784,0.306056 1.2415426,0.472394 1.7690996,0.04451 2.0403728,-1.544168 3.9357748,-3.285483 5.7538143,-5.097544 0.260411,-0.309257 0.7449477,-0.514726 1.1110194,-0.314009 1.265826,2.712722 2.199812,5.584131 3.543456,8.258691 0.384979,0.492914 1.098815,0.233925 1.624161,0.297166 3.740659,-0.08025 7.512469,-0.04568 11.198458,-0.804275 2.214587,-0.421246 4.455195,-0.984758 6.425919,-2.140317 0.679207,-0.476658 0.435965,-1.435991 0.352417,-2.136105 -0.720033,-3.981724 -1.863309,-7.867564 -3.063635,-11.7194076 -1.5065,-4.167558 -3.148459,-8.2868627 -4.955469,-12.3263749 -1.279285,-2.6545394 -2.762873,-5.1989536 -4.18985,-7.7708325 -0.645692,-1.027427 -1.214331,-2.284986 -2.417247,-2.722618 -2.644432,-1.090212 -5.547726,-1.180861 -8.359828,-1.224756 -1.7151721,0.031 -3.4712579,0.07075 -5.1220299,0.592524 -0.95774,0.488763 -1.2210932,1.682511 -1.6335173,2.601113 C 2.933271,-9.29618 2.3794949,-7.3773197 1.4591881,-5.6681583 1.1189001,-5.1334315 0.50937363,-4.3950807 -0.18309081,-4.7273312 -1.1289643,-5.3559694 -1.5417152,-6.5203226 -2.005374,-7.524541 c -1.0172257,-2.353584 -1.5924097,-4.918884 -2.8374572,-7.17229 -0.2127849,-0.331322 -0.5062963,-0.722254 -0.9351035,-0.710432 z M -7.2752712,2.2891543 c 1.2763197,-0.041418 2.4790582,0.7722589 3.2600069,1.7763806 0.7747895,1.0812473 0.8320421,2.5502545 0.5014521,3.8078155 -0.4923739,1.562706 -1.9220453,2.8492996 -3.5633339,2.8471386 -1.1412163,0.07478 -2.3898568,-0.06484 -3.2559169,-0.9173666 -1.075203,-1.105063 -1.237831,-2.880525 -0.740487,-4.307701 0.498191,-1.5315647 1.8267554,-2.6541282 3.269946,-3.1804015 0.1743839,-0.029602 0.3523202,-0.023468 0.5283328,-0.025877 z M 10.370145,2.4660105 c 1.144079,-0.049869 2.360932,0.4593065 2.915184,1.5369614 1.013369,1.8102035 0.794138,4.4060505 -0.830488,5.7718805 C 11.141232,11.100772 8.9382589,11.245172 7.4374251,10.181499 6.6740141,9.6250654 6.2602131,8.6496214 6.1557481,7.7157434 c -0.07619,-1.17139 0.101798,-2.3735858 0.815295,-3.3253708 0.655154,-1.021449 1.7008748,-1.8077373 2.9146012,-1.8930824 0.1609187,-0.018264 0.3225847,-0.029626 0.4845007,-0.03128 z" />
  </g>
</svg>
