<svg xmlns="http://www.w3.org/2000/svg" viewBox="0 0 1217.09 381.18"><defs><style>.cls-1,.cls-15,.cls-16,.cls-25,.cls-30,.cls-4{fill:#8debde;}.cls-1,.cls-2,.cls-25,.cls-26,.cls-27,.cls-28,.cls-29,.cls-31,.cls-32,.cls-4,.cls-8,.cls-9{stroke:#0e954a;}.cls-1,.cls-10,.cls-11,.cls-12,.cls-13,.cls-14,.cls-15,.cls-16,.cls-17,.cls-18,.cls-19,.cls-2,.cls-22,.cls-24,.cls-25,.cls-26,.cls-27,.cls-28,.cls-29,.cls-31,.cls-32,.cls-4,.cls-5,.cls-6,.cls-7,.cls-8,.cls-9{stroke-miterlimit:10;}.cls-1,.cls-10,.cls-13,.cls-15,.cls-17,.cls-18,.cls-19,.cls-22,.cls-7{stroke-width:2px;}.cls-11,.cls-12,.cls-17,.cls-2,.cls-32,.cls-6{fill:none;}.cls-12,.cls-14,.cls-16,.cls-2,.cls-31,.cls-32,.cls-4,.cls-5,.cls-6,.cls-8,.cls-9{stroke-width:3px;}.cls-22,.cls-3,.cls-5{fill:#b0482e;}.cls-10,.cls-11,.cls-12,.cls-13,.cls-14,.cls-15,.cls-16,.cls-17,.cls-18,.cls-19,.cls-22,.cls-24,.cls-5,.cls-6,.cls-7{stroke:#b0482e;}.cls-14,.cls-21,.cls-24,.cls-27,.cls-7{fill:#fffbc2;}.cls-13,.cls-18,.cls-20,.cls-28,.cls-8,.cls-9{fill:#daf250;}.cls-12,.cls-13,.cls-19,.cls-32,.cls-9{stroke-linecap:round;}.cls-10,.cls-19,.cls-26,.cls-29,.cls-31{fill:#7bdf64;}.cls-11,.cls-24{stroke-width:4px;}.cls-23{fill:#0e954a;}.cls-28,.cls-29{stroke-width:5px;}</style></defs><g id="Layer_9" data-name="Layer 9"><rect class="cls-1" x="912.59" y="78.9" width="5" height="194"/><path class="cls-1" d="M918.85,78.9H908.69c-2.92,0-4-4.71-2.72-9.3l3-11a3.85,3.85,0,0,1,3.32-3h4.78a3.47,3.47,0,0,1,3.08,3l2.14,11C923.22,74.19,921.77,78.9,918.85,78.9Z"/><path class="cls-1" d="M916.21,61.33c-2-2-21.23-25.27-48.12-57.93,2.06,14.12,7.21,22.53,11.58,27.63,5,5.78,20.21,20.43,25.84,24.5a10.62,10.62,0,0,1,3.12,3.12c1.53,2.48.73,3.87,2.23,5.8,1.29,1.65,3.79,3.08,5.35,2.22A3,3,0,0,0,917.54,64,4.12,4.12,0,0,0,916.21,61.33Z"/><path class="cls-2" d="M911.56,62.25c-.73,2.71-11.24,31-26,70.65,11.18-8.85,15.89-17.51,18.11-23.85,2.52-7.19,7.58-27.72,8.28-34.64A10.46,10.46,0,0,1,913,70.15c1.38-2.56,3-2.57,3.9-4.83.79-1.95.77-4.82-.75-5.74a3,3,0,0,0-3,.18A4.16,4.16,0,0,0,911.56,62.25Z"/><path class="cls-1" d="M911.56,62.25c-.73,2.71-11.24,31-26,70.65,11.18-8.85,15.89-17.51,18.11-23.85,2.52-7.19,7.58-27.72,8.28-34.64A10.46,10.46,0,0,1,913,70.15c1.38-2.56,3-2.57,3.9-4.83.79-1.95.77-4.82-.75-5.74a3,3,0,0,0-3,.18A4.16,4.16,0,0,0,911.56,62.25Z"/><path class="cls-1" d="M914.69,65.42c2.78-.29,33-.62,75.29-1-12.27-7.27-22.05-8.56-28.76-8.37-7.61.23-28.59,2.86-35.3,4.69a10.57,10.57,0,0,1-4.39.46c-2.89-.37-3.46-1.86-5.91-1.91-2.1,0-4.78,1-5.09,2.76a3,3,0,0,0,1.24,2.72A4.16,4.16,0,0,0,914.69,65.42Z"/><circle class="cls-1" cx="914.09" cy="62.4" r="3.5"/><rect class="cls-1" x="965.39" y="126.98" width="2.52" height="97.84"/><path class="cls-1" d="M968.54,127h-5.12c-1.47,0-2-2.38-1.37-4.69l1.53-5.55a2,2,0,0,1,1.68-1.52h2.41a1.75,1.75,0,0,1,1.55,1.52l1.08,5.55C970.75,124.6,970,127,968.54,127Z"/><path class="cls-1" d="M967.9,118.6c-.45-1.33-4-16.16-8.85-36.92-2.21,6.84-1.76,11.79-.92,15.07a126.28,126.28,0,0,0,6.23,16.85,5.17,5.17,0,0,1,.71,2.11c.14,1.46-.53,1.91-.28,3.11.21,1,1,2.24,1.92,2.2a1.51,1.51,0,0,0,1.2-.91A2,2,0,0,0,967.9,118.6Z"/><path class="cls-2" d="M965.6,118c-.94,1.06-12,11.53-27.54,26.15,7-1.51,11.1-4.38,13.51-6.75A123.8,123.8,0,0,0,963,123.56a5.27,5.27,0,0,1,1.47-1.67c1.19-.85,1.92-.5,2.84-1.32s1.42-2,.94-2.76a1.52,1.52,0,0,0-1.39-.58A2,2,0,0,0,965.6,118Z"/><path class="cls-1" d="M965.6,118c-.94,1.06-12,11.53-27.54,26.15,7-1.51,11.1-4.38,13.51-6.75A123.8,123.8,0,0,0,963,123.56a5.27,5.27,0,0,1,1.47-1.67c1.19-.85,1.92-.5,2.84-1.32s1.42-2,.94-2.76a1.52,1.52,0,0,0-1.39-.58A2,2,0,0,0,965.6,118Z"/><path class="cls-1" d="M966.31,120.12c1.32.49,15.06,7.07,34.28,16.33-3.93-6-8.07-8.78-11.15-10.19a124.37,124.37,0,0,0-17-5.75,5.4,5.4,0,0,1-2.09-.77c-1.22-.81-1.15-1.62-2.25-2.18-.94-.49-2.39-.61-2.92.11a1.56,1.56,0,0,0,0,1.51A2.09,2.09,0,0,0,966.31,120.12Z"/><circle class="cls-1" cx="966.71" cy="118.62" r="1.77"/><path class="cls-3" d="M307.56,111.69a307.19,307.19,0,0,0-4.41,56.72,329.55,329.55,0,0,0,4.41,56.71l-2.95.57A282,282,0,0,1,298,175.64a277.78,277.78,0,0,1,3.84-50.37q1.2-7.11,2.74-14.15l2.95.57Z"/><path class="cls-4" d="M315.25,147.18C304.19,141,310.3,114,305.42,113.1c-5.15-1-9.85,29.3-23,31-8.32,1.06-19.18-9.4-18.41-17.81,1.23-13.35,31.51-17.58,30.51-25.24C293.45,92.88,261,95.29,258,83.5c-1.48-5.88,4.65-14.35,11.56-16C282,64.6,293.91,85.39,299.28,82.39c5.62-3.15-7.42-26,1.31-35,6.6-6.86,24.59-4.77,29.77,3.83,7.35,12.2-13.51,33.6-7.75,39.44S350.47,77,359.39,84.06c5.93,4.7,5,20.18-2.45,25.88-10.84,8.27-32.74-7.2-35.93-2.39s20,20.19,16.09,31.65C334.68,146.33,322.1,151,315.25,147.18Z"/><circle class="cls-5" cx="308.09" cy="96.4" r="8"/><path class="cls-6" d="M370.59,149.9a83.89,83.89,0,0,0-48,66"/><path class="cls-7" d="M388,168.26c-1.94,1.93-3.13,3.1-4.65,3.11-5.38,0-8.09-14.68-11.1-14.32-3.21.39-1.41,17.44-6.65,19-2.84.84-7.57-3-8.38-7.2C355.79,161.2,367.37,154,366,152c-1.61-2.33-16.4,8.24-21.28,3.91-2.31-2-2.3-7.33.15-9.89,5.22-5.46,20.07,2.88,21.93-.38s-12.66-13-10.33-17.83c.88-1.86,4.06-2.75,6.39-2,6.1,1.9,5.31,14.55,9,15s5.7-12.18,11.5-12.55c3.55-.23,7.9,4.17,7.66,7.89-.43,6.68-15.47,8.9-15.05,13.21s15.73,4.1,16.82,10.16C393.36,162.93,389.15,167.12,388,168.26Z"/><circle class="cls-5" cx="370.82" cy="148.96" r="1.9"/><path class="cls-8" d="M309,318.58c17.59-1,34.44,8.95,42.89,25.46,7.71,15.06,5.61,30,4.88,34.24a58.93,58.93,0,0,1-28.27-17.06C312.85,344.58,309.71,324,309,318.58Z"/><path class="cls-8" d="M303,325.07a54.79,54.79,0,0,1,7.24,27.49c-.24,11.64-4.74,18.14-6.14,20a42.41,42.41,0,0,1-9.82-28C294.65,331.11,302.1,325.69,303,325.07Z"/><path class="cls-9" d="M311.09,318.4a115.61,115.61,0,0,1,36,43"/><path class="cls-9" d="M302.09,353.4a67.91,67.91,0,0,1,1-28"/><path class="cls-10" d="M286.09,222.4c5-1.9,4-31.19-13-51a59.43,59.43,0,0,0-20-15,122.74,122.74,0,0,0,15,44C271,205.54,281.69,224.07,286.09,222.4Z"/><path class="cls-10" d="M263.72,204.1c.76-6-13-23-26.29-27.79a20.93,20.93,0,0,0-13.84-.41c7.68,8.29,14.45,15.1,19.94,20.44,7.23,7,12.07,11.33,16.55,10.56C261.18,206.72,263.43,206.33,263.72,204.1Z"/><path class="cls-10" d="M309.09,210.4c-.4-4.55-2.07-28.56,14-42a35,35,0,0,1,8-5,172.24,172.24,0,0,1-22,47Z"/><path class="cls-10" d="M322.09,218.4a31.27,31.27,0,0,1,5-16c9.24-13.91,30.86-19.24,54-13a66.32,66.32,0,0,0-59,29Z"/><path class="cls-1" d="M680.55,156.43l-7.64-13.32-7.69,4.42,7.64,13.32a1.85,1.85,0,0,1-1.6,2.77H665v-6.34l-10.78,10.77L665,178.83v-6.34h6.23a10.71,10.71,0,0,0,9.29-16.06Z"/><path class="cls-1" d="M664.21,129.78l-3.72-6.49a10.71,10.71,0,0,0-18.52-.13l-7.85,13.25,7.63,4.52,7.85-13.25a1.87,1.87,0,0,1,1.6-.9,1.79,1.79,0,0,1,1.6.93l3.72,6.48-5.5,3.16,14.71,4,4-14.71Z"/><path class="cls-1" d="M632.06,163.62a1.86,1.86,0,0,1-1.6-2.8l3.93-6.63,5.46,3.24-3.78-14.77-14.77,3.78,5.46,3.23-3.93,6.63a10.72,10.72,0,0,0,9.23,16.19h17v-8.87Z"/><path class="cls-10" d="M644.5,213.28A46.54,46.54,0,0,0,630,185.42c-13.72-12.54-30.21-12-33.38-11.89a58.14,58.14,0,0,0,11.85,20.7C621.75,209,638.78,212.4,644.5,213.28Z"/><line class="cls-11" x1="650.59" y1="175.9" x2="650.59" y2="250.9"/><path class="cls-5" d="M440.09,163.5c2.52,12.09,10.56,20.28,19.38,19.89,8.37-.38,15.74-8.43,18.12-19.89Z"/><line class="cls-12" x1="446.09" y1="152.4" x2="446.09" y2="163.5"/><line class="cls-12" x1="471.09" y1="152.3" x2="471.09" y2="163.5"/><line class="cls-12" x1="435.09" y1="161.4" x2="482.59" y2="161.4"/><path class="cls-5" d="M416.93,189c1.93,9.29,8.12,15.59,14.89,15.28,6.44-.29,12.1-6.47,13.92-15.28Z"/><line class="cls-12" x1="421.54" y1="180.4" x2="421.54" y2="188.96"/><line class="cls-12" x1="440.75" y1="180.36" x2="440.75" y2="188.96"/><line class="cls-12" x1="413.09" y1="187.34" x2="449.59" y2="187.34"/><path class="cls-10" d="M456.09,230.4c-3.64-1.5-5-8.46-4-14,3.18-17,30.59-27.73,31-28h0c-1.77,21.41-10.55,31.75-15,36C465.66,226.72,460.07,232.05,456.09,230.4Z"/><line class="cls-6" x1="459.09" y1="183.4" x2="459.09" y2="204.4"/><line class="cls-6" x1="432.09" y1="204.4" x2="432.09" y2="220.4"/><path class="cls-5" d="M1037.27,96c2.27,10.88,9.51,18.25,17.44,17.9,7.53-.35,14.16-7.58,16.3-17.9Z"/><line class="cls-12" x1="1042.67" y1="86" x2="1042.67" y2="95.97"/><line class="cls-12" x1="1065.16" y1="85.9" x2="1065.16" y2="95.97"/><line class="cls-12" x1="1032.78" y1="94.09" x2="1075.51" y2="94.09"/><line class="cls-12" x1="1054.09" y1="111.4" x2="1054.09" y2="165.4"/><circle class="cls-13" cx="676.09" cy="195.4" r="6"/><circle class="cls-13" cx="703.59" cy="184.9" r="11.5"/><line class="cls-12" x1="676.09" y1="202.4" x2="676.09" y2="220.4"/><path class="cls-12" d="M709.09,196.4a17.86,17.86,0,0,1,4,12,18.1,18.1,0,0,1-7,13"/><path class="cls-14" d="M1010.36,242.84c-13.8,3.92-30.52-22.6-35.2-19.43-4.92,3.33,15.59,31.37,6.38,43.27-5.83,7.51-22.91,7.83-29,.47-9.72-11.68,11.16-39.34,4.23-44.68-7.38-5.68-31.48,22.28-43.31,15.23-5.91-3.53-7.78-15.23-3.55-22.08,7.61-12.28,33.85-5.2,35.75-11.91,2-7-26.75-14.85-27-29.13-.22-10.79,15.88-23.53,26.92-20.8,15.67,3.89,16.11,37.76,25.4,37.83s11.39-33.27,24.22-34.74c8.53-1,20.21,12.15,18.79,22.71-2.07,15.31-32,20.46-30.72,26.88s32.2.16,38.26,12.47C1025.24,226.58,1018.91,240.4,1010.36,242.84Z"/><circle class="cls-5" cx="963.92" cy="207.88" r="9.07"/><path class="cls-10" d="M1119,180.46c-1.11,9.34,1.58,20.43,5.44,21s8.38-9.34,10.87-14.75c4.34-9.41,3.61-13,7-19.42,2.34-4.41,6.68-10.26,15.54-15.54a31.28,31.28,0,0,0-18.64.78C1121.91,159,1119.16,179.24,1119,180.46Z"/><path class="cls-10" d="M1143.87,190.56c-1.22,4.41-.17,10,2.33,10.87,2,.69,4.17-2.18,11.65-10.09,11.76-12.44,15.7-15,20.19-16.32a24.31,24.31,0,0,1,8.55-.77c0-.2-13-1.92-26.41,3.11C1155.37,179.15,1146.05,182.65,1143.87,190.56Z"/><path class="cls-7" d="M789.62,130.66c.21,2.73.34,4.39-.64,5.55-3.52,4.15-16.94-2.92-18.09-.84s10.72,7.82,9.7,13.53c-.67,3.74-6.75,7.06-10.48,5.56-6.13-2.45-4.46-17.3-7.14-17.57s-4.37,17.82-10.82,18.73c-3.06.43-7.07-3-7.44-6.54-.78-7.63,15.08-14.63,13.94-16.93-1-2-12.38,4.2-17.06-.25-2.58-2.44-2.8-7.79-.61-9.63,3.92-3.3,14.24,5.65,17.22,2.9,2.72-2.51-5.56-12.25-2.09-16.9,2.13-2.85,8.3-3.31,11-.71,4.8,4.66-3.26,17.54.29,20s13.32-9.3,18.64-6.21C789,123.13,789.5,129.05,789.62,130.66Z"/><circle class="cls-5" cx="763.79" cy="131.22" r="1.9"/><path class="cls-15" d="M816.55,149.07a3.44,3.44,0,0,1,.75,2.77c-.88,2.63-8.47,1.54-8.78,3.06s8.25,3.55,8.15,6.35c0,1.53-2.67,3.21-4.88,2.9-3.95-.55-5.56-7.36-6.76-7-1.39.4,1.33,9.33-1.58,11-1.37.79-3.94-.08-4.79-1.69-1.86-3.54,4.09-10.23,3.41-10.74-.41-.3-2.14,2.52-5.48,3.2-.35.08-3.69.72-4.9-1.09a3.22,3.22,0,0,1,.06-3.44c1.93-2.66,8-.2,8.77-1.91s-5-4.77-4.23-7.66c.47-1.76,3.33-3.16,5.1-2.43,3.22,1.32,2.31,9.32,4,9.49,1.15.12,1.36-3.76,4.24-5A6.12,6.12,0,0,1,816.55,149.07Z"/><circle class="cls-16" cx="804.34" cy="154.28" r="0.98"/><path class="cls-17" d="M762.59,136.9a67.3,67.3,0,0,0,7,50"/><line class="cls-17" x1="801.59" y1="168.9" x2="800.59" y2="175.9"/><circle class="cls-18" cx="782.09" cy="162.4" r="4.5"/><line class="cls-17" x1="782.59" y1="173.9" x2="782.59" y2="166.9"/><path class="cls-19" d="M566.09,123.4a42.75,42.75,0,0,0-1-5c-.47.06,4.08,23.7,10,65,1.93,13.48,3.68,26.56,14,36,3.77,3.46,10,7.61,12,6,2.32-1.84-2.19-10.26-8-23C591.83,199.66,572.31,156.48,566.09,123.4Z"/><path class="cls-19" d="M549.24,168.08a28.2,28.2,0,0,0-1.76-3.06c-.29.14,7.88,14.66,20.83,40.48,4.23,8.43,8.25,16.63,17.1,20.57,3.24,1.44,8.22,2.8,9.19,1.31,1.12-1.72-3.69-6.27-10.3-13.35C582.88,212.5,560.58,188.43,549.24,168.08Z"/><path class="cls-15" d="M1031,187.49a2.56,2.56,0,0,1,1.82,1.15c.84,1.89-3.91,5.13-3.31,6.13s6.35-2.22,7.72-.61c.74.86.14,3.12-1.23,4.06-2.47,1.7-6.8-1.25-7.29-.45s5.45,4.48,4.69,6.87a3,3,0,0,1-3.51,1.49c-2.81-1-2.91-7.72-3.54-7.66-.38,0,.09,2.47-1.41,4.54-.16.22-1.68,2.26-3.26,1.87A2.38,2.38,0,0,1,1020,203c-.29-2.44,4.29-4.13,3.87-5.49s-5.17-.11-6.2-2.09a3.22,3.22,0,0,1,1.58-3.93c2.45-.89,6,4,7,3.25.7-.52-1.15-2.77-.16-4.88A4.55,4.55,0,0,1,1031,187.49Z"/><circle class="cls-16" cx="1026.92" cy="196.54" r="0.73"/><path class="cls-7" d="M508.65,186.59a2.56,2.56,0,0,1,2.15,0c1.71,1.17-.63,6.42.41,7s4.24-5.22,6.24-4.58c1.09.36,1.76,2.59,1.09,4.11-1.21,2.74-6.44,2.5-6.44,3.44s7,1,7.6,3.39a3,3,0,0,1-2.2,3.11c-2.93.61-6.54-5-7-4.66-.3.23,1.38,2.05,1.18,4.6,0,.27-.24,2.8-1.79,3.31a2.4,2.4,0,0,1-2.46-.76c-1.53-1.93,1.48-5.77.42-6.7s-4.47,2.62-6.39,1.47a3.24,3.24,0,0,1-.71-4.17c1.62-2,7.19.25,7.65-.91.33-.8-2.42-1.75-2.7-4.06A4.59,4.59,0,0,1,508.65,186.59Z"/><circle class="cls-5" cx="509.9" cy="196.45" r="0.73"/><path class="cls-15" d="M396.23,183.74a2.55,2.55,0,0,1,2.09.52c1.39,1.53-2.09,6.1-1.21,6.86s5.33-4.11,7.13-3c1,.59,1.12,2.92.12,4.25-1.8,2.39-6.85,1-7.06,1.87s6.59,2.53,6.62,5a3,3,0,0,1-2.86,2.52c-3-.08-5.2-6.41-5.77-6.15-.35.16.86,2.31.09,4.75-.08.26-.88,2.67-2.5,2.81a2.39,2.39,0,0,1-2.23-1.3c-1-2.23,2.77-5.28,2-6.43s-5,1.53-6.55,0a3.22,3.22,0,0,1,.26-4.22c2-1.63,6.94,1.89,7.66.87.49-.71-2-2.26-1.7-4.58A4.57,4.57,0,0,1,396.23,183.74Z"/><circle class="cls-16" cx="395.18" cy="193.62" r="0.73"/><circle class="cls-18" cx="854.09" cy="143.4" r="9"/><circle class="cls-18" cx="873.59" cy="159.9" r="5.5"/><line class="cls-6" x1="854.09" y1="152.4" x2="854.09" y2="175.4"/><line class="cls-6" x1="874.09" y1="165.4" x2="874.09" y2="184.4"/><path class="cls-10" d="M767.09,179.4c.92-1.73-5.42-6.74-7-8-4.78-3.77-14.23-9.73-30-11a56.61,56.61,0,0,0,14,12C753.72,178.22,765.94,181.56,767.09,179.4Z"/><path class="cls-10" d="M1053.66,169.34c-.86-.68,7.38-15,20.11-27.91a122.09,122.09,0,0,1,35.82-24.94,360.29,360.29,0,0,0-31,27.09C1063,158.85,1054.46,170,1053.66,169.34Z"/><path class="cls-10" d="M1052.55,170.91c-.54-.54,8.67-14.59,25.59-23a64.41,64.41,0,0,1,20.86-6.24,128,128,0,0,0-26.23,13.17C1059.61,163.46,1053,171.34,1052.55,170.91Z"/><g id="Layer_10" data-name="Layer 10"><path class="cls-3" d="M518.86,81.58v-.3a25.5,25.5,0,1,0-51,0v.3A19.65,19.65,0,0,0,469,88.9c1.64,4.38,4.46,6.7,7,8.75,2,1.63,3.85,3.17,5,5.61,1.58,3.28,1.55,7.5-.08,12.56l-.07.23v.23a12.5,12.5,0,0,0,25,0v-.23l-.08-.23c-1.63-5.06-1.66-9.28-.07-12.56,1.18-2.44,3.05-4,5-5.61,2.49-2.05,5.32-4.37,7-8.75A19.8,19.8,0,0,0,518.86,81.58Zm-4,6.27c-1.35,3.63-3.63,5.5-6,7.48h0c-.78.64-1.57,1.29-2.32,2A15.27,15.27,0,0,0,503,102a15.6,15.6,0,0,0-1.45,7.57c0,.49.05,1,.11,1.5a28.3,28.3,0,0,0,1.18,5.48v0a9.3,9.3,0,0,1-.16,1.5A9.5,9.5,0,0,1,484,118a9.3,9.3,0,0,1-.16-1.5v0A27.57,27.57,0,0,0,485,111c.06-.51.1-1,.11-1.5a14.81,14.81,0,0,0-5-12.28c-.73-.68-1.49-1.31-2.24-1.92l-.24-.2c-2.32-1.91-4.5-3.77-5.8-7.28a16.75,16.75,0,0,1-1-6.25v-.32a22.5,22.5,0,1,1,45,0v.32A16.54,16.54,0,0,1,514.88,87.85Z"/><path class="cls-20" d="M502.69,118A9.5,9.5,0,0,1,484,118Z"/><path class="cls-20" d="M502.85,116.51v0h-19v0A27.57,27.57,0,0,0,485,111h16.63A28.3,28.3,0,0,0,502.85,116.51Z"/><path class="cls-21" d="M506.5,97.35A15.27,15.27,0,0,0,503,102a15.6,15.6,0,0,0-1.45,7.57H485.15a14.81,14.81,0,0,0-5-12.28,79.89,79.89,0,0,0,13.48,1.08A82.06,82.06,0,0,0,506.5,97.35Z"/><path class="cls-21" d="M514.88,87.85c-1.35,3.63-3.63,5.5-6,7.48h0a64,64,0,0,1-15.23,1.49c-7.71,0-13.13-.83-16-1.7-2.32-1.91-4.5-3.77-5.8-7.28a16.75,16.75,0,0,1-1-6.25v-.32a22.5,22.5,0,1,1,45,0v.32A16.54,16.54,0,0,1,514.88,87.85Z"/><rect class="cls-3" x="484.36" y="109.53" width="18" height="1.5"/><rect class="cls-3" x="483.36" y="116.53" width="21" height="1.5"/><path class="cls-3" d="M513.34,93.9c0,1.68-3,2.77-6.84,3.45a82.06,82.06,0,0,1-12.91,1,79.89,79.89,0,0,1-13.48-1.08c-3.58-.69-6.27-1.75-6.27-3.35h1.5c.06.35.83.79,2.29,1.23,2.83.87,8.25,1.7,16,1.7a64,64,0,0,0,15.23-1.49h0c1.92-.5,2.93-1,3-1.43Z"/><path class="cls-3" d="M545.59,122.76v-.2a17.52,17.52,0,1,0-35,0v.2a13.51,13.51,0,0,0,.8,5,13.73,13.73,0,0,0,4.78,6,11.75,11.75,0,0,1,3.46,3.85c1.08,2.26,1.06,5.16-.06,8.63l0,.16v.16a8.59,8.59,0,0,0,17.18,0v-.16l-.06-.16c-1.12-3.47-1.14-6.37-.05-8.63A11.64,11.64,0,0,1,540,133.8a12.58,12.58,0,0,0,5.58-11Zm-2.74,4.31a11.6,11.6,0,0,1-4.15,5.14h0c-.54.44-1.08.89-1.59,1.39a10.43,10.43,0,0,0-2.4,3.16,10.77,10.77,0,0,0-1,5.2c0,.34,0,.68.08,1a19.37,19.37,0,0,0,.81,3.77h0a7.05,7.05,0,0,1-.11,1,6.52,6.52,0,0,1-12.82,0,5.07,5.07,0,0,1-.11-1h0a20.13,20.13,0,0,0,.81-3.77c0-.35.06-.69.07-1a10.17,10.17,0,0,0-3.46-8.43c-.5-.47-1-.9-1.54-1.32l-.16-.14a11.27,11.27,0,0,1-4-5,11.54,11.54,0,0,1-.67-4.29v-.22a15.45,15.45,0,1,1,30.9,0v.22A11.14,11.14,0,0,1,542.85,127.07Z"/><path class="cls-20" d="M534.48,147.8a6.52,6.52,0,0,1-12.82,0Z"/><path class="cls-20" d="M534.59,146.76h-13a20.13,20.13,0,0,0,.81-3.77h11.42A19.37,19.37,0,0,0,534.59,146.76Z"/><path class="cls-21" d="M537.1,133.6a10.43,10.43,0,0,0-2.4,3.16,10.77,10.77,0,0,0-1,5.2H522.43a10.17,10.17,0,0,0-3.46-8.43,55.57,55.57,0,0,0,9.26.74A56.58,56.58,0,0,0,537.1,133.6Z"/><path class="cls-21" d="M542.85,127.07a11.6,11.6,0,0,1-4.15,5.14h0a43.61,43.61,0,0,1-10.46,1,40.57,40.57,0,0,1-11-1.17,11.27,11.27,0,0,1-4-5,11.54,11.54,0,0,1-.67-4.29v-.22a15.45,15.45,0,1,1,30.9,0v.22A11.14,11.14,0,0,1,542.85,127.07Z"/><rect class="cls-3" x="521.89" y="141.96" width="12.36" height="1.03"/><rect class="cls-3" x="521.2" y="146.77" width="14.42" height="1.03"/><path class="cls-3" d="M541.79,131.23c0,1.15-2,1.9-4.69,2.37a56.58,56.58,0,0,1-8.87.67,55.57,55.57,0,0,1-9.26-.74c-2.46-.48-4.31-1.21-4.31-2.3h1c0,.24.57.54,1.58.84a40.57,40.57,0,0,0,11,1.17,43.61,43.61,0,0,0,10.46-1h0c1.32-.35,2-.71,2.06-1Z"/><line class="cls-11" x1="493.59" y1="125.9" x2="493.59" y2="225.9"/><line class="cls-6" x1="527.59" y1="154.9" x2="527.59" y2="219.9"/></g></g><g id="G"><path class="cls-3" d="M161.69,113.34a42.66,42.66,0,0,1-3.87,7.28c-1.55,2.27-3.32,4.35-5,6.59l0,.05a2.54,2.54,0,1,1-4.06-3.06,2.6,2.6,0,0,1,.64-.6,17.36,17.36,0,0,0,4.93-5.31,28.67,28.67,0,0,0,3.18-6.54,2.26,2.26,0,1,1,4.28,1.43l-.06.15Z"/><path class="cls-3" d="M154.07,111.2a5.64,5.64,0,1,1,3.8,7A5.66,5.66,0,0,1,154.07,111.2Z"/><path class="cls-20" d="M201,365c-15.43,8.38-34.66,14.28-51.34,6.73-20.59-9.12-30.47-28.34-14.94-47.47,6.5-7.87,14.75-14.62,24.27-18.51a59.73,59.73,0,0,1,14.88-3.86,13,13,0,0,0,7.71-3,8.79,8.79,0,0,0-4.14-2c-4.16-.58-8.34.66-12.4,1.5a59.75,59.75,0,0,0-22.47,11c-9.41,7.26-18.49,17.42-20.49,29.34a126.43,126.43,0,0,1-30.18.3c-44.54-4-81.4-34.63-88.35-79.58-8.82-57.46,24.23-125,83.66-138.88,20.37-5.16,43.65-5.35,61.45,7,9.1,6.07,17.47,14.41,19.1,25.56,1.87,14.68-8.63,29.69-23.53,31.66-10.73,2-19.92-4.09-28.15-10.37a19.06,19.06,0,0,0,2.41,5.29,23,23,0,0,0-5.4,1.44c-13.18,4.93-23.69,15.66-29.43,28.41-10.55,23.19,2.14,46.32,25.19,54.68,8,2.9,16.84,4.37,25.22,2.06a64.33,64.33,0,0,0,7.76-3.08c7.13-3.23,14.86-4.57,22.62-5.46,12.72-1.77,26,.45,36.79,7.53,12.92,8.37,22.51,21.78,27.67,36.19C238.36,328.13,225.42,352.56,201,365Z"/><ellipse class="cls-22" cx="127.09" cy="148.9" rx="2.5" ry="5"/><ellipse class="cls-22" cx="156.09" cy="148.9" rx="2.5" ry="5"/><path class="cls-3" d="M107.2,136.74a7.57,7.57,0,0,1-6.13.2,9.31,9.31,0,0,1-4.38-3.63c-.56-.81-1-1.68-1.52-2.52a25.36,25.36,0,0,0-1.53-2.33,41.4,41.4,0,0,1-3.16-4.34A44.8,44.8,0,0,1,86,114.6a58.5,58.5,0,0,1-2.35-10.08,2.25,2.25,0,1,1,4.46-.66s0,.08,0,.12a33.88,33.88,0,0,0,2.15,9.08,29.17,29.17,0,0,0,4.56,8c.49.58,1,1.16,1.5,1.69A16,16,0,0,0,98,124.26a10.41,10.41,0,0,0,4.29,1.72,9,9,0,0,1,3.87,1.75,9.22,9.22,0,0,1,2.82,4.34l.09.25A3.61,3.61,0,0,1,107.2,136.74Z"/><path class="cls-3" d="M91.6,104.15a5.64,5.64,0,1,0-5.24,6A5.65,5.65,0,0,0,91.6,104.15Z"/><path class="cls-23" d="M59.58,132.28c1.77,1.3,2.08,2.54,2.86,3.74,1.09,1.78,2.28,3.62,1.32,5.6a11.21,11.21,0,0,0-1.11,2.48,8.07,8.07,0,0,0,1.05,4c1.29,2.45,3.22,4.43,4.69,6.75s3.38,5,4.7,7.28a1.75,1.75,0,0,1-2,2.57,21,21,0,0,1-11.26-9.07c-1.45-2.48-2.58-5.11-4.14-7.53-.88-1.74-3.35-2.17-4.43-3.83a9.62,9.62,0,0,1-.71-6.5c.35-1.78.39-3.53,2-5.23a5.08,5.08,0,0,1,7-.25Z"/><path class="cls-23" d="M56.74,186.63A71.52,71.52,0,0,1,38.1,174.24c-2.77-2.61-6.62-4.68-8.61-8.09s-3-7.62-1.76-11.74a4.29,4.29,0,0,1,6.71-2,20.16,20.16,0,0,1,6.36,7.42c1.41,2.69,1.62,6.32,3.52,8.83A34.22,34.22,0,0,0,51,175.52a29.57,29.57,0,0,0,8.43,4.65,3.5,3.5,0,1,1-2.69,6.46Z"/><path class="cls-23" d="M54.28,213.9a26.29,26.29,0,0,1-14.64-1.39c-4.61-2.1-8.56-5.3-12.47-8.45-5.18-4.46-11.69-9.14-14.11-15.81a15.79,15.79,0,0,1-1.13-7.33,4.14,4.14,0,0,1,6.17-3.12c8,4.69,10,14,14.26,21.45,2.12,3.47,6,5,9.8,5.78A83.07,83.07,0,0,0,54,206.92a3.54,3.54,0,0,1,.29,7Z"/><path class="cls-23" d="M40.18,237.9a28.16,28.16,0,0,1-19-3.33c-3.59-2.5-6-6.32-9.7-8.57a60.43,60.43,0,0,1-5.32-3.35,14.16,14.16,0,0,1-3.84-4.91c-4.21-9.33,2.45-14,9.88-7,4.35,3.52,4.19,10.55,8.87,13.73a25.86,25.86,0,0,0,4.56,2.09A46.51,46.51,0,0,0,40,230.91a3.54,3.54,0,0,1,.18,7Z"/><path class="cls-23" d="M47.76,260a29,29,0,0,1-20.23,8.08,54.58,54.58,0,0,1-15.61-4,27.81,27.81,0,0,1-7-3.92,18.81,18.81,0,0,1-7-13.32,3.84,3.84,0,0,1,6.35-3,50.28,50.28,0,0,1,8.2,8.66c3.78,5.63,7.27,7.68,13.92,5a37,37,0,0,1,5.94-1.44c3.91-.67,7.76-1.55,12.1-2.24A3.67,3.67,0,0,1,47.76,260Z"/><path class="cls-23" d="M57.18,282C54,288.22,49,293.83,42.52,296.75c-2.19.95-4.48,1.58-6.75,2.35l-3.46,1.15c-1.76.61-3.69,2.73-5.55,3.62a5.23,5.23,0,0,1-3.87.21A20.48,20.48,0,0,1,14,299.86a15.52,15.52,0,0,1-4.78-6.5A4.43,4.43,0,0,1,13,287.45a58.73,58.73,0,0,1,13.46-1.08,5.4,5.4,0,0,1,2.38,2.05c2.47,3.64,7,2.46,10.31.87A25.29,25.29,0,0,0,51,278.74a3.5,3.5,0,0,1,6.17,3.3Z"/><path class="cls-20" d="M71.09,306.4a38.63,38.63,0,0,1-32,17"/><path class="cls-23" d="M73.16,307.81c.15,3.63-1.9,7.65-5.19,9.09-1.67.64-3.63.86-5,2-2.83,2.1-5.1,5.09-8,7.2a13.78,13.78,0,0,1-10.47,2.34c-3.26-.46-9-3.65-5.37-7.51a17.92,17.92,0,0,1,7.84-4.71c4.43-1.52,11.15.92,14-3.89.35-.71.59-1.51.89-2.21a7.16,7.16,0,0,1,2.8-3.06A13.29,13.29,0,0,1,69.23,305a3.17,3.17,0,0,1,3.93,2.86Z"/><path class="cls-20" d="M102.09,308.4a39.92,39.92,0,0,1-12,30"/><path class="cls-23" d="M104.59,308.32a20.65,20.65,0,0,1,.5,9c-.31,2.27-1.87,4.15-2.39,6.35-.94,3.87-.6,8.14-1.91,12-.64,1.48-.67,3.55-2.36,4.29a8.61,8.61,0,0,1-6.59.27c-3-.77-4.07-4.66-4.41-7a8.2,8.2,0,0,1-.07-2.39c.08-1.39,1.7-1.55,2.6-2.38,3-2,7.4-4.32,7.77-8.46a26.85,26.85,0,0,1,.22-3.85c.49-2.3,1-5.39,1.66-7.67a2.61,2.61,0,0,1,5-.08Z"/><path class="cls-20" d="M161.09,267.4a33.88,33.88,0,0,1,5-6,34.28,34.28,0,0,1,11-7"/><path class="cls-23" d="M159,266c3.47-6.6,9.74-12.37,17.18-14a2.55,2.55,0,0,1,1.9,4.6c-1.39,1-2.78,1.8-4.13,2.69a46,46,0,0,0-10.79,9.44A2.52,2.52,0,0,1,159,266Z"/><path class="cls-20" d="M198.09,263.4a9,9,0,0,0-11,10"/><path class="cls-23" d="M197.53,265.84c-.37.9-.61,1.1-.84,1.14a13.81,13.81,0,0,1-2,.28c-3.26.23-4.94,3.42-5.24,6.38a2.48,2.48,0,0,1-4.85.09,11.94,11.94,0,0,1,8.23-14,8.37,8.37,0,0,1,4.49-.22c1.26.09,1.86,2.7,1.22,3.82l-1,2.5Z"/><path class="cls-20" d="M159.09,305.4a27.81,27.81,0,0,1,21,10"/><path class="cls-23" d="M159.12,302.9a6.33,6.33,0,0,1,6.76-.41,27.68,27.68,0,0,1,2.76,2.39,19.89,19.89,0,0,0,2.81,1.61,69.17,69.17,0,0,1,10.62,7.36,2.57,2.57,0,0,1-3.19,4,2.7,2.7,0,0,1-.71-.87,14,14,0,0,0-3.48-4.36c-2.15-1.72-4.71-3.4-7.51-3.6a27.39,27.39,0,0,0-3,.72c-3.47.62-8.78-3.6-5.06-6.87Z"/><path class="cls-20" d="M141.09,317.4a22.58,22.58,0,0,1,15,7"/><path class="cls-23" d="M141.24,314.91c2.92-2.53,6.28,1.87,8.78,2.92,1.35.72,2.65,1.5,3.94,2.32s2.56,1.68,3.94,2.53a2.63,2.63,0,1,1-3.63,3.45,10.71,10.71,0,0,0-5.79-5c-1.79-.83-3.95,0-5.82-.07a2,2,0,0,1-1.73-1.16,3.8,3.8,0,0,1,.31-5Z"/><path class="cls-20" d="M128.09,336.4a26,26,0,0,1,14,3c10.6,5.82,14.56,18.57,14,28a28.94,28.94,0,0,1-1,6"/><path class="cls-23" d="M128,333.91c2.65-.51,5.67-1.4,8.68-1.82.49,0,1.23-1.21,1.87-1.19,7.22,2.09,12.47,8.15,15.82,14.6,2.59,4.73,3.31,9.94,5,15,.21,1.38,1.67,1.7,2.94,2.58,1.52.94,1.2,2.7.35,4s-1.52,2.6-2.32,3.78c-1.52,2.19-4.23,5.77-6.95,3-1-1.3-1.32-3.11-2-4.44a10.46,10.46,0,0,0-1.69-2.88c-.54-.65-.85-1.23-.55-2,.58-.86,2.67-1.57,3.07-2.35.87-4.51-1.88-8.95-4.62-12.28-3.1-3.83-7.84-5.33-12.45-6.29-.33-.31-.26-1.61-.56-1.78a11.77,11.77,0,0,0-6.37-3,2.52,2.52,0,0,1-.17-5Z"/><path class="cls-20" d="M182.09,376.4a6.39,6.39,0,0,0,2-4,6.67,6.67,0,0,0-3-6"/><path class="cls-23" d="M180.37,374.59c-.25-1.43-.58-2.4-1.58-2.8a.89.89,0,0,1-.46-.29c-.09,0,0-.16.2-.58a21.39,21.39,0,0,0,1.14-2.45l.67-1.57c.87-2.14,3.32-3.79,5.52-3.14a3.38,3.38,0,0,1,2,1.68,9.21,9.21,0,0,1-.09,10.17c-2.47,3.27-7.12,4.14-7.4-1Z"/><path class="cls-20" d="M202.09,364.4a9.23,9.23,0,0,0,1-5,9.53,9.53,0,0,0-3-6"/><path class="cls-23" d="M199.86,363.26l-1.19-1.54c-.56-.76-1.15-1.35-.84-2.2a31.15,31.15,0,0,0,1.45-5.49c.35-1.91,2.75-1.79,4.11-1.32a7.35,7.35,0,0,1,4.71,4.9,6.34,6.34,0,0,1-1.44,6.71c-2.35,2.11-5.15,1.6-6.8-1.06Z"/><path class="cls-20" d="M222.09,348.4a6.49,6.49,0,0,0,3-5,6.32,6.32,0,0,0-5-6"/><path class="cls-23" d="M220.77,346.28A8.71,8.71,0,0,0,221,344c-.25-.88-.67-.77-.9-1.62a27.1,27.1,0,0,0-1-3.89,2.91,2.91,0,0,1,1.6-3.5c4.19-1.7,8.23,2.22,8.76,6.35a8,8,0,0,1-6,9.21,1.64,1.64,0,0,1-2-1.24l-.63-3Z"/><path class="cls-23" d="M89.11,145.15a14.09,14.09,0,0,1-8.81-6.21c-1.68-2.63-1.52-5.9-2.26-8.81-.28-1.94-2.43-3.46-2.57-5.42-.31-3.44,4.89-4.15,7.06-2.35,6.71,4.14-3.84,3.87,2,10.66,2.41,2.87,4.06,5.66,6.55,8.64a2.12,2.12,0,0,1-2,3.49Z"/><path class="cls-20" d="M58.09,165.4a19.46,19.46,0,0,0,7,9,18.84,18.84,0,0,0,7,3"/><path class="cls-3" d="M59.49,164.86a32.73,32.73,0,0,0,6.17,5.9c1.62,1.24,3.48,1.84,5.18,2.87a5.92,5.92,0,0,1,1.63,2.49c1,2.33-2,4-3.77,3.78-4.57-1-8.45-4.69-10.52-8.75-.7-1.65-2.94-6.5,0-6.88a1.59,1.59,0,0,1,1.35.59Z"/><path class="cls-20" d="M45.09,189.4a30.41,30.41,0,0,0,17,9"/><path class="cls-3" d="M46.17,188.37A9.07,9.07,0,0,0,52,192.06c1.54.23,3.57-.62,5-.33,2.57.88,3.57,2.12,5.28,5.19a2.37,2.37,0,0,1-.49,3A7.46,7.46,0,0,1,53.08,201c-1.69-1-2.54-3.38-3.6-4.91a32.66,32.66,0,0,0-5.48-5.6,1.53,1.53,0,1,1,2.17-2.07Z"/><path class="cls-20" d="M40.09,220.4a12.45,12.45,0,0,0,15,8"/><path class="cls-3" d="M41.51,219.92c3.84,1.35,5.28,5.22,9.21,6.33a19.41,19.41,0,0,0,4,.71,1.55,1.55,0,0,1,1.55,1.67c-.24,2-4.4,2.53-6.08,2.58-4.69.12-10.42-2.22-11.7-7.2-.55-1.94.31-5.34,3-4.09Z"/><path class="cls-20" d="M41.09,273.4a31.46,31.46,0,0,0,15-7"/><path class="cls-3" d="M40.83,271.93a18.28,18.28,0,0,0,6.91-3.83c1.29-1.49,2.44-3.16,4.6-3.25,1.54-.11,4.59.44,4.72,2.7a5.24,5.24,0,0,1-4.27,5.8,106.59,106.59,0,0,1-11.45,1.53,1.51,1.51,0,0,1-.51-2.95Z"/><path class="cls-20" d="M33.09,242.4a17.62,17.62,0,0,0,11,4,17,17,0,0,0,8-2"/><path class="cls-3" d="M34,241.24c2.67,1.32,5.72,2.26,8.62,1.61,3.21-.77,5.19-.62,8.73.23a1.91,1.91,0,0,1,1.4,2.65,8.47,8.47,0,0,1-7.8,4.59,20.49,20.49,0,0,1-12.85-6.75,1.53,1.53,0,0,1,1.9-2.33Z"/><path class="cls-20" d="M52.09,300.4a21.78,21.78,0,0,0,15-10"/><path class="cls-3" d="M51.84,298.92a18.23,18.23,0,0,0,9.87-7.3,5.25,5.25,0,0,1,1.62-2.43.93.93,0,0,1,.73-.09c.18,0,.53.11.7.15.4.13.9.29,1.29.45a6.84,6.84,0,0,1,3.28,2.69c.21.34.4.92.23,1.16a6,6,0,0,1-2.81,2.94,39.17,39.17,0,0,1-4.54,2.85,23.07,23.07,0,0,1-9.88,2.54,1.5,1.5,0,0,1-1.55-1.47,1.52,1.52,0,0,1,1.06-1.49Z"/><path class="cls-20" d="M80.09,321.4a18.42,18.42,0,0,0,4-11,17.52,17.52,0,0,0-1-6"/><path class="cls-3" d="M78.91,320.48c-3.77-6.44,3.11-1.74.37-8a3.43,3.43,0,0,1,0-3.26,19.85,19.85,0,0,1,2.43-4.29,2.32,2.32,0,0,1,2.83-1c4.14,1.67,6.1,6.53,3.83,10.21-.94,1.69-2.64,2.92-2.78,4.89,0,.93.27,2.1-.58,2.75-1.28,1.27-5.06,1-6.06-1.28Z"/><path class="cls-20" d="M116.09,325.4a19,19,0,0,1,1-11,18.68,18.68,0,0,1,4-6"/><path class="cls-3" d="M114.62,325.7a20.66,20.66,0,0,0-.61-6.21c-.21-1.58-1.18-2.83-1.8-4.45-1.43-3.86,2-5.58,4.92-6.79a7.41,7.41,0,0,1,3.11-.69,1.74,1.74,0,0,1,1.7,1.69c.18,1.8-.13,3.44.34,5.17,1,3.09-2.47,2.87-4.07,4.46a5.58,5.58,0,0,0-.65,6.23,1.6,1.6,0,1,1-2.94.59Z"/><path class="cls-20" d="M144.09,325.4l6,3"/><path class="cls-3" d="M144.76,324.06a6.25,6.25,0,0,1,5.79-.34c.27.1.45.36.5.88a8.28,8.28,0,0,1-1.63,5.15,7.14,7.14,0,0,1-1.8,1.71c-1,.62-1.66-.32-2.37-.87-1.51-1.49-3-5.14-.49-6.53Z"/><path class="cls-20" d="M156.09,310.4q4,2,8,4"/><path class="cls-3" d="M156.76,309.06a10.72,10.72,0,0,1,7.11.77c1.74.24,1,4.61-.45,5.92-1.76,1.83-2.5,1.66-3.12,1.23a11.7,11.7,0,0,1-3.53-2.94c-1.17-1.41-2.61-4.06,0-5Z"/><path class="cls-3" d="M170.59,372.4c-1.33-.83-2.47-2.29-1.79-3.75.66-1.16,3.39-2,4.79-1.25,2.13.78,2.48,2.14,1.38,3.75-.83,1.28-2.94,2.27-4.38,1.25Z"/><path class="cls-20" d="M195.09,363.4l-6-6"/><path class="cls-3" d="M194,364.47c-2.19.53-3.5.13-4.65-1.36-1.44-1.72-2.53-6.33.77-6.77,2.49-.11,4.9.79,6,3,.64,1.47.07,4.69-2.1,5.11Z"/><path class="cls-20" d="M216.09,349.4l-3-4"/><path class="cls-3" d="M214.89,350.3a3.5,3.5,0,0,1-2.45.27c-1.3-.91-1.16-2.79-.55-4.27.62-1.73,2.9-2.12,4.33-1.69a2.63,2.63,0,0,1,2,1.63c.18,1.2-1.83,3.74-3.34,4.06Z"/><path class="cls-20" d="M179.09,263.4l-5,6"/><path class="cls-3" d="M181.73,265.61l-6.49,4.75a1.55,1.55,0,0,1-2.31-1.92l3.51-7.24a3.55,3.55,0,1,1,5.29,4.41Z"/><path class="cls-3" d="M78,147.84c.29,3.37,4.06,4.51,6.31,6.2a12.49,12.49,0,0,1,2.39,2.76,2.42,2.42,0,0,1-1,3.57c-3.2,1.4-6.71-.59-8.41-3.27s-1.86-5.56-3.17-8.21a2,2,0,1,1,3.88-1Z"/><path class="cls-3" d="M173.18,155.81c.16,13-7.57,26.08-19.66,31.37-10.14,4.69-24.69,3.56-32.61-4.49a18.42,18.42,0,0,1-2.41-3,19.06,19.06,0,0,1-2.41-5.29c8.23,6.28,17.42,12.33,28.15,10.37,14.9-2,25.4-17,23.53-31.66-1.63-11.15-10-19.49-19.1-25.56-17.8-12.32-41.08-12.13-61.45-7C27.79,134.45-5.26,202,3.56,259.46c7,45,43.81,75.58,88.35,79.58a126.43,126.43,0,0,0,30.18-.3c.68-.09,1.35-.19,2-.3l.94,4.92c-1.13.2-2.26.38-3.38.53A121.44,121.44,0,0,1,108.2,345c-28.08.87-57.2-7.1-78.56-26-45-38.58-40.94-109-10.84-155.52,18.8-29.69,48.67-48.17,83.7-51.44,23.22-2.51,46.54,4.15,62.13,22.4A34.57,34.57,0,0,1,173.18,155.81Z"/><path class="cls-3" d="M228.8,348.29C221.06,360.07,209,368,196.34,373.67c-13.2,6.16-28.59,9.64-42.94,5.4-14.74-4.46-29.42-16-31.52-32.06a27.52,27.52,0,0,1-.2-3.12,28.34,28.34,0,0,1,.41-5.15c2-11.92,11.08-22.08,20.49-29.34a59.75,59.75,0,0,1,22.47-11c4.06-.84,8.24-2.08,12.4-1.5a8.79,8.79,0,0,1,4.14,2,13,13,0,0,1-7.71,3A59.73,59.73,0,0,0,159,305.73c-9.52,3.89-17.77,10.64-24.27,18.51-15.53,19.13-5.65,38.35,14.94,47.47,16.68,7.55,35.91,1.65,51.34-6.73,24.41-12.42,37.35-36.85,27.91-63.52-5.16-14.41-14.75-27.82-27.67-36.19-10.82-7.08-24.07-9.3-36.79-7.53-7.76.89-15.49,2.23-22.62,5.46a64.33,64.33,0,0,1-7.76,3.08c-8.38,2.31-17.22.84-25.22-2.06-23-8.36-35.74-31.49-25.19-54.68,5.74-12.75,16.25-23.48,29.43-28.41a23,23,0,0,1,5.4-1.44,16.39,16.39,0,0,1,2.81-.12l.56,2.66c-.32.16-.64.32-1,.46-4.41,2.08-9,3.29-13.13,5.88a50.76,50.76,0,0,0-19.89,22.82,33.48,33.48,0,0,0,9.46,40.74c9.52,7.54,23.24,12.38,35.3,9.3a61.51,61.51,0,0,0,7.15-2.91,66.17,66.17,0,0,1,15.95-4.78c13.6-2.58,28.13-3,41,3,17.94,8,30.91,24.72,37.57,42.89C240.12,315.57,238.45,334.15,228.8,348.29Z"/><path class="cls-21" d="M148.14,188.34a33.76,33.76,0,0,1-21.55-1.44l-3,3L81.33,213.22a3.62,3.62,0,0,0-1.66,2.16,3.49,3.49,0,0,0,.36,2.7L115,278.58l96.47-55.7q-19.06-33-38.11-66C171.32,172.17,161.42,184.6,148.14,188.34Z"/><path class="cls-3" d="M125.66,186.17h0l-.3-.15-45,25.45a5.56,5.56,0,0,0-2,7.6l33.14,57.41a5.58,5.58,0,0,0,7.6,2l90.29-52.13a5.58,5.58,0,0,0,2-7.6L178,160.91a2.74,2.74,0,0,0-.41-.54,5.8,5.8,0,0,0-4.83-1.72,35.44,35.44,0,0,1-1,4.69l.91-.52a1.51,1.51,0,0,1,.77-.21,1.84,1.84,0,0,1,.41,0,1.58,1.58,0,0,1,.95.73L207.9,220.8a1.53,1.53,0,0,1,.16,1.18,1.55,1.55,0,0,1-.73,1L117,275.06a1.57,1.57,0,0,1-2.14-.57L81.76,217.08a1.57,1.57,0,0,1,.57-2.13l47.26-27-1-.48a2.17,2.17,0,0,1-.53-.14"/><path class="cls-24" d="M173.89,163.27a2.25,2.25,0,0,1,2.1-3.36,43.06,43.06,0,0,1,35.79,62.77,2.26,2.26,0,0,1-4,.09Q190.85,193,173.89,163.27Z"/><path class="cls-23" d="M158.59,182.9a34.87,34.87,0,0,1-18,6,34,34,0,0,1-13-2L96.34,203.64l37,64,55.43-32Q173.66,209.27,158.59,182.9Z"/><path class="cls-3" d="M159.1,182.34l-1.51,1.56,29.77,51.39-53.69,31L97.71,204l29.88-17.1-2-1L95,203.27l38,65.75,57.15-33Z"/><circle class="cls-25" cx="142.5" cy="220.73" r="24.17"/><path class="cls-26" d="M139,244.53a3.1,3.1,0,0,1-1.58-1.69,3.62,3.62,0,0,1-.06-1.26c.05-2.16.07-3.25-.16-3.77a19,19,0,0,0-1-1.77,4.52,4.52,0,0,1-.38-.68c-.34-.82-.59-1.42-.33-1.75.61-.76,3.21.65,3.77-.16.13-.19,0-.3.22-.77.29-.67.63-.72.71-1,.22-.89-2.26-1.76-2.13-2.68.08-.52,1-.79,2-1.09s1.89-.57,2.51-.11c.41.31.21.58.82,1.48a2.55,2.55,0,0,0,1.31,1.2c.63.17,1-.27,1.26,0s-.13.89-.17,2,.26,2.21.6,2.24c.06,0,.17,0,.71-1s.42-1.4.93-1.8a2.15,2.15,0,0,1,.49-.28,2.11,2.11,0,0,1,1.26,0,6.29,6.29,0,0,0,2.51-.11,2.38,2.38,0,0,0,1.25,0c.69-.22.77-.63,1.48-.82a5.67,5.67,0,0,1,1.25,0c.54,0,1,0,1.26-.05l2.51-.11a2.93,2.93,0,0,1,.71-1c.65-.48,1.45.08,1.75-.32.17-.23,0-.47,0-1.26a4.6,4.6,0,0,1,.14-1.07c.19-1.46-4.27-3.22-4.12-3.79s4.66,1,8,.48a24.15,24.15,0,0,0-12.49-23.69c-.77.49-2.55,1-2.89,1.53l-.06.1c-.81,1.89-1.15,2.57-1.15,2.57a5.21,5.21,0,0,1-1.42,2.07,3.09,3.09,0,0,1-1,.55,26.5,26.5,0,0,0-4,.92,13.53,13.53,0,0,0-3.45,1.91,14.21,14.21,0,0,0-3.38,3.16c-.26.34-.42.59-.72,1-1,1.61-2,3.48-1.85,3.6s1.71-2.1,2.18-1.85c.21.11.13.63-.16,2-.84,4-1.14,4-1,5.08.14,1.51.87,2.13.38,3-.39.7-1.1.71-1.2,1.31-.14.79.87,1.14,1.36,2.46s.2,3.22-.6,3.54c-.36.15-.57-.18-1.53-.43a7.18,7.18,0,0,0-2-.17c-2.23.11-5.28,2.28-5.57,5a4,4,0,0,0,0,1.25l1.31,1.21a23.33,23.33,0,0,0,4,2.76A21.75,21.75,0,0,0,139,244.53Z"/><path class="cls-27" d="M155.84,203.05c-2,.92-2.82.56-3.22,1.14-.82,1.2,2.18,3.11,2.56,6.94a6.9,6.9,0,0,1-1.53,5.35,5.91,5.91,0,0,1-3,1.64,10,10,0,0,0,4.8.55,5.8,5.8,0,0,0,3.22-1.15c1.12-1,.92-1.79,1.92-2.34a2.88,2.88,0,0,1,3.55.6,2.45,2.45,0,0,1,.1,2.51,2.58,2.58,0,0,1-2.46,1.36,6,6,0,0,0,4.86,1.81,25,25,0,0,0-3-12.45,24.6,24.6,0,0,0-5.84-7A14,14,0,0,1,155.84,203.05Z"/><path class="cls-27" d="M158.28,224.84a3.33,3.33,0,0,1,1.36,2.46c.31,2.3-1.36,5.3-3.77,5.94-2.78.75-5.43-1.92-7.2-3.72a15.46,15.46,0,0,1-2.13-2.67,10,10,0,0,0,4.37,2.08,6,6,0,0,0,3.76-.16c1.69-.75,3-2.55,2.63-3.39-.24-.51-1.07-.55-1-.71S157.42,224.34,158.28,224.84Z"/><path class="cls-27" d="M128.69,227.1c-.17,0-2.23-.55-3.5.66a3.22,3.22,0,0,0-.71,1,4.94,4.94,0,0,0-.17,2c0,1.75,0,1.91-.16,2-.46.38-1.56-.09-2.29-.65a5.46,5.46,0,0,1-1.91-3.45,16,16,0,0,0,7,10.28c1.43-1.24,1.69-2.19,1.64-2.84-.07-.85-.65-1.2-.6-2.24,0-.61.28-1.6.93-1.8s1.64.74,1.8.93c1.14,1.32.47,2.57,1.42,3.71.47.57.87.55,2.56,1.15,3.79,1.36,4.73,2.57,5.62,2,.5-.31.34-.76.88-3.06.68-2.93,1.27-3.63.82-4.31-.6-.93-2.42-.79-3.55-.61,1.2,1.2,1.61,2.59,1.15,3.22-.57.78-2.36.32-3.28-.11a7.23,7.23,0,0,1-2.89-2.89c-.64-1-.62-1.23-1.09-2A8.74,8.74,0,0,0,128.69,227.1Z"/><path class="cls-27" d="M132.69,203a4.38,4.38,0,0,0-2.73.87,4.54,4.54,0,0,0-1.42,2.07,6.34,6.34,0,0,0-.06,4.54c.6,1.46,1.39,1.53,1.36,2.45,0,1.22-1.4,1.27-2.13,3.11a5.05,5.05,0,0,0-.11,3.28,5.13,5.13,0,0,0,.82,1.47c.75,1.09,1.48,2.14,2.62,2.41s2-.54,2.51-.11.43,1.3.11,2.51c1.84-2.3,1.9-3.46,1.58-4.09-.7-1.37-3.68-1.14-3.87-2.35-.09-.54.48-.74.44-1.53-.06-1-1-1.16-1.09-2-.14-1.13,1.65-1.43,2.13-3.11a5.14,5.14,0,0,0-.65-3.49c-.7-1.43-1.41-1.61-1.37-2.46s.87-1.53,1.92-2.34a11,11,0,0,1,2.95-1.64Z"/><path class="cls-27" d="M142.36,199.6c-.33,2.33-1.15,3.22-1.86,3.6-1,.55-1.83,0-3.49.65a3.32,3.32,0,0,0-2.19,1.86,2.86,2.86,0,0,0,.87,2.73c.57.54.86.32,1.8.93a3.65,3.65,0,0,1,1.86,2.18,2.59,2.59,0,0,1-.66,2.3c-.47.44-1,.46-1,.54a3.65,3.65,0,0,0,3.49-.65,4,4,0,0,0,.55-4.81c-.9-1.51-2.71-1.66-2.62-2.4s1.86-1.07,2-1.09c1.32-.25,1.78.27,2.51-.11a2.81,2.81,0,0,0,1.15-2.56A3.77,3.77,0,0,0,142.36,199.6Z"/><path class="cls-27" d="M151.15,205a5.87,5.87,0,0,0-4,.93,4.45,4.45,0,0,0-1.91,2.34c-.65,2.4,2.23,3.82,2,6-.35,3.4-8.2,4.7-8.08,5.12s8.73-.27,9.88-4.19a10.2,10.2,0,0,0,.11-3.28c-.18-2.28-.78-3-.43-4.26A4.52,4.52,0,0,1,151.15,205Z"/></g><g id="reenK_ds"><path class="cls-28" d="M271.41,223.87c3.38,0,16-13.06,31.92-13.06,17.66,0,30.23,18.14,30.23,30,0,14-18.62,29.74-37,29.74-5.08,0-8.22-2.66-8.22-7.25,0-7.26-2.18-11.61-7-11.61-3.62,0-6,2.66-6,8,0,19.83,5.56,36.76,5.56,60.46,0,13.3-7.26,21.53-19.83,21.53-20.8,0-42.56-8.23-42.56-18.63,0-7.74,2.17-18.62,2.17-26.84,0-47.64-10.15-47.16-10.15-57.56,0-11.85,35.3-24.91,46.19-24.91C266.09,213.71,267.78,223.87,271.41,223.87Z"/><path class="cls-28" d="M450.13,255.31c0,30-67,25.15-67,35.55,0,4.59,4.11,9.19,16.69,9.19,16.2,0,26.6-14,33.13-14,7.74.73,19.59,14.27,19.59,23.7,0,10.4-24.67,29.26-56.83,29.26-36.28,0-65.54-23.45-65.54-61.42,0-38.7,28.78-66,66.74-66C430.54,211.54,450.13,230.64,450.13,255.31ZM398.86,243.7c-11.13,0-22,7-22,13.78a3.93,3.93,0,0,0,3.87,3.63c9.19,0,27.09-7,27.09-10.88C407.81,246.6,404.42,243.7,398.86,243.7Z"/><path class="cls-28" d="M578.55,255.31c0,30-67,25.15-67,35.55,0,4.59,4.11,9.19,16.68,9.19,16.21,0,26.6-14,33.13-14,7.74.73,19.59,14.27,19.59,23.7,0,10.4-24.66,29.26-56.83,29.26-36.27,0-65.54-23.45-65.54-61.42,0-38.7,28.78-66,66.75-66C559,211.54,578.55,230.64,578.55,255.31ZM527.28,243.7c-11.13,0-22,7-22,13.78a3.93,3.93,0,0,0,3.87,3.63c9.19,0,27.08-7,27.08-10.88C536.22,246.6,532.84,243.7,527.28,243.7Z"/><path class="cls-28" d="M648.2,233.54c5.56-7.74,22.25-20.55,42.08-20.55,22.49,0,38,12.09,38,31.19,0,19.35-6.53,28.06-6.53,41.6,0,22.73,4.59,24.67,4.59,31.92,0,10.16-23.7,19.59-43.53,19.59-11.85,0-16.69-5.8-16.69-15.23,0-15.48,8.47-38,8.47-54.42,0-9.67-2.66-12.82-7.26-12.82-7.25,0-16.93,9.92-16.93,24.67,0,38.21-1.45,58.53-19.83,58.53-16,0-38.21-8.22-38.21-18.14,0-8,3.63-13.79,3.63-35.79,0-18.14-8.22-34.34-8.22-45.95,0-9.68,24.18-21.77,42.08-21.77C642.15,216.37,645.78,226.29,648.2,233.54Z"/><path class="cls-29" d="M806.85,182c0,9.92-9.92,25.39-9.92,44.74,0,2.9,1.21,4.35,2.66,4.35,3.87,0,11.37-9.91,19.11-23.94,7.74-14.27,12.57-26.12,13.06-31.92s4.59-8.71,9.91-8.71c16,0,43.05,16.69,43.05,32.65,0,15.72-43.05,55.14-43.05,55.14s11.61,2.18,20.07,14.51,13.06,27.57,20.08,29.51c6.53,1.93,10.64,7.73,10.64,13.3,0,15.72-34.1,25.63-47.64,25.63-8.23,0-15.24-2.66-21.29-18.14s-11.36-34.58-19.1-34.58c-3.87,0-8,1.69-8,8.47,0,18.86,8.7,31.92,8.7,37.48,0,4.11-7,9.67-33.13,9.67-15.72,0-23.94-5.32-27.57-16.92-2.42-7.74-6-26.61-6-57.8,0-43.05,2.9-71.11,10.15-77.15,9.44-8,34.59-15,46.68-15C803.46,173.32,806.85,177.44,806.85,182Z"/><path class="cls-29" d="M1098,172.84c0,24.43-8,68.68-8,102.78,0,26.85,11.12,27.57,11.12,36.76,0,9.43-23.7,26.12-39.17,26.12-9.68,0-11.13-11.12-16-11.12s-12.82,10.88-38,10.88c-27.33,0-47.16-27.57-47.16-56.35,0-42.56,33.13-67.23,55.86-67.23,15.48,0,23.22,6.53,26.36,6.53,2.18,0,3.63-1.69,3.63-6.29,0-16.44-8.46-31.68-8.46-40.87,0-8.22,27.08-21.28,41.83-21.28C1092.22,152.77,1098,159.54,1098,172.84Zm-68,121.16c7.5,0,13.55-6.77,13.55-18.14,0-13.54-4.84-18.13-11.13-18.13-7.25,0-14.75,10.15-14.75,21.52C1017.73,288,1022.33,294,1030.06,294Z"/><path class="cls-29" d="M1191.61,259.66c-6.29,0-13.06-16.44-23.21-16.44a5.53,5.53,0,0,0-5.81,5.56c0,15.23,52,18.62,52,52.72,0,19.83-18.62,39.66-48.13,39.66-33.86,0-61.67-18.86-61.67-28.29,0-11.37,15.72-26.85,24.67-26.85,7,0,14.51,17.9,28.78,17.9a6.36,6.36,0,0,0,6-6.29c0-13.54-47.4-14-47.4-51,0-21.28,18.62-35.79,49.34-35.79s46,16.45,46,23.7C1212.17,243.22,1199.11,259.66,1191.61,259.66Z"/></g><g id="i"><path class="cls-3" d="M946.91,180.6a51.51,51.51,0,0,0-32.69,97.23q2.29,1,4.72,1.82c1.41.46,2.86.87,4.33,1.21,1.14.28,2.28.5,3.43.69,1.68.28,3.34.47,5,.58A51.51,51.51,0,0,0,946.91,180.6Zm33.44,60.81a46.5,46.5,0,1,1-34.59-55.93A46.54,46.54,0,0,1,980.35,241.41Z"/><path class="cls-30" d="M945.76,185.48a46.5,46.5,0,1,0,34.59,55.93A46.54,46.54,0,0,0,945.76,185.48ZM973.12,240A39.17,39.17,0,1,1,944,192.92,39.22,39.22,0,0,1,973.12,240Z"/><path class="cls-3" d="M944,192.92A39.18,39.18,0,1,0,973.12,240,39.21,39.21,0,0,0,944,192.92Zm24.27,46a34.18,34.18,0,1,1-25.42-41.11A34.21,34.21,0,0,1,968.26,238.89Z"/><path class="cls-3" d="M930.91,288.82l-.75-.18-4.86-1.13-7.78-1.84-4.07-1a5.76,5.76,0,0,0-.81-.15,9.21,9.21,0,0,0-10,6l-13.9,40.95a12.52,12.52,0,0,0,.65,10.06,9.15,9.15,0,0,0,5.94,4.57l23.6,5.57a9.27,9.27,0,0,0,7.37-1.43,12.67,12.67,0,0,0,5.18-8.67l6.36-42.72A9.11,9.11,0,0,0,930.91,288.82Zm2,9.36-6.37,42.71a7.71,7.71,0,0,1-3,5.27,4.25,4.25,0,0,1-3.41.7l-23.61-5.56a4.17,4.17,0,0,1-2.7-2.13,7.63,7.63,0,0,1-.29-6l13.89-40.95a4.24,4.24,0,0,1,4.92-2.6l17.45,4.11A4.14,4.14,0,0,1,932.92,298.18Z"/><path class="cls-30" d="M929.76,293.69l-17.45-4.11a4.24,4.24,0,0,0-4.92,2.6L893.5,333.13a7.63,7.63,0,0,0,.29,6,4.17,4.17,0,0,0,2.7,2.13l23.61,5.56a4.25,4.25,0,0,0,3.41-.7,7.71,7.71,0,0,0,3-5.27l6.37-42.71A4.14,4.14,0,0,0,929.76,293.69Zm-31.08,41.37,12.79-41.16,2.87.88L901.54,336Zm9.48,3.37,10.1-42.82,2.92.69-10.11,42.82Zm13.64,2.1-3-.48,6.95-42.55,3,.49Z"/><polygon class="cls-3" points="919.35 277.89 918.94 279.64 917.52 285.67 916.83 288.59 911.96 287.44 912.64 284.56 914.22 277.83 914.48 276.73 919.35 277.89"/><path class="cls-30" d="M926.7,281.55l-1.4,6-7.78-1.84,1.42-6c1.41.46,2.86.87,4.33,1.21C924.41,281.14,925.55,281.36,926.7,281.55Z"/><polygon class="cls-3" points="932 280.87 931.7 282.13 930.16 288.64 929.48 291.57 924.61 290.43 925.3 287.5 926.7 281.55 927.14 279.72 932 280.87"/><polygon class="cls-3" points="914.34 294.78 901.54 335.95 898.68 335.06 911.47 293.9 914.34 294.78"/><polygon class="cls-3" points="921.18 296.3 911.07 339.12 908.16 338.43 918.25 295.61 921.18 296.3"/><polygon class="cls-3" points="928.74 297.99 921.8 340.53 918.84 340.05 925.79 297.5 928.74 297.99"/><path class="cls-31" d="M957.31,326.9A121.84,121.84,0,0,1,996.09,377c-.18,0-16.65,4.21-24.24,1.62S957.53,364.11,957.31,326.9Z"/><path class="cls-32" d="M979.12,366.49,957.31,326.9"/><path class="cls-31" d="M948.42,347.1c3.51,1.23,4.55,11.78.81,19.39C944.05,377,931.05,379.12,929,379.41c1.65-13.69,7.09-21.78,10.5-25.85C941.88,350.76,945.74,346.16,948.42,347.1Z"/><line class="cls-32" x1="948.42" y1="347.1" x2="939.54" y2="363.26"/></g></svg>