<svg xmlns="http://www.w3.org/2000/svg" viewBox="0 0 1217.09 381.18"><defs><style>.cls-1,.cls-2,.cls-3{fill:#0e954a;}.cls-2,.cls-3{stroke:#0e954a;stroke-miterlimit:10;}.cls-3{stroke-width:0.5px;}</style></defs><g id="Layer_9" data-name="Layer 9"><path class="cls-1" d="M911.09,214.12V77.4h8V210.92Zm3-133.72V209.69l2-.8V80.4Z"/><path class="cls-1" d="M918.85,80.4H908.69a4.08,4.08,0,0,1-3.28-1.68c-1.56-2.06-1.91-5.8-.89-9.52l3-11a5.3,5.3,0,0,1,4.76-4.1h4.79a5,5,0,0,1,4.55,4.22l2.14,11c.71,3.68.09,7.37-1.6,9.42A4.28,4.28,0,0,1,918.85,80.4Zm-6.53-23.31a2.43,2.43,0,0,0-1.87,1.9l-3,11c-.85,3.08-.44,5.8.39,6.9a1,1,0,0,0,.89.5h10.16a1.3,1.3,0,0,0,1-.58c.93-1.13,1.56-3.87,1-6.93l-2.13-11a2,2,0,0,0-1.61-1.79Z"/><path class="cls-1" d="M916.21,61.33c-2-2-21.23-25.27-48.12-57.93,2.06,14.12,7.21,22.53,11.58,27.63,5,5.78,20.21,20.43,25.84,24.5a10.62,10.62,0,0,1,3.12,3.12c1.53,2.48.73,3.87,2.23,5.8,1.29,1.65,3.79,3.08,5.35,2.22A3,3,0,0,0,917.54,64,4.12,4.12,0,0,0,916.21,61.33Z"/><path class="cls-1" d="M915.14,68.43a7.57,7.57,0,0,1-5.46-3.06A7.23,7.23,0,0,1,908.27,62a6.53,6.53,0,0,0-.92-2.56,8.65,8.65,0,0,0-2.56-2.58l-.16-.11c-5.65-4.08-21-18.86-26.1-24.74-6.22-7.26-10.24-16.81-11.93-28.39l-.78-5.32,3.42,4.15c19.57,23.76,45.83,55.6,48,57.82l-1.06,1.06,1.08-1A5.36,5.36,0,0,1,919,64a4.53,4.53,0,0,1-2.11,4A3.71,3.71,0,0,1,915.14,68.43ZM870.63,8.85c2,8.48,5.37,15.6,10.18,21.2,5,5.79,20.06,20.28,25.58,24.27l.15.11a11.5,11.5,0,0,1,3.37,3.44,9.73,9.73,0,0,1,1.31,3.54,4.35,4.35,0,0,0,.82,2.11c1.05,1.35,2.83,2.18,3.44,1.84A1.58,1.58,0,0,0,916,64a2.47,2.47,0,0,0-.87-1.63l0,0C913.42,60.65,900.05,44.57,870.63,8.85Z"/><path class="cls-1" d="M911.56,62.25c-.73,2.71-11.24,31-26,70.65,11.18-8.85,15.89-17.51,18.11-23.85,2.52-7.19,7.58-27.72,8.28-34.64A10.46,10.46,0,0,1,913,70.15c1.38-2.56,3-2.57,3.9-4.83.79-1.95.77-4.82-.75-5.74a3,3,0,0,0-3,.18A4.16,4.16,0,0,0,911.56,62.25Z"/><path class="cls-1" d="M882.22,137.42l1.88-5c10.78-28.82,25.2-67.49,26-70.52h0l1.44.39-1.44-.42a5.42,5.42,0,0,1,2.3-3.35A4.49,4.49,0,0,1,917,58.3c2.23,1.34,2.44,4.91,1.36,7.59a7.21,7.21,0,0,1-2.22,2.9,6.72,6.72,0,0,0-1.75,2.07,8.69,8.69,0,0,0-1,3.51l0,.19c-.7,6.94-5.78,27.66-8.35,35-3.16,9-9.42,17.28-18.6,24.54ZM915,60.76a1.88,1.88,0,0,0-1,.28,2.53,2.53,0,0,0-1,1.57v0C912.38,65,904.93,85.19,889,128c6.36-5.94,10.81-12.45,13.26-19.43,2.52-7.19,7.51-27.51,8.2-34.29l0-.18a11.5,11.5,0,0,1,1.29-4.64,10,10,0,0,1,2.41-2.91,4.3,4.3,0,0,0,1.42-1.77c.64-1.58.47-3.54-.13-3.9A.88.88,0,0,0,915,60.76Z"/><path class="cls-1" d="M911.56,62.25c-.73,2.71-11.24,31-26,70.65,11.18-8.85,15.89-17.51,18.11-23.85,2.52-7.19,7.58-27.72,8.28-34.64A10.46,10.46,0,0,1,913,70.15c1.38-2.56,3-2.57,3.9-4.83.79-1.95.77-4.82-.75-5.74a3,3,0,0,0-3,.18A4.16,4.16,0,0,0,911.56,62.25Z"/><path class="cls-1" d="M882.22,137.42l1.88-5c10.78-28.82,25.2-67.49,26-70.52h0l1.44.39-1.44-.42a5.42,5.42,0,0,1,2.3-3.35A4.49,4.49,0,0,1,917,58.3c2.23,1.34,2.44,4.91,1.36,7.59a7.21,7.21,0,0,1-2.22,2.9,6.72,6.72,0,0,0-1.75,2.07,8.69,8.69,0,0,0-1,3.51l0,.19c-.7,6.94-5.78,27.66-8.35,35-3.16,9-9.42,17.28-18.6,24.54ZM915,60.76a1.88,1.88,0,0,0-1,.28,2.53,2.53,0,0,0-1,1.57v0C912.38,65,904.93,85.19,889,128c6.36-5.94,10.81-12.45,13.26-19.43,2.52-7.19,7.51-27.51,8.2-34.29l0-.18a11.5,11.5,0,0,1,1.29-4.64,10,10,0,0,1,2.41-2.91,4.3,4.3,0,0,0,1.42-1.77c.64-1.58.47-3.54-.13-3.9A.88.88,0,0,0,915,60.76Z"/><path class="cls-1" d="M914.69,65.42c2.78-.29,33-.62,75.29-1-12.27-7.27-22.05-8.56-28.76-8.37-7.61.23-28.59,2.86-35.3,4.69a10.57,10.57,0,0,1-4.39.46c-2.89-.37-3.46-1.86-5.91-1.91-2.1,0-4.78,1-5.09,2.76a3,3,0,0,0,1.24,2.72A4.16,4.16,0,0,0,914.69,65.42Z"/><path class="cls-1" d="M914,67a5.12,5.12,0,0,1-3.18-1,4.53,4.53,0,0,1-1.81-4.18c.47-2.57,3.72-4,6.6-4a7.15,7.15,0,0,1,3.5,1,6.87,6.87,0,0,0,2.57.89,8.7,8.7,0,0,0,3.62-.37l.18-.05c6.73-1.83,27.9-4.51,35.66-4.74,9.55-.28,19.5,2.61,29.57,8.58l4.63,2.74-5.38.05c-30.78.27-72,.66-75.16,1l-.15-1.49.15,1.49-.15-1.49.12,1.49A7.09,7.09,0,0,1,914,67Zm1.47-6.16c-1.68,0-3.38.84-3.5,1.52a1.62,1.62,0,0,0,.67,1.27,2.56,2.56,0,0,0,1.82.34h0c2.42-.25,23.33-.54,69.61-1a49.1,49.1,0,0,0-22.89-5.42c-7.62.23-28.37,2.85-35,4.63l-.17.05a11.61,11.61,0,0,1-4.8.46,9.86,9.86,0,0,1-3.58-1.21,4.28,4.28,0,0,0-2.16-.69Z"/><circle class="cls-1" cx="914.09" cy="62.4" r="3.5"/><path class="cls-1" d="M914.09,67.4a5,5,0,1,1,5-5A5,5,0,0,1,914.09,67.4Zm0-7a2,2,0,1,0,2,2A2,2,0,0,0,914.09,60.4Z"/><polygon class="cls-1" points="969.09 193.4 963.09 185.41 963.09 125.48 969.09 125.48 969.09 193.4"/><path class="cls-1" d="M968.54,128.48h-5.12a2.8,2.8,0,0,1-2.24-1.14,6.49,6.49,0,0,1-.58-5.45l1.54-5.55a3.41,3.41,0,0,1,3.12-2.62h2.41a3.2,3.2,0,0,1,3,2.73l1.08,5.55a6.74,6.74,0,0,1-1,5.36A2.92,2.92,0,0,1,968.54,128.48Zm-5-3h4.94a3.87,3.87,0,0,0,.35-2.91L967.75,117a.51.51,0,0,0-.18-.31h-2.31a1.18,1.18,0,0,0-.23.41l-1.53,5.55A4,4,0,0,0,963.54,125.48Z"/><path class="cls-1" d="M967.9,118.6c-.45-1.33-4-16.16-8.85-36.92-2.21,6.84-1.76,11.79-.92,15.07a126.28,126.28,0,0,0,6.23,16.85,5.17,5.17,0,0,1,.71,2.11c.14,1.46-.53,1.91-.28,3.11.21,1,1,2.24,1.92,2.2a1.51,1.51,0,0,0,1.2-.91A2,2,0,0,0,967.9,118.6Z"/><path class="cls-1" d="M966.66,122.52c-1.71,0-3-1.73-3.34-3.39a4.31,4.31,0,0,1,.13-2.18,2.82,2.82,0,0,0,.13-1.1,3.67,3.67,0,0,0-.5-1.46,123.38,123.38,0,0,1-6.4-17.26c-1.24-4.81-.92-10.16.94-15.92l1.66-5.12,1.23,5.24c3.55,15.09,8.32,35.33,8.82,36.8l-1.43.47,1.43-.46a3.48,3.48,0,0,1-.05,2.6,3,3,0,0,1-2.5,1.78Zm-.42-4.3a1,1,0,0,0,0,.3,2.17,2.17,0,0,0,.24.62v-.06C966.43,118.93,966.35,118.65,966.24,118.22Zm-7.15-29.81a22.31,22.31,0,0,0,.49,8c.67,2.59,2.72,8.46,4.4,12.66C962.81,104.13,961.2,97.34,959.09,88.41Z"/><path class="cls-1" d="M965.6,118c-.94,1.06-12,11.53-27.54,26.15,7-1.51,11.1-4.38,13.51-6.75A123.8,123.8,0,0,0,963,123.56a5.27,5.27,0,0,1,1.47-1.67c1.19-.85,1.92-.5,2.84-1.32s1.42-2,.94-2.76a1.52,1.52,0,0,0-1.39-.58A2,2,0,0,0,965.6,118Z"/><path class="cls-1" d="M933.12,146.73l3.91-3.68c11.29-10.63,26.42-24.89,27.44-26.05l1.13,1-1.13-1,1.13,1-1.12-1a3.45,3.45,0,0,1,2.28-1.26,3,3,0,0,1,2.79,1.27c1,1.5.09,3.54-1.21,4.69a4.31,4.31,0,0,1-2,1,2.62,2.62,0,0,0-1,.43,3.66,3.66,0,0,0-1,1.17,124.83,124.83,0,0,1-11.74,14.18,28.43,28.43,0,0,1-14.24,7.15Zm26.16-20.56c-3.66,3.48-8.73,8.27-15.41,14.56a22,22,0,0,0,6.65-4.42C952.43,134.44,956.49,129.73,959.28,126.17Zm7.49-7.24,0,0,0,0c-.1.12-.31.33-.62.64a1.17,1.17,0,0,0,.25-.16A2.57,2.57,0,0,0,966.77,118.93Z"/><path class="cls-1" d="M965.6,118c-.94,1.06-12,11.53-27.54,26.15,7-1.51,11.1-4.38,13.51-6.75A123.8,123.8,0,0,0,963,123.56a5.27,5.27,0,0,1,1.47-1.67c1.19-.85,1.92-.5,2.84-1.32s1.42-2,.94-2.76a1.52,1.52,0,0,0-1.39-.58A2,2,0,0,0,965.6,118Z"/><path class="cls-1" d="M933.12,146.73l3.91-3.68c11.29-10.63,26.42-24.89,27.44-26.05l1.13,1-1.13-1,1.13,1-1.12-1a3.45,3.45,0,0,1,2.28-1.26,3,3,0,0,1,2.79,1.27c1,1.5.09,3.54-1.21,4.69a4.31,4.31,0,0,1-2,1,2.62,2.62,0,0,0-1,.43,3.66,3.66,0,0,0-1,1.17,124.83,124.83,0,0,1-11.74,14.18,28.43,28.43,0,0,1-14.24,7.15Zm26.16-20.56c-3.66,3.48-8.73,8.27-15.41,14.56a22,22,0,0,0,6.65-4.42C952.43,134.44,956.49,129.73,959.28,126.17Zm7.49-7.24,0,0,0,0c-.1.12-.31.33-.62.64a1.17,1.17,0,0,0,.25-.16A2.57,2.57,0,0,0,966.77,118.93Z"/><path class="cls-1" d="M966.31,120.12c1.32.49,15.06,7.07,34.28,16.33-3.93-6-8.07-8.78-11.15-10.19a124.37,124.37,0,0,0-17-5.75,5.4,5.4,0,0,1-2.09-.77c-1.22-.81-1.15-1.62-2.25-2.18-.94-.49-2.39-.61-2.92.11a1.56,1.56,0,0,0,0,1.51A2.09,2.09,0,0,0,966.31,120.12Z"/><path class="cls-1" d="M1004.78,140.14l-4.84-2.34c-14-6.73-32.71-15.74-34.16-16.28h0l.53-1.4-.54,1.4a3.46,3.46,0,0,1-2-1.68,3,3,0,0,1,.19-3.06c1-1.43,3.26-1.35,4.81-.56a4.56,4.56,0,0,1,1.62,1.47,2.65,2.65,0,0,0,.77.8,3.74,3.74,0,0,0,1.45.53,123.77,123.77,0,0,1,17.44,5.87c4.52,2.06,8.48,5.68,11.78,10.74Zm-28.57-17.06c4.55,2.17,10.85,5.19,19.11,9.17a22.16,22.16,0,0,0-6.5-4.63C986.39,126.51,980.53,124.41,976.21,123.08Zm-9.45-4.39h.07l.82.35a.79.79,0,0,0-.25-.17A1.9,1.9,0,0,0,966.76,118.69Z"/><circle class="cls-1" cx="966.71" cy="118.62" r="1.77"/><path class="cls-1" d="M966.7,121.88a3.19,3.19,0,0,1-1.44-.33,3.26,3.26,0,0,1-1.65-1.88,3.27,3.27,0,0,1,4.54-4,3.27,3.27,0,0,1,1.48,4.37h0A3.26,3.26,0,0,1,966.7,121.88Zm0-3.53-.09,0a.23.23,0,0,0-.15.13.26.26,0,0,0,.12.36.27.27,0,0,0,.23-.48Z"/><path class="cls-1" d="M305.94,113.55a345.38,345.38,0,0,0,1,111.69l-1.71.33a281.47,281.47,0,0,1-1-112.31l1.71.29Z"/><path class="cls-1" d="M321.15,150.05a13.62,13.62,0,0,1-6.63-1.56c-7.35-4.1-7.83-15.49-8.21-24.64-.15-3.57-.35-8.43-1.18-9.25-1.17.49-3.31,5.46-4.88,9.12-4,9.24-8.92,20.73-17.66,21.84-4.37.54-9.54-1.6-13.84-5.76s-6.66-9.28-6.25-13.68c.76-8.27,10.7-13,19.47-17.18,5.32-2.54,11.35-5.41,11-7.73-.35-2.67-7.69-4.25-14.17-5.64-9.6-2.06-20.47-4.4-22.31-11.7-.72-2.84,0-6.23,2-9.54,2.52-4.14,6.61-7.31,10.66-8.27,7.85-1.85,15.17,4.56,21,9.71,3.25,2.85,6.94,6.07,8.31,5.31s.29-6.4-.66-10.88C296.16,62.1,294,52,299.5,46.32c3.38-3.52,9.49-5.15,16.36-4.38,7.07.79,13.12,4,15.78,8.46,4.49,7.45-.21,17.28-4.36,26-2.67,5.58-5.43,11.35-3.6,13.21s8.32-.89,14-3.4c8.06-3.59,17.2-7.65,22.68-3.29,2.88,2.29,4.5,6.68,4.45,12.06s-1.9,12.36-6.92,16.19c-7,5.34-17.46,1.91-25.87-.84-3.6-1.17-9-3-9.72-1.91s3.28,5.84,6,9c5.71,6.65,12.82,14.94,10.3,22.34-1.25,3.68-4.93,7-9.84,8.9A21.18,21.18,0,0,1,321.15,150.05Zm-16-38.48a2.93,2.93,0,0,1,.58.06c3.13.6,3.32,5.17,3.61,12.09.33,8,.78,18.87,6.67,22.15h0c2.87,1.6,7.33,1.56,11.63-.09,4-1.55,7.12-4.26,8.07-7.06,2-5.79-4.52-13.35-9.74-19.42-4.76-5.55-8.19-9.56-6.18-12.58s6.65-1.4,13.15.72c7.74,2.53,17.39,5.68,23.12,1.31,3.43-2.62,5.68-8,5.74-13.84,0-4.38-1.2-8-3.31-9.68-4.06-3.23-12.32.44-19.6,3.68-7.48,3.33-13.93,6.2-17.32,2.76s-.37-9.49,3-16.61c3.82-8,8.16-17,4.5-23.11-2.19-3.65-7.38-6.34-13.55-7-5.85-.66-11.16.67-13.85,3.47-4.39,4.57-2.43,13.78-.85,21.19,1.45,6.82,2.6,12.21-.81,14.12-3.22,1.8-7-1.5-11.74-5.67-5.36-4.7-12-10.54-18.38-9a15.06,15.06,0,0,0-8.78,6.91c-1.57,2.58-2.18,5.22-1.66,7.25,1.38,5.49,11.29,7.62,20,9.5,8.53,1.83,15.89,3.41,16.51,8.19.58,4.48-5.29,7.27-12.73,10.82-8.05,3.83-17.17,8.17-17.77,14.75-.32,3.44,1.73,7.75,5.34,11.24s8,5.37,11.38,4.94c7-.89,11.8-12,15.28-20C300.3,116,302.21,111.57,305.12,111.57Z"/><ellipse class="cls-1" cx="308.34" cy="96.32" rx="8.27" ry="8" transform="translate(-14.63 102.72) rotate(-18.48)"/><path class="cls-1" d="M308.17,105.85a9.79,9.79,0,0,1-4.23-1,9.27,9.27,0,0,1-4.86-5.47,9.77,9.77,0,0,1,18.53-6.2h0a9.34,9.34,0,0,1-.6,7.3,9.81,9.81,0,0,1-5.66,4.81A10,10,0,0,1,308.17,105.85Zm.33-16.06a7.21,7.21,0,0,0-2.22.36,6.66,6.66,0,0,0-4.36,8.32,6.35,6.35,0,0,0,3.32,3.71,7,7,0,0,0,9.11-3,6.35,6.35,0,0,0,.41-5A6.53,6.53,0,0,0,308.5,89.79Z"/><path class="cls-1" d="M322.07,217.09l-3-.37A86.19,86.19,0,0,1,335.38,176c.49-.65,12-16,29-24.93l1.4,2.65c-16.36,8.63-27.89,23.92-28,24.07A83.39,83.39,0,0,0,322.07,217.09Z"/><path class="cls-1" d="M364.76,177.66a7.3,7.3,0,0,1-3.71-1.17,11.68,11.68,0,0,1-5.29-7.37c-1-5.44,3.3-10.27,6.45-13.8.53-.58,1.17-1.29,1.65-1.89-1.2.37-2.89,1.08-4.26,1.65-5.47,2.3-12.29,5.16-15.89,2a7.51,7.51,0,0,1-2.21-5.35,9.26,9.26,0,0,1,2.27-6.71c3.58-3.75,10.26-2.22,15.63-1,2.11.48,5.26,1.2,6.08.86,0-.91-2.75-3.89-4.38-5.68-3.78-4.16-7.7-8.46-6-12,1.31-2.75,5.37-3.69,8.2-2.81,4.17,1.3,5.59,6.24,6.73,10.22.43,1.5,1.33,4.64,2,4.71s2.24-2.91,3-4.34c2-3.73,4.23-8,8.23-8.22a8.66,8.66,0,0,1,6.33,2.82,9.07,9.07,0,0,1,2.92,6.67c-.29,4.49-5.27,7-9.66,9.24-2.06,1-5.49,2.78-5.4,3.73s3.9,2.16,6.18,2.85c4.63,1.42,9.87,3,10.62,7.18.51,2.8-1.23,6.2-5.15,10.1L388,168.26l1.05,1.06c-2.07,2.06-3.56,3.54-5.7,3.55h0c-4,0-6.36-5.09-8.46-9.58a27.28,27.28,0,0,0-2.4-4.5,32.16,32.16,0,0,0-1.11,6c-.69,5.43-1.49,11.58-5.34,12.72A4.55,4.55,0,0,1,364.76,177.66Zm.41-27.51a2.3,2.3,0,0,1,2,1c1.21,1.75-.46,3.6-2.76,6.18-2.74,3.06-6.5,7.25-5.74,11.24a8.75,8.75,0,0,0,3.91,5.36,3.6,3.6,0,0,0,2.56.68c2-.59,2.73-6.4,3.23-10.24.63-4.93,1.09-8.49,3.67-8.81,2.38-.29,3.71,2.54,5.53,6.46,1.55,3.31,3.66,7.85,5.74,7.85h0c.86,0,1.77-.87,3.58-2.68l1.07,1.07L387,167.19c4.17-4.15,4.49-6.44,4.31-7.44-.42-2.36-4.93-3.73-8.55-4.84-4.29-1.31-8-2.44-8.28-5.44s3.1-4.7,7-6.68c3.68-1.87,7.84-4,8-6.76a6.16,6.16,0,0,0-2.06-4.36,5.76,5.76,0,0,0-4-1.95c-2.33.15-4.16,3.6-5.77,6.64-1.71,3.2-3.33,6.22-6,5.91s-3.48-3.35-4.49-6.86S365,128,362.4,127.23c-1.8-.56-4.12.22-4.6,1.23-.82,1.73,3,5.93,5.52,8.7,3.45,3.79,6.17,6.78,4.76,9.24s-4.88,1.54-9.35.52c-4.63-1.06-10.39-2.37-12.79.14a6.33,6.33,0,0,0-1.44,4.52,4.65,4.65,0,0,0,1.2,3.22c2.19,1.94,8.54-.72,12.75-2.48C361.4,151.08,363.61,150.15,365.17,150.15Z"/><circle class="cls-1" cx="370.82" cy="148.96" r="1.9"/><path class="cls-1" d="M370.83,152.36a3.36,3.36,0,0,1-.63-.06,3.41,3.41,0,0,1-2.72-4,3.36,3.36,0,0,1,1.42-2.18,3.4,3.4,0,0,1,5.27,3.44,3.38,3.38,0,0,1-1.43,2.17A3.3,3.3,0,0,1,370.83,152.36Zm0-3.81a.41.41,0,0,0-.22.07.47.47,0,0,0-.17.26.4.4,0,0,0,.32.47.38.38,0,0,0,.3-.06.41.41,0,0,0,.17-.26.4.4,0,0,0-.32-.47Z"/><path class="cls-1" d="M355.58,376.39a57.91,57.91,0,0,1-26-16.2C316.15,345.88,312,328.34,310.74,320h0a114,114,0,0,1,35,42.05,1.51,1.51,0,0,0,1.35.84,1.55,1.55,0,0,0,.66-.15,1.51,1.51,0,0,0,.69-2A117.3,117.3,0,0,0,316,320.24c14.43,1.56,27.53,10.67,34.6,24.48C357,357.32,356.44,370.12,355.58,376.39Z"/><path class="cls-1" d="M308.73,352.53c-.17,8.57-2.7,14.28-4.74,17.53a41.21,41.21,0,0,1-8.22-25.51c.22-7.56,2.74-12.39,4.94-15.19a68.88,68.88,0,0,0-1.12,13.05,69.61,69.61,0,0,0,1,11.25,1.5,1.5,0,0,0,1.48,1.24l.26,0a1.51,1.51,0,0,0,1.22-1.74,65.85,65.85,0,0,1,.14-23.44A52.7,52.7,0,0,1,308.73,352.53Z"/><path class="cls-1" d="M285.44,224c-2.9,0-7.73-3.89-18.65-22.88a123.85,123.85,0,0,1-15.19-44.53l-.39-2.75,2.51,1.18a60.36,60.36,0,0,1,20.5,15.38c13.83,16.12,17.85,39.25,15.34,49.07-.6,2.35-1.59,3.79-2.94,4.31h0A3.44,3.44,0,0,1,285.44,224ZM255,159a120.52,120.52,0,0,0,14.38,40.63c12.81,22.29,16,21.39,16.17,21.34h0c.16-.06.67-.58,1.1-2.24,2.06-8.09-1.09-30.5-14.71-46.38A57,57,0,0,0,255,159Z"/><path class="cls-1" d="M259,208.5c-4.75,0-9.54-4.3-16.52-11.08-6.7-6.53-13.43-13.42-20-20.5l-1.6-1.71,2.23-.73a22.37,22.37,0,0,1,14.82.42c13.47,4.82,28.19,22.15,27.26,29.39-.42,3.33-3.77,3.9-4.87,4.09A7.48,7.48,0,0,1,259,208.5Zm-32.6-31.77c6,6.39,12.09,12.62,18.17,18.53,6.75,6.56,11.45,10.81,15.26,10.17,1.66-.29,2.29-.68,2.4-1.52h0c.62-4.88-12.23-21.51-25.3-26.19A20.06,20.06,0,0,0,226.4,176.73Z"/><path class="cls-1" d="M308,214.79l-.37-4.26c-.59-6.8-1.29-30,14.53-43.28a36.43,36.43,0,0,1,8.35-5.21l3-1.35-.92,3.14a173.86,173.86,0,0,1-22.2,47.41Zm20.65-48.43a33.48,33.48,0,0,0-4.56,3.19c-12.18,10.19-13.81,27-13.69,36.13,2.65-4.21,5.13-8.55,7.39-13A170.88,170.88,0,0,0,328.61,166.36Z"/><path class="cls-1" d="M320.3,223.72l.29-5.4a33.08,33.08,0,0,1,5.25-16.75c9.65-14.52,32-20,55.64-13.61l14.24,3.84L381,190.9a64.78,64.78,0,0,0-57.67,28.35Zm41.93-35.41c-14.88,0-27.49,5.29-33.89,14.92a27.82,27.82,0,0,0-4,9.65,67.76,67.76,0,0,1,42.84-24.38C365.5,188.38,363.85,188.31,362.23,188.31Z"/><path class="cls-1" d="M666.53,182.45l-14.4-14.4,14.4-14.4v8.47h4.73a.3.3,0,0,0,.3-.18.3.3,0,0,0,0-.35L663.17,147l10.29-5.91,8.4,14.61A12.23,12.23,0,0,1,671.26,174h-4.73Zm-10.16-14.4,7.16,7.16V171h7.73a9.21,9.21,0,0,0,8-13.81l-6.89-12-5.09,2.93,6.89,12a3.35,3.35,0,0,1-2.9,5h-7.73V160.9Z"/><path class="cls-1" d="M666.79,143.17l-19.66-5.32,7.34-4.21-3-5.19a.28.28,0,0,0-.3-.17c-.21,0-.25.08-.3.17L642.28,143l-10.22-6,8.62-14.53a12.12,12.12,0,0,1,10.53-6h.06a12.12,12.12,0,0,1,10.52,6.14l3,5.19,7.34-4.22Zm-11.88-6.32,9.77,2.64,2.64-9.77-3.66,2.1L659.19,124a9.15,9.15,0,0,0-7.94-4.64h0a9.15,9.15,0,0,0-8,4.53l-7.09,11.95,5.05,3,7.09-12a3.35,3.35,0,0,1,5.79,0l4.47,7.79Z"/><path class="cls-1" d="M650.56,174h-18.5a12.22,12.22,0,0,1-10.52-18.45l3.17-5.35-7.29-4.31,19.73-5,5.05,19.72-7.28-4.31-3.17,5.34a.36.36,0,0,0,.31.53h18.5Zm-25.37-27,3.63,2.15-4.7,7.93A9.22,9.22,0,0,0,632.06,171h15.5v-5.87h-15.5a3.28,3.28,0,0,1-2.92-1.7,3.25,3.25,0,0,1,0-3.36l4.69-7.92,3.63,2.15-2.51-9.8Z"/><path class="cls-1" d="M646.25,215.06l-2-.3c-8.4-1.28-24.36-5.52-36.88-19.53A59.3,59.3,0,0,1,595.23,174l-.61-1.87,2-.1c4.69-.23,21,0,34.47,12.29A48.36,48.36,0,0,1,646,213.08ZM598.75,175a56.07,56.07,0,0,0,10.88,18.24c11,12.25,24.7,16.64,33.06,18.22A45.2,45.2,0,0,0,629,186.53C617.92,176.38,604.74,175,598.75,175Z"/><rect class="cls-1" x="649.09" y="175.9" width="3" height="75"/><path class="cls-1" d="M440.09,163.5c2.52,12.09,10.56,20.28,19.38,19.89,8.37-.38,15.74-8.43,18.12-19.89Z"/><path class="cls-1" d="M458.84,184.9c-9.35,0-17.61-8.56-20.22-21.1l-.38-1.8h41.19l-.37,1.8c-2.53,12.2-10.38,20.67-19.52,21.08ZM442,165c2.74,10.37,9.74,17.2,17.42,16.89,7.2-.33,13.71-7.18,16.29-16.89Z"/><path class="cls-1" d="M446.09,165a1.5,1.5,0,0,1-1.5-1.5V152.4a1.5,1.5,0,0,1,3,0v11.1A1.5,1.5,0,0,1,446.09,165Z"/><path class="cls-1" d="M471.09,165a1.5,1.5,0,0,1-1.5-1.5V152.3a1.5,1.5,0,0,1,3,0v11.2A1.5,1.5,0,0,1,471.09,165Z"/><path class="cls-1" d="M482.59,162.9h-47.5a1.5,1.5,0,0,1,0-3h47.5a1.5,1.5,0,0,1,0,3Z"/><path class="cls-1" d="M416.93,189c1.93,9.29,8.12,15.59,14.89,15.28,6.44-.29,12.1-6.47,13.92-15.28Z"/><path class="cls-1" d="M431.34,205.75c-7.36,0-13.84-6.69-15.88-16.49l-.38-1.8h32.51l-.38,1.8c-2,9.53-8.13,16.15-15.32,16.48Zm-12.5-15.29C421,198,426.13,203,431.76,202.74c5.26-.24,10.06-5.2,12.07-12.28Z"/><path class="cls-1" d="M421.54,190.46A1.5,1.5,0,0,1,420,189V180.4a1.5,1.5,0,0,1,3,0V189A1.5,1.5,0,0,1,421.54,190.46Z"/><path class="cls-1" d="M440.75,190.46a1.5,1.5,0,0,1-1.5-1.5v-8.6a1.5,1.5,0,0,1,3,0V189A1.5,1.5,0,0,1,440.75,190.46Z"/><path class="cls-1" d="M449.59,188.85h-36.5a1.5,1.5,0,0,1,0-3h36.5a1.5,1.5,0,0,1,0,3Z"/><path class="cls-1" d="M457.72,232.22a5.68,5.68,0,0,1-2.21-.43h0c-4.49-1.86-6-9.58-4.9-15.66,2.81-14.95,22.9-25.18,31.41-28.89l.32-.14,2.49-1.63-.25,3.06c-1.64,19.92-9.31,31.1-15.46,37C466.71,227.79,462.07,232.22,457.72,232.22Zm23.62-41.39c-8.82,4.06-25.42,13.27-27.78,25.85-1,5.27.52,11.27,3.1,12.34h0c3.08,1.27,8.39-3.79,10.39-5.7C474.85,215.88,479.77,204.68,481.34,190.83Z"/><rect class="cls-1" x="457.59" y="183.4" width="3" height="21"/><rect class="cls-1" x="430.59" y="204.4" width="3" height="16"/><path class="cls-1" d="M1037.27,96c2.27,10.88,9.51,18.25,17.44,17.9,7.53-.35,14.16-7.58,16.3-17.9Z"/><path class="cls-1" d="M1054.15,115.38c-8.49,0-16-7.75-18.34-19.1l-.38-1.81h37.42l-.37,1.81c-2.29,11-9.41,18.71-17.7,19.08Zm-15-17.91c2.48,9.16,8.69,15.18,15.47,14.9,6.36-.29,12.13-6.32,14.47-14.9Z"/><path class="cls-1" d="M1042.67,97.47a1.5,1.5,0,0,1-1.5-1.5V86a1.5,1.5,0,0,1,3,0V96A1.5,1.5,0,0,1,1042.67,97.47Z"/><path class="cls-1" d="M1065.16,97.47a1.5,1.5,0,0,1-1.5-1.5V85.9a1.5,1.5,0,0,1,3,0V96A1.5,1.5,0,0,1,1065.16,97.47Z"/><path class="cls-1" d="M1075.51,95.59h-42.73a1.5,1.5,0,0,1,0-3h42.73a1.5,1.5,0,0,1,0,3Z"/><path class="cls-1" d="M1054.09,166.9a1.5,1.5,0,0,1-1.5-1.5v-54a1.5,1.5,0,0,1,3,0v54A1.5,1.5,0,0,1,1054.09,166.9Z"/><path class="cls-1" d="M676.09,202.9a7.5,7.5,0,1,1,7.5-7.5A7.5,7.5,0,0,1,676.09,202.9Zm0-12a4.5,4.5,0,1,0,4.5,4.5A4.51,4.51,0,0,0,676.09,190.9Z"/><path class="cls-1" d="M703.59,197.9a13,13,0,1,1,13-13A13,13,0,0,1,703.59,197.9Zm0-23a10,10,0,1,0,10,10A10,10,0,0,0,703.59,174.9Z"/><path class="cls-1" d="M676.09,221.9a1.5,1.5,0,0,1-1.5-1.5v-18a1.5,1.5,0,1,1,3,0v18A1.5,1.5,0,0,1,676.09,221.9Z"/><path class="cls-1" d="M706.09,222.9a1.5,1.5,0,0,1-.91-2.69,16.68,16.68,0,0,0,6.41-11.89,16.18,16.18,0,0,0-3.66-11,1.5,1.5,0,1,1,2.31-1.91,19.2,19.2,0,0,1,4.34,13A19.42,19.42,0,0,1,707,222.6,1.45,1.45,0,0,1,706.09,222.9Z"/><path class="cls-1" d="M966.65,274c-6.52,0-12.22-2.19-15.29-5.89-6-7.15-1.8-18.86,1.86-29.18,2.37-6.67,4.82-13.56,2.6-15.27-2.53-1.95-9.75,2.71-16.11,6.82-9.3,6-19.83,12.81-27.05,8.5-2.8-1.67-4.92-4.91-5.94-9.13-1.29-5.29-.57-11,1.89-15,4.76-7.68,15.7-8.4,24.48-9,5-.33,10.57-.7,11.1-2.55s-4.7-5.4-9.33-8.41c-7.84-5.08-17.59-11.41-17.76-20.28-.11-5.45,3.45-11.6,9.52-16.45,6.26-5,13.64-7.22,19.26-5.83,9.47,2.35,13.56,13.94,17.17,24.17,2.35,6.68,4.79,13.59,7.89,13.61h0c3.25,0,6-7.14,8.64-14,3.57-9.28,7.61-19.8,15.38-20.69,4.07-.47,8.84,1.73,13.06,6.05s8.33,11.33,7.38,18.35c-1.31,9.77-12.4,15.39-21.3,19.91-4.11,2.08-9.74,4.94-9.43,6.47s7.16,2.19,12.14,2.57c9.86.75,22.13,1.69,26,9.54,1.92,3.9,1.64,9.45-.76,14.84-2.53,5.7-6.75,9.88-11.29,11.17h0c-9.06,2.58-18.54-6.13-26.15-13.12-3-2.75-7.51-6.92-8.62-6.51-.85,1,1.68,7.29,3.35,11.49,4.19,10.53,9.42,23.65,3.37,31.46-3,3.88-8.83,6.28-15.56,6.39Zm-12.36-53.8a5.32,5.32,0,0,1,3.36,1.08c3.94,3,1.5,9.93-1.6,18.65-3.4,9.57-7.24,20.42-2.39,26.26,2.55,3.06,7.69,4.89,13.45,4.8s10.82-2.1,13.24-5.23c5-6.45-.08-19.2-3.79-28.51-3.14-7.87-5.21-13.07-2.24-15.08S981,223.7,986.65,229c6.69,6.15,15.84,14.56,23.3,12.44h0c3.64-1,7.23-4.67,9.37-9.5,2-4.52,2.32-9.23.81-12.29-3.12-6.32-14.44-7.19-23.54-7.88-8.17-.62-14.07-1.07-14.85-5s4.18-6.27,11-9.74c8.28-4.2,18.58-9.42,19.69-17.63.66-4.9-1.91-11.13-6.55-15.86-3.52-3.59-7.47-5.52-10.58-5.16-6,.68-9.66,10.3-12.92,18.78s-6.13,16-11.44,16h0c-5.2,0-7.74-7.25-10.69-15.61-3.36-9.51-7.16-20.3-15.06-22.26-4.74-1.18-11.13.84-16.67,5.27-5.26,4.2-8.48,9.58-8.39,14.05.14,7.27,9.15,13.12,16.39,17.82,6.56,4.26,11.74,7.62,10.58,11.74-1.1,3.89-6.69,4.26-13.78,4.72-8.1.54-18.19,1.2-22.13,7.57-2,3.31-2.64,8.19-1.53,12.73.82,3.38,2.49,6,4.57,7.27,5.62,3.35,15.32-2.92,23.88-8.45C944.42,223.87,950.09,220.2,954.29,220.2Z"/><path class="cls-1" d="M963.9,218.45a10.57,10.57,0,1,1,4.74-20h0a10.57,10.57,0,0,1-4.74,20Zm0-18.13a7.55,7.55,0,1,0,3.37.79h0A7.5,7.5,0,0,0,963.93,200.32Z"/><path class="cls-1" d="M1124.75,203a4.36,4.36,0,0,1-.51,0c-5.65-.79-7.75-13.93-6.72-22.64h0c.11-.9,2.88-22.32,21.16-29.18a32.49,32.49,0,0,1,19.54-.83l3.48.9-3.08,1.84c-6.85,4.08-11.89,9.11-15,15a35.27,35.27,0,0,0-3,8.11,64.88,64.88,0,0,1-4,11.23C1133,195.24,1129.1,203,1124.75,203Zm-4.25-22.31h0c-1.13,9.5,1.77,19,4.16,19.31,1.8.22,4.94-4.43,9.3-13.9a61,61,0,0,0,3.81-10.77,38.23,38.23,0,0,1,3.22-8.72,40.1,40.1,0,0,1,12.93-14.1,28.82,28.82,0,0,0-14.18,1.44C1123.14,160.13,1120.6,179.8,1120.5,180.64Z"/><path class="cls-1" d="M1146.87,203.05a3.64,3.64,0,0,1-1.15-.19c-3.56-1.2-4.68-7.69-3.3-12.7h0c2.38-8.65,12.41-12.4,17.23-14.21,13.21-4.95,26.65-3.7,27.77-3l.64.43,0,1.45-.49.47a1.8,1.8,0,0,1-1.55.39,21.58,21.58,0,0,0-7.62.74c-4.23,1.2-8,3.78-19.51,15.9-1.28,1.35-2.4,2.55-3.39,3.62C1151,200.91,1149,203.05,1146.87,203.05ZM1145.31,191c-1.11,4.06,0,8.61,1.36,9,.81.28,3.27-2.39,6.68-6.07,1-1.07,2.12-2.28,3.41-3.64,7.79-8.24,12.27-12.27,15.77-14.45a54.61,54.61,0,0,0-11.83,2.91c-4.68,1.76-13.41,5-15.39,12.2Z"/><path class="cls-1" d="M751.63,157.15a7.94,7.94,0,0,1-4.77-1.83,9.31,9.31,0,0,1-3.64-6.08c-.57-5.56,5.68-10.33,10.25-13.81.78-.6,1.72-1.31,2.47-1.94-.59.12-1.22.27-1.77.4-4.29,1-10.16,2.39-13.62-.9a9.36,9.36,0,0,1-2.56-6.92,6.53,6.53,0,0,1,2-4.95c2.77-2.33,7.17-.43,11.06,1.25,2,.87,5.4,2.34,6.11,1.7.48-.45-.77-3.59-1.36-5.11-1.55-3.93-3.31-8.38-.92-11.59a8.63,8.63,0,0,1,6.25-3,9.12,9.12,0,0,1,7,2.1c3.22,3.14,1.91,8.56.76,13.35-.54,2.24-1.44,6-.66,6.52s4.17-1.56,6.17-2.84c4.08-2.61,8.71-5.56,12.36-3.43,2.46,1.43,3.92,5,4.35,10.47.22,2.9.39,5-1,6.63-2.7,3.19-8.76,1.57-13.62.27-1-.26-2.14-.57-3.1-.77.53.49,1.15,1,1.67,1.48,3.28,2.84,7.76,6.72,7,11-.38,2.16-2.14,4.29-4.69,5.71a9.42,9.42,0,0,1-7.82,1c-4.45-1.79-5.39-8-6.15-13.06-.17-1.17-.39-2.62-.63-3.6-.51,1.14-1.12,3-1.6,4.53-1.8,5.66-4,12.7-8.81,13.37A4.48,4.48,0,0,1,751.63,157.15Zm6-26.89a2.34,2.34,0,0,1,2.36,1.23c1,2-1.16,3.62-4.71,6.33-3.78,2.88-9.49,7.23-9.09,11.11a6.35,6.35,0,0,0,2.51,4,4.62,4.62,0,0,0,3.23,1.18c2.89-.4,5-7,6.38-11.31,1.52-4.78,2.45-7.68,4.8-7.43s2.66,3.05,3.25,7,1.44,9.58,4.3,10.72c1.33.54,3.39.21,5.24-.81a6,6,0,0,0,3.2-3.62c.46-2.61-3.27-5.85-6-8.21s-4.55-4-3.54-5.78,3.69-1.17,7.7-.1c3.62,1,9.09,2.43,10.56.69.56-.66.49-1.91.3-4.46h0c-.46-5.87-2-7.6-2.87-8.11-2.07-1.21-6,1.33-9.23,3.37-3.78,2.41-7,4.49-9.51,2.77s-1.57-5.41-.54-9.68c1-4,2.07-8.55.07-10.49a6.2,6.2,0,0,0-4.65-1.27,5.72,5.72,0,0,0-4.08,1.79c-1.4,1.87,0,5.5,1.3,8.7,1.33,3.38,2.59,6.57.6,8.41s-5.63.45-9.33-1.15c-2.93-1.26-6.59-2.85-7.94-1.7a3.84,3.84,0,0,0-1,2.74,6.36,6.36,0,0,0,1.63,4.66c2.28,2.16,7.24,1,10.86.15A20.63,20.63,0,0,1,757.64,130.26Z"/><circle class="cls-1" cx="763.79" cy="131.22" r="1.9"/><path class="cls-1" d="M763.79,134.62a3.4,3.4,0,1,1,2.65-5.54h0a3.41,3.41,0,0,1-2.65,5.54Zm0-3.8a.37.37,0,0,0-.25.08.41.41,0,0,0-.15.28.37.37,0,0,0,.09.29.4.4,0,0,0,.71-.21.36.36,0,0,0-.09-.29h0a.42.42,0,0,0-.27-.14Z"/><path class="cls-1" d="M802.2,169.93a5.57,5.57,0,0,1-1.53-.23,5.51,5.51,0,0,1-3.34-2.56c-1.13-2.15-.29-4.8.87-7.14a8.67,8.67,0,0,1-1.31.37c-.78.16-4.74.83-6.44-1.72a4.71,4.71,0,0,1,.09-5.16c1.54-2.14,4.53-2,6.7-1.9.44,0,1,0,1.48,0-.3-.37-.73-.82-1.05-1.16-1.54-1.63-3.46-3.66-2.83-6a5.1,5.1,0,0,1,2.79-3.09A5.38,5.38,0,0,1,802,141c2.63,1.08,3.19,4.53,3.64,7.31l.09.51a6.77,6.77,0,0,1,3.32-3.28,7.66,7.66,0,0,1,8.79,2.72h0c.41.62,1.52,2.29.92,4.07-.8,2.39-3.91,2.74-6.66,3.05l-.62.07c.34.18.7.35,1,.5,2.73,1.32,5.82,2.83,5.73,5.37a4,4,0,0,1-1.56,2.79,6.79,6.79,0,0,1-5,1.54c-2.5-.35-4.15-2.4-5.33-4.29.21,3.11.31,6.72-2.06,8.09A4.09,4.09,0,0,1,802.2,169.93Zm1.12-13a18.27,18.27,0,0,1-1,1.72c-1.13,1.9-3.23,5.44-2.38,7.06a2.52,2.52,0,0,0,1.52,1.08,1.73,1.73,0,0,0,1.19,0c.91-.52.64-4.31.52-5.92A11.26,11.26,0,0,1,803.32,157Zm1.85-1.35c1.26,0,2,1.36,2.83,2.78,1,1.71,2.29,4,4,4.28,1.48.2,3.09-1,3.17-1.48-.17-.67-2.88-2-4-2.56-2.5-1.21-4.47-2.17-4.08-4s2.36-1.95,4.68-2.21c1-.11,4-.45,4.15-1,.08-.26-.11-.75-.58-1.47h0a4.6,4.6,0,0,0-5.14-1.61,5,5,0,0,0-2.24,2.75c-.5,1-1.21,2.46-2.72,2.31-1.84-.19-2.17-2.22-2.56-4.58-.29-1.82-.74-4.57-1.82-5A2.5,2.5,0,0,0,799,144a2.31,2.31,0,0,0-1.22,1.17c-.2.76,1.19,2.23,2.11,3.21,1.39,1.47,2.84,3,2,4.7s-2.8,1.57-4.76,1.48c-1.58-.07-3.54-.16-4.14.67a1.73,1.73,0,0,0,0,1.73c.46.69,2.24.68,3.35.45a8.23,8.23,0,0,0,3.85-2.24c.63-.57,1.69-1.52,2.82-.69a1.65,1.65,0,0,1,.48,2.15,1.77,1.77,0,0,1,1.17-1A1.92,1.92,0,0,1,805.17,155.61Z"/><path class="cls-1" d="M804.33,156.75a2.47,2.47,0,1,1,2.17-1.26A2.47,2.47,0,0,1,804.33,156.75Zm0-3a.54.54,0,0,0-.46.27.56.56,0,0,0,0,.4.52.52,0,0,0,.25.31.51.51,0,0,0,.4.05.57.57,0,0,0,.32-.25.53.53,0,0,0,0-.39.54.54,0,0,0-.25-.32A.45.45,0,0,0,804.34,153.75Z"/><path class="cls-1" d="M768.29,187.65a68.8,68.8,0,0,1-7.16-51.11l2.91.73a65.77,65.77,0,0,0,6.85,48.89Z"/><rect class="cls-1" x="797.55" y="170.9" width="7.07" height="3" transform="translate(517.27 941.11) rotate(-81.88)"/><path class="cls-1" d="M782.09,168.4a6,6,0,1,1,6-6A6,6,0,0,1,782.09,168.4Zm0-9a3,3,0,1,0,3,3A3,3,0,0,0,782.09,159.4Z"/><rect class="cls-1" x="781.09" y="166.9" width="3" height="7"/><path class="cls-1" d="M599.91,227.25c-4.33,0-11-5.95-11.84-6.74-10.57-9.68-12.43-22.64-14.39-36.36l-.08-.53c-3.42-23.86-6.4-41.94-8.18-52.74-2.08-12.65-2.08-12.65-1.55-13.37l.39-.51.64-.08c1.51-.19,1.69.82,2.23,3.83.12.7.27,1.51.43,2.38h0c6.24,33.16,26.05,76.81,26.89,78.65q1.38,3,2.63,5.69c5.2,11.2,7.82,16.82,4.94,19.11A3.29,3.29,0,0,1,599.91,227.25ZM571.72,151c1.43,9,3.08,19.84,4.85,32.18l.08.54c1.88,13.17,3.67,25.61,13.45,34.57,4.52,4.14,9.15,6.42,10.06,5.92.81-1.27-2.7-8.82-5.8-15.49-.83-1.79-1.72-3.69-2.64-5.7A518,518,0,0,1,571.72,151Z"/><path class="cls-1" d="M592.65,229.52c-3,0-6.83-1.63-7.85-2.08-9.22-4.11-13.51-12.66-17.66-20.93l-.17-.33c-7.47-14.91-13.4-26.12-16.94-32.82-4.23-8-4.23-8-4-8.8l.2-.61.58-.28c1.35-.65,1.91.38,2.92,2.23.23.43.5.92.8,1.45C561.91,187.73,584.45,212,585.4,213l3,3.14c6.24,6.59,9.09,9.6,7.5,12A3.58,3.58,0,0,1,592.65,229.52Zm.62-2.73h0Zm-31.25-37c2.3,4.47,4.86,9.49,7.63,15l.17.34c4.09,8.15,8,15.86,16.2,19.53,3.21,1.43,6.16,2,7.18,1.81-.51-1.42-4-5.06-7-8.29l-3-3.17C582.56,214.36,572.25,203.26,562,189.81Z"/><path class="cls-1" d="M1030.74,207.76a3.75,3.75,0,0,1-1.31-.22c-1.61-.58-2.53-2.14-3.11-3.82a1.09,1.09,0,0,1-.13.17c-.37.52-2.36,3.06-4.82,2.45a3.85,3.85,0,0,1-2.84-3.22c-.25-2.16,1.55-3.67,2.87-4.77l.18-.16-.3,0c-1.68-.12-4-.29-4.92-2.11a4.18,4.18,0,0,1,0-3.42,4.34,4.34,0,0,1,2.44-2.6c2-.74,4,.65,5.59,1.87a4.89,4.89,0,0,1,.39-2.73,6,6,0,0,1,6.66-3.15h0a3.94,3.94,0,0,1,2.83,2c.75,1.7-.45,3.4-1.67,4.84,2.18-.64,4.54-1.22,5.85.31a3.32,3.32,0,0,1,.64,2.63,5.41,5.41,0,0,1-2.16,3.65,5.48,5.48,0,0,1-4.12.68c1.44,1.48,2.67,3.18,2.1,5a3.72,3.72,0,0,1-2,2.15A4.79,4.79,0,0,1,1030.74,207.76Zm-2.25-7.6c.3,1.43.93,4.19,2,4.56a1.66,1.66,0,0,0,1.57-.54c0-.63-1.89-2.45-2.61-3.14Zm-3.83-.75a11.31,11.31,0,0,1-1.34,1.24c-.7.59-1.88,1.57-1.81,2.13a.94.94,0,0,0,.57.65c.34.07,1.16-.57,1.68-1.3A5.43,5.43,0,0,0,1024.66,199.41Zm-4.71-6.58-.16,0a1.57,1.57,0,0,0-.67.87,1.42,1.42,0,0,0-.1.95c.17.34,1.85.46,2.48.51,1.56.11,3.34.24,3.83,1.84,0,.1.05.2.07.29a1.57,1.57,0,0,1,.84-.33,1.48,1.48,0,0,1,1.1.26,1.58,1.58,0,0,1,.13-.26,1.68,1.68,0,0,1,1.34-.84,1.89,1.89,0,0,1-.55-.6c-.82-1.37.31-2.66,1.51-4a9.94,9.94,0,0,0,1.67-2.29,2.33,2.33,0,0,0-.76-.28h0a3.09,3.09,0,0,0-3.22,1.5,3.5,3.5,0,0,0,.17,2.39c.26.88.66,2.22-.47,3.06-1.35,1-2.8-.14-4.19-1.25C1022.2,194,1020.67,192.83,1020,192.83Zm10.71,3.62.49.15c1.24.4,3.12,1,4,.39a2.44,2.44,0,0,0,.9-1.79,13.23,13.23,0,0,0-3.1.67A17.17,17.17,0,0,1,1030.66,196.45Zm5.41-1.41Z"/><path class="cls-1" d="M1026.92,198.77a2.24,2.24,0,0,1-1.17-.34,2.19,2.19,0,0,1-1-1.39,2.24,2.24,0,0,1,1.66-2.68h0a2.23,2.23,0,1,1,1,4.35A2.22,2.22,0,0,1,1026.92,198.77Zm0-3a.47.47,0,0,0-.17,0,.77.77,0,0,0-.57.92.76.76,0,0,0,.92.57l-.34-1.46.34,1.46a.76.76,0,0,0,.57-.92.79.79,0,0,0-.34-.48A.84.84,0,0,0,1026.92,195.77Z"/><path class="cls-1" d="M509.22,207.88a3.87,3.87,0,0,1-3-1.42c-1.35-1.71-.61-3.94-.06-5.57l.07-.22-.26.13c-1.5.78-3.54,1.84-5.3.79a4.16,4.16,0,0,1-1.83-2.89,4.35,4.35,0,0,1,.71-3.5c1.31-1.66,3.75-1.55,5.74-1.33a5.07,5.07,0,0,1-1.11-2.54,6,6,0,0,1,4-6.17h0a3.94,3.94,0,0,1,3.45.21c1.54,1,1.41,3.13,1.12,5,1.52-1.69,3.22-3.43,5.15-2.8a3.34,3.34,0,0,1,1.92,1.9,5.39,5.39,0,0,1,.07,4.24,5.45,5.45,0,0,1-3.14,2.74c2,.5,3.94,1.3,4.39,3.12a3.79,3.79,0,0,1-.58,2.89,4.49,4.49,0,0,1-2.77,2c-1.68.36-3.28-.49-4.66-1.62,0,.07,0,.14,0,.22-.07.89-.48,3.85-2.82,4.61A3.46,3.46,0,0,1,509.22,207.88Zm.26-7.8a11,11,0,0,1-.49,1.76c-.29.87-.77,2.33-.43,2.77a.94.94,0,0,0,.83.25c.32-.1.69-1.07.76-2A5.51,5.51,0,0,0,509.48,200.08Zm3.65-1.37c1,1.06,3,3.07,4.06,2.86a1.67,1.67,0,0,0,1-1.28c-.29-.56-2.89-1.1-3.87-1.31C513.94,198.89,513.52,198.81,513.13,198.71Zm-9.83-2a2.06,2.06,0,0,0-1.41.32,1.62,1.62,0,0,0-.11,1.09,1.38,1.38,0,0,0,.41.86c.34.2,1.82-.57,2.38-.87,1.39-.72,3-1.54,4.23-.44l.21.21a1.68,1.68,0,0,1,1.61-1.08,2.64,2.64,0,0,1,0-.29,1.67,1.67,0,0,1,.7-1.41,2,2,0,0,1-.79-.23c-1.41-.74-1.13-2.43-.83-4.22a9.58,9.58,0,0,0,.22-2.83,2.42,2.42,0,0,0-.79.17,3.08,3.08,0,0,0-2,3,3.5,3.5,0,0,0,1.4,1.94c.69.62,1.73,1.54,1.21,2.86-.62,1.56-2.45,1.34-4.22,1.14A19.55,19.55,0,0,0,503.3,196.74ZM517,190.5a13.75,13.75,0,0,0-2.29,2.2,17.11,17.11,0,0,1-1.67,1.71l.49-.12c1.27-.31,3.19-.78,3.64-1.79A2.45,2.45,0,0,0,517,190.5Zm-.1-.12Z"/><path class="cls-1" d="M509.9,198.68h0a2.18,2.18,0,0,1-1.57-.66,2.23,2.23,0,0,1,0-3.15h0a2.23,2.23,0,0,1,1.58-.65h0a2.18,2.18,0,0,1,1.58.66,2.21,2.21,0,0,1,.65,1.57,2.18,2.18,0,0,1-.66,1.58A2.21,2.21,0,0,1,509.9,198.68Zm-.54-2.78h0a.75.75,0,0,0,0,1.08.73.73,0,0,0,.54.23h0a.74.74,0,0,0,.54-.23h0a.78.78,0,0,0,.23-.54.79.79,0,0,0-.77-.77h0a.77.77,0,0,0-.54.22l0,0Z"/><path class="cls-1" d="M392.72,204.69a3.88,3.88,0,0,1-3.43-2.17c-.92-2,.32-4,1.22-5.43l.12-.21-.29.08c-1.63.41-3.86,1-5.34-.45a4.18,4.18,0,0,1-1.11-3.24,4.37,4.37,0,0,1,1.49-3.24c1.66-1.31,4-.65,5.9,0a5,5,0,0,1-.5-2.72,6,6,0,0,1,5.33-5.09h0a3.94,3.94,0,0,1,3.31,1c1.26,1.38.65,3.37-.05,5.13,1.86-1.3,3.92-2.6,5.65-1.55a3.33,3.33,0,0,1,1.43,2.29,5.37,5.37,0,0,1-.89,4.14,5.49,5.49,0,0,1-3.7,1.95c1.84,1,3.54,2.17,3.56,4a3.76,3.76,0,0,1-1.22,2.68,4.62,4.62,0,0,1-3.17,1.36c-1.71-.05-3.08-1.24-4.16-2.65l-.06.21c-.19.6-1.28,3.63-3.81,3.84Zm1.22-7.63a12,12,0,0,1-.88,1.61c-.48.77-1.29,2.08-1.05,2.59a.94.94,0,0,0,.75.43c.33,0,.91-.88,1.19-1.76A5.44,5.44,0,0,0,393.94,197.06Zm3.87-.5c.74,1.27,2.2,3.69,3.29,3.72h0a1.66,1.66,0,0,0,1.3-1c-.16-.61-2.57-1.73-3.47-2.15C398.55,196.93,398.16,196.75,397.81,196.56Zm-6-2.9a2.25,2.25,0,0,1,2,.93c.06.08.11.17.16.25a1.67,1.67,0,0,1,1.81-.68,2.74,2.74,0,0,1,0-.28,1.66,1.66,0,0,1,1-1.22,2.15,2.15,0,0,1-.72-.4c-1.2-1-.54-2.63.16-4.31a10.13,10.13,0,0,0,.87-2.7,3.31,3.31,0,0,0-.82,0,3.1,3.1,0,0,0-2.58,2.44,3.52,3.52,0,0,0,.92,2.21c.53.76,1.33,1.9.52,3.06-1,1.37-2.7.74-4.37.14-1-.36-3.06-1.11-3.58-.7a1.59,1.59,0,0,0-.37,1,1.44,1.44,0,0,0,.21.94c.27.27,1.9-.14,2.51-.3A9.49,9.49,0,0,1,391.85,193.66Zm11.61-4.2a13.08,13.08,0,0,0-2.74,1.62,15.48,15.48,0,0,1-2,1.28h.51c1.31,0,3.28,0,4-.91A2.45,2.45,0,0,0,403.46,189.46Zm-.08-.14Z"/><path class="cls-1" d="M395.18,195.86a2.37,2.37,0,0,1-.52-.06,2.24,2.24,0,1,1,2.69-1.66,2.2,2.2,0,0,1-1,1.38A2.24,2.24,0,0,1,395.18,195.86Zm0-3a.8.8,0,0,0-.4.11.77.77,0,0,0-.35.48.75.75,0,0,0,.1.58.77.77,0,1,0,1.3-.81.74.74,0,0,0-.47-.34A.55.55,0,0,0,395.18,192.86Z"/><path class="cls-1" d="M854.09,153.9a10.5,10.5,0,1,1,10.5-10.5A10.51,10.51,0,0,1,854.09,153.9Zm0-18a7.5,7.5,0,1,0,7.5,7.5A7.51,7.51,0,0,0,854.09,135.9Z"/><path class="cls-1" d="M873.59,166.9a7,7,0,1,1,7-7A7,7,0,0,1,873.59,166.9Zm0-11a4,4,0,1,0,4,4A4,4,0,0,0,873.59,155.9Z"/><rect class="cls-1" x="852.59" y="152.4" width="3" height="23"/><rect class="cls-1" x="872.59" y="165.4" width="3" height="19"/><path class="cls-1" d="M765.07,181.56c-4.77,0-14.33-3.39-21.76-7.87a58.09,58.09,0,0,1-14.37-12.32l-2.32-2.75,3.59.29c12.19,1,22.56,4.79,30.81,11.32,7.39,5.85,8.3,8.18,7.39,9.88h0a2.63,2.63,0,0,1-1.72,1.26A5.85,5.85,0,0,1,765.07,181.56Zm-31.23-19.24a54.3,54.3,0,0,0,11,8.8c8.5,5.13,17.92,7.74,20.6,7.46-.46-.76-1.89-2.51-6.3-6C752.26,167.12,743.76,163.68,733.84,162.32Z"/><path class="cls-1" d="M1053.74,171a1.67,1.67,0,0,1-1-.44h0a1.71,1.71,0,0,1-.63-1.24c-.16-2.52,8.64-16.79,20.61-28.91A123.25,123.25,0,0,1,1109,115.13l11.86-5.47-10.31,8a360.11,360.11,0,0,0-30.86,27c-8.23,8.06-14.52,15-18.68,19.58C1056.39,169.27,1054.86,171,1053.74,171Zm42.65-45.66a117.72,117.72,0,0,0-21.55,17.18,130,130,0,0,0-15.46,19c4.18-4.61,10.29-11.29,18.17-19C1083.62,136.56,1089.93,130.8,1096.39,125.3Z"/><path class="cls-1" d="M1052.52,172.49a1.47,1.47,0,0,1-1-.52h0a1.65,1.65,0,0,1-.43-1.44c.37-2.25,10.1-15.86,26.42-24a65.65,65.65,0,0,1,21.35-6.39l13-1.59-12.27,4.49a125.66,125.66,0,0,0-25.93,13,127.27,127.27,0,0,0-17.63,14C1054.32,171.59,1053.35,172.49,1052.52,172.49Zm27.92-24c-.55.25-1.09.52-1.63.79a65.72,65.72,0,0,0-13.43,8.94c2-1.48,4.15-3,6.56-4.61Q1076.08,150.85,1080.44,148.45Z"/><g id="Layer_10" data-name="Layer 10"><path class="cls-1" d="M484.62,118.53h-1.76V116h1.49v.49a9.15,9.15,0,0,0,.15,1.42Zm18.24-7h-1.64l-.05-.44a14.85,14.85,0,0,1-.11-1.54V109h1.81Zm-17.38,0h-1.62V109h1.8v.52a15,15,0,0,1-.12,1.54Z"/><path class="cls-2" d="M518.86,81.58v-.3a25.5,25.5,0,1,0-51,0v.3A19.65,19.65,0,0,0,469,88.9c1.64,4.38,4.46,6.7,7,8.75,2,1.63,3.85,3.17,5,5.61,1.58,3.28,1.55,7.5-.08,12.56l-.07.23v.23a12.5,12.5,0,0,0,25,0v-.23l-.08-.23c-1.63-5.06-1.66-9.28-.07-12.56,1.18-2.44,3.05-4,5-5.61,2.49-2.05,5.32-4.37,7-8.75A19.8,19.8,0,0,0,518.86,81.58Zm-4,6.27c-1.35,3.63-3.63,5.5-6,7.48h0c-.78.64-1.57,1.29-2.32,2A15.27,15.27,0,0,0,503,102a15.6,15.6,0,0,0-1.45,7.57h.8V111h-.69a28.3,28.3,0,0,0,1.18,5.48v0h1.51V118h-1.67A9.5,9.5,0,0,1,484,118h-.66v-1.5h.5v0A27.57,27.57,0,0,0,485,111h-.68v-1.5h.79a14.81,14.81,0,0,0-5-12.28c-.73-.68-1.49-1.31-2.24-1.92l-.24-.2c-2.32-1.91-4.5-3.77-5.8-7.28a16.75,16.75,0,0,1-1-6.25v-.32a22.5,22.5,0,1,1,45,0v.32A16.54,16.54,0,0,1,514.88,87.85Z"/><path class="cls-1" d="M508.82,95.34c-.78.64-1.57,1.29-2.32,2a82.06,82.06,0,0,1-12.91,1,79.89,79.89,0,0,1-13.48-1.08c-.73-.68-1.49-1.31-2.24-1.92l-.24-.2c2.83.87,8.25,1.7,16,1.7A64,64,0,0,0,508.82,95.34Z"/><path class="cls-1" d="M493.59,98.83A81,81,0,0,1,480,97.75l-.14,0-.1-.1c-.68-.63-1.38-1.22-2.22-1.9l-.25-.21L475.51,94l2.26.7c3.42,1,9.33,1.67,15.82,1.67,8.54,0,13.41-1,15.1-1.47l2.21-.58-1.77,1.45c-.72.59-1.53,1.26-2.29,2l-.11.1-.15,0A84.34,84.34,0,0,1,493.59,98.83Zm-13.25-2a80.21,80.21,0,0,0,13.25,1,82.31,82.31,0,0,0,12.67-.94l.67-.61a74.52,74.52,0,0,1-13.34,1,69.42,69.42,0,0,1-14-1.17C479.87,96.36,480.11,96.57,480.34,96.79Z"/><path class="cls-1" d="M493.36,126.28a10,10,0,0,1-9.83-8.15l-.11-.6h19.87l-.11.6A10,10,0,0,1,493.36,126.28Zm-8.72-7.75a9,9,0,0,0,17.42,0Z"/><path class="cls-1" d="M503.35,117h-20l0-.67a27.39,27.39,0,0,0,1.16-5.38l0-.45h17.53l0,.45a29.28,29.28,0,0,0,1.16,5.39l0,.16Zm-18.82-1h17.65a29.11,29.11,0,0,1-1-4.5H485.48A28.74,28.74,0,0,1,484.53,116Z"/><path class="cls-1" d="M502.08,110H484.62l0-.52a14.31,14.31,0,0,0-4.88-11.89l-1.28-1.18,1.71.32a79.69,79.69,0,0,0,13.39,1.07,81.83,81.83,0,0,0,12.82-1l1.66-.29-1.23,1.15a14.64,14.64,0,0,0-3.38,4.46,15.06,15.06,0,0,0-1.4,7.33Zm-16.42-1H501a16,16,0,0,1,1.52-7.28,14.6,14.6,0,0,1,2.5-3.66,87.93,87.93,0,0,1-11.47.74,86.81,86.81,0,0,1-12-.82,15.23,15.23,0,0,1,2.59,3.74A16,16,0,0,1,485.66,109Z"/><path class="cls-1" d="M493.59,97.33c-9.48,0-14.42-1.2-16.11-1.72l-.17-.09c-2.14-1.76-4.57-3.76-5.95-7.49a17.36,17.36,0,0,1-1-6.43v-.33a23,23,0,0,1,46,0v.32a16.91,16.91,0,0,1-1,6.43c-1.39,3.75-3.72,5.66-6.18,7.69l-.14.11h-.11A66.31,66.31,0,0,1,493.59,97.33Zm-15.72-2.64c3.43,1,9.29,1.64,15.72,1.64,8.41,0,13.25-1,15-1.45,2.36-1.94,4.52-3.77,5.8-7.2h0a16.23,16.23,0,0,0,1-6.07v-.33a22,22,0,1,0-44,0v.34a16.1,16.1,0,0,0,.95,6.06C473.57,91.12,475.75,92.94,477.87,94.69Z"/><path class="cls-1" d="M501.67,111H485c.06-.51.1-1,.11-1.5h16.41C501.57,110,501.61,110.52,501.67,111Z"/><path class="cls-1" d="M502.23,111.53H484.47l.07-.55c.06-.54.1-1,.11-1.46V109h17.39v.49c0,.45,0,.92.1,1.46Zm-16.64-1h15.52c0-.17,0-.33,0-.5H485.63C485.62,110.2,485.61,110.36,485.59,110.53Z"/><path class="cls-1" d="M485.48,111.53h-1.62V109h1.8v.52a15,15,0,0,1-.12,1.54Z"/><path class="cls-1" d="M502.86,111.53h-1.64l-.05-.44a14.85,14.85,0,0,1-.11-1.54V109h1.81Z"/><path class="cls-1" d="M502.85,116.53a9.3,9.3,0,0,1-.16,1.5H484a9.3,9.3,0,0,1-.16-1.5Z"/><path class="cls-1" d="M503.1,118.53H483.6l-.07-.4a9.07,9.07,0,0,1-.17-1.59V116h20v.51a10.14,10.14,0,0,1-.17,1.58Zm-18.66-1h17.82a4.26,4.26,0,0,0,.06-.5H484.38Z"/><path class="cls-1" d="M484.62,118.53h-1.76V116h1.49v.49a9.15,9.15,0,0,0,.15,1.42Z"/><path class="cls-1" d="M504.36,116.53V118h-1.67a9.3,9.3,0,0,0,.16-1.5Z"/><path class="cls-1" d="M504.86,118.53h-2.77l.1-.59a8.23,8.23,0,0,0,.16-1.42V116h2.5Zm-1.59-1h.59V117h-.54C503.31,117.2,503.29,117.36,503.27,117.53Z"/><path class="cls-1" d="M493.59,98.83A81,81,0,0,1,480,97.75c-4.49-.87-6.67-2.13-6.67-3.85v-.5h2.42l.07.42s.28.34,1.94.84c3.42,1,9.33,1.67,15.82,1.67,8.34,0,13.17-1,15-1.44h0l.14,0c1.94-.5,2.57-.95,2.65-1.08l.07-.42.41.05h2v.5c0,1.8-2.38,3.09-7.26,3.95A84.34,84.34,0,0,1,493.59,98.83Zm-19.1-4.43c.54.91,2.56,1.76,5.71,2.36a79.69,79.69,0,0,0,13.39,1.07,81.83,81.83,0,0,0,12.82-1c3.49-.61,5.71-1.49,6.28-2.46h-.55c-.28.35-1,.84-3,1.38l-.05,0h-.17a66.18,66.18,0,0,1-15.3,1.49c-9.48,0-14.42-1.2-16.11-1.72A4.9,4.9,0,0,1,475,94.4Z"/><path class="cls-1" d="M536.13,148.29h-2.25l.11-.59a6.16,6.16,0,0,0,.1-.94v-.5h2Zm-1.07-1,.07,0h-.07Zm-12.8,1h-1.55v-2H522l0,.49a5.2,5.2,0,0,0,.1.95Zm12.5-4.8h-1.43l-.05-.44a10.3,10.3,0,0,1-.07-1.09v-.5h1.55Zm-12,0h-1.41v-2h1.54v.5a8.23,8.23,0,0,1-.08,1.09Zm12.76-9.11,1.19-1.15c.48-.46,1-.88,1.49-1.29l.27-.23h.1a4.4,4.4,0,0,0,1.68-.65l.06-.34h1.95v.5c0,1.32-1.68,2.26-5.12,2.87Zm3.4-1.72h0l.4-.12Zm-18.4,1.68-1.69-.32c-3.16-.61-4.7-1.52-4.7-2.8v-.5h2l.06.34a3.74,3.74,0,0,0,1.23.54l.33.22c.51.4,1,.85,1.57,1.34Zm-3.68-1.86.16.05h0Z"/><path class="cls-2" d="M545.59,122.76v-.21a17.52,17.52,0,0,0-35,0v.21a12.64,12.64,0,0,0,5.58,11,11.65,11.65,0,0,1,3.46,3.85c1.09,2.25,1.07,5.15-.05,8.63l0,.15v.16a8.59,8.59,0,1,0,17.17,0v-.16l-.06-.15c-1.11-3.48-1.14-6.38,0-8.63A11.52,11.52,0,0,1,540,133.8a13.66,13.66,0,0,0,4.78-6A13.51,13.51,0,0,0,545.59,122.76Zm-2.06,0a11.46,11.46,0,0,1-.68,4.3c-.92,2.49-2.49,3.77-4.14,5.13,1.32-.34,2-.7,2.06-1h1c0,1.15-2,1.9-4.7,2.37a10.51,10.51,0,0,0-2.4,3.17,10.65,10.65,0,0,0-1,5.2h.55v1h-.48a20.21,20.21,0,0,0,.81,3.76h1v1h-1.15a6.52,6.52,0,0,1-12.82,0h-.45v-1h.34a18.72,18.72,0,0,0,.81-3.76h-.47v-1h.54a10.13,10.13,0,0,0-3.46-8.44c-2.46-.47-4.3-1.2-4.3-2.3h1c0,.24.57.54,1.57.85a11.3,11.3,0,0,1-4-5,11.68,11.68,0,0,1-.68-4.3v-.22a15.46,15.46,0,0,1,30.91,0Z"/><path class="cls-1" d="M528.07,153.62a7,7,0,0,1-6.91-5.73l-.1-.6h14l-.11.6A7,7,0,0,1,528.07,153.62Zm-5.78-5.33a6,6,0,0,0,11.55,0Z"/><path class="cls-1" d="M535.09,147.26h-14l0-.66a18,18,0,0,0,.79-3.66l0-.45h12.32l0,.45a20.73,20.73,0,0,0,.79,3.67l0,.15Zm-12.87-1h11.7a21.5,21.5,0,0,1-.59-2.77H522.8A18.52,18.52,0,0,1,522.22,146.26Z"/><path class="cls-1" d="M534.23,142.46H521.9l0-.52a9.63,9.63,0,0,0-3.3-8.05l-1.28-1.18,1.71.32a54.89,54.89,0,0,0,9.17.73,56.19,56.19,0,0,0,8.78-.66l1.65-.29L537.44,134a9.91,9.91,0,0,0-2.29,3,10.13,10.13,0,0,0-.94,5Zm-11.29-1h10.25a10.91,10.91,0,0,1,1.06-4.91,9.94,9.94,0,0,1,1.47-2.24,62.21,62.21,0,0,1-15.34-.05,10.72,10.72,0,0,1,1.52,2.29A11.23,11.23,0,0,1,522.94,141.46Z"/><path class="cls-1" d="M528.23,133.73c-6.52,0-9.94-.82-11.11-1.18l-.17-.09a11.74,11.74,0,0,1-4.13-5.21,12.15,12.15,0,0,1-.71-4.44v-.28a16,16,0,0,1,31.91,0v.22a11.94,11.94,0,0,1-.72,4.48c-.95,2.6-2.55,3.91-4.25,5.31l-.14.11-.11,0h0A45.1,45.1,0,0,1,528.23,133.73Zm-10.72-2.11a53.12,53.12,0,0,0,21,.13,11,11,0,0,0,3.91-4.85,10.83,10.83,0,0,0,.65-4.05v-.3a15,15,0,0,0-29.91,0v.25a11.22,11.22,0,0,0,.65,4.1A10.6,10.6,0,0,0,517.51,131.62Z"/><path class="cls-1" d="M533.78,143H522.36a9.22,9.22,0,0,0,.07-1h11.28A9.22,9.22,0,0,0,533.78,143Z"/><path class="cls-1" d="M534.34,143.49H521.8l.06-.55a8.22,8.22,0,0,0,.07-1v-.5h12.28v.5c0,.32,0,.65.06,1Zm-11.43-1h10.32v0H522.91Z"/><path class="cls-1" d="M522.8,143.49h-1.41v-2h1.54v.5a8.23,8.23,0,0,1-.08,1.09Z"/><path class="cls-1" d="M534.76,143.49h-1.43l-.05-.44a10.3,10.3,0,0,1-.07-1.09v-.5h1.55Z"/><path class="cls-1" d="M534.59,146.76a5.8,5.8,0,0,1-.11,1H521.66a6.91,6.91,0,0,1-.11-1Z"/><path class="cls-1" d="M534.89,148.29H521.24l-.08-.41a8.36,8.36,0,0,1-.11-1.1l0-.52h14.06v.5a6.74,6.74,0,0,1-.12,1.12Zm-12.8-1h12v0h-12Z"/><path class="cls-1" d="M522.26,148.29h-1.55v-2H522l0,.49a5.2,5.2,0,0,0,.1.95Z"/><path class="cls-1" d="M536.13,148.29h-2.25l.11-.59a6.16,6.16,0,0,0,.1-.94v-.5h2Zm-1.07-1,.07,0h-.07Z"/><path class="cls-1" d="M538.69,132.21c-.53.44-1.08.89-1.59,1.38a56.58,56.58,0,0,1-8.87.67,54.52,54.52,0,0,1-9.26-.74c-.5-.47-1-.9-1.54-1.32l-.16-.13a41.17,41.17,0,0,0,11,1.16A43.67,43.67,0,0,0,538.69,132.21Z"/><path class="cls-1" d="M528.23,134.76a56.49,56.49,0,0,1-9.36-.74l-.14,0-.11-.1c-.49-.47-1-.9-1.51-1.3l-2.1-1.68,2.4.69a53.08,53.08,0,0,0,21.15.13l2.19-.58-1.87,1.56c-.48.4-1,.81-1.44,1.25l-.11.1-.15,0A57.55,57.55,0,0,1,528.23,134.76Zm-9-1.7a56,56,0,0,0,9,.7,57.25,57.25,0,0,0,8.63-.63l0,0a53.89,53.89,0,0,1-8.65.62,50.57,50.57,0,0,1-9.05-.69Z"/><path class="cls-1" d="M520.56,134.34l-1.69-.32c-3.16-.61-4.7-1.52-4.7-2.8v-.5h2l.06.34a3.74,3.74,0,0,0,1.23.54l.33.22c.51.4,1,.85,1.57,1.34Zm-3.68-1.86.16.05h0Z"/><path class="cls-1" d="M535.56,134.38l1.19-1.15c.48-.46,1-.88,1.49-1.29l.27-.23h.1a4.4,4.4,0,0,0,1.68-.65l.06-.34h1.95v.5c0,1.32-1.68,2.26-5.12,2.87Zm3.4-1.72h0l.4-.12Z"/><rect class="cls-1" x="492.09" y="125.9" width="3" height="100"/><rect class="cls-1" x="526.09" y="154.9" width="3" height="65"/></g></g><g id="G"><path class="cls-1" d="M214.43,224c-.62-1-1.23-2-1.84-3.08-.43.29-.86.6-1.3.95l-.31.26-90.29,52.13a1.58,1.58,0,0,1-2.14-.57L85.41,216.26a1.56,1.56,0,0,1,.57-2.14l47.25-27-1-.49a2.17,2.17,0,0,1-.53-.14l-2.42-1.11h0l-.3-.14L84,210.66a5.57,5.57,0,0,0-2,7.6l33.15,57.41a5.57,5.57,0,0,0,4.82,2.78,5.51,5.51,0,0,0,2.78-.75L213,225.57a5.36,5.36,0,0,0,1.64-1.5Z"/><path class="cls-1" d="M153.61,365.55c-.54-.65-.85-1.23-.55-2,.58-.86,2.67-1.57,3.07-2.35.87-4.51-1.88-8.95-4.62-12.28-3.1-3.83-7.84-5.33-12.45-6.29-.33-.31-.26-1.61-.56-1.78a11.77,11.77,0,0,0-6.37-3,2.07,2.07,0,0,1-.57-.14c-2.61,13.79,6.78,26.17,22.11,33,1,.47,2.06.88,3.11,1.25-.58-1.16-.92-2.49-1.48-3.53A10.46,10.46,0,0,0,153.61,365.55Z"/><path class="cls-1" d="M157.79,372.84l-1.17-.41c-1.07-.37-2.14-.8-3.16-1.26-16.35-7.24-24.93-20.08-22.39-33.51l.11-.57.55.19a1.62,1.62,0,0,0,.46.11,12.22,12.22,0,0,1,6.61,3.1c.31.22.38.65.46,1.14a4.72,4.72,0,0,0,.12.59c4.4.93,9.3,2.45,12.52,6.43,3.91,4.74,5.45,8.89,4.72,12.69l0,.13a4.43,4.43,0,0,1-1.68,1.36,5.11,5.11,0,0,0-1.42,1c-.14.36,0,.71.51,1.35a10.65,10.65,0,0,1,1.73,2.92,14.64,14.64,0,0,1,.8,1.89,17.09,17.09,0,0,0,.71,1.71ZM132,338.37c-2.13,12.76,6.22,24.94,21.91,31.89.65.29,1.31.57,2,.83l-.27-.71a13.75,13.75,0,0,0-.72-1.71l-.05-.12a9.67,9.67,0,0,0-1.57-2.66l0,0a2.28,2.28,0,0,1-.62-2.47,5,5,0,0,1,1.79-1.43,5.36,5.36,0,0,0,1.27-.91c.63-3.46-.86-7.31-4.54-11.78-3.07-3.81-7.87-5.23-12.16-6.12l-.13,0-.1-.09a2.14,2.14,0,0,1-.46-1.25c0-.17-.07-.42-.1-.52a11.26,11.26,0,0,0-6.1-2.88Z"/><path class="cls-1" d="M214.49,222.39,213,219.5l-34.18-59.2,3,.39a42.51,42.51,0,0,1,33.88,58.7Zm-29.92-58.21,29.52,51.13a39.51,39.51,0,0,0-29.52-51.13Z"/><path class="cls-1" d="M225,343c-.21-.89-.67-.77-.9-1.62a27.1,27.1,0,0,0-1-3.89.17.17,0,0,0,0-.07,17.83,17.83,0,0,1-10-15,68,68,0,0,1,0-11c1.25-10.28,1.86-18.74,2-21a87.44,87.44,0,0,0-1-19.15,62.65,62.65,0,0,0-8.85-7c-.92-.59-1.85-1.14-2.8-1.67l-.92,2.24c-.37.9-.61,1.1-.84,1.14a13.81,13.81,0,0,1-2,.28,4.14,4.14,0,0,0-1.07.2l-3.26,3a9.29,9.29,0,0,0-.91,3.22,2.48,2.48,0,0,1-4.85.09,11.94,11.94,0,0,1,6.68-13.4,53.83,53.83,0,0,0-14.2-3c-1.06.7-2.12,1.37-3.15,2a46,46,0,0,0-10.79,9.44A2.52,2.52,0,0,1,163,265a29.87,29.87,0,0,1,6.62-8.43l-1.15.13a100,100,0,0,0-13.58,2.41L123,277.53a5.58,5.58,0,0,1-7.6-2l-8.62-14.92c-15.24-7.92-24.42-22.87-22.68-39.28l-1.84-3.21a5.56,5.56,0,0,1,2-7.6l3.31-1.86,0-.08c5.74-12.75,16.25-23.48,29.43-28.41a23,23,0,0,1,5.4-1.44,19.06,19.06,0,0,1-2.41-5.29c8.23,6.28,17.42,12.33,28.15,10.37,14.9-2,25.4-17,23.53-31.66-1.51-10.29-8.76-18.18-17-24.11a2.39,2.39,0,0,0,.75-.67l0,0c1.68-2.24,3.45-4.32,5-6.59.47-.71.92-1.44,1.34-2.18a5.65,5.65,0,1,0-3.85-1.84c-.32.57-.66,1.14-1,1.69a17.36,17.36,0,0,1-4.93,5.31,2.42,2.42,0,0,0-.64.6,2.56,2.56,0,0,0-.47,1.15c-15.65-10-35.18-10.78-53.21-7.3-.34-.53-.68-1.06-1-1.62a28.82,28.82,0,0,1-2-4.23,35.66,35.66,0,0,1-1.24-4,5.64,5.64,0,1,0-4.36.79c.38,1.58.81,3.15,1.33,4.7a45.69,45.69,0,0,0,2.35,5.73l0,0-.16-.33-1.41.34q-2.67.63-5.27,1.4a2.9,2.9,0,0,1,.58.38c6.71,4.14-3.84,3.87,2,10.66,2.41,2.87,4.06,5.66,6.55,8.64a2.12,2.12,0,0,1-2,3.49,14.09,14.09,0,0,1-8.81-6.21c-1.68-2.63-1.52-5.9-2.26-8.81-.28-1.94-2.43-3.46-2.57-5.42a3.61,3.61,0,0,1,0-.57A97.49,97.49,0,0,0,63.23,131a2.8,2.8,0,0,1,.35.25c1.77,1.3,2.08,2.54,2.86,3.74,1.09,1.78,2.28,3.62,1.32,5.6a11.21,11.21,0,0,0-1.11,2.48,8.07,8.07,0,0,0,1,4c1.29,2.45,3.22,4.43,4.69,6.75s3.38,5,4.7,7.28a1.75,1.75,0,0,1-2,2.57,21,21,0,0,1-11.26-9.07c-1.45-2.48-2.58-5.11-4.14-7.53-.88-1.74-3.35-2.17-4.43-3.83a9.54,9.54,0,0,1-.75-6.3,109.37,109.37,0,0,0-15.76,14.67,20.27,20.27,0,0,1,6,7.19c1.41,2.69,1.62,6.32,3.52,8.83A34.22,34.22,0,0,0,55,174.52a29.57,29.57,0,0,0,8.43,4.65,3.5,3.5,0,1,1-2.69,6.46A71.52,71.52,0,0,1,42.1,173.24c-2.77-2.61-6.62-4.68-8.61-8.09a18.39,18.39,0,0,1-1.88-4.63,127.91,127.91,0,0,0-9.93,16.06l.42.22c8,4.69,10,14,14.26,21.45,2.12,3.47,6,5,9.8,5.78A83.07,83.07,0,0,0,58,205.92a3.54,3.54,0,0,1,.29,7,26.29,26.29,0,0,1-14.64-1.39c-4.61-2.1-8.56-5.3-12.47-8.45-5.18-4.46-11.69-9.14-14.11-15.81l-.17-.47a138.66,138.66,0,0,0-6.56,19.66,11.7,11.7,0,0,1,5.85,3.31c4.35,3.52,4.19,10.55,8.87,13.73a25.86,25.86,0,0,0,4.56,2.09A46.51,46.51,0,0,0,44,229.91a3.54,3.54,0,0,1,.18,7,28.16,28.16,0,0,1-19-3.33c-3.59-2.5-6-6.32-9.7-8.57a60.43,60.43,0,0,1-5.32-3.35,13.58,13.58,0,0,1-2.39-2.52A133.27,133.27,0,0,0,6.17,242a3.64,3.64,0,0,1,2.09.92,50.28,50.28,0,0,1,8.2,8.66c3.78,5.63,7.27,7.68,13.92,5a37,37,0,0,1,5.94-1.44c3.91-.67,7.76-1.55,12.1-2.24A3.67,3.67,0,0,1,51.76,259a29,29,0,0,1-20.23,8.08,54.58,54.58,0,0,1-15.61-4,27.81,27.81,0,0,1-7-3.92q-.75-.63-1.44-1.32l.09.58a92.54,92.54,0,0,0,9,28.05l.4-.06a58.73,58.73,0,0,1,13.46-1.08,5.4,5.4,0,0,1,2.38,2.05c2.47,3.64,7,2.46,10.31.87A25.29,25.29,0,0,0,55,277.74a3.5,3.5,0,0,1,6.17,3.3C58,287.22,53,292.83,46.52,295.75c-2.19.95-4.48,1.58-6.75,2.35l-3.46,1.15c-1.76.61-3.69,2.73-5.55,3.62a4.68,4.68,0,0,1-3.2.35A93.56,93.56,0,0,0,44.2,318.88a17.56,17.56,0,0,1,6.72-3.69c2-.7,4.6-.56,7-.68l7.28-3.87c.21-.52.4-1.06.61-1.55a7.16,7.16,0,0,1,2.8-3.06A13.29,13.29,0,0,1,73.23,304a3.17,3.17,0,0,1,3.93,2.86c.15,3.63-1.9,7.65-5.19,9.09-1.67.64-3.63.86-5,2-2.83,2.1-5.1,5.09-8,7.2a13.79,13.79,0,0,1-2.53,1.43,104.63,104.63,0,0,0,37.25,11.3,11.29,11.29,0,0,1-2.21-5.65,8.2,8.2,0,0,1-.07-2.39c.08-1.39,1.7-1.55,2.6-2.38,1.85-1.28,4.3-2.66,6-4.53l1.84-4.61a17.37,17.37,0,0,1,.2-3.17c.49-2.3,1-5.39,1.66-7.67a2.61,2.61,0,0,1,5-.08,20.65,20.65,0,0,1,.5,9c-.31,2.27-1.87,4.15-2.39,6.35-.94,3.87-.6,8.14-1.91,12-.56,1.3-.66,3.06-1.82,4a121.43,121.43,0,0,0,23.12-.86c2-11.92,11.08-22.08,20.49-29.34a59.75,59.75,0,0,1,22.47-11c4.06-.84,8.24-2.08,12.4-1.5a8.79,8.79,0,0,1,4.14,2,13,13,0,0,1-7.71,3,60.15,60.15,0,0,0-7.06,1.33c.63.56,1.22,1.2,1.82,1.68a19.89,19.89,0,0,0,2.81,1.61,69.17,69.17,0,0,1,10.62,7.36,2.57,2.57,0,0,1-3.19,4,2.7,2.7,0,0,1-.71-.87,13.69,13.69,0,0,0-3.08-4l-8.25-3.93c-.9.13-1.84.53-2.66.67l-.37,0,.06,0c1.74.24,1,4.6-.45,5.92-1.76,1.83-2.5,1.66-3.12,1.23a11.7,11.7,0,0,1-3.53-2.94c-1.17-1.41-2.61-4.06,0-5a9.78,9.78,0,0,1,3.47-.24,5.11,5.11,0,0,1-2.25-2.65,57.84,57.84,0,0,0-13.41,8.25c1.94.75,3.87,2.75,5.45,3.41,1.35.72,2.65,1.5,3.94,2.32s2.56,1.68,3.94,2.53a2.63,2.63,0,1,1-3.63,3.45,10.71,10.71,0,0,0-5.79-5c-1.79-.83-3.95,0-5.82-.07a2,2,0,0,1-1.73-1.16,4,4,0,0,1-.7-1.62,73.52,73.52,0,0,0-5.5,6,36.63,36.63,0,0,0-5.67,9.43c2.38-.51,5-1.22,7.58-1.58.49,0,1.23-1.21,1.87-1.19,7.22,2.09,12.47,8.15,15.82,14.6,2.59,4.73,3.31,9.94,5,15,.21,1.38,1.67,1.7,2.94,2.58,1.52.94,1.2,2.7.35,4s-1.52,2.6-2.32,3.78a13.3,13.3,0,0,1-3.05,3.37,50,50,0,0,0,22.86-.81,2.27,2.27,0,0,0-1.3-1.61.89.89,0,0,1-.46-.29c-.09,0,0-.16.2-.58a21.39,21.39,0,0,0,1.14-2.45l.67-1.57c.87-2.14,3.32-3.79,5.52-3.14a3.38,3.38,0,0,1,2,1.68,9.46,9.46,0,0,1,1.47,5A101.38,101.38,0,0,0,205,364l.27-.14a5.77,5.77,0,0,1-1.42-1.58l-1.19-1.54c-.56-.76-1.15-1.35-.84-2.2a31.15,31.15,0,0,0,1.45-5.49c.35-1.91,2.75-1.79,4.11-1.32a7.35,7.35,0,0,1,4.71,4.9,7,7,0,0,1,.34,3,58.69,58.69,0,0,0,12.86-11.8l-.53-2.5A15.43,15.43,0,0,0,225,343ZM160.09,141.9c2,0,3.5,2.58,3.5,6s-1.51,6-3.5,6-3.5-2.57-3.5-6S158.09,141.9,160.09,141.9Zm-29,0c2,0,3.5,2.58,3.5,6s-1.51,6-3.5,6-3.5-2.57-3.5-6S129.09,141.9,131.09,141.9ZM42.47,223c-.55-1.94.31-5.34,3-4.09,3.84,1.35,5.28,5.22,9.21,6.33a19.41,19.41,0,0,0,4,.71,1.55,1.55,0,0,1,1.55,1.67c-.24,2-4.4,2.53-6.08,2.58C49.48,230.33,43.75,228,42.47,223ZM49,249.32a20.49,20.49,0,0,1-12.85-6.75,1.53,1.53,0,0,1,1.9-2.33c2.67,1.32,5.72,2.26,8.62,1.61,3.21-.77,5.19-.62,8.73.23a1.91,1.91,0,0,1,1.4,2.65A8.47,8.47,0,0,1,49,249.32Zm7.8,23a106.59,106.59,0,0,1-11.45,1.53,1.51,1.51,0,0,1-.51-2.95,18.28,18.28,0,0,0,6.91-3.83c1.29-1.49,2.44-3.16,4.6-3.25,1.54-.11,4.59.44,4.72,2.7A5.24,5.24,0,0,1,56.79,272.35Zm.29-72.4c-1.69-1-2.54-3.38-3.6-4.91a32.66,32.66,0,0,0-5.48-5.6,1.53,1.53,0,1,1,2.17-2.07A9.07,9.07,0,0,0,56,191.06c1.54.23,3.57-.62,5-.33,2.57.88,3.57,2.12,5.28,5.19a2.37,2.37,0,0,1-.49,3A7.46,7.46,0,0,1,57.08,200Zm16.48,92.6a6,6,0,0,1-2.81,2.94,39.17,39.17,0,0,1-4.54,2.85,23.07,23.07,0,0,1-9.88,2.54,1.5,1.5,0,0,1-1.55-1.47,1.52,1.52,0,0,1,1.06-1.49,18.23,18.23,0,0,0,9.87-7.3,5.25,5.25,0,0,1,1.62-2.43.93.93,0,0,1,.73-.09c.18,0,.53.11.7.15.4.13.9.29,1.29.45a6.84,6.84,0,0,1,3.28,2.69C73.54,291.73,73.73,292.31,73.56,292.55ZM72.7,178.9c-4.57-1-8.45-4.69-10.52-8.75-.7-1.65-2.94-6.5,0-6.88a1.59,1.59,0,0,1,1.35.59,32.73,32.73,0,0,0,6.17,5.9c1.62,1.24,3.48,1.84,5.18,2.87a5.92,5.92,0,0,1,1.63,2.49C77.46,177.45,74.46,179.16,72.7,178.9Zm5.43-31a2,2,0,1,1,3.88-1c.29,3.37,4.06,4.51,6.31,6.2a12.49,12.49,0,0,1,2.39,2.76,2.42,2.42,0,0,1-1,3.57c-3.2,1.4-6.71-.59-8.41-3.27S79.44,150.54,78.13,147.89Zm14.2,165.23c-.94,1.69-2.64,2.92-2.78,4.89,0,.93.27,2.1-.58,2.75-1.28,1.27-5.06,1-6.06-1.28-3.77-6.44,3.11-1.74.37-8a3.43,3.43,0,0,1,0-3.26,19.85,19.85,0,0,1,2.43-4.29,2.32,2.32,0,0,1,2.83-1C92.64,304.58,94.6,309.44,92.33,313.12Zm29.88,4.76a5.58,5.58,0,0,0-.65,6.23,1.6,1.6,0,1,1-2.94.59,20.66,20.66,0,0,0-.61-6.21c-.21-1.58-1.18-2.83-1.8-4.45-1.43-3.86,2-5.58,4.92-6.79a7.41,7.41,0,0,1,3.11-.69,1.74,1.74,0,0,1,1.7,1.69c.18,1.8-.13,3.44.34,5.17C127.26,316.51,123.81,316.29,122.21,317.88Zm31.21,10.87a7.14,7.14,0,0,1-1.8,1.71c-1,.62-1.66-.32-2.37-.87-1.51-1.49-3-5.14-.49-6.53a6.25,6.25,0,0,1,5.79-.34c.27.1.45.36.5.88A8.28,8.28,0,0,1,153.42,328.75ZM179,370.15c-.83,1.28-2.94,2.27-4.38,1.25-1.33-.83-2.47-2.29-1.79-3.75.66-1.16,3.39-2,4.79-1.25C179.72,367.18,180.07,368.54,179,370.15Zm6.76-105.54-6.49,4.75a1.55,1.55,0,0,1-2.31-1.92l3.51-7.24a3.55,3.55,0,1,1,5.29,4.41ZM198,363.47c-2.19.53-3.5.13-4.65-1.36-1.44-1.72-2.53-6.33.77-6.77,2.49-.11,4.9.79,6,3C200.77,359.83,200.2,363.05,198,363.47Zm20.86-14.17a3.5,3.5,0,0,1-2.45.27c-1.3-.91-1.16-2.79-.55-4.27.62-1.73,2.9-2.12,4.33-1.69a2.63,2.63,0,0,1,2,1.63C222.41,346.44,220.4,349,218.89,349.3Z"/><path class="cls-1" d="M170.43,374.68a42.69,42.69,0,0,1-9.3-1l-1.14-.25,1-.65a12.57,12.57,0,0,0,2.92-3.25c.41-.61.79-1.25,1.19-1.93s.72-1.21,1.12-1.83a3.18,3.18,0,0,0,.59-2.28,1.65,1.65,0,0,0-.79-1c-.35-.24-.7-.43-1-.62-1-.52-1.94-1.06-2.13-2.31-.55-1.61-1-3.34-1.45-5a43,43,0,0,0-3.47-9.79c-3.88-7.45-9.35-12.54-15.44-14.33a2.74,2.74,0,0,0-.7.52,1.91,1.91,0,0,1-1.09.66c-1.79.25-3.62.68-5.39,1.09l-2.11.48-.92.2.35-.87a37,37,0,0,1,5.74-9.56,77,77,0,0,1,5.54-6l.67-.64.17.91a3.52,3.52,0,0,0,.61,1.41c.52.84.94.93,1.36,1a10.91,10.91,0,0,0,2-.14,7.13,7.13,0,0,1,4,.26,11.14,11.14,0,0,1,6,5.22,2.07,2.07,0,0,0,1.82,1.21,2,2,0,0,0,1.91-1,2.08,2.08,0,0,0,.26-1.66,2.16,2.16,0,0,0-1.05-1.35c-.74-.45-1.42-.9-2.09-1.34s-1.24-.82-1.87-1.21c-1.36-.86-2.64-1.62-3.92-2.3a13.65,13.65,0,0,1-2.44-1.55,13.45,13.45,0,0,0-3-1.83l-.8-.31.67-.54a58,58,0,0,1,13.52-8.33l.52-.22.16.54a4.55,4.55,0,0,0,2,2.37l1.69,1.05,1.69-.15.21,0a10.35,10.35,0,0,0,1.15-.3,11.4,11.4,0,0,1,1.53-.38l.15,0,8.51,4.08a14.36,14.36,0,0,1,3.19,4.13,2.15,2.15,0,0,0,.57.7,2.07,2.07,0,0,0,2.56-3.26,69,69,0,0,0-10.53-7.3c-.36-.21-.7-.38-1-.55a9,9,0,0,1-1.86-1.11c-.35-.28-.7-.62-1-1s-.51-.5-.78-.73l-.71-.63.92-.23a58,58,0,0,1,7.11-1.34,12.7,12.7,0,0,0,7-2.48,8.75,8.75,0,0,0-3.45-1.49c-3.32-.46-6.77.31-10.1,1l-2.09.45a59.38,59.38,0,0,0-22.26,10.89c-8.09,6.24-18.18,16.34-20.31,29l-.06.36-.36.05a121.7,121.7,0,0,1-23.22.86l-1.33-.08,1-.82a4.47,4.47,0,0,0,1.21-2.38,9.47,9.47,0,0,1,.47-1.39,29.79,29.79,0,0,0,1.12-6.58,36.63,36.63,0,0,1,.75-5.32,14.4,14.4,0,0,1,1.18-3,11.35,11.35,0,0,0,1.21-3.33,20.26,20.26,0,0,0-.49-8.78,2,2,0,0,0-2-1.43,2,2,0,0,0-2,1.5c-.45,1.57-.83,3.5-1.2,5.36-.16.8-.31,1.58-.47,2.28a12.57,12.57,0,0,0-.17,2.34c0,.25,0,.49,0,.74l0,.17-1.94,4.76a23.22,23.22,0,0,1-4.71,3.73c-.46.3-.91.6-1.32.89a5.06,5.06,0,0,1-1.13.71c-.78.41-1.23.67-1.26,1.28a7.7,7.7,0,0,0,.07,2.28,10.94,10.94,0,0,0,2.08,5.4l.87,1-1.29-.15a104.19,104.19,0,0,1-37.43-11.35l-.92-.49,1-.41a14.08,14.08,0,0,0,2.43-1.37,36.68,36.68,0,0,0,4-3.64,39.18,39.18,0,0,1,3.95-3.56A9.79,9.79,0,0,1,70.15,316c.58-.16,1.12-.32,1.64-.52,2.92-1.27,5-5,4.87-8.6a2.67,2.67,0,0,0-3.3-2.4,13.15,13.15,0,0,0-4.44,2l-.21.16a6.11,6.11,0,0,0-2.4,2.67c-.12.29-.24.58-.35.87l-.27.69-.07.17L58,315c-.58,0-1.16,0-1.75.06a17.2,17.2,0,0,0-5.14.6,16.94,16.94,0,0,0-6.55,3.59l-.3.26-.33-.24a93.89,93.89,0,0,1-16.72-15.74l-.88-1.05,1.35.24a4.1,4.1,0,0,0,2.87-.3,16,16,0,0,0,2.53-1.7,12,12,0,0,1,3.09-2l3.48-1.16,2-.64a49.63,49.63,0,0,0,4.74-1.69c5.9-2.67,11-7.82,14.42-14.48a3,3,0,0,0-5.3-2.82,25.77,25.77,0,0,1-12.11,10.76c-5,2.4-8.84,2-10.94-1.05l-.06-.07a4.87,4.87,0,0,0-2-1.76A57.8,57.8,0,0,0,17.05,287a1.89,1.89,0,0,0-.39.06l-.37.06-.17-.33a93.68,93.68,0,0,1-9.06-28.2l-.3-2.09,1.07,1.08c.44.44.91.88,1.4,1.29a27,27,0,0,0,6.88,3.83,53,53,0,0,0,15.45,3.94,28.26,28.26,0,0,0,19.85-7.94,3.17,3.17,0,0,0-2.89-5.3c-2.44.39-4.71.83-6.91,1.27-1.75.34-3.47.68-5.21,1A34.47,34.47,0,0,0,30.55,257c-7.21,3-10.9.22-14.51-5.15A49.11,49.11,0,0,0,8,243.32a3.2,3.2,0,0,0-1.83-.83l-.45,0V242a134.1,134.1,0,0,1,1.59-22.95l.18-1.18.71,1a12.49,12.49,0,0,0,2.31,2.43,20.62,20.62,0,0,0,3.15,2c.7.41,1.43.82,2.13,1.29A27.61,27.61,0,0,1,21,229.17a32.17,32.17,0,0,0,4.41,4,27.65,27.65,0,0,0,18.65,3.25,3,3,0,0,0,2.46-3.07,2.93,2.93,0,0,0-2.62-2.94A46.48,46.48,0,0,1,29.39,226c-.37-.16-.77-.31-1.18-.47a17,17,0,0,1-3.44-1.66c-2.55-1.73-3.72-4.54-4.86-7.25-1.05-2.51-2.05-4.88-4-6.5a11.3,11.3,0,0,0-5.62-3.21l-.54-.08.13-.53a141,141,0,0,1,6.59-19.73l.5-1.19.6,1.67c2,5.61,6.94,9.71,11.69,13.69.77.64,1.54,1.28,2.27,1.92l.16.12c3.79,3,7.71,6.21,12.2,8.26a25.94,25.94,0,0,0,14.34,1.35,3,3,0,0,0,2.4-3.1,2.93,2.93,0,0,0-2.66-2.89A81.39,81.39,0,0,1,46,204.51c-4.84-.93-8.25-3-10.11-6-1.22-2.12-2.27-4.42-3.28-6.64-2.54-5.58-5.16-11.35-10.8-14.63a3.48,3.48,0,0,0-.38-.2l-.48-.22.25-.47a127.5,127.5,0,0,1,10-16.12l.63-.87.26,1a17.26,17.26,0,0,0,1.83,4.5c1.28,2.2,3.41,3.86,5.48,5.47,1,.8,2.1,1.63,3,2.51A70.73,70.73,0,0,0,61,185.18,2.94,2.94,0,0,0,64,185a3.27,3.27,0,0,0,1.24-3,2.94,2.94,0,0,0-2-2.34,30,30,0,0,1-8.56-4.73,34.18,34.18,0,0,1-6.77-7,15.72,15.72,0,0,1-2.24-5.23,20.43,20.43,0,0,0-1.32-3.66,19.49,19.49,0,0,0-5.91-7l-.44-.33.36-.41a110.34,110.34,0,0,1,15.84-14.74l1-.76L55,137.05a8.86,8.86,0,0,0,.68,6,6.1,6.1,0,0,0,2,1.63,5.94,5.94,0,0,1,2.44,2.22c.88,1.36,1.65,2.85,2.4,4.29.55,1.07,1.12,2.17,1.73,3.22a20.61,20.61,0,0,0,11,8.85,1.26,1.26,0,0,0,1.42-1.83c-.91-1.58-2.09-3.34-3.22-5-.53-.78-1-1.53-1.48-2.23-.61-1-1.32-1.89-2-2.78a28.64,28.64,0,0,1-2.71-4l-.19-.43a7.73,7.73,0,0,1-.92-3.86A7.94,7.94,0,0,1,67,141l.3-.57c.81-1.68-.18-3.28-1.23-5l-.07-.13c-.21-.31-.39-.64-.57-1a7,7,0,0,0-2.16-2.63l-.21-.15-.75-.54.64-.39a97.2,97.2,0,0,1,16.33-7.92l.75-.28-.08.79a2.46,2.46,0,0,0,0,.47,5.62,5.62,0,0,0,1.21,2.58,7,7,0,0,1,1.35,2.82c.24.94.39,2,.54,3a13.81,13.81,0,0,0,1.65,5.64,13.57,13.57,0,0,0,8.49,6,1.53,1.53,0,0,0,1.67-.8A1.56,1.56,0,0,0,94.7,141c-1.28-1.53-2.34-3-3.36-4.42s-2-2.82-3.21-4.24c-3.27-3.81-1.7-5.7-.56-7.08.53-.64.85-1.05.78-1.48s-.79-1.2-2.08-2a3.57,3.57,0,0,0-.56-.36l-1.08-.57,1.17-.35c1.78-.52,3.56-1,5.3-1.4l.87-.22A44.8,44.8,0,0,1,90,114c-.46-1.39-.88-2.85-1.26-4.45a6.14,6.14,0,0,1,1.26-12,6.14,6.14,0,0,1,6.54,5.71,6.16,6.16,0,0,1-2.46,5.33,33.32,33.32,0,0,0,1.14,3.57,28.18,28.18,0,0,0,2,4.16c.25.46.52.89.79,1.31,14.53-2.75,35.27-3.68,52.66,7.08A3.48,3.48,0,0,1,151,124a3.43,3.43,0,0,1,.76-.71,16.63,16.63,0,0,0,4.79-5.16c.29-.45.57-.9.83-1.36a6.14,6.14,0,1,1,4.79,2.28h0c-.44.75-.83,1.37-1.22,2-1,1.49-2.12,2.91-3.2,4.28-.61.77-1.22,1.55-1.81,2.34a4.77,4.77,0,0,1-.35.4c9.78,7.16,15.38,15.25,16.67,24,1.94,15.23-9.26,30.29-24,32.23-10.44,1.91-19.49-3.7-27.24-9.5a18.13,18.13,0,0,0,1.85,3.65l.45.67-.8.1a22.23,22.23,0,0,0-5.28,1.41c-12.6,4.71-23.23,15-29.16,28.15l-.06.15-.18.15-3.3,1.87a5.06,5.06,0,0,0-1.85,6.91l1.93,3.35,0,.16c-1.69,15.87,6.9,30.73,22.41,38.79l.13.06.08.13,8.61,14.92a5.09,5.09,0,0,0,6.92,1.86l32-18.44a99.26,99.26,0,0,1,13.65-2.41l.77-.1,2-.23L169.94,257a29.3,29.3,0,0,0-6.5,8.29,2,2,0,0,0,3.33,2.21A46.17,46.17,0,0,1,177.68,258c.52-.35,1.06-.69,1.61-1l1.52-1,.14-.1.17,0a54.16,54.16,0,0,1,14.34,3l1.15.42-1.12.51a11.42,11.42,0,0,0-6.4,12.82,1.9,1.9,0,0,0,1.94,1.53h0a1.89,1.89,0,0,0,1.91-1.59,9.79,9.79,0,0,1,1-3.36l.11-.14,3.45-3.07a5.36,5.36,0,0,1,1.17-.22,13.06,13.06,0,0,0,1.92-.27s.19-.11.48-.84l1.14-2.76.49.27c1.1.61,2,1.15,2.83,1.7a60.7,60.7,0,0,1,8.92,7l.12.12,0,.16a88.58,88.58,0,0,1,1,19.26c0,.38-.58,9.37-2,21a68,68,0,0,0,0,10.9A17.34,17.34,0,0,0,223.28,337l.2.1.06.22a29.82,29.82,0,0,1,1,4,1.14,1.14,0,0,0,.32.53,2.13,2.13,0,0,1,.58,1.07h0a4.88,4.88,0,0,1-.1,1.52c0,.3-.09.61-.1.85l.55,2.66-.14.19a59.24,59.24,0,0,1-13,11.9l-.89.61.11-1.07a6.51,6.51,0,0,0-.31-2.75,6.88,6.88,0,0,0-4.39-4.6,3.86,3.86,0,0,0-2.84,0,1.26,1.26,0,0,0-.63.93,31.82,31.82,0,0,1-1.47,5.56c-.17.46.07.81.55,1.43l1.41,1.83a5.07,5.07,0,0,0,1.32,1.48l.65.48-1,.52a103.08,103.08,0,0,1-11.72,5.47l-.67.26v-.72a9,9,0,0,0-1.39-4.73,2.87,2.87,0,0,0-1.71-1.47c-2-.6-4.18,1-4.93,2.85l-.67,1.57a20.17,20.17,0,0,1-1.17,2.5l-.07.13.07,0a2.82,2.82,0,0,1,1.61,1.93l.16.5-.52.13A56.79,56.79,0,0,1,170.43,374.68Zm-8.06-1.74a49.8,49.8,0,0,0,21-.89,1.52,1.52,0,0,0-.82-.8,1.45,1.45,0,0,1-.59-.35l-.11-.06-.09-.24c-.08-.29.06-.54.28-.93a20.15,20.15,0,0,0,1.12-2.4l.67-1.56c.91-2.26,3.59-4.18,6.12-3.43a3.83,3.83,0,0,1,2.29,1.91,9.76,9.76,0,0,1,1.51,4.52,100.47,100.47,0,0,0,10.6-5,6.64,6.64,0,0,1-1-1.22l-1.38-1.79a2.39,2.39,0,0,1-.7-2.39,30.32,30.32,0,0,0,1.43-5.39,2.26,2.26,0,0,1,1.1-1.61,4.8,4.8,0,0,1,3.66-.11,7.84,7.84,0,0,1,5,5.23,7.71,7.71,0,0,1,.39,2.14,58,58,0,0,0,11.79-11l-.49-2.33v-.07c0-.28.07-.64.12-1a5.55,5.55,0,0,0,.11-1.15,1.12,1.12,0,0,0-.34-.61,2.16,2.16,0,0,1-.55-1l0-.1a29.37,29.37,0,0,0-1-3.64,18.32,18.32,0,0,1-10-15.32,69,69,0,0,1,0-11.09c1.42-11.63,2-20.59,2-21a87.48,87.48,0,0,0-1-18.87,60.05,60.05,0,0,0-8.66-6.81c-.68-.44-1.41-.89-2.27-1.38L202,265c-.34.82-.66,1.35-1.22,1.44a12.89,12.89,0,0,1-2,.28,4.34,4.34,0,0,0-.85.15l-3.1,2.82a9,9,0,0,0-.82,3,3,3,0,0,1-5.84.15A12.43,12.43,0,0,1,194,259.42a53.23,53.23,0,0,0-12.81-2.57l-1.39.9-1.61,1a45.18,45.18,0,0,0-10.69,9.34,3,3,0,0,1-5-3.32,30.57,30.57,0,0,1,5.6-7.53,100.22,100.22,0,0,0-13.08,2.33L123.29,278a6.07,6.07,0,0,1-8.28-2.22l-8.55-14.8C90.71,252.71,82,237.58,83.63,221.4l-1.77-3.07a6.07,6.07,0,0,1,2.22-8.28l3.17-1.79c6.08-13.42,16.88-23.81,29.67-28.59a24.14,24.14,0,0,1,4.74-1.36,19.8,19.8,0,0,1-2-4.77l-.42-1.45,1.2.92c7.85,6,17.12,12.22,27.76,10.27,14.2-1.88,25-16.41,23.12-31.1-1.27-8.68-6.92-16.68-16.81-23.77l-.63-.45.67-.39a1.94,1.94,0,0,0,.6-.54c.64-.84,1.25-1.62,1.86-2.4,1.12-1.42,2.18-2.76,3.17-4.22.41-.62.83-1.3,1.32-2.15l.16-.26.3,0a5.16,5.16,0,1,0-3.51-1.68l.24.27-.17.31c-.33.59-.67,1.16-1,1.72a17.65,17.65,0,0,1-5.08,5.46,2.11,2.11,0,0,0-.51.48,2,2,0,0,0-.38.93l-.11.76-.65-.42c-17.37-11-38.32-10-52.84-7.23l-.34.06-.27-.42c-.31-.49-.63-1-.91-1.51a28.55,28.55,0,0,1-2-4.3,34.43,34.43,0,0,1-1.27-4L93,108.1l.29-.2a5.15,5.15,0,0,0,2.31-4.64,5.06,5.06,0,0,0-1.75-3.52,5.14,5.14,0,1,0-4.52,8.88l.3.07.07.3c.4,1.69.82,3.21,1.31,4.66a45.26,45.26,0,0,0,2.33,5.67l.19.38-.83.59-.29-.47-1,.25c-1.39.32-2.79.69-4.2,1.08,1.37.88,2.06,1.66,2.2,2.47a3,3,0,0,1-1,2.28c-1.07,1.28-2.17,2.62.55,5.79,1.22,1.45,2.26,2.9,3.26,4.31s2.06,2.86,3.3,4.34a2.62,2.62,0,0,1-2.44,4.3,13.43,13.43,0,0,1-10.93-12.47,27.65,27.65,0,0,0-.53-2.91,6.19,6.19,0,0,0-1.2-2.46A6.69,6.69,0,0,1,79,123.87a96.8,96.8,0,0,0-14.85,7.2,8,8,0,0,1,2.2,2.76c.17.31.33.62.53.92l.08.14c1.09,1.76,2.32,3.76,1.27,6l-.31.59a7,7,0,0,0-.76,1.76A6.77,6.77,0,0,0,68,146.5l.17.4a27.74,27.74,0,0,0,2.61,3.82c.69.91,1.41,1.85,2,2.85.44.69,1,1.44,1.47,2.22,1.15,1.71,2.33,3.49,3.24,5.08a2.26,2.26,0,0,1-2.6,3.3,21.64,21.64,0,0,1-11.52-9.29c-.63-1.08-1.21-2.19-1.76-3.27-.74-1.42-1.49-2.89-2.37-4.25a5.16,5.16,0,0,0-2.11-1.87,6.85,6.85,0,0,1-2.32-2,9.09,9.09,0,0,1-1-5.43,108.33,108.33,0,0,0-14.38,13.46,19.69,19.69,0,0,1,7.16,10.87,14.89,14.89,0,0,0,2.08,4.91,33.35,33.35,0,0,0,6.58,6.78,29,29,0,0,0,8.3,4.58,3.92,3.92,0,0,1,2.65,3.14,4.25,4.25,0,0,1-1.63,3.92,3.89,3.89,0,0,1-4.08.33,72.11,72.11,0,0,1-18.79-12.48,37.23,37.23,0,0,0-3-2.45c-2.14-1.67-4.36-3.39-5.74-5.76a19,19,0,0,1-1.65-3.75,130.06,130.06,0,0,0-9.06,14.72h0c5.91,3.44,8.6,9.36,11.2,15.08,1,2.19,2,4.47,3.23,6.54,1.7,2.78,4.89,4.65,9.47,5.54A81.38,81.38,0,0,0,58,205.42a4,4,0,0,1,.34,8A26.91,26.91,0,0,1,43.46,212c-4.63-2.1-8.6-5.3-12.44-8.39l-.17-.13c-.74-.65-1.5-1.28-2.27-1.93-4.44-3.7-9.43-7.89-11.71-13.38a140.3,140.3,0,0,0-5.93,17.92,12.76,12.76,0,0,1,5.59,3.33c2.16,1.75,3.25,4.35,4.3,6.87,1.13,2.69,2.2,5.24,4.5,6.8a15.92,15.92,0,0,0,3.25,1.56l1.23.49a45.9,45.9,0,0,0,14.26,4.3,4,4,0,0,1,.2,8A28.68,28.68,0,0,1,24.9,234a32,32,0,0,1-4.59-4.14,27,27,0,0,0-5.11-4.43c-.69-.46-1.4-.86-2.09-1.25A23.06,23.06,0,0,1,9.82,222a14,14,0,0,1-1.75-1.7,133.72,133.72,0,0,0-1.41,21.23,4.09,4.09,0,0,1,1.93,1,50.1,50.1,0,0,1,8.26,8.72c3.51,5.24,6.67,7.54,13.34,4.8a37.39,37.39,0,0,1,6.05-1.46c1.72-.3,3.43-.63,5.18-1,2.21-.44,4.49-.89,6.92-1.27a4.17,4.17,0,0,1,3.77,7,29.51,29.51,0,0,1-20.59,8.22,54.07,54.07,0,0,1-15.78-4,27.82,27.82,0,0,1-7.15-4l-.4-.35A92.07,92.07,0,0,0,16.85,286h.07a58.4,58.4,0,0,1,13.54-1.09l.1,0A5.43,5.43,0,0,1,33.11,287l.09.1c2.3,3.4,6.54,2.28,9.7.74a24.71,24.71,0,0,0,11.67-10.35,4,4,0,0,1,7.06,3.77c-3.5,6.87-8.79,12.17-14.9,14.94-1.6.69-3.25,1.22-4.84,1.74l-2,.63-3.47,1.16a11,11,0,0,0-2.81,1.79,16.19,16.19,0,0,1-2.69,1.8,4.56,4.56,0,0,1-2.23.53,93.33,93.33,0,0,0,15.44,14.39,18,18,0,0,1,6.59-3.52,18.39,18.39,0,0,1,5.43-.65c.54,0,1.08,0,1.61-.06l7-3.72.2-.51c.12-.3.23-.6.35-.89a7.07,7.07,0,0,1,2.73-3.09l.23-.17a14.13,14.13,0,0,1,4.78-2.17,3.67,3.67,0,0,1,4.54,3.32c.16,4-2.2,8.14-5.49,9.58-.58.22-1.17.39-1.75.55a9.13,9.13,0,0,0-3.18,1.35,37.31,37.31,0,0,0-3.86,3.49,36.25,36.25,0,0,1-4.17,3.73,14.43,14.43,0,0,1-1.69,1,103.4,103.4,0,0,0,35,10.65,13.4,13.4,0,0,1-1.62-4.95,8.37,8.37,0,0,1-.07-2.53c.06-1.16,1-1.66,1.78-2.06a4.9,4.9,0,0,0,1-.61c.48-.34.93-.64,1.4-.95a22.83,22.83,0,0,0,4.46-3.49l1.78-4.44v-.64a12.8,12.8,0,0,1,.2-2.54c.15-.7.3-1.47.46-2.26.37-1.89.76-3.83,1.21-5.44a3.1,3.1,0,0,1,5.93-.09,21.13,21.13,0,0,1,.53,9.21,12.29,12.29,0,0,1-1.3,3.63,13.54,13.54,0,0,0-1.11,2.75,37.12,37.12,0,0,0-.73,5.18,29.7,29.7,0,0,1-1.18,6.85,10.6,10.6,0,0,0-.44,1.31,8,8,0,0,1-.81,2,120.5,120.5,0,0,0,21.64-.85c2.31-12.84,12.46-23,20.61-29.29a60.3,60.3,0,0,1,22.65-11.07l2.1-.46c3.42-.76,7-1.54,10.5-1.05a9.29,9.29,0,0,1,4.4,2.1l.43.38-.44.38a13.45,13.45,0,0,1-8,3.08,57.34,57.34,0,0,0-6.09,1.1l.12.12c.33.32.66.64,1,.9a7.75,7.75,0,0,0,1.66,1c.38.18.74.37,1.1.58a68.93,68.93,0,0,1,10.67,7.4,3.07,3.07,0,0,1-3.8,4.82,3,3,0,0,1-.85-1,13.63,13.63,0,0,0-2.92-3.8l-8-3.82a9.42,9.42,0,0,0-1.24.32l-.5.15a2.26,2.26,0,0,1,.22.52,6.31,6.31,0,0,1-1.51,5.51c-1.56,1.64-2.65,2-3.73,1.27a12.09,12.09,0,0,1-3.63-3c-.59-.71-1.93-2.55-1.5-4.12a2.47,2.47,0,0,1,1.71-1.64,10.44,10.44,0,0,1,2.14-.32,4.9,4.9,0,0,1-1-1.43,56.7,56.7,0,0,0-12.19,7.47,19.09,19.09,0,0,1,2.42,1.6,12.31,12.31,0,0,0,2.27,1.46c1.34.72,2.64,1.48,4,2.35.63.39,1.26.81,1.89,1.22s1.34.88,2,1.32a3.1,3.1,0,0,1,1.51,1.95,3,3,0,0,1-.36,2.43,3.14,3.14,0,0,1-5.49-.31,10.19,10.19,0,0,0-5.52-4.73,6.31,6.31,0,0,0-3.47-.19,12.59,12.59,0,0,1-2.2.15,2.48,2.48,0,0,1-2.12-1.4,3.56,3.56,0,0,1-.52-.94c-1.71,1.69-3.34,3.49-4.88,5.34A37.23,37.23,0,0,0,133.9,332l1.15-.26c1.79-.42,3.65-.85,5.52-1.11a2.61,2.61,0,0,0,.52-.41,2.27,2.27,0,0,1,1.44-.79l.12,0c6.39,1.85,12.12,7.13,16.13,14.85a43.3,43.3,0,0,1,3.55,10c.45,1.66.9,3.38,1.45,5,.13.8.68,1.14,1.65,1.67a10.67,10.67,0,0,1,1.1.66,2.55,2.55,0,0,1,1.21,1.65,4.11,4.11,0,0,1-.72,3c-.4.61-.75,1.21-1.1,1.8s-.79,1.34-1.23,2A17.22,17.22,0,0,1,162.37,372.94Zm.76-64.68a9,9,0,0,0-2.25.29,1.47,1.47,0,0,0-1,.94c-.26.92.51,2.27,1.3,3.23a11.33,11.33,0,0,0,3.39,2.82c.37.26.86.6,2.51-1.14a5.38,5.38,0,0,0,1.24-4.51c-.15-.52-.4-.55-.49-.56l-.11,0-2-.8h.08l-1.59-.17A9.51,9.51,0,0,0,163.13,308.26ZM176,372.33a2.84,2.84,0,0,1-1.66-.52c-1.41-.89-2.79-2.58-2-4.37.78-1.38,3.79-2.37,5.47-1.48a3.23,3.23,0,0,1,2.16,1.87,3,3,0,0,1-.59,2.6,4.43,4.43,0,0,1-2.77,1.83A3,3,0,0,1,176,372.33Zm.3-5.7a3.94,3.94,0,0,0-3,1.27c-.54,1.16.53,2.39,1.62,3.08a2,2,0,0,0,1.58.3,3.49,3.49,0,0,0,2.13-1.4h0a2.07,2.07,0,0,0,.47-1.73,3.61,3.61,0,0,0-2.77-1.51Zm20.11-2.44a4,4,0,0,1-3.39-1.77c-1.12-1.35-1.92-4.08-1.24-5.82a2.75,2.75,0,0,1,2.34-1.75c3-.14,5.44,1.09,6.5,3.3a5.13,5.13,0,0,1-.29,4.09,3.1,3.1,0,0,1-2.16,1.71A7.39,7.39,0,0,1,196.37,364.19Zm-1.78-8.36h-.42a1.73,1.73,0,0,0-1.5,1.13c-.52,1.34.16,3.7,1.09,4.82,1.05,1.35,2.17,1.67,4.15,1.19h0a2.13,2.13,0,0,0,1.47-1.2,4.16,4.16,0,0,0,.27-3.21C198.83,356.82,197,355.83,194.59,355.83Zm22.53-5.65a2.3,2.3,0,0,1-.85-.14l-.11-.06c-1.56-1.09-1.41-3.23-.74-4.86.74-2,3.35-2.47,5-2a3.12,3.12,0,0,1,2.34,2c.24,1.54-2,4.29-3.69,4.69A6,6,0,0,1,217.12,350.18Zm-.44-1.05a3.34,3.34,0,0,0,2-.3h.06c1.29-.28,3.09-2.6,2.95-3.51-.14-.52-.64-.91-1.65-1.22-1.19-.36-3.2-.07-3.72,1.38C215.86,346.69,215.66,348.35,216.68,349.13Zm-65.7-18a2.68,2.68,0,0,1-1.67-.86l-.37-.32a6.65,6.65,0,0,1-2-5.07,3,3,0,0,1,1.57-2.28,6.69,6.69,0,0,1,6.24-.36,1.39,1.39,0,0,1,.79,1.28,8.57,8.57,0,0,1-1.76,5.53,7.92,7.92,0,0,1-1.91,1.81A1.75,1.75,0,0,1,151,331.16Zm1.09-8.49a6.63,6.63,0,0,0-3.08.83,2,2,0,0,0-1.05,1.55,5.64,5.64,0,0,0,1.66,4.18l.37.32c.65.57.93.76,1.39.48a6.42,6.42,0,0,0,1.67-1.6l0,0a7.74,7.74,0,0,0,1.51-4.72c0-.15-.06-.45-.19-.49A5.36,5.36,0,0,0,152.07,322.67Zm-31.84,4.4a2.1,2.1,0,0,1-1.18-.37,2,2,0,0,1-.92-2.09,17.71,17.71,0,0,0-.49-5.38l-.12-.65a8.14,8.14,0,0,0-1-2.65,16.92,16.92,0,0,1-.78-1.71c-1.7-4.57,3-6.5,5.19-7.43a7.42,7.42,0,0,1,3.3-.73,2.23,2.23,0,0,1,2.2,2.17,20.22,20.22,0,0,1,.06,2,11.22,11.22,0,0,0,.26,3c.79,2.47-1,3.25-2.37,3.88a6.28,6.28,0,0,0-1.81,1.05,5,5,0,0,0-.59,5.63,2.11,2.11,0,0,1-.67,2.89A1.94,1.94,0,0,1,120.23,327.07Zm4-20a6.78,6.78,0,0,0-2.85.65c-3.72,1.54-5.79,3.11-4.66,6.16.22.56.49,1.09.75,1.61a9.26,9.26,0,0,1,1.08,2.95l.12.62a18.64,18.64,0,0,1,.48,5.71,1.08,1.08,0,0,0,.49,1.11,1.09,1.09,0,0,0,1.67-.67,1.06,1.06,0,0,0-.14-.83,6.09,6.09,0,0,1,.7-6.81l0,0a6.8,6.8,0,0,1,2.13-1.28c1.57-.7,2.31-1.11,1.81-2.67a12.3,12.3,0,0,1-.3-3.31,18.76,18.76,0,0,0-.06-2,1.25,1.25,0,0,0-1.21-1.24ZM86.69,322a5.89,5.89,0,0,1-1.09-.1,4.11,4.11,0,0,1-3.15-2.23c-1-1.75-1.37-2.85-1.12-3.63a1.94,1.94,0,0,1,1.22-1.12c.79-.36,1.42-.65.27-3.28a3.88,3.88,0,0,1,0-3.64,20.67,20.67,0,0,1,2.49-4.39,2.83,2.83,0,0,1,3.43-1.18,8.15,8.15,0,0,1,4.72,5,7,7,0,0,1-.65,5.92,12.91,12.91,0,0,1-1.18,1.68,5.69,5.69,0,0,0-1.53,3c0,.08,0,.22,0,.36a2.9,2.9,0,0,1-.79,2.75A3.75,3.75,0,0,1,86.69,322Zm1-18.76a1.85,1.85,0,0,0-1.58.91,20.53,20.53,0,0,0-2.4,4.21,3,3,0,0,0,0,2.85c1.44,3.3.47,4.06-.75,4.62-.39.18-.62.29-.69.51s0,1.07,1.06,2.88a3.2,3.2,0,0,0,2.45,1.7,3.44,3.44,0,0,0,2.83-.52c.52-.41.52-1,.45-1.93,0-.16,0-.31,0-.45a6.57,6.57,0,0,1,1.74-3.6,11.79,11.79,0,0,0,1.1-1.55v0a6,6,0,0,0,.56-5.1,7.15,7.15,0,0,0-4.15-4.39A1.68,1.68,0,0,0,87.68,303.25Zm-31.39-1.86a2,2,0,0,1-.59-3.94c4.39-1.53,7.62-3.92,9.59-7.09l.12-.3a4.87,4.87,0,0,1,1.65-2.28,1.3,1.3,0,0,1,1.08-.17c.17,0,.56.11.75.16l.22.07c.37.12.79.26,1.13.4a7.39,7.39,0,0,1,3.51,2.87c.08.13.61,1.05.26,1.66a6.53,6.53,0,0,1-3,3.15l-1.1.74a26.94,26.94,0,0,1-3.48,2.13,23.83,23.83,0,0,1-10.09,2.6Zm11.46-12.82h-.11a4,4,0,0,0-1.31,1.89l-.16.36c-2.12,3.43-5.53,5.95-10.16,7.57a1,1,0,0,0-.73,1,1,1,0,0,0,1,1A23,23,0,0,0,66,297.9a27.28,27.28,0,0,0,3.36-2.06l1.12-.76a5.61,5.61,0,0,0,2.61-2.7l0-.08a1.37,1.37,0,0,0-.22-.65,6.29,6.29,0,0,0-3-2.48c-.33-.14-.72-.27-1.07-.38l-.2-.06a5.11,5.11,0,0,0-.59-.13Zm-22.5-14.18a2,2,0,0,1-2-1.91,2,2,0,0,1,1.44-2,18.11,18.11,0,0,0,6.71-3.71l.37-.45c1.18-1.4,2.4-2.85,4.55-2.94a6.4,6.4,0,0,1,4.27,1.21,2.77,2.77,0,0,1,1,2,5.7,5.7,0,0,1-4.65,6.32h0c-1,.15-2.06.32-3.09.49a66.85,66.85,0,0,1-8.41,1Zm11.47-10.05h-.34c-1.73.07-2.75,1.29-3.84,2.58l-.42.49a18.75,18.75,0,0,1-7.13,4,1,1,0,0,0-.74,1,1,1,0,0,0,1.07.95,67.75,67.75,0,0,0,8.29-1l3.08-.5a4.73,4.73,0,0,0,3.87-5.26,1.78,1.78,0,0,0-.63-1.29A5.25,5.25,0,0,0,56.72,264.34Zm.07,8h0Zm121.56-2.18a2.05,2.05,0,0,1-1.32-.5,2,2,0,0,1-.54-2.45L180,260a4.05,4.05,0,0,1,5.41-1.88A4.07,4.07,0,0,1,186,265l-6.49,4.76A1.91,1.91,0,0,1,178.35,270.17Zm5.28-11.47a3.18,3.18,0,0,0-1,.17,3.08,3.08,0,0,0-1.74,1.55l-3.51,7.24a1,1,0,0,0,.29,1.25,1,1,0,0,0,1.27.06l6.5-4.77a3,3,0,0,0,1.21-2.74A2.91,2.91,0,0,0,185,259,3,3,0,0,0,183.63,258.7ZM49,249.82h0a20.91,20.91,0,0,1-13.17-6.92,1.94,1.94,0,0,1,0-2.59,2,2,0,0,1,2.54-.5c3.18,1.57,5.9,2.08,8.27,1.55a16.57,16.57,0,0,1,8.94.23,2.39,2.39,0,0,1,1.69,1.27,2.33,2.33,0,0,1,.05,2.09A8.9,8.9,0,0,1,49,249.82ZM37.3,240.55a1,1,0,0,0-.78.39,1,1,0,0,0,0,1.3A19.93,19.93,0,0,0,49,248.82a7.9,7.9,0,0,0,7.32-4.3,1.34,1.34,0,0,0,0-1.2,1.4,1.4,0,0,0-1-.75c-3.35-.8-5.27-1-8.52-.24-2.6.58-5.53,0-9-1.64A1,1,0,0,0,37.3,240.55Zm16.53-9.83c-5,0-10.55-2.56-11.84-7.58a4.64,4.64,0,0,1,1-4.46,2.38,2.38,0,0,1,2.73-.22,12.91,12.91,0,0,1,4.59,3.23,10.85,10.85,0,0,0,4.56,3.08,19,19,0,0,0,3.88.69,2.06,2.06,0,0,1,1.49.68,2,2,0,0,1,.52,1.54c-.33,2.75-5.92,3-6.56,3Zm-9.42-11.57a1.16,1.16,0,0,0-.78.29,3.77,3.77,0,0,0-.68,3.44h0c1.19,4.63,6.54,7,11.2,6.82,2.22-.07,5.43-.78,5.6-2.14a1.05,1.05,0,0,0-.27-.76,1.08,1.08,0,0,0-.79-.35,20,20,0,0,1-4.12-.73,11.72,11.72,0,0,1-5-3.32,12,12,0,0,0-4.27-3A2.29,2.29,0,0,0,44.41,219.15Zm16.35-17.74a8.52,8.52,0,0,1-3.91-1l0,0A9.1,9.1,0,0,1,54,196.82c-.3-.54-.59-1.06-.89-1.49a32.27,32.27,0,0,0-5.37-5.49,2,2,0,0,1-.81-2.07,2.2,2.2,0,0,1,1.66-1.59,2,2,0,0,1,2,.9,8.51,8.51,0,0,0,5.52,3.49,7.88,7.88,0,0,0,2.31-.18,8,8,0,0,1,2.73-.15c2.74.93,3.85,2.23,5.63,5.44a2.87,2.87,0,0,1-.6,3.58A8.39,8.39,0,0,1,60.76,201.41Zm-3.44-1.89a7,7,0,0,0,8.2-1,1.87,1.87,0,0,0,.38-2.33c-1.71-3.07-2.62-4.15-5-5a7.51,7.51,0,0,0-2.31.18,8.84,8.84,0,0,1-2.64.18,9.53,9.53,0,0,1-6.18-3.91,1,1,0,0,0-1-.49,1.19,1.19,0,0,0-.88.85,1,1,0,0,0,.45,1,33,33,0,0,1,5.56,5.68,17.82,17.82,0,0,1,1,1.6A8.46,8.46,0,0,0,57.32,199.52Zm15.75-20.09a3.15,3.15,0,0,1-.44,0h0c-4.34-.95-8.5-4.4-10.86-9l-.12-.27c-.71-1.65-2-4.71-1.1-6.35a2,2,0,0,1,1.56-1,2.13,2.13,0,0,1,1.81.78,31.79,31.79,0,0,0,6.07,5.8,17.74,17.74,0,0,0,3,1.73c.7.35,1.43.7,2.13,1.12a6.52,6.52,0,0,1,1.84,2.74,2.7,2.7,0,0,1-.38,2.79A4.69,4.69,0,0,1,73.07,179.43Zm-.29-1a3.67,3.67,0,0,0,3-1.29,1.7,1.7,0,0,0,.24-1.8,5.69,5.69,0,0,0-1.48-2.3c-.61-.36-1.31-.7-2-1a17.89,17.89,0,0,1-3.17-1.83,32.93,32.93,0,0,1-6.26-6,1,1,0,0,0-.93-.42.93.93,0,0,0-.79.48c-.68,1.2.65,4.29,1.15,5.45l.11.25C64.84,174.26,68.73,177.52,72.78,178.41Zm14.74-18.08a8.29,8.29,0,0,1-6.64-4A17.72,17.72,0,0,1,79,151.62a22.51,22.51,0,0,0-1.27-3.51v0A2.51,2.51,0,0,1,78,145.3a2.77,2.77,0,0,1,2.79-.76,2.51,2.51,0,0,1,1.7,2.24c.2,2.28,2.21,3.46,4.15,4.61a21.54,21.54,0,0,1,2,1.25,13,13,0,0,1,2.51,2.89,2.91,2.91,0,0,1-1.22,4.3A6,6,0,0,1,87.52,160.33Zm-8.94-12.65a22.55,22.55,0,0,1,1.32,3.65,17.28,17.28,0,0,0,1.82,4.5c1.56,2.46,4.82,4.38,7.79,3.08a1.92,1.92,0,0,0,.79-2.82,11.59,11.59,0,0,0-2.3-2.66,20.11,20.11,0,0,0-1.86-1.18c-2.06-1.22-4.39-2.59-4.63-5.36a1.48,1.48,0,0,0-1-1.39,1.76,1.76,0,0,0-1.75.47A1.5,1.5,0,0,0,78.58,147.68Zm81.51,6.72c-2.28,0-4-2.79-4-6.5s1.72-6.5,4-6.5,4,2.8,4,6.5S162.37,154.4,160.09,154.4Zm0-12c-1.69,0-3,2.42-3,5.5s1.31,5.5,3,5.5,3-2.41,3-5.5S161.77,142.4,160.09,142.4Zm-29,12c-2.28,0-4-2.79-4-6.5s1.72-6.5,4-6.5,4,2.8,4,6.5S133.37,154.4,131.09,154.4Zm0-12c-1.69,0-3,2.42-3,5.5s1.31,5.5,3,5.5,3-2.41,3-5.5S132.77,142.4,131.09,142.4Z"/></g><g id="reenK_ds"><path class="cls-1" d="M271.41,223.87c3.38,0,16-13.06,31.92-13.06,17.66,0,30.23,18.14,30.23,30,0,14-18.62,29.74-37,29.74-5.08,0-8.22-2.66-8.22-7.25,0-7.26-2.18-11.61-7-11.61-3.62,0-6,2.66-6,8,0,19.83,5.56,36.76,5.56,60.46,0,13.3-7.26,21.53-19.83,21.53-20.8,0-42.56-8.23-42.56-18.63,0-7.74,2.17-18.62,2.17-26.84,0-47.64-10.15-47.16-10.15-57.56,0-11.85,35.3-24.91,46.19-24.91C266.09,213.71,267.78,223.87,271.41,223.87Z"/><path class="cls-1" d="M261,344.14c-21.76,0-45.06-8.48-45.06-21.12A121.43,121.43,0,0,1,217,309.71a128.69,128.69,0,0,0,1.09-13.53c0-31.92-4.5-41.58-7.49-48-1.43-3.07-2.66-5.72-2.66-9.59,0-14.13,37.78-27.41,48.69-27.41,7.07,0,10.58,4.72,12.9,7.84a15.23,15.23,0,0,0,1.89,2.27,35.29,35.29,0,0,0,4.35-2.62c5.93-3.89,15.86-10.39,27.53-10.39,19,0,32.73,19.41,32.73,32.49,0,15.67-20.3,32.24-39.5,32.24-6.51,0-10.72-3.82-10.72-9.75s-1.52-9.11-4.52-9.11c-2.35,0-3.54,1.84-3.54,5.48,0,9.3,1.25,18,2.57,27.13,1.47,10.22,3,20.77,3,33.33C283.34,334.94,274.78,344.14,261,344.14Zm-4.35-127.93c-11.1,0-43.69,13.22-43.69,22.41,0,2.76.87,4.63,2.19,7.47,3.17,6.8,8,17.06,8,50.09a128.49,128.49,0,0,1-1.13,14.1A119.06,119.06,0,0,0,221,323c0,8.14,19.84,16.12,40.06,16.12,11,0,17.33-6.93,17.33-19s-1.5-22.58-2.94-32.61c-1.35-9.36-2.62-18.2-2.62-27.85,0-7.73,4.41-10.48,8.54-10.48,3.56,0,9.52,1.83,9.52,14.11,0,3.93,3.11,4.75,5.72,4.75,17.77,0,34.5-15.35,34.5-27.24,0-10.81-11.91-27.49-27.73-27.49-10.18,0-19,5.76-24.79,9.57-3.32,2.18-5.32,3.49-7.13,3.49-2.65,0-4.28-2.2-5.87-4.34C263.42,219.17,261.22,216.21,256.66,216.21Z"/><path class="cls-1" d="M450.13,255.31c0,30-67,25.15-67,35.55,0,4.59,4.11,9.19,16.69,9.19,16.2,0,26.6-14,33.13-14,7.74.73,19.59,14.27,19.59,23.7,0,10.4-24.67,29.26-56.83,29.26-36.28,0-65.54-23.45-65.54-61.42,0-38.7,28.78-66,66.74-66C430.54,211.54,450.13,230.64,450.13,255.31ZM398.86,243.7c-11.13,0-22,7-22,13.78a3.93,3.93,0,0,0,3.87,3.63c9.19,0,27.09-7,27.09-10.88C407.81,246.6,404.42,243.7,398.86,243.7Z"/><path class="cls-1" d="M395.72,341.48c-18.66,0-35.72-6.07-48.05-17.11-13.08-11.71-20-27.9-20-46.81,0-19.27,7.06-36.78,19.89-49.31,12.67-12.39,30.2-19.21,49.35-19.21,33.32,0,55.71,18.59,55.71,46.27,0,20.94-27.88,26.28-48.24,30.17-7.15,1.37-17.95,3.44-18.76,5.43,0,4.14,5.31,6.64,14.2,6.64,9.14,0,16.41-4.93,22.26-8.89,4.22-2.87,7.56-5.14,10.87-5.14h.23c9.4.88,21.86,15.81,21.86,26.19C455.05,322.26,428.47,341.48,395.72,341.48ZM396.92,214c-37.22,0-64.24,26.71-64.24,63.52,0,34.69,25.92,58.92,63,58.92a77.82,77.82,0,0,0,39.2-10.38c10.39-6.14,15.13-12.79,15.13-16.38,0-8.21-10.91-20.46-17.2-21.2-1.78.08-4.78,2.12-8,4.27-6.07,4.12-14.38,9.76-25.06,9.76-6.29,0-11.15-1.11-14.44-3.29a9.91,9.91,0,0,1-4.75-8.4c0-5.92,9.08-7.66,22.81-10.29,18.65-3.57,44.18-8.45,44.18-25.26C447.63,230.62,427.25,214,396.92,214Zm-16.2,49.57a6.42,6.42,0,0,1-6.37-6.13c0-8.37,11.91-16.28,24.51-16.28,7.51,0,11.45,4.54,11.45,9C410.31,257.1,388.78,263.61,380.72,263.61Zm18.14-17.41c-10.05,0-19.51,6.36-19.51,11.28a1.5,1.5,0,0,0,1.37,1.13c8.62,0,23-6.18,24.58-8.62C405.13,247.75,402.53,246.2,398.86,246.2Zm6.51,3.66Z"/><path class="cls-1" d="M578.55,255.31c0,30-67,25.15-67,35.55,0,4.59,4.11,9.19,16.68,9.19,16.21,0,26.6-14,33.13-14,7.74.73,19.59,14.27,19.59,23.7,0,10.4-24.66,29.26-56.83,29.26-36.27,0-65.54-23.45-65.54-61.42,0-38.7,28.78-66,66.75-66C559,211.54,578.55,230.64,578.55,255.31ZM527.28,243.7c-11.13,0-22,7-22,13.78a3.93,3.93,0,0,0,3.87,3.63c9.19,0,27.08-7,27.08-10.88C536.22,246.6,532.84,243.7,527.28,243.7Z"/><path class="cls-1" d="M524.13,341.48c-18.65,0-35.71-6.07-48-17.11-13.08-11.71-20-27.9-20-46.81,0-19.27,7.07-36.78,19.89-49.31S506.19,209,525.34,209c33.32,0,55.71,18.59,55.71,46.27,0,20.94-27.88,26.28-48.24,30.17-7.15,1.37-18,3.44-18.76,5.43,0,4.14,5.31,6.64,14.19,6.64,9.15,0,16.42-4.93,22.26-8.89,4.23-2.87,7.57-5.14,10.87-5.14h.24c9.39.88,21.85,15.81,21.85,26.19C583.46,322.26,556.88,341.48,524.13,341.48ZM525.34,214c-37.23,0-64.25,26.71-64.25,63.52,0,34.69,25.93,58.92,63,58.92a77.87,77.87,0,0,0,39.21-10.38c10.39-6.14,15.12-12.79,15.12-16.38,0-8.21-10.9-20.46-17.19-21.2-1.78.08-4.79,2.12-8,4.27-6.07,4.12-14.39,9.76-25.07,9.76-6.29,0-11.15-1.11-14.44-3.29a9.92,9.92,0,0,1-4.74-8.4c0-5.92,9.07-7.66,22.81-10.29,18.64-3.57,44.18-8.45,44.18-25.26C576.05,230.62,555.67,214,525.34,214Zm-16.2,49.57a6.41,6.41,0,0,1-6.37-6.13c0-8.37,11.91-16.28,24.51-16.28,7.51,0,11.44,4.54,11.44,9C538.72,257.1,517.19,263.61,509.14,263.61Zm18.14-17.41c-10,0-19.51,6.36-19.51,11.28a1.48,1.48,0,0,0,1.37,1.13c8.62,0,23-6.18,24.57-8.62C533.54,247.75,530.94,246.2,527.28,246.2Zm6.51,3.66Z"/><path class="cls-1" d="M648.2,233.54c5.56-7.74,22.25-20.55,42.08-20.55,22.49,0,38,12.09,38,31.19,0,19.35-6.53,28.06-6.53,41.6,0,22.73,4.59,24.67,4.59,31.92,0,10.16-23.7,19.59-43.53,19.59-11.85,0-16.69-5.8-16.69-15.23,0-15.48,8.47-38,8.47-54.42,0-9.67-2.66-12.82-7.26-12.82-7.25,0-16.93,9.92-16.93,24.67,0,38.21-1.45,58.53-19.83,58.53-16,0-38.21-8.22-38.21-18.14,0-8,3.63-13.79,3.63-35.79,0-18.14-8.22-34.34-8.22-45.95,0-9.68,24.18-21.77,42.08-21.77C642.15,216.37,645.78,226.29,648.2,233.54Z"/><path class="cls-1" d="M630.54,340.52c-16.2,0-40.71-8.23-40.71-20.64a49.71,49.71,0,0,1,1.2-9.52,124.51,124.51,0,0,0,2.43-26.27c0-9.75-2.5-19.09-4.71-27.34-1.81-6.75-3.51-13.12-3.51-18.61,0-11.72,26.16-24.27,44.58-24.27,11.76,0,16.67,8.14,19.27,14.72,7.67-8.1,23.09-18.1,41.19-18.1,24.2,0,40.47,13.54,40.47,33.69,0,10.86-2,18.52-3.78,25.27-1.48,5.63-2.75,10.48-2.75,16.33,0,14.15,1.8,19.94,3.12,24.17a24.26,24.26,0,0,1,1.47,7.75c0,12.24-25.18,22.09-46,22.09-15.86,0-19.19-9.64-19.19-17.73,0-7.9,2-17.15,4.2-26.95,2.1-9.53,4.27-19.39,4.27-27.47,0-10.32-3.09-10.32-4.76-10.32-5.74,0-14.43,8.85-14.43,22.17,0,21.23-.49,34.56-3.1,44.25C646.67,335.18,640.57,340.52,630.54,340.52Zm-.72-121.65c-17.47,0-39.58,11.95-39.58,19.27,0,4.83,1.55,10.62,3.34,17.32,2.29,8.54,4.88,18.22,4.88,28.63a128.66,128.66,0,0,1-2.52,27.2,45.39,45.39,0,0,0-1.11,8.59c0,7.16,19.36,15.64,35.71,15.64,15.62,0,17.33-17.94,17.33-56,0-15.55,10.26-27.17,19.43-27.17,9.76,0,9.76,11.53,9.76,15.32,0,8.62-2.23,18.75-4.39,28.55-2.1,9.52-4.08,18.52-4.08,25.87,0,8.68,4.51,12.73,14.19,12.73,19.17,0,41-9.1,41-17.09a19.62,19.62,0,0,0-1.25-6.26c-1.41-4.54-3.34-10.75-3.34-25.66,0-6.49,1.41-11.89,2.91-17.6,1.78-6.77,3.62-13.79,3.62-24,0-17.43-13.93-28.69-35.47-28.69-19.66,0-35.48,13.14-40,19.51l-2.86,4-1.54-4.64C643.11,226.19,639.84,218.87,629.82,218.87Z"/><path class="cls-1" d="M806.85,182c0,9.92-9.92,25.39-9.92,44.74,0,2.9,1.21,4.35,2.66,4.35,3.87,0,11.37-9.91,19.11-23.94,7.74-14.27,12.57-26.12,13.06-31.92s4.59-8.71,9.91-8.71c16,0,43.05,16.69,43.05,32.65,0,15.72-43.05,55.14-43.05,55.14s11.61,2.18,20.07,14.51,13.06,27.57,20.08,29.51c6.53,1.93,10.64,7.73,10.64,13.3,0,15.72-34.1,25.63-47.64,25.63-8.23,0-15.24-2.66-21.29-18.14s-11.36-34.58-19.1-34.58c-3.87,0-8,1.69-8,8.47,0,18.86,8.7,31.92,8.7,37.48,0,4.11-7,9.67-33.13,9.67-15.72,0-23.94-5.32-27.57-16.92-2.42-7.74-6-26.61-6-57.8,0-43.05,2.9-71.11,10.15-77.15,9.44-8,34.59-15,46.68-15C803.46,173.32,806.85,177.44,806.85,182Z"/><path class="cls-1" d="M772,342.69c-16.68,0-25.92-5.76-29.95-18.68-1.45-4.62-6.16-22.5-6.16-58.54,0-62.62,6.31-75.12,11.05-79.07,9.74-8.24,35.11-15.58,48.28-15.58,10.41,0,14.11,6,14.11,11.21,0,4.55-1.8,9.85-3.87,16-2.84,8.39-6.05,17.89-6.05,28.75a3.94,3.94,0,0,0,.33,1.82c1.49-.43,7.11-5.15,16.75-22.62,7.41-13.67,12.31-25.52,12.76-30.92.55-6.68,5.42-11,12.4-11,16.73,0,45.55,17.37,45.55,35.15,0,14.32-30.21,44.13-40.72,54.06a38.83,38.83,0,0,1,17.31,14.18A143.54,143.54,0,0,1,872,281.53c3.65,6.93,7.1,13.47,10.51,14.42,7.25,2.14,12.48,8.74,12.48,15.71,0,18.46-37.26,28.13-50.14,28.13-8.26,0-16.84-2.39-23.61-19.73-1.1-2.79-2.18-5.74-3.22-8.58-4-10.88-9-24.41-13.56-24.41-3.79,0-5.48,1.84-5.48,6,0,11.77,3.51,21.16,6.07,28,1.53,4.09,2.63,7.05,2.63,9.46C807.65,335.07,803,342.69,772,342.69Zm23.22-166.87c-12,0-36.46,7.13-45.06,14.41-4.24,3.53-9.27,19.44-9.27,75.24,0,28.07,3.06,47.88,5.93,57,3.32,10.64,10.85,15.17,25.18,15.17,25.13,0,30.63-5.18,30.63-7.17,0-1.51-1.07-4.38-2.31-7.71C797.79,316,794,305.71,794,293c0-6.87,3.92-11,10.48-11,8.1,0,12.8,12.83,18.25,27.69,1,2.82,2.11,5.74,3.18,8.48,6,15.29,12.37,16.55,19,16.55,13.46,0,45.14-9.77,45.14-23.13,0-4.12-3-9.19-8.85-10.91-5.46-1.5-9-8.29-13.57-16.89a135.2,135.2,0,0,0-7.86-13.59C852,259,841.31,256.82,841.2,256.8l-4.86-1L840,252.5c11.75-10.76,42.24-41.31,42.24-53.3,0-13.69-24.9-30.15-40.55-30.15-2.57,0-7,.84-7.42,6.42-.52,6.22-5.39,18.21-13.35,32.9-9.25,16.76-16.42,25.25-21.31,25.25-2.57,0-5.16-2.11-5.16-6.85,0-11.68,3.5-22,6.31-30.35,1.94-5.72,3.61-10.66,3.61-14.39C804.35,178.09,801,175.82,795.24,175.82Z"/><path class="cls-1" d="M1098,172.84c0,24.43-8,68.68-8,102.78,0,26.85,11.12,27.57,11.12,36.76,0,9.43-23.7,26.12-39.17,26.12-9.68,0-11.13-11.12-16-11.12s-12.82,10.88-38,10.88c-27.33,0-47.16-27.57-47.16-56.35,0-42.56,33.13-67.23,55.86-67.23,15.48,0,23.22,6.53,26.36,6.53,2.18,0,3.63-1.69,3.63-6.29,0-16.44-8.46-31.68-8.46-40.87,0-8.22,27.08-21.28,41.83-21.28C1092.22,152.77,1098,159.54,1098,172.84Zm-68,121.16c7.5,0,13.55-6.77,13.55-18.14,0-13.54-4.84-18.13-11.13-18.13-7.25,0-14.75,10.15-14.75,21.52C1017.73,288,1022.33,294,1030.06,294Z"/><path class="cls-1" d="M1062,341c-6.92,0-10.36-4.61-12.88-8-1.09-1.47-2.34-3.13-3.08-3.13s-2.59,1-4.46,2.08c-5.75,3.29-15.36,8.8-33.51,8.8-13.65,0-26.35-6.51-35.78-18.32a66,66,0,0,1-13.88-40.53c0-19.7,7.14-37.92,20.11-51.32,11-11.35,25.66-18.41,38.25-18.41a52.81,52.81,0,0,1,23,5.25,18.31,18.31,0,0,0,3.35,1.28c1,0,1.12-2.9,1.12-3.79,0-9-2.67-17.73-5-25.4-1.84-6-3.43-11.16-3.43-15.47,0-10.7,29.68-23.78,44.33-23.78,9.31,0,20.4,3.91,20.4,22.57,0,11.33-1.7,26.95-3.51,43.47-2.09,19.21-4.47,41-4.47,59.31,0,16.17,4,22.12,7.27,26.9,2,2.94,3.85,5.7,3.85,9.86C1103.66,323.62,1078.35,341,1062,341Zm-16-16.12c3.25,0,5.21,2.61,7.09,5.15,2.29,3.07,4.45,6,8.87,6,15.36,0,36.67-16.4,36.67-23.62,0-2.62-1.19-4.38-3-7.05-3.43-5.07-8.13-12-8.13-29.71,0-18.6,2.39-40.51,4.5-59.85,1.79-16.39,3.48-31.87,3.48-42.93,0-12-4.89-17.57-15.4-17.57-6.49,0-16.44,2.86-25.33,7.29-10.27,5.12-14,9.68-14,11.49,0,3.56,1.49,8.4,3.21,14,2.46,8,5.25,17.09,5.25,26.87,0,7.65-3.84,8.79-6.13,8.79-1.5,0-3.12-.72-5.37-1.72a47.89,47.89,0,0,0-21-4.81c-22.28,0-53.36,24.62-53.36,64.73,0,26,17.94,53.85,44.66,53.85,16.82,0,25.71-5.09,31-8.14C1041.87,326,1043.89,324.88,1046,324.88Zm-16-28.38c-8.87,0-14.83-6.93-14.83-17.25,0-12.57,8.22-24,17.25-24,5.09,0,13.63,2.68,13.63,20.63C1046.11,288,1039.51,296.5,1030.06,296.5Zm2.42-36.27c-5.51,0-12.25,8.78-12.25,19,0,5.92,2.58,12.25,9.83,12.25,6.61,0,11-6.28,11-15.64C1041.11,265.49,1038.2,260.23,1032.48,260.23Z"/><path class="cls-1" d="M1191.61,259.66c-6.29,0-13.06-16.44-23.21-16.44a5.53,5.53,0,0,0-5.81,5.56c0,15.23,52,18.62,52,52.72,0,19.83-18.62,39.66-48.13,39.66-33.86,0-61.67-18.86-61.67-28.29,0-11.37,15.72-26.85,24.67-26.85,7,0,14.51,17.9,28.78,17.9a6.36,6.36,0,0,0,6-6.29c0-13.54-47.4-14-47.4-51,0-21.28,18.62-35.79,49.34-35.79s46,16.45,46,23.7C1212.17,243.22,1199.11,259.66,1191.61,259.66Z"/><path class="cls-1" d="M1166.46,343.66c-34.18,0-64.17-19.19-64.17-30.79,0-12.95,16.85-29.35,27.17-29.35,3.94,0,7.28,3.42,11.15,7.37,4.82,4.93,10.29,10.53,17.63,10.53a3.87,3.87,0,0,0,3.54-3.79c0-3.53-6.35-6.6-13.71-10.15-14.22-6.86-33.69-16.25-33.69-40.88,0-23.26,20.35-38.29,51.84-38.29,31.81,0,48.45,17.06,48.45,26.2,0,9.52-13.78,27.65-23.06,27.65-3.88,0-7-3.52-10.69-7.59s-8-8.85-12.52-8.85a3,3,0,0,0-3.31,3.06c0,4.56,8.25,8.71,17,13.11,14.78,7.44,35,17.63,35,39.61C1217.09,322.22,1198.15,343.66,1166.46,343.66Zm-37-55.14c-7.63,0-22.17,14.55-22.17,24.35,0,7.27,26.24,25.79,59.17,25.79,28.56,0,45.63-18.89,45.63-37.16,0-18.9-17.9-27.91-32.27-35.15-10.59-5.32-19.73-9.93-19.73-17.57a8,8,0,0,1,8.31-8.06c6.79,0,12,5.83,16.24,10.51,2.49,2.78,5.32,5.93,7,5.93,5.91,0,18.06-15.24,18.06-22.65,0-5.11-13.07-21.2-43.45-21.2-28.45,0-46.84,13.07-46.84,33.29,0,21.49,17.11,29.74,30.86,36.37,9.24,4.46,16.54,8,16.54,14.66a8.9,8.9,0,0,1-8.54,8.79c-9.44,0-16-6.67-21.21-12C1134.21,291.5,1131.3,288.52,1129.46,288.52Z"/></g><g id="i"><path class="cls-1" d="M946.91,180.6a51.51,51.51,0,0,0-32.69,97.23q2.29,1,4.72,1.82c1.41.46,2.86.87,4.33,1.21,1.14.28,2.28.5,3.43.69,1.68.28,3.34.47,5,.58A51.51,51.51,0,0,0,946.91,180.6Zm33.44,60.81a46.5,46.5,0,1,1-34.59-55.93A46.54,46.54,0,0,1,980.35,241.41Z"/><path class="cls-1" d="M945.76,185.48a46.5,46.5,0,1,0,34.59,55.93A46.54,46.54,0,0,0,945.76,185.48ZM973.12,240A39.17,39.17,0,1,1,944,192.92,39.22,39.22,0,0,1,973.12,240Z"/><path class="cls-1" d="M935.15,278.25a48.16,48.16,0,0,1-11-1.28A47.5,47.5,0,0,1,946,184.5h0a47.52,47.52,0,0,1-10.84,93.75Zm-.12-93a45.56,45.56,0,1,0,10.5,1.23h0A45.76,45.76,0,0,0,935,185.22Zm0,86a40.16,40.16,0,1,1,39.06-31h0a40.27,40.27,0,0,1-39.06,31ZM935,192.86a38.17,38.17,0,1,0,37.2,46.95h0a38.22,38.22,0,0,0-28.39-45.92A38.33,38.33,0,0,0,935,192.86Z"/><path class="cls-1" d="M944,192.92A39.18,39.18,0,1,0,973.12,240,39.21,39.21,0,0,0,944,192.92Zm24.27,46a34.18,34.18,0,1,1-25.42-41.11A34.21,34.21,0,0,1,968.26,238.89Z"/><path class="cls-3" d="M930.92,288.82l-.75-.18-4.87-1.14-7.78-1.83-4.06-1a6.17,6.17,0,0,0-.82-.15,9.21,9.21,0,0,0-10,6l-13.9,40.95a12.55,12.55,0,0,0,.65,10.06,9.19,9.19,0,0,0,5.94,4.58l23.6,5.56a9.19,9.19,0,0,0,7.37-1.43,12.64,12.64,0,0,0,5.18-8.66l6.36-42.73A9.1,9.1,0,0,0,930.92,288.82Zm2,9.35-6.36,42.72a7.8,7.8,0,0,1-3,5.27,4.24,4.24,0,0,1-3.41.69l-23.6-5.55a4.22,4.22,0,0,1-2.71-2.13,7.63,7.63,0,0,1-.29-6l13.9-40.95a4.22,4.22,0,0,1,4.91-2.6l17.46,4.11A4.12,4.12,0,0,1,932.92,298.17Z"/><polygon class="cls-1" points="919.35 277.89 918.94 279.64 917.52 285.67 916.83 288.59 911.96 287.44 912.64 284.56 914.22 277.83 914.48 276.73 919.35 277.89"/><path class="cls-1" d="M926.7,281.55l-1.4,6-7.78-1.84,1.42-6c1.41.46,2.86.87,4.33,1.21C924.41,281.14,925.55,281.36,926.7,281.55Z"/><path class="cls-1" d="M926.05,288.71l-9.73-2.3,1.89-8.05,1,.34c1.4.45,2.83.85,4.25,1.19,1,.25,2.15.47,3.37.67l1,.18Zm-7.33-3.78,5.84,1.37.93-3.95c-.86-.16-1.67-.33-2.45-.51-1.13-.27-2.26-.58-3.38-.92Z"/><polygon class="cls-1" points="932 280.87 931.7 282.13 930.16 288.64 929.48 291.57 924.61 290.43 925.3 287.5 926.7 281.55 927.14 279.72 932 280.87"/><path class="cls-1" d="M929.77,293.69l-17.46-4.11a4.22,4.22,0,0,0-4.91,2.6l-13.9,40.95a7.63,7.63,0,0,0,.29,6,4.22,4.22,0,0,0,2.71,2.13l23.6,5.55a4.24,4.24,0,0,0,3.41-.69,7.8,7.8,0,0,0,3-5.27l6.36-42.72A4.12,4.12,0,0,0,929.77,293.69Zm-31.09,41.37,12.79-41.16,2.87.88L901.54,336Zm9.48,3.37,10.1-42.82,2.92.69-10.11,42.82Zm13.64,2.1-3-.48,6.95-42.55,3,.49Z"/><path class="cls-1" d="M994,375.92c-5,1.11-16.12,3.16-21.67,1.26-8.19-2.81-12.71-17.68-13.42-44.26l18.89,34.29a1.52,1.52,0,0,0,1.32.77,1.57,1.57,0,0,0,.72-.18,1.51,1.51,0,0,0,.59-2l-18.11-32.87a120.22,120.22,0,0,1,31.68,43Z"/><path class="cls-1" d="M947.89,365.82c-3.89,7.91-12.54,10.77-17.08,11.75,1.4-9.15,4.72-16.89,9.88-23.05a40.43,40.43,0,0,1,4.6-4.84l-7.06,12.85a1.5,1.5,0,0,0,.59,2,1.57,1.57,0,0,0,.72.18,1.52,1.52,0,0,0,1.32-.77l8-14.52a6.24,6.24,0,0,1,.35.73C950.59,353.6,950.49,360.55,947.89,365.82Z"/></g></svg>